<?xml version="1.0" encoding="UTF-8" standalone="no"?>
<svg version = "1.1"
     baseProfile="full"
     xmlns = "http://www.w3.org/2000/svg"     
     height = "128px" width = "128px">    

    <!-- <g stroke="pink" stroke-width="0.5">
        <rect x="0" y="0" height="128" width="128" fill="none"/>
	</g> -->

    <g stroke="black" stroke-width="1.5">
        <rect x="25" y="38" height="20" width="20" fill="yellow" fill-opacity="0.5"/>
        <rect x="65" y="38" height="20" width="25" fill="yellow" fill-opacity="0.5"/>  

        <rect x="20" y="58" height="20" width="25" fill="yellow" fill-opacity="0.5"/>  
        <rect x="65" y="58" height="20" width="20" fill="yellow" fill-opacity="0.5"/>  

        <rect x="45" y="38" height="40" width="20" fill="green" fill-opacity="0.3"/>

        <path d="M 42,38 a 13,6 0 1,1 26,0" fill="green" fill-opacity="0.3"/>   <!-- дуга от 9 (лево) до 3 (право) -->
        <path d="M 42,78 a 13,6 0 1,0 26,0" fill="green" fill-opacity="0.3"/>   <!-- дуга от 9 (лево) до 3 (право) -->
	</g>

    <path d="M 19 58 l -5 2, m 5 3, l -5 2, m 5 3, l -5 2, m 5 3, l -5 2, m 5 3, l -5 2" stroke="red" stroke-width="0.5"/> <!-- штриховка слева -->

        <!-- Стрелка  -->
    <g stroke="red" stroke-width="3">
		<line x1="93" y1="48" x2="106" y2="48"/>    <!-- сила F -->
    </g>
        <!-- треугольник стрелки -->
    <path d="M 116,48 l -10,3 0,-6 Z" stroke="red" stroke-width="0.5" fill="red" fill-opacity="0.9"/>

    <g font-family="monospace" fill="blue">	
        <text x="96" y="80" style="font-size:35">F</text>		
    </g>
</svg>