<?xml version="1.0" encoding="UTF-8" standalone="no"?>
<svg version = "1.1"
     baseProfile="full"
     xmlns = "http://www.w3.org/2000/svg"     
     height = "460px" width = "1015px">    

<!-- Габарит рисунка -->
<!-- <g stroke="red" stroke-width="1.0">
<rect x="0" y="0" height="460" width="1015" fill="none" stroke-dasharray="20,4,5,4"/> -->
<!-- </g> -->

<g stroke-width="6" fill-opacity="0.5" >
 
<!-- Корпус с верхней правой частью и с левым ребром -->
<path
   stroke="black"
   stroke-opacity="1.0"
   fill="lightgreen"
   d="M 8,434 h747 v-23 h-55 v-45 h-24 v30 h-539 V107 H113 V411 H8 z
   M 676,234 V107 H700 V234 z
   M 14,411 L113,112 "
id="path2" />

<!-- Гайка с ребрами -->
<path
   stroke="black"
   stroke-opacity="1.0"
   fill="lightblue"
   d="M 676,366 h68 v-132 h-68 z
   M 740,234 L700,110
   M 740,366 L748,411 "
id="path4" />

<!-- Клин верхний (для перемещения клина меняем значения M 144,171 -->
<path
   stroke="black"
   stroke-opacity="1.0"
   fill="yellow"
   d="M 144,171 h525 v39 l-525,119 z "
id="path6" />

<!-- Клин нижний (для перемещения клина меняем значения M 280,389 -->
<path
   stroke="black"
   stroke-opacity="1.0"
   fill="red"
   d="M 280,389 h265 v-143 l-265,60 z "
id="path8" />

<!-- Винт в сборе -->
<path
   stroke="black"
   stroke-opacity="1.0"
   fill="lightyellow"
   d="M 820,260 h60 v80 h-60 z 
   M 820,280 h-76 v40 h76 z 
   M 676,280 h-110 v40 h110 z
   M 566,280 A7,10 0 1 0 566,320
   M 840,260 v-170 h20 v170 z "
id="path10" />

<!-- Осевая линия -->
<path
   stroke-dasharray="20,4,5,4"
   stroke-width="1.5"
   stroke="red"
   stroke-opacity="1.0"
   d="M 548,300 h380 "
id="path12" />

</g> <!-- <g stroke-width="6" fill-opacity="0.5" > -->


<!-- Размер -->
<path
   stroke-width="1.5"
   stroke="red"
   stroke-opacity="1.0"
   fill="red"
   fill-opacity="1.0"
   d="M 860,90 h68
   M 920,90 l-3.35,15 l6.7,0 z
   m 0,210 l-3.35,-15 l6.7,0 z
   m 0,-15 v-180 
   "   
id="path14" />

<!-- Размер угла ( линия ) -->
<path
   stroke-width="1.5"
   stroke="red"
   stroke-opacity="1.0"
   fill="none"
   d="M 194.39,317.58 A 5,45 -12.7 0 1 212.17,396"
id="path16" />

<!-- Размер угла ( стрелки ) -->
<path
   stroke-width="1.5"
   stroke="red"
   stroke-opacity="1.0"
   fill="red"
   d="M 194.39,317.58  l 1.93,15.24  l 6.26,-2.24 z
   M 212.17,396  l -4.83,-14.58  l 6.62,-0.68 z
   "
id="path18" />

<!-- Стрелка силы -->
<path
   stroke-width="3.5"
   stroke="red"
   stroke-opacity="1.0"
   fill="red"
   fill-opacity="1.0"
   stroke-linejoin="round"
   d="M 850,86 l17.28,-11 l-6.27,-6.27 Z
   m 14.14,-14.14 l17.68,-17.68

   M 416,120 l-4.43,20 l8.86,0 Z
   m 0,20 v25 
   
   M 580,300 l20,-4.43 v8.86 Z
   m 20,0 h25   
   "   
id="path20" />

<!-- Буквы F and L -->
<g font-family="Arial" fill="red">	
<text x="926" y="200" font-size="40">L</text>
<text x="950" y="203" font-size="20">lever</text>
<text x="827" y="57"  font-size="40">F</text>
<text x="845" y="61"  font-size="20">in</text>
<text x="595" y="355" font-size="40">F</text>
<text x="613" y="359" font-size="20">out</text>
<text x="425" y="155" font-size="40">F</text>
<text x="443" y="159" font-size="20">out-2</text>
<text x="215" y="363" font-size="40">&#946;</text>
</g>

<!-- Force Device -->

</svg>