<?xml version="1.0" encoding="UTF-8" standalone="no"?>
<svg version = "1.1"
     baseProfile="full"
     xmlns = "http://www.w3.org/2000/svg"     
     width = "128px" height = "128px">
      <!-- Габарит рисунка -->
<!-- <g stroke="grey" stroke-width="1.0" fill="none">
<rect x="0.5" y="0.5" width="127.5" height="127.5"/>
</g> -->
      <!-- path = Контур (линия) стены -->
<path
   stroke="darkblue"
   stroke-width="5.0"
   d="M12,20 v100 "
/>
      <!-- path = Штриховка стены -->
<path
   stroke="red"
   stroke-width="1.0"
   d="M10,23  l-7,7 m7,3  l-7,7 m7,3  l-7,7 m7,3  l-7,7 m7,3  l-7,7 m7,3  l-7,7 m7,3  l-7,7 m7,3  l-7,7 m7,3  l-7,7 m7,3  l-7,7 m7,3 "
/>
      <!-- path = Контур основной без заливки -->
<path
   stroke="darkgreen"
   stroke-width="3.0"
   fill="none"
   d="M14,41  h98 l-98,59 "
/>
      <!-- path = Кружки с заливкой -->
<g stroke="black" stroke-width="0.5px" fill-opacity="0.6">
   <circle cx="12px"  cy="41px" r="5px" fill="red"   />
   <circle cx="113px" cy="41px" r="5px" fill="blue"  />
   <circle cx="12px"  cy="100px" r="5px" fill="green" />
</g>
      <!-- Стрелка силы -->
<path
   stroke-width="1.5"
   stroke="red"
   stroke-opacity="1.0"
   fill="red"
   fill-opacity="1.0"
   stroke-linejoin="round"
   d="M113,35 l-2,-8 l4,0 Z
   m 0,-8 v-18
   "
id="path20" />
      <!-- Буквы F and  -->
<g font-family="Arial" fill="red">	
   <text x="95"  y="27"  font-size="24">F</text>
   <text x="60"  y="59"  font-size="24">&#945;</text>
   <text x="17"  y="36"  font-size="22">C</text>
   <text x="107" y="65"  font-size="22">B</text>
   <text x="17"  y="120" font-size="22">D</text>
</g>
</svg>
