<svg xmlns="http://www.w3.org/2000/svg" xml:space="preserve" width="163.839" height="163.839" style="shape-rendering:geometricPrecision;text-rendering:geometricPrecision;image-rendering:optimizeQuality;fill-rule:evenodd;clip-rule:evenodd" viewBox="0 0 4334.92 4334.92"><defs><style>.fil3{fill:#ff465c}</style></defs><g id="Слой_x0020_1"><g id="_2657814376176"><path d="M808.97 99.76h2716.85c390.21 0 709.21 319.12 709.21 709.33v2716.84c0 390.08-319 709.07-709.21 709.07H808.97c-390.01 0-709.2-318.99-709.2-709.07V809.09c0-390.21 319.19-709.33 709.2-709.33z" style="fill:#fefefe"/><path d="M743.44 0h2848.09c408.83 0 743.4 334.54 743.4 743.56v2847.96c0 408.82-334.57 743.39-743.4 743.39H743.44C334.63 4334.91 0 4000.34 0 3591.52V743.56C0 334.54 334.63 0 743.44 0zm850.02 322.87h1148.06c131.12 0 238.36 107.24 238.36 238.42v793.66h793.86c130.91 0 238.29 107.3 238.29 238.49v1148.13c0 130.92-107.38 238.42-238.29 238.42h-793.86v793.48c0 131.17-107.24 238.61-238.36 238.61H1593.46c-131.04 0-238.48-107.44-238.48-238.61v-793.48H561.42c-131.29 0-238.59-107.5-238.59-238.42V1593.44c0-131.19 107.3-238.49 238.59-238.49h793.56V561.29c0-131.18 107.44-238.42 238.48-238.42z" style="fill:#1c257b"/><path d="M2673.38 2208.19h-42.03c-18.06 0-33.37 1.36-45.87 3.85-12.57 2.87-22.91 6.63-30.69 12.06-8.1 5.3-13.71 11.74-17.47 19.13-3.84 7.47-5.43 16.08-5.43 25.59 0 16.59 5.04 29.53 15.57 38.72 10.39 9.64 24.69 14.25 43.25 14.25 15.69 0 29.98-4.04 43.06-11.96 12.95-7.71 26.22-19.57 39.61-34.76v-66.88zm108.72 168.01c0 4.27-1.45 7.33-4.53 9.89-2.74 2.17-7.45 3.63-13.78 4.97-6.38 1.01-15.69 1.53-28 1.53-13.01 0-22.78-.52-28.71-1.53-5.94-1.34-10.16-2.8-12.82-4.97-2.31-2.56-3.64-5.62-3.64-9.89v-31.21c-16.27 17.23-34.65 30.88-55.12 40.45-20.88 9.7-43.83 14.48-68.91 14.48-20.93 0-40.01-2.6-57.48-7.97-17.36-5.49-32.41-13.54-45.3-24.18-12.83-10.79-22.58-24.04-29.86-39.87-6.88-15.82-10.46-34.39-10.46-55.38 0-22.98 4.53-42.88 13.46-59.59 9.11-17.11 22.33-30.76 40.07-41.92 17.8-11.03 39.82-18.87 66.22-24.3 26.48-5.28 57.03-8.1 91.87-8.1l38.27-.08v-23.46c0-12.51-1.14-23.23-3.69-32.35-2.43-9.19-6.62-16.85-12.24-23.24-5.88-6.11-13.53-10.52-22.9-13.52-9.58-2.81-21.46-4.27-35.36-4.27-18.43 0-35.08 1.78-49.63 6.13-14.43 4.02-27.32 8.42-38.47 13.64a543.214 543.214 0 0 0-27.95 13.34c-7.46 4.28-13.39 6.13-18.37 6.13-3.06 0-5.93-.76-8.42-2.81-2.49-2.11-4.53-4.91-6.12-8.87-1.53-3.83-2.88-8.56-3.84-14.03-.9-5.68-1.14-11.75-1.14-18.63 0-8.8.57-16.07 2.1-21.57 1.53-5.1 4.41-9.81 8.24-14.28 4.26-4.22 11.47-8.8 21.43-13.92 10.52-5.09 22.65-9.83 36.43-14.28 13.71-4.35 28.71-8.16 44.92-10.99 16.33-2.54 33.16-3.95 50.34-3.95 30.61 0 57.21 2.94 79.04 9.05 21.82 5.89 39.81 15.32 53.91 27.83 13.97 12.25 24.43 28.33 30.69 47.98 6.37 19.52 9.75 42.87 9.75 69.86v263.88zm-360.78-.83c0 3.04-.96 5.61-2.5 7.9-1.71 1.92-4.58 3.83-8.8 5.16-4.21 1.29-9.89 2.31-17.35 2.88-7.34.96-16.9 1.28-28.58 1.28-12.05 0-21.81-.13-29.28-.89-7.46-.64-13.72-1.73-18.57-2.82-4.78-1.38-8.43-3.18-11.04-5.47-2.74-2.43-5.03-5.49-6.95-9.33l-130.79-206.58v207.23c0 3.19-.7 5.74-2.61 7.91-1.8 2.16-4.78 4.01-9 5.48-4.34 1.4-9.83 2.62-16.84 3.19-7.08.96-15.95 1.28-26.8 1.28-11.03 0-19.9-.32-26.99-1.28-6.89-.57-12.63-1.79-16.83-3.19-4.34-1.47-7.28-3.32-9-5.48-1.91-2.17-2.68-4.72-2.68-7.91v-578.27c0-2.83.77-5.49 2.68-7.79 1.72-2.43 4.66-4.33 9-6.13 4.2-1.28 9.94-2.43 16.83-3.58 7.09-.76 15.96-1.4 26.99-1.4 10.85 0 19.72.64 26.8 1.4 7.01 1.15 12.5 2.3 16.84 3.58 4.22 1.8 7.2 3.7 9 6.13 1.91 2.3 2.61 4.96 2.61 7.79v344.5l116.31-156.05c2.04-3.71 4.78-6.75 7.84-9.3 2.95-2.57 6.83-4.73 11.62-6.26 4.66-1.53 10.91-2.42 17.86-3.19 7.27-.77 16.46-1.02 27.5-1.02 11.1 0 20.16.25 27.55 1.02 7.49.77 13.47 1.66 18.13 3.19 4.53 1.53 7.65 3.43 9.44 5.5 1.73 2.14 2.62 5.09 2.62 8.16 0 4.33-1.09 9.18-3.19 14.28-2.24 4.84-5.69 10.21-10.07 15.56l-114.65 130.28 132.57 205.5c3.83 5.8 6.12 10.71 7.83 14.99 1.54 4.33 2.5 8.3 2.5 11.75zm-521.82-239.89c.89-30.75-5.29-55.31-18.57-73.18-13.46-17.61-34-26.35-61.95-26.35-14.15 0-26.4 2.55-36.55 7.73-10.65 5.28-19.08 12.32-26.03 21.24-6.83 9.11-12.25 19.66-16.01 31.82-3.51 12.27-5.61 25.02-6.12 38.74h165.23zm107.31 32.02c0 13.28-3.06 23.16-9.04 29.74-6.07 6.5-14.18 9.57-24.7 9.57h-238.8c0 16.82 1.78 32.02 5.79 45.6 4.09 13.53 10.28 25.28 18.83 34.71 8.74 9.53 19.77 16.85 33.55 21.77 13.66 4.97 29.99 7.53 49.01 7.53 19.46 0 36.43-1.47 50.84-4.04 14.87-2.99 27.56-5.91 38.22-9.43 10.59-3.38 19.59-6.44 26.55-9.12 7.01-2.87 12.89-4.21 17.15-4.21 2.68 0 4.99.5 6.51 1.53 1.85.9 3.39 2.81 4.66 5.5 1.08 2.54 1.85 6.3 2.3 11.39.57 4.66.7 10.73.7 18.2 0 6.5-.13 11.87-.51 16.33-.26 4.47-.84 8.56-1.21 11.74-.57 3.05-1.41 5.87-2.76 8.09-1.08 2.24-2.6 4.34-4.58 6.32-1.85 2.12-7.02 4.99-15.56 8.44-8.68 3.44-19.4 6.87-32.61 10.34-13.2 3.43-28.33 6.3-45.3 8.61-16.97 2.6-35.22 3.81-54.54 3.81-34.83 0-65.53-4.26-91.74-13.27-26.17-8.48-48.12-22.01-65.8-39.99-17.6-17.87-30.61-40.39-39.23-67.43-8.68-27.51-13.14-59.53-13.14-96.17 0-34.57 4.6-66.2 13.85-94.21 8.93-28.16 22.14-51.75 39.42-71.41 17.42-19.39 38.41-34.18 63.16-44.4 24.89-10.46 52.78-15.44 83.78-15.44 32.97 0 61.06 4.72 84.27 14.43 23.35 9.7 42.62 23.22 57.42 40.32 14.94 17.1 25.91 37.25 32.93 60.91 7.07 23.48 10.58 48.94 10.58 76.26v17.98zm-401.17 168.88c0 12.77-.77 22.65-2.35 29.54-1.8 6.89-3.84 11.61-6.52 14.55-2.61 2.94-6.44 5.23-11.61 7.52-5.11 1.98-11.1 4.08-17.92 5.57-7.09 1.83-14.48 2.86-22.65 3.81-7.92 1.03-16.2 1.34-24.3 1.34-21.95 0-41.03-2.81-57.12-8.42-16.32-5.49-29.47-14.09-40.06-25.65-10.52-11.73-18.37-26.21-23.35-43.89-4.98-17.35-7.4-38.41-7.4-62.41v-200.96h-47.09c-5.61 0-9.95-3.32-12.89-10.59-3.05-6.63-4.34-18.11-4.34-34.19 0-8.69.45-15.69 1.16-21.71.76-5.61 1.66-10.18 3.18-13.9 1.49-3.18 3.46-5.49 5.44-7 2.23-1.54 4.85-2.43 7.78-2.43h46.76v-87.53c0-2.94.58-5.61 2.24-7.91 1.66-2.31 4.59-4.33 8.93-6.01 4.21-1.67 9.88-2.55 16.98-3.32 7.38-.76 16.25-1.39 26.65-1.39 11.04 0 19.98.63 27.06 1.39 7.27.77 12.82 1.65 16.91 3.32 4.26 1.68 7.21 3.7 8.86 6.01 1.85 2.3 2.62 4.97 2.62 7.91v87.53h85.43c2.73 0 5.35.89 7.65 2.43 2.3 1.51 3.97 3.82 5.48 7 1.42 3.72 2.62 8.29 3.33 13.9.82 6.02 1.14 13.02 1.14 21.71 0 16.08-1.53 27.56-4.47 34.19-3 7.27-7.07 10.59-12.69 10.59h-85.87v184.26c0 21.24 3.51 37.59 10.21 48.11 6.76 10.98 18.74 16.01 36.04 16.01 5.81 0 10.97-.45 15.88-1.34 4.6-1.02 8.81-2.23 12.51-3.56 3.57-1.29 6.83-2.51 9.24-3.52 2.37-1.22 4.67-1.46 6.85-1.46 1.71 0 3.43.24 5.03 1.46 1.46 1.01 2.8 3.24 3.76 6.31.77 2.94 1.66 7.22 2.37 12.37.82 5.24 1.14 12 1.14 20.36zm-394.92-155.35c0-16.72-1.08-32.72-3.44-48.1-2.68-15.57-6.77-29.08-12.89-41.29-5.93-11.8-13.85-21.62-23.73-28.64-9.77-7.33-22.07-10.97-36.56-10.97-7.53 0-14.74 1.02-21.82 3.45-7.27 2.16-14.67 5.8-22.21 10.66-7.46 4.9-15.11 11.27-23.09 19.39-7.85 7.9-16.13 17.67-24.95 29.59v129.07c15.52 19.77 30.44 35.04 44.42 45.56 14.03 10.98 28.83 16.01 43.95 16.01 14.35 0 26.61-3.57 36.75-11.05 10.08-7.33 18.25-16.84 24.83-28.77 6.42-11.72 11.15-25.01 14.28-40.24 2.99-14.88 4.46-29.88 4.46-44.67zm115.48-7.91c0 34.71-3.82 66.36-11.35 94.17-7.53 28.26-18.32 51.92-32.61 71.58-14.53 19.71-32.34 34.84-53.59 45.29-21.62 10.61-45.99 15.76-73.69 15.76-11.42 0-21.88-1.07-31.45-3.32-9.45-2.03-18.57-5.54-27.69-10.02-8.87-4.52-17.67-10.19-26.61-16.95-8.74-6.66-17.79-14.42-27.18-23.8v184.76c0 3-.82 5.8-2.73 7.72-1.73 2.8-4.79 4.47-8.94 6.24-4.4 1.54-9.75 2.82-16.97 3.91-6.96.57-15.88.94-26.86.94-10.79 0-19.78-.37-26.73-.94-7.16-1.09-12.69-2.37-17.03-3.91-4.28-1.77-7.34-3.44-8.94-6.24-1.84-1.92-2.68-4.72-2.68-7.72v-548.23c0-2.68.84-5.37 2.3-7.51 1.6-2.07 3.88-3.97 7.72-5.5 3.44-1.53 8.42-2.42 14.48-3.19 6-.77 13.47-1.02 22.66-1.02 8.79 0 16.26.25 22.19 1.02 6.13.77 10.91 1.66 14.42 3.19 3.76 1.53 6.26 3.43 7.78 5.5 1.41 2.14 2.11 4.83 2.11 7.51v46.57c11.36-11.73 22.72-22.2 33.62-31.26 11.17-8.8 22.15-16.2 33.57-22.34 11.54-5.98 23.35-10.46 35.6-13.5 12.05-2.57 25.13-4.23 38.91-4.23 28.84 0 53.34 5.61 73.43 16.98 20.29 11.22 36.62 26.54 49.45 46.31 12.75 19.52 22.15 42.43 27.94 68.65 5.87 26.03 8.87 53.66 8.87 83.58zm-572.79 35.07h-42.24c-17.92 0-33.23 1.36-45.61 3.85-12.84 2.87-23.04 6.63-30.95 12.06-7.91 5.3-13.59 11.74-17.48 19.13-3.57 7.47-5.23 16.08-5.23 25.59 0 16.59 5.04 29.53 15.44 38.72 10.53 9.64 24.81 14.25 43.38 14.25 15.51 0 29.86-4.04 42.87-11.96 13.2-7.71 26.23-19.57 39.82-34.76v-66.88zm108.65 168.01c0 4.27-1.47 7.33-4.53 9.89-2.87 2.17-7.47 3.63-13.79 4.97-6.31 1.01-15.62 1.53-28 1.53-13.15 0-22.79-.52-28.71-1.53-6.05-1.34-10.27-2.8-12.82-4.97-2.43-2.56-3.77-5.62-3.77-9.89v-31.21c-16.08 17.23-34.45 30.88-55.12 40.45-20.74 9.7-43.65 14.48-68.9 14.48-20.67 0-39.89-2.6-57.35-7.97-17.3-5.49-32.42-13.54-45.3-24.18-12.89-10.79-22.53-24.04-29.74-39.87-7.01-15.82-10.52-34.39-10.52-55.38 0-22.98 4.59-42.88 13.46-59.59 9.05-17.11 22.27-30.76 39.99-41.92 17.68-11.03 39.75-18.87 66.29-24.3 26.42-5.28 56.98-8.1 91.82-8.1l38.34-.08v-23.46c0-12.51-1.35-23.23-3.77-32.35-2.43-9.19-6.76-16.85-12.24-23.24-5.94-6.11-13.59-10.52-22.85-13.52-9.7-2.81-21.43-4.27-35.4-4.27-18.5 0-35.03 1.78-49.64 6.13-14.42 4.02-27.38 8.42-38.42 13.64-11.16 4.92-20.41 9.52-28.01 13.34-7.39 4.28-13.38 6.13-18.24 6.13-3.17 0-5.92-.76-8.47-2.81-2.49-2.11-4.6-4.91-6.32-8.87-1.4-3.83-2.68-8.56-3.78-14.03-.82-5.68-1.07-11.75-1.07-18.63 0-8.8.63-16.07 2.17-21.57 1.53-5.1 4.2-9.81 8.3-14.28 4.14-4.22 11.22-8.8 21.42-13.92 10.47-5.09 22.53-9.83 36.36-14.28 13.6-4.35 28.73-8.16 44.93-10.99 16.27-2.54 33.11-3.95 50.21-3.95 30.82 0 57.28 2.94 79.04 9.05 21.89 5.89 39.75 15.32 53.98 27.83 13.98 12.25 24.25 28.33 30.75 47.98 6.38 19.52 9.7 42.87 9.7 69.86v263.88z" style="fill:#1c257b"/><path class="fil3" d="M2936.76 2256.96c-25.08 0-42.04 4.58-51.81 14.15-9.44 9.19-14.41 27.77-14.41 55.37 0 25.79 4.78 43.15 14.35 52.46 9.19 9.25 26.42 13.84 51.1 13.84 24.63 0 41.53-4.66 50.92-14.09 9.75-9.33 14.41-27.56 14.41-55 0-26.03-4.66-43.65-13.97-53.09-9.45-9.06-26.29-13.64-50.59-13.64zM3322.06 1991.29c-.08-6.13-.59-10.71-1.42-13.77-.25-3.33-1.01-5.88-1.72-7.41-.7-1.66-1.85-3.31-3.51-4.72-1.61-1.53-4.09-3.07-7.72-4.21-3.45-1.41-7.66-2.55-12.38-3.45-4.66-1.4-9.05-1.91-13.66-2.29-4.4-.39-8.47-.77-12.25-.77-8.23 0-16.26 1.15-24.68 3.19-8.22 2.29-16.21 6.12-24.63 11.98-8.22 5.49-16.85 13.02-26.02 22.54-8.87 9.62-18.89 21.75-28.91 36.22v-48.92c0-2.81-.84-5.49-2.36-7.53-1.41-2.16-3.63-3.96-7.08-5.62-3.52-1.39-8.23-2.67-14.35-3.32-6.12-.76-13.86-.89-23.1-.89-9.19 0-16.78.13-22.84.89-6.07.65-10.85 1.93-14.68 3.32-3.76 1.66-6.63 3.46-8.17 5.62-1.26 2.04-1.84 4.72-1.84 7.53v392.38c0 3.12.76 5.59 2.55 7.9 1.66 1.92 4.59 3.94 8.99 5.23 4.08 1.54 10.02 2.67 16.98 3.32 6.89.89 16.01 1.14 26.72 1.14 10.78 0 19.91-.25 26.87-1.14 6.89-.65 12.63-1.78 17.03-3.32 4.01-1.29 7.08-3.31 9-5.23 1.72-2.31 2.42-4.78 2.42-7.9v-244.42c8.36-12.76 15.95-24 23.04-32.48 7.4-8.87 14.22-15.96 20.85-21.13 6.51-5.42 12.76-9.18 18.95-11.93a53.171 53.171 0 0 1 18.57-3.36c5.56 0 10.27.29 14.54 1.45 4.4 1.03 8.43 1.91 12.25 3.19 3.46 1.22 6.7 2.17 9.7 3.25 2.92 1.29 5.88 1.48 7.91 1.48 3.06 0 5.62-.71 7.27-2.17 1.93-1.34 3.51-4.15 4.61-7.91 1.4-3.83 2.1-8.94 2.86-15.89.38-6.58.77-15.37.77-26.11 0-10.32-.2-18.62-.56-24.74zM3735.85 1962.58c-1.91-2.04-4.92-3.95-8.94-5.6-3.82-1.42-9.75-2.43-16.71-3.19-6.89-.64-15.94-1.04-26.8-1.04-10.71 0-19.78.4-26.72 1.04-6.96.76-12.89 1.77-16.9 3.19-4.22 1.65-7.28 3.56-8.82 5.6-1.52 2.04-2.62 4.71-2.62 7.53l-.06 261.12c-15.89 19.35-31.01 34.39-45.36 44.66-14.35 10.41-28.14 15.58-42.43 15.58-11.17 0-20.92-2.05-29.34-6.46-8.37-4.2-15.12-10.33-20.67-17.98-5.17-7.72-9.19-17.17-12.19-28.08-2.37-10.7-3.7-26.59-3.7-47.01v-221.83c0-2.82-.95-5.49-2.61-7.53-1.79-2.04-4.61-3.95-9.07-5.6-4.4-1.42-9.95-2.43-16.83-3.19-7.1-.64-16.09-1.04-26.94-1.04-10.59 0-19.4.4-26.67 1.04-7.07.76-12.75 1.77-17.02 3.19-4.41 1.65-7.46 3.56-8.95 5.6-1.58 2.04-2.29 4.71-2.29 7.53v240.27c0 29.85 2.29 55.07 7.22 75.16 4.78 19.89 12.87 37.63 24.11 52.89 11.3 15.29 26.03 27.49 44.4 35.9 18.39 8.94 41.22 13.34 68.01 13.34 24.01 0 47.21-5.93 69.8-17.67 22.39-11.42 44.4-29.34 66.04-52.5v44.98c0 3.19.95 5.61 2.29 7.84 1.53 2.23 4.02 4.01 7.48 5.55 3.69 1.41 8.41 2.54 14.4 3.13 5.88 1.02 13.91 1.34 23.3 1.34 9.12 0 16.65-.32 22.76-1.34 6.14-.59 10.73-1.72 14.55-3.13 3.71-1.54 6.13-3.32 7.73-5.55 1.46-2.23 2.23-4.65 2.23-7.84v-392.37c0-2.82-.95-5.49-2.68-7.53z"/></g></g></svg>