<?xml version="1.0" encoding="utf-8"?>
<!-- Generator: Adobe Illustrator 19.2.0, SVG Export Plug-In . SVG Version: 6.00 Build 0)  -->
<svg version="1.0" id="Layer_1" xmlns="http://www.w3.org/2000/svg" xmlns:xlink="http://www.w3.org/1999/xlink" x="0px" y="0px"
	 viewBox="0 0 90 100" enable-background="new 0 0 90 100" xml:space="preserve">
<g>
	<path opacity="0.7" fill="#231F20" d="M83.3,23.2l-0.5,0.7c0.3-2-0.1-4.8-0.6-6.4c-0.7,2.6-2,4.9-3.8,7.1l-0.1-1.3
		c-2.1,3.3-4.7,6-7.6,7.3c0-0.5-0.1-1.1-0.3-1.5c-3.8,5-13,3.8-12,13.9c2.1-0.3,3.1,1.8,1.3,3.8c-0.8,0-1.6-0.3-2.3-0.7l0.4-0.6
		l-1.6-0.8c0.4-0.1,0.8-0.3,1.2-0.5C55,43,55.8,40.7,53,39.5c-0.5-0.5-0.9-1.2-1.2-1.9c-0.1-0.5-0.2-1.1-0.3-1.7
		c0-1.2,0-1.9,0.3-2.4l0.2,0.3c0.7-1.6,1.6-2.8,2.8-3.5c3.3,0.1,5.2-0.1,5.8-2.1c-0.2,0.1-0.3,0.1-0.4,0.1c-0.1-0.2-0.2-0.3-0.3-0.4
		c0.8-0.3,2,0.2,2.3,0.2c-0.1-1-0.5-1.3-0.7-1.7l1.1-0.8c2.8,0.9,5.2-1.2,6.9-0.3l0.6-2.1c-2.5-1.2-4,0.4-6.1,0.4
		c0.6-1.3,0.7-2.5,0.2-3.7l-2.2-0.7c-2.7,0.8-2.6,3.3-1.6,5c-0.6,0.6-1.2,0.9-1.6,1.1l-0.7,0.1c0,0-0.1-0.9-1.3-1.2c0,0,0,0,0,0
		v-0.6c1.5-1.2,1.6-2.4,1.3-3.1c-0.3-0.7-1.1-1.1-1.8-0.9l-1,0.3l-0.1-0.2c0.1-0.1,0.1-0.2,0.1-0.3c0-0.2-0.1-0.4-0.2-0.5h0.1
		l-0.1-0.4l0.4,0.1v-1.4l-0.4,0.1l0.1-0.4h-1.4l0.1,0.4l-0.4-0.1v1.4l0.4-0.1L53.5,19h0.2c-0.1,0.1-0.2,0.3-0.2,0.5
		c0,0.1,0,0.3,0.1,0.4l-0.1,0.2l-1-0.3c-0.7-0.2-1.5,0.1-1.8,0.9c-0.3,0.7-0.2,1.8,1.3,3.1v0.8c-0.4,0-0.8,0-1.1,0
		c-1.2-0.7-2.2-1.9-2.5-3.4c0.8-0.1,1.4-0.4,1.9-0.9v-2.1c3.2-2.4,4.1-5.6,1.3-7C50,10.4,48,11.1,47,11.9c-0.2-0.3-0.5-0.6-0.8-0.7
		c0,0,0,0,0,0c0-0.3-0.1-0.6-0.4-0.9h0.2l-0.2-0.7l0.7,0.2V7.6l-0.7,0.2l0.2-0.7h-2.2l0.2,0.7l-0.7-0.2v2.2l0.7-0.2l-0.2,0.7H44
		c-0.2,0.2-0.4,0.5-0.4,0.9c0,0,0,0.1,0,0.1c-0.2,0.1-0.5,0.4-0.7,0.6c-1-0.8-3-1.5-4.5-0.7c-2.8,1.4-1.9,4.6,1.3,7v2.1
		c0.5,0.5,1.2,0.8,1.9,0.9c-0.3,1.4-1.3,2.6-2.5,3.4c-0.3,0-0.7,0-1.1,0v-0.9c1.5-1.2,1.6-2.4,1.3-3.1c-0.3-0.7-1.1-1.1-1.8-0.9
		l-1,0.3l-0.1-0.2c0.1-0.1,0.1-0.2,0.1-0.3c0-0.2-0.1-0.4-0.2-0.5h0.1l-0.1-0.4l0.4,0.1v-1.4l-0.4,0.1l0.1-0.4h-1.4l0.1,0.4
		l-0.4-0.1v1.4l0.4-0.1L35.1,19h0.2c-0.1,0.1-0.2,0.3-0.2,0.5c0,0.1,0,0.3,0.1,0.4l-0.1,0.2l-1-0.3c-0.7-0.2-1.5,0.1-1.8,0.9
		c-0.3,0.7-0.2,1.8,1.3,3.1v0.6c0,0,0,0,0,0c-1.2,0.3-1.3,1.3-1.3,1.3l-0.5,0c-0.4-0.2-1.3-0.8-1.9-1.4c1-1.8,1-4-1.6-4.8L26,20
		c-0.5,1.2-0.4,2.3,0.2,3.6c-2.1,0-3.6-1.6-6.1-0.4l0.6,2.1c1.7-0.9,4.1,1.2,6.9,0.3l1.1,0.8c-0.4,0.5-0.8,1-0.9,1.9
		c0.7-0.4,1.4-0.5,2.5-0.3c-0.4,0-0.5,0.2-0.5,0.3c0.1,0.1,0.2,0.1,0.2,0.1c-0.1,0-0.4-0.1-0.7-0.1c0.6,1.9,2.6,2.1,5.9,2
		c1.2,0.6,2,1.8,2.8,3.5l0.2-0.3c0.2,0.6,0.3,1.2,0.3,2.4c0,0.7-0.1,1.2-0.3,1.7c-0.4,0.7-0.8,1.4-1.2,1.9c-2.8,1.2-2,3.5-4.4,4.6
		c0.4,0.3,0.7,0.5,1.2,0.5l-1.6,0.8l0.4,0.6c-0.7,0.4-1.4,0.7-2.3,0.7c-1.9-2-0.9-4,1.3-3.8c1-10.1-8.2-8.8-12-13.9
		c-0.1,0.4-0.2,1-0.3,1.5c-2.9-1.3-5.5-4-7.6-7.3l-0.1,1.3c-1.7-2.2-3-4.6-3.8-7.1c-0.5,1.6-0.9,4.4-0.6,6.4l-0.5-0.7
		c-1,3.8-0.9,6.3,1.2,9.6c0.3,2.1,1.2,4.2,2.2,5.8c-0.6-0.1-1-0.2-1.6-0.2c1.1,2.1,2.4,4.1,3.6,5.4l-1.7,0.5
		c1.5,2.3,3.2,3.8,5.2,5.1c-0.9,0.2-1.3,0.5-2,1c1.3,1.4,2.4,2.1,4.2,2.6c-1.4,0.5-2,1.1-2.4,2.2c1.8,0.6,3.8,1,5.8,0.9
		c-1.2,0.7-2.3,1.5-2.9,2.6l-0.4-0.2c-0.2-0.1-0.3-0.1-0.5-0.1c-0.4,0-0.9,0.3-1,0.7c0,0.1-0.1,0.2-0.1,0.2l0,0.2
		c-0.1,0.1-0.3,0.2-0.4,0.3l0,0l-0.5-0.2c-0.2-0.1-0.4-0.1-0.6-0.1c-0.5,0-1,0.3-1.2,0.8c-0.3,0.7,0,1.4,0.6,1.8l0.4,0.2l0.1,0
		c0,0.2,0,0.3,0,0.5l-0.1,0.2c0,0.1-0.1,0.1-0.1,0.2c-0.1,0.3-0.1,0.6,0,0.9c0.1,0.3,0.3,0.5,0.6,0.7l0.8,0.4L15.7,65l0.4,0.2
		l1.4,0.7l0.1,0.1c-1,1.2-2.2,1.9-3.6,1.9c-0.2,0-0.4,0-0.7,0L13,67.7l0,0l-0.1,0c-0.6-0.1-1.2-0.3-1.8-0.6l-0.7-0.4l0.2,0.8
		c0.4,1.9,2.1,3.8,4.7,5.5c2.5,1.5,5.2,2.4,7.5,2.4c1.2,0,2.2-0.3,2.9-0.8l0.7-0.5l-0.8-0.2c-0.6-0.2-1.2-0.5-1.6-0.8L23.6,73l0,0
		l-0.3-0.3c-1.4-1.3-1.4-3.2-1-4.6l0.1,0l1.4,0.7l0.4,0.2l0.1-0.2l0,0l2.9,1.4c-0.1,4.5-1.5,7.3-4.1,10.2l-0.1,0
		c-0.4,0.1-0.7,0.5-0.8,0.9c-0.1,0.1-0.2,0.2-0.3,0.3c0,0,0,0-0.1,0c-0.2-0.3-0.5-0.5-0.9-0.5c-0.1,0-0.2,0-0.3,0.1l-0.5,0.2
		c-0.3,0.1-0.5,0.3-0.6,0.5c-0.1,0.2-0.1,0.4-0.1,0.7c-0.1,0-0.3,0.1-0.4,0.1c-0.2-0.4-0.6-0.7-1-0.7c-0.1,0-0.2,0-0.4,0.1l-0.3,0.1
		c-0.6,0.2-0.9,0.7-0.7,1.3c-1.3,0.4-2.6,0.9-3.8,1.2c0.2,3.1,1.2,5.7,3.2,8.1c3.1-1.5,6.1-3,9-4.4c0.1,0.1,0.3,0.2,0.5,0.2
		c0.1,0,0.2,0,0.3-0.1l0.4-0.1c0.5-0.2,1.1-0.7,1.4-1.2l0,0c4.2-2,8.1-3.8,11.5-5.3c0.1,1.2,0.2,2.3,0.6,3.1
		c0.8-0.3,1.5-0.5,2.2-1.1c0,0.4,0.2,0.8,0.3,1.3l-1.5,1.6l1,1l1.5-1.4c0.2,1.1,1.4,2.7,2.1,3.1c0.5-0.4,1.8-2.1,2.1-3.1l1.5,1.4
		l1-1l-1.5-1.6c0.2-0.4,0.3-0.8,0.3-1.3c0.7,0.5,1.4,0.8,2.2,1.1c0.3-0.8,0.5-1.8,0.6-3.1l0.4,0.2l0.2-0.2l7.2,3.5l0.6,0.3l0.2,0.3
		l0.1,0.1l0.1,0l1,0.5l0.3,0.1c0.3,0.5,1.1,1.8,2.5,1.7c0.3,0,0.5-0.1,0.7-0.2l1,0.5l0.4,0.2l0.1-0.2l3.7,1.7l-0.1,0.2l0.4,0.2
		l1.4,0.7l0.4,0.2l0.1-0.2h0l1.1,0.5C73,92,73.2,92,73.3,92c0.4,0,0.9-0.3,1-0.7c0-0.1,0.1-0.2,0.1-0.2l0-0.2
		c0.1-0.1,0.3-0.1,0.4-0.3l0.1,0l0.6,0.3c0.2,0.1,0.4,0.1,0.6,0.1c0.5,0,1-0.3,1.2-0.8c0.3-0.7,0-1.4-0.6-1.8l-0.5-0.3l0,0
		c0-0.2,0-0.3,0-0.5l0.1-0.1c0.1-0.1,0.1-0.1,0.1-0.2c0.1-0.3,0.1-0.6,0-0.9S76,86.1,75.8,86l-1.2-0.6l0.1-0.2L74.3,85l-1.4-0.7
		l-0.4-0.2l0.1-0.2c0.2-0.5-0.2-1.1-0.5-1.2l-0.5-0.2c-0.5-0.2-1.1,0-1.3,0.5l-0.1,0.2l-0.4-0.2l0,0l0.1-0.3c0.2-0.5,0-1.1-0.6-1.4
		l-0.5-0.2c-0.3-0.1-0.7,0-0.9,0.1c-3-3.2-4.6-5.9-4.8-9.4c4.7-1.8,10-3.7,15.6-5.5c-0.6-2.9-1.7-5.6-3.2-8.1L74.1,59l-1.2-2.3
		c-0.6,0.4-1.2,0.7-1.9,1.1c-0.6-0.6-1.4-1.2-2.2-1.6c2,0.1,4.1-0.3,5.8-0.9c-0.5-1-1.1-1.7-2.4-2.2c1.8-0.5,3-1.2,4.2-2.6
		c-0.7-0.5-1.1-0.8-2-1c2-1.3,3.6-2.8,5.2-5.1l-1.7-0.5c1.2-1.3,2.5-3.3,3.6-5.4c-0.6,0-1,0-1.6,0.2c1.1-1.5,1.9-3.7,2.2-5.8
		C84.2,29.4,84.3,27,83.3,23.2z M54.2,67c-0.1,0.1-0.3,0.1-0.4,0.2l0.1-0.7L54.2,67z M45,12.4C45,12.4,45,12.4,45,12.4L45,12.4
		L45,12.4z M44.3,21.6l0.7,0l0,0l0,0l0.7,0c0.6,2.3,2,3.9,4,5.2c0,0-1.3,1.9-3.6,2.7c0.2,0.3,0.3,0.3,0.6,0.5
		c-0.8,0.7-1.7,2.4-1.7,2.4l0,0.1l0-0.1c0,0-0.9-1.7-1.7-2.4c0.2-0.2,0.4-0.2,0.6-0.5c-2.3-0.8-3.6-2.7-3.6-2.7
		C42.3,25.5,43.8,23.9,44.3,21.6z M36.2,67.1L35.8,67l0.3-0.5L36.2,67.1z M20.9,59.7c0.8-0.1,1.6-0.2,2.3-0.4
		c-0.4,0.3-0.8,0.8-1,1.2l-1.4-0.6L20.9,59.7z M28.6,79.1c1.4-1.6,2.7-3.3,3.5-6.5l3.7,1.7l0.6,0.3l0.2,0.3l0.1,0.1l0.1,0l0.5,0.3
		l-3.5,1.7C32.1,77.6,30.2,78.4,28.6,79.1z M61.5,79.2l-4.3-2l-0.6-0.3l-0.2-0.3l-0.1-0.1l-0.1,0l-2.1-1l0,0c1.2-0.5,2.6-1,4-1.6
		C58.9,75.9,60,77.7,61.5,79.2z M67.3,59.8c-0.2-0.2-0.4-0.4-0.6-0.6c0.3,0.1,0.7,0.2,1.1,0.3C67.6,59.6,67.5,59.7,67.3,59.8z"/>
	<g>
		<g>
			<path fill="#FCD015" d="M32.4,26c-0.9-0.1-1.9-0.1-2.5,0.1c-0.8,0.2-1.4,0.6-1.7,1.6c2.5-0.7,2.7,0.7,5,1.2
				c-0.7,0.3-2.5,0.3-3.5-0.3c0.7,1.1,1.6,1.4,4.9,1.3C33.5,29,34.1,27,32.4,26z"/>
			<path fill="#FCD015" d="M30.2,28.3c0.6,0.1,0.5,0.5,1.5,0.5C31.5,28.6,30.6,27.9,30.2,28.3z"/>
			<path fill="#FCD015" d="M57.4,26c0.9-0.1,1.9-0.1,2.5,0.1c0.8,0.2,1.4,0.6,1.7,1.6c-2.5-0.7-2.7,0.7-5,1.2
				c0.7,0.3,2.5,0.3,3.5-0.3c-0.7,1.1-1.6,1.4-4.9,1.3C56.3,29,55.8,27,57.4,26z"/>
			<path fill="#FCD015" d="M59.7,28.3c-0.6,0.1-0.5,0.5-1.5,0.5C58.4,28.6,59.3,27.9,59.7,28.3z"/>
		</g>
		<polygon fill="#221F1F" points="44.9,72.5 47.7,78.2 45.3,79.2 42.6,73.4 		"/>
		<g>
			<path fill="#221F1F" d="M42.3,85.6l-1.2,1.2l0.4,0.4l1.1-1.1C42.6,85.9,42.4,85.7,42.3,85.6z"/>
		</g>
		<g>
			<path fill="#221F1F" d="M47.8,85.6c-0.1,0.2-0.2,0.3-0.4,0.4l1.1,1.1l0.4-0.4L47.8,85.6z"/>
		</g>
		<g>
			<path fill="#FFC112" d="M33.7,23.7v0.6c1.5-0.1,2.7,0.1,4.1,0.2v-0.8C36.5,23.5,35.1,23.5,33.7,23.7z"/>
			<path fill="#FFC112" d="M33.9,20.4l-0.4-0.3c-0.3,0-0.6,0.2-0.8,0.5c-0.9,1.1,0.3,2.3,0.9,2.8l0.2,0c0.3,0,0.7-0.1,1-0.1
				C34.8,22.1,34.6,21,33.9,20.4z"/>
			<path fill="#FFC112" d="M38,20.1l-0.4,0.3c-0.7,0.6-0.8,1.7-0.9,2.9c0.3,0,0.7,0.1,1,0.1l0.2,0c0.6-0.5,1.8-1.7,0.9-2.8
				C38.6,20.2,38.3,20.1,38,20.1z"/>
			<circle fill="#FFC112" cx="35.8" cy="19.5" r="0.4"/>
			<path fill="#FFC112" d="M35.1,23.2c0.2,0,0.4,0,0.7,0c0.2,0,0.4,0,0.7,0c0-1.3,0.2-2.5,1-3.1l-1,0.3l-0.2-0.3
				c-0.1,0.1-0.3,0.1-0.4,0.1c-0.2,0-0.3-0.1-0.4-0.1l-0.2,0.3l-1-0.3C34.9,20.8,35.1,22,35.1,23.2z"/>
			<polygon fill="#FFC112" points="35.4,18.7 36.1,18.7 36,18.3 36.5,18.4 36.5,17.7 36,17.8 36.1,17.4 35.4,17.4 35.6,17.8 
				35.1,17.7 35.1,18.4 35.6,18.3 			"/>
			<path fill="#FFC112" d="M55.5,23.6c0,0-0.1,0-0.1,0c-0.8-0.1-1.6-0.1-2.5,0c0,0-0.1,0-0.1,0h0c-0.2,0-0.4,0-0.6,0.1v0.8
				c1.3,0,2.5-0.3,4-0.2v-0.6C55.9,23.6,55.7,23.6,55.5,23.6L55.5,23.6z"/>
			<path fill="#FFC112" d="M57.2,20.5c-0.2-0.3-0.5-0.4-0.8-0.5L56,20.4c-0.7,0.6-0.8,1.7-0.9,2.9c0.3,0,0.7,0.1,1,0.1l0.2,0
				C56.9,22.9,58.1,21.7,57.2,20.5z"/>
			<path fill="#FFC112" d="M52.3,20.4l-0.4-0.3c-0.3,0-0.6,0.1-0.9,0.5c-0.9,1.1,0.3,2.3,0.9,2.8l0.2,0c0.3,0,0.7-0.1,1-0.1
				C53.1,22.1,53,21,52.3,20.4z"/>
			<circle fill="#FFC112" cx="54.1" cy="19.5" r="0.4"/>
			<path fill="#FFC112" d="M53.5,20.5l-1-0.3c0.8,0.6,1,1.8,1,3.1c0.2,0,0.4,0,0.7,0c0.2,0,0.4,0,0.7,0c0-1.3,0.2-2.5,1-3.1l-1,0.3
				l-0.2-0.3c-0.1,0.1-0.3,0.1-0.4,0.1c-0.2,0-0.3-0.1-0.4-0.1L53.5,20.5z"/>
			<polygon fill="#FFC112" points="53.8,18.7 54.5,18.7 54.3,18.3 54.8,18.4 54.8,17.7 54.3,17.8 54.5,17.4 53.8,17.4 53.9,17.8 
				53.4,17.7 53.4,18.4 53.9,18.3 			"/>
			<polygon fill="#FFC112" points="39.2,13.6 39.2,14.2 39.7,14.4 39.7,13.9 			"/>
			<path fill="#FFC112" d="M44.9,16.9c-2.7,0-4.9,0.7-4.9,1.5v1.3c0.8-0.8,2.9-1.1,4.9-1.1c2,0,4,0.4,4.9,1.1v-1.3
				C49.8,17.6,47.6,16.9,44.9,16.9z"/>
			<path fill="#FFC112" d="M47.4,14.2c0.4-1.7,1.8-2.6,3.2-2.9c-1.5-0.3-3.2,0.4-3.8,1.4c-0.3,0.5-0.5,1.1-0.7,1.6
				C46.5,14.1,47,14.1,47.4,14.2z"/>
			<path fill="#FFC112" d="M42.4,14.2c0.5-0.1,0.9-0.1,1.3,0.1c-0.2-0.6-0.4-1.2-0.7-1.7c-0.6-0.9-2.3-1.7-3.8-1.4
				C40.6,11.6,42,12.5,42.4,14.2z"/>
			<path fill="#FFC112" d="M40.2,20.1c0.3,0.3,0.8,0.6,1.5,0.8c0.1-0.5,0.1-1,0.2-1.6C41.1,19.5,40.5,19.8,40.2,20.1z"/>
			<path fill="#FFC112" d="M45.2,18.9c-0.1,0-0.2,0-0.3,0h0c-0.1,0-0.2,0-0.3,0l0,0c0,0.8-0.1,1.6-0.3,2.3c0.2,0,0.4,0,0.6,0
				c0.2,0,0.4,0,0.6,0C45.4,20.5,45.3,19.8,45.2,18.9L45.2,18.9z"/>
			<path fill="#FFC112" d="M48,19.3c0,0.6,0.1,1.1,0.2,1.6c0.7-0.2,1.2-0.5,1.5-0.8C49.4,19.8,48.8,19.5,48,19.3z"/>
			<circle fill="#FFC112" cx="44.9" cy="11.2" r="0.9"/>
			<polygon fill="#FFC112" points="44.3,9.9 45.4,9.9 45.1,9 46,9.3 46,8.2 45.1,8.5 45.4,7.6 44.3,7.6 44.7,8.5 43.7,8.2 43.7,9.3 
				44.7,9 			"/>
			<polygon fill="#FFC112" points="50.2,14.4 50.7,14.2 50.7,13.6 50.3,13.9 			"/>
			<path fill="#FFC112" d="M52.3,12.4c-0.2-0.4-0.5-0.6-0.9-0.8c-1.5,0.1-3.2,0.9-3.6,2.9l0,0.2l-0.2-0.1c-0.6-0.2-1.1-0.1-1.6,0.2
				c-0.1,0.4-0.2,0.7-0.2,0.9c-0.1,0.4-0.5,0.6-0.8,0.6s-0.7-0.3-0.8-0.6c0-0.1-0.1-0.4-0.2-0.8c-0.4-0.3-1-0.3-1.6-0.2l-0.2,0.1
				l0-0.2c-0.4-2-2-2.8-3.6-2.9c-0.3,0.2-0.6,0.5-0.9,0.8c-1.4,2.1,1.3,4.6,2.3,5.4c0.7-0.9,2.9-1.3,5-1.3c2.2,0,4.4,0.5,5,1.3
				C50.9,17,53.6,14.5,52.3,12.4z M39,14.5l-0.2-0.1l0-0.3l0-0.5l0-0.6l0.6,0.3l0.5,0.2l0.2,0.1l0,0.3l0,0.5l0,0.6l-0.6-0.3L39,14.5
				z M39.9,16.9c-0.2,0-0.3-0.1-0.3-0.3c0-0.2,0.1-0.3,0.3-0.3s0.3,0.1,0.3,0.3C40.2,16.7,40.1,16.9,39.9,16.9z M41.4,16.3
				c-0.2,0-0.3-0.1-0.3-0.3c0-0.2,0.1-0.3,0.3-0.3c0.2,0,0.3,0.1,0.3,0.3C41.7,16.1,41.5,16.3,41.4,16.3z M42.9,15.9
				c-0.2,0-0.3-0.1-0.3-0.3s0.1-0.3,0.3-0.3c0.2,0,0.3,0.1,0.3,0.3S43.1,15.9,42.9,15.9z M47,15.9c-0.2,0-0.3-0.1-0.3-0.3
				s0.1-0.3,0.3-0.3c0.2,0,0.3,0.1,0.3,0.3S47.1,15.9,47,15.9z M48.5,16.3c-0.2,0-0.3-0.1-0.3-0.3c0-0.2,0.1-0.3,0.3-0.3
				c0.2,0,0.3,0.1,0.3,0.3C48.8,16.1,48.7,16.3,48.5,16.3z M50,16.9c-0.2,0-0.3-0.1-0.3-0.3c0-0.2,0.1-0.3,0.3-0.3
				c0.2,0,0.3,0.1,0.3,0.3C50.3,16.7,50.2,16.9,50,16.9z M49.8,15l0-0.6l0-0.5l0-0.3l0.2-0.1l0.5-0.2l0.6-0.3l0,0.6l0,0.5l0,0.3
				l-0.2,0.1l-0.5,0.2L49.8,15z"/>
			<circle fill="#FFC112" cx="44.9" cy="15.4" r="0.5"/>
			<path fill="#FFC112" d="M44.3,14.7c0.2-0.2,0.4-0.2,0.6-0.2c0.2,0,0.5,0.1,0.6,0.2c0.1-0.6,0.4-1.5,0.9-2.3c0,0,0-0.1,0.1-0.1
				c0-0.3-0.2-0.5-0.5-0.7c-0.2,0.4-0.6,0.8-1.2,0.8c-0.5,0-1-0.3-1.2-0.8c-0.2,0.1-0.4,0.3-0.4,0.6c0,0.1,0.1,0.1,0.1,0.2
				C43.9,13.3,44.2,14.1,44.3,14.7z"/>
		</g>
		<g>
			<path fill="#E0E0E0" d="M72.6,57.4C62.7,62.7,54,67.6,45.1,72l0.2,0.3l0,0.1c9-3.9,18.5-8.2,28.3-13.1
				C73.4,58.7,73,57.9,72.6,57.4z"/>
			<path fill="#E0E0E0" d="M42.3,73.6l-0.1-0.2c-2,1-4.1,1.9-6.1,2.8C38.1,75.4,40.2,74.6,42.3,73.6L42.3,73.6z"/>
			<path fill="#E0E0E0" d="M75,59.1c-9.4,4.7-19.4,9.3-29.5,13.7l2.3,4.8c10-4.2,20.2-8.2,30-11.5C77.4,63.6,76.4,61.3,75,59.1z"/>
			<path fill="#E0E0E0" d="M24.7,81l0.5,1.5c0.1,0.3-0.2,0.6-0.2,1c0.1,1.4-0.8,2.4-0.8,2.4l-0.5,0.4l-0.2-0.6l-1.3-3.8
				C22.2,82,22.1,82,22,82l0.8,2.3c0.3,1-0.2,2.4-0.3,2.4l-0.2,0.4L21.9,87c0,0-1-0.7-1.5-2c-0.1-0.2-0.3-0.2-0.4-0.4l-0.5-1.6
				c-0.1,0-0.2,0.1-0.4,0.1l1.2,3.6l0.2,0.6l-0.6,0c-0.1,0-1.2,0-2.1-1.3c-0.1-0.2-0.6-0.1-0.7-0.4l-0.5-1.6
				c-1.2,0.4-2.3,0.8-3.5,1.2c0.4,2.7,1.3,5.1,2.9,7c2.8-1.4,5.7-2.8,8.7-4.2c0-0.1,0.1-0.3,0.2-0.5l1.2-2c0,0-0.2-0.6-0.1-1.3
				c0.9,0.2,1.6,0.6,1.9,1.2c0.1,0.3,0.1,0.8-0.1,1.2c5.5-2.6,11.2-5.1,16.9-7.5L42.5,74C36.6,76.5,30.6,78.9,24.7,81z"/>
		</g>
		<path fill="#E2E2E2" d="M23.5,73.4C23.5,73.4,23.5,73.4,23.5,73.4C23.5,73.4,23.4,73.4,23.5,73.4c-1-0.1-1.9-0.2-2.8-0.4l0.1-0.4
			c0,0,0,0,0,0c0.7,0.2,1.4,0.3,2.2,0.4c-1.4-1.3-1.6-3.2-1.1-5.1L18,66c-1.2,1.7-2.8,2.4-4.7,2.1c1.7,1.8,3.6,3.2,5.9,4l-0.1,0.4
			c0,0,0,0,0,0c-2.5-0.9-4.6-2.4-6.4-4.5c-0.6-0.1-1.2-0.4-1.8-0.7c1,4.7,10.9,9.4,14.4,6.9C24.6,74,24,73.7,23.5,73.4z"/>
		<g>
			<path fill="#A5A5A5" d="M15.6,60l-0.5-0.2c-0.5-0.2-1,0-1.2,0.4v0c-0.2,0.5,0,1,0.4,1.2l0.4,0.2c0.2-0.4,0.5-0.6,0.9-0.6
				C15.5,60.7,15.5,60.3,15.6,60z"/>
			<path fill="#A5A5A5" d="M76.5,89l-0.5-0.3c-0.2,0.3-0.5,0.6-0.9,0.6c0.2,0.3,0.2,0.7,0,1l0.6,0.3c0.5,0.2,1,0,1.2-0.4
				S76.9,89.2,76.5,89z"/>
		</g>
		<g>
			
				<rect x="68.8" y="87.1" transform="matrix(0.43 -0.9028 0.9028 0.43 -38.279 115.0666)" fill="#939393" width="6.3" height="1.6"/>
			
				<rect x="21.4" y="64.5" transform="matrix(0.43 -0.9028 0.9028 0.43 -44.9391 59.3142)" fill="#939393" width="6.3" height="1.6"/>
			
				<rect x="15.1" y="61.5" transform="matrix(0.43 -0.9028 0.9028 0.43 -45.801 52.0052)" fill="#939393" width="6.3" height="1.6"/>
			<path fill="#939393" d="M30.3,64.5l6.5,10.1l1,0.5c0.3-0.1,0.5-0.2,0.8-0.4l-5.8-9L30.3,64.5z"/>
			<path fill="#939393" d="M42,70.1l1.5,2.3c0.4-0.2,0.9-0.4,1.3-0.6l-0.3-0.5L42,70.1z"/>
			<path fill="#939393" d="M48,77.9L48,77.9l0.2,0.4l-0.4,0.2l-0.3,0.1l0.9,1.5l2.4,1.2l-2.3-3.6C48.4,77.8,48.2,77.9,48,77.9z"/>
			<path fill="#939393" d="M53.6,75.6l6.5,10.1l1,0.5c-0.3-0.8,0-1.4,0.1-1.5l-5.1-7.9L53.6,75.6z"/>
			<path fill="#939393" d="M67.3,82.1L66.9,82l-1.8,4.1l-0.2-0.2l-0.8,1.7l1.4,0.7l0.8-1.7c-0.1-0.4-0.4-1.4,0-2.2L67.3,82.1z"/>
		</g>
		<g>
			<polygon fill="#DBDBDB" points="24.7,67.7 24.3,68.4 35.9,73.9 35,72.6 			"/>
			<polygon fill="#DBDBDB" points="33.1,69.6 25.5,65.9 24.8,67.3 34.6,72 			"/>
			<polygon fill="#DBDBDB" points="31.1,66.5 26.3,64.2 25.7,65.6 32.7,68.9 			"/>
			<polygon fill="#DBDBDB" points="30,64.7 29.9,64.6 26.8,63.1 26.5,63.8 30.7,65.8 			"/>
			<path fill="#DBDBDB" d="M14.8,62.9c0,0-0.1,0.1-0.1,0.1c-0.2,0.4,0,0.8,0.4,1l0.8,0.4l0.3-0.7l-1-0.5C15.1,63.1,15,63,14.8,62.9z
				"/>
			
				<rect x="19.9" y="63.8" transform="matrix(0.43 -0.9028 0.9028 0.43 -48.0343 55.9776)" fill="#DBDBDB" width="0.8" height="4.5"/>
			<path fill="#DBDBDB" d="M15.1,61.8c-0.2,0.4,0,0.8,0.4,1l1,0.5l0.6-1.4l-1-0.5C15.7,61.3,15.2,61.4,15.1,61.8z"/>
			
				<rect x="20.2" y="62.4" transform="matrix(0.43 -0.9028 0.9028 0.43 -46.3926 55.782)" fill="#DBDBDB" width="1.5" height="4.5"/>
			<path fill="#DBDBDB" d="M16,60.1c-0.2,0.4,0,0.8,0.4,1l0.9,0.4l0.6-1.4L17,59.8C16.6,59.6,16.2,59.7,16,60.1z"/>
			
				<rect x="21.1" y="60.6" transform="matrix(0.43 -0.9028 0.9028 0.43 -44.3389 55.5372)" fill="#DBDBDB" width="1.5" height="4.5"/>
			<path fill="#DBDBDB" d="M16.7,59.3c0.2,0,0.3,0,0.5,0.1l0.9,0.4l0.3-0.7l-0.8-0.4c-0.4-0.2-0.8,0-1,0.4
				C16.7,59.2,16.7,59.2,16.7,59.3C16.7,59.3,16.7,59.3,16.7,59.3L16.7,59.3z"/>
			
				<rect x="22.1" y="59.2" transform="matrix(0.43 -0.9028 0.9028 0.43 -42.6972 55.3416)" fill="#DBDBDB" width="0.8" height="4.5"/>
			<polygon fill="#DBDBDB" points="50.5,80 51.2,81.1 51.3,81.2 59.2,85 58.4,83.7 			"/>
			
				<rect x="67.6" y="86.7" transform="matrix(0.43 -0.9028 0.9028 0.43 -41.3542 111.97)" fill="#DBDBDB" width="0.8" height="4.1"/>
			<polygon fill="#DBDBDB" points="42.4,71.4 41.6,70.3 41.5,70.1 33.7,66.4 34.5,67.7 			"/>
			<path fill="#DBDBDB" d="M75.5,86.3l-1.2-0.6L74,86.4l1.4,0.7c0.2,0.1,0.3,0.2,0.4,0.3c0,0,0.1-0.1,0.1-0.1
				C76.1,86.9,75.9,86.5,75.5,86.3z"/>
			<path fill="#DBDBDB" d="M73.5,90.9l-1.3-0.6L71.8,91l1.1,0.5c0.4,0.2,0.8,0,1-0.4c0-0.1,0-0.1,0.1-0.2c0,0,0,0,0,0
				C73.8,91,73.6,91,73.5,90.9z"/>
			<path fill="#DBDBDB" d="M74.3,89.2L73,88.6l-0.6,1.4l1.3,0.6c0.4,0.2,0.8,0,1-0.4C74.8,89.8,74.7,89.4,74.3,89.2z"/>
			<path fill="#DBDBDB" d="M75.2,87.5l-1.4-0.7l-0.6,1.4l1.4,0.7c0.4,0.2,0.8,0,1-0.4C75.8,88.1,75.6,87.7,75.2,87.5z"/>
			<path fill="#DBDBDB" d="M38.5,73.8l1,0.5c0.6-0.3,1.2-0.5,1.8-0.8l-4.3-2.1L38.5,73.8z"/>
			<path fill="#DBDBDB" d="M34.9,68.3l1.5,2.4l5.3,2.5c0.5-0.2,0.9-0.4,1.4-0.7L42.8,72L34.9,68.3z"/>
			<polygon fill="#DBDBDB" points="46.7,79 47.5,79.4 47.1,78.8 			"/>
			<path fill="#DBDBDB" d="M53.3,75.8L53.3,75.8c-0.3,0.1-0.6,0.2-1,0.3l1.7,0.8L53.3,75.8z"/>
			<path fill="#DBDBDB" d="M54.4,77.6l-2.6-1.2c-0.6,0.3-1.2,0.5-1.9,0.8l6,2.9L54.4,77.6z"/>
			<path fill="#DBDBDB" d="M56.4,80.7l-7-3.3c-0.2,0.1-0.3,0.1-0.5,0.2l1.1,1.8l7.8,3.7L56.4,80.7z"/>
			<polygon fill="#DBDBDB" points="64.2,81.8 64.6,81.1 57,77.5 57.8,78.8 			"/>
			<path fill="#DBDBDB" d="M64.1,82.3L64.1,82.3l-5.8-2.9l1.5,2.4l4.3,2c0-0.3,0.1-0.6,0.1-0.8C64.1,82.7,63.9,82.6,64.1,82.3z"/>
			<path fill="#DBDBDB" d="M60.2,82.5l1.2,1.9c0.7-0.6,1.7-0.5,1.7-0.5l-0.3,1l0.3,0.6l1.3,0.6l0.3-0.5c-0.2-0.3-0.4-0.7-0.5-1.3
				L60.2,82.5z"/>
			<polygon fill="#DBDBDB" points="63.9,87.1 64.2,86.5 63.4,86.1 			"/>
			<polygon fill="#DBDBDB" points="69.9,83.6 69.5,83.4 69.1,84.2 69.6,84.4 			"/>
			<path fill="#DBDBDB" d="M69.4,84.7L69,84.5l-0.2,0.4c-0.1,0.2-0.3,0-0.7,0.8l0.6,0.3L69.4,84.7z"/>
			<path fill="#DBDBDB" d="M71,87.1l0.6-1.2c-0.1,0.1-0.4,0-0.5,0.2c-0.2,0.3-0.6,0.7-0.7,0.7L71,87.1z"/>
			<path fill="#DBDBDB" d="M68.9,87.3l-0.6,0l0.2-0.6l0.1-0.2L68,86.1c-0.5,0.6-1.3,1.1-1.3,1.1l3.6,1.7l0.6-1.4l-0.9-0.4
				C69.4,87.2,69,87.3,68.9,87.3z"/>
		</g>
		<path fill="#D0D2D3" d="M45.1,80.8c-1.6,0-2.9,1.3-2.9,2.9s1.3,2.9,2.9,2.9s2.9-1.3,2.9-2.9S46.7,80.8,45.1,80.8z M45.8,82.6
			c0.2,0,0.2-0.2,0.1-0.3c0.1-0.2,0.2,0,0.2,0.1c0,0,0.2,0,0.2,0.1c0,0.1-0.1,0.1-0.1,0.3c0,0-0.2-0.1-0.1,0c0,0-0.1,0-0.1-0.1
			c0-0.1,0.1-0.1,0.1-0.2c0-0.1-0.2-0.1-0.2-0.1C46,82.5,46,82.7,45.8,82.6C45.8,82.7,45.8,82.6,45.8,82.6z M45.5,83.6
			C45.5,83.6,45.5,83.6,45.5,83.6l-0.7,0c0,0,0,0,0,0c0.2-0.2,0-0.7-0.4-0.7c-0.1,0-0.1,0.1-0.1,0.1c0,0,0-0.1,0-0.1
			c0-0.2,0.5-0.1,0.7-0.2c0,0.1-0.1,0.2-0.1,0.2c0.1,0.1,0.2,0.3,0.3,0.6c0-0.3,0.1-0.5,0.3-0.6c-0.1,0-0.2-0.1-0.1-0.2
			c0.2,0.1,0.7,0,0.7,0.2v0c0,0,0,0.1,0,0.1c0,0,0-0.1-0.1-0.1C45.5,82.9,45.2,83.4,45.5,83.6z M45.8,83.1L45.8,83.1
			c-0.1,0-0.1,0-0.2,0c0,0,0.1-0.1,0.1-0.1C45.7,83,45.8,83,45.8,83.1z M45.2,84.3c0,0,0.1-0.1,0.1,0c0,0.1-0.1,0.1-0.1,0.1L45,83.8
			c0,0,0.1,0,0.1,0c0,0,0,0,0,0c0,0,0,0,0,0c0,0,0,0,0,0c0,0,0,0,0,0c0,0,0,0,0,0c0,0,0,0,0,0c0,0,0.1-0.1,0.2,0c0,0,0,0.1,0,0.1
			c0,0,0,0,0,0c0,0,0,0,0,0c0,0,0-0.1,0-0.1c0,0,0,0,0,0.1c0,0,0,0.1,0,0.1c0.1,0,0.1,0,0.1,0.1c0,0,0,0,0,0c0-0.1-0.1-0.1-0.1-0.1
			c0,0,0,0,0,0C45.2,84.2,45.2,84.2,45.2,84.3z M44.9,84.1C44.9,84.1,44.9,84.1,44.9,84.1C44.9,84.1,44.9,84.2,44.9,84.1
			C44.9,84.1,44.8,84.1,44.9,84.1c-0.1-0.1-0.1-0.1-0.1-0.1C44.8,84,44.9,84,44.9,84.1C44.9,84,45,84,45,84c0,0,0,0,0,0
			c-0.1,0-0.2,0-0.2-0.1c0,0,0.1-0.1,0.1-0.1l0-0.1l0,0c0,0,0,0,0,0l0.3,0.8c-0.1,0-0.2,0-0.3,0c0,0-0.1,0-0.1-0.1c0,0,0,0,0-0.1
			c0,0,0,0,0,0c0,0,0,0,0,0C44.8,84.3,44.9,84.2,44.9,84.1C44.9,84.1,44.9,84.1,44.9,84.1z M44.6,83.1c0,0-0.1,0-0.2,0
			c0-0.1,0-0.1,0.1-0.1C44.5,83,44.6,83,44.6,83.1z M45.6,82.2L45.6,82.2L45.6,82.2l0,0.2L45.6,82.2L45.6,82.2z M45.1,81.9l0.1,0.1
			v0l-0.1,0.1L45,82L45.1,81.9z M44.5,82.2L44.5,82.2v0.2V82.2L44.5,82.2z M44.5,82.4L44.5,82.4h0.2c0.1,0,0.1,0,0.1,0.1
			c0,0,0,0,0,0c0.1,0,0.2-0.1,0.2-0.2c0,0-0.1-0.1-0.1-0.1c-0.1-0.1,0-0.2,0.1-0.2l0.1,0.2l0.1-0.2c0.1,0,0.2,0.1,0.1,0.2
			c0,0-0.1,0.1-0.1,0.1c0,0.1,0.1,0.2,0.2,0.2c0,0,0,0,0,0c0-0.1,0-0.1,0.1-0.1l0.1,0.1l0.1-0.1c0.1,0,0.1,0,0.1,0.1
			c0,0-0.1,0.1-0.1,0.1h-0.2c-0.2,0-0.3-0.1-0.3-0.2H45c0,0.1-0.1,0.2-0.3,0.2h-0.2v0c0,0,0-0.1-0.1-0.1
			C44.3,82.5,44.4,82.4,44.5,82.4z M44,82.4c0.1-0.1,0.2-0.3,0.2-0.1c-0.1,0.1-0.1,0.3,0.1,0.3c0,0,0,0,0,0c-0.2,0-0.2-0.1-0.2-0.2
			c0,0-0.2,0-0.2,0.1c0,0.1,0.1,0.1,0.1,0.2c0,0,0,0.1-0.1,0.1c0-0.1-0.1-0.1-0.1,0l0,0h0c0,0,0,0,0,0c0.1-0.2-0.1-0.2-0.1-0.3
			C43.8,82.4,44,82.5,44,82.4z M43.3,83.4C43.3,83.4,43.3,83.4,43.3,83.4c0.1,0,0.2,0,0.1-0.1c-0.1-0.1-0.2-0.3-0.1-0.4c0,0,0,0,0,0
			c0,0,0.3,0.1,0.2,0c-0.1-0.2-0.1-0.4,0-0.5c0,0,0,0,0,0c0,0.1,0.4,0.6,0.8,0.9l0,0c0,0,0,0,0,0c0,0-0.1,0.1-0.1,0.2
			c0,0.1,0.1,0.2,0.2,0.2c0.1,0,0.1,0,0.2,0c0,0,0,0,0,0v0.3c0,0,0,0,0,0c0-0.1-0.2-0.2-0.3-0.2c0,0.1-0.1,0.2-0.1,0.3
			c-0.1,0.1-0.2,0.1-0.3,0c0,0,0,0,0,0c0,0,0.1-0.2,0-0.1c-0.1,0.1-0.2,0-0.3-0.1c0,0,0,0,0,0c0.1,0,0.1-0.1,0-0.1
			c-0.1,0-0.3,0-0.3-0.2c0,0,0,0,0,0c0,0,0.2-0.1,0.1-0.1C43.4,83.7,43.3,83.6,43.3,83.4z M46.1,85c-0.1,0-0.2,0-0.2-0.1
			c-0.1-0.1-0.2-0.1-0.4-0.1c0,0,0,0,0,0c0.1-0.1-0.1-0.2-0.2-0.1c-0.1,0-0.1,0.1-0.1,0.2c0.2,0,0.5,0.2,0.5,0.3
			c0,0.1,0,0.1-0.1,0.1c0,0,0,0,0,0c0-0.2-0.1-0.2-0.1,0c0,0.1-0.1,0.1-0.1,0.2c0,0,0,0,0,0c0-0.2-0.1-0.2-0.1,0
			c0,0.1-0.1,0.1-0.1,0.1c0,0-0.1-0.1-0.1-0.1c0-0.2-0.1-0.2-0.1,0c0,0,0,0,0,0c-0.1,0-0.1-0.1-0.1-0.2c0-0.2-0.1-0.2-0.1,0
			c0,0,0,0,0,0c-0.1,0-0.1-0.1-0.1-0.1c0.1-0.1,0.3-0.3,0.5-0.3c0-0.1-0.1-0.2-0.1-0.2c-0.1-0.1-0.2,0-0.2,0.1c0,0,0,0,0,0
			c-0.1,0-0.3,0-0.3,0.1c0,0,0.1,0.1,0.1,0.1c0,0,0,0,0,0c0,0,0,0,0,0c0,0,0,0,0,0l-0.1-0.1c0,0-0.1,0-0.1,0c-0.1,0-0.1-0.1-0.1-0.1
			c0,0,0-0.1,0-0.1c0,0-0.4-0.3-0.4-0.3l0,0c0,0-0.1,0-0.1,0c0,0-0.2,0-0.2-0.1c0,0,0.1,0,0.1,0s-0.1-0.1,0-0.1c0.1,0,0.2,0,0.2,0
			s0-0.1,0-0.1c0.1,0,0.1,0.2,0.1,0.2c0,0,0.1,0,0,0.1l0,0c0,0,0.4,0.4,0.4,0.4c0,0,0,0,0,0c0,0,0.1,0,0.1,0c0.1,0,0.3,0,0.3-0.1
			c-0.2-0.3,0-0.5,0.1-0.5v0.2c0,0.1,0.1,0.1,0.1,0.1h0.1c0.1,0,0.2,0.1,0.2,0.1s0.1-0.1,0.2-0.1h0.1c0.1,0,0.1-0.1,0.1-0.1v-0.2
			c0.2,0,0.4,0.2,0.1,0.5c0,0,0.2,0.1,0.2,0.1c0-0.1,0-0.1,0.1-0.1l0.1,0.1l0,0l0.1-0.1c0.1,0,0.1,0.1,0.1,0.2
			C46.3,84.9,46.2,85,46.1,85z M46,84.5L46,84.5l0.2,0v0H46L46,84.5z M46.9,83.4L46.9,83.4C46.9,83.4,46.9,83.4,46.9,83.4
			c0,0.1-0.1,0.3-0.2,0.3c-0.2,0,0,0.1,0.1,0.1c0,0,0,0,0,0c0,0.1-0.1,0.2-0.3,0.2c-0.1,0-0.1,0.1,0,0.1c0,0,0,0,0,0
			c-0.1,0.1-0.2,0.1-0.3,0.1c-0.1,0,0,0.1,0,0.1c0,0,0,0,0,0c-0.1,0.1-0.2,0.1-0.3,0c-0.1-0.1-0.1-0.2-0.1-0.3c-0.1,0-0.2,0-0.3,0.2
			c0,0,0,0,0,0v-0.3c0,0,0,0,0,0c0.1,0,0.2,0,0.2,0c0.1,0,0.2-0.1,0.2-0.2c0-0.1,0-0.1-0.1-0.2c0,0,0,0,0,0c0,0,0,0,0,0
			c0.4-0.2,0.7-0.8,0.8-0.9c0,0,0,0,0,0c0.1,0.1,0.1,0.3,0,0.5c-0.1,0.1,0.2,0,0.2,0c0,0,0,0,0,0c0.1,0.1,0,0.3-0.1,0.4
			C46.6,83.4,46.8,83.4,46.9,83.4z"/>
		<g>
			<path fill="#1FC150" d="M27.8,19.8c-0.8,0.2-1.1,0.3-1.6,0.5C25.3,22.5,27,25,29,26.2c0.4-0.2,1.2-0.6,2.1-0.5
				C28.8,24.3,26.9,22.3,27.8,19.8z"/>
			<path fill="#1FC150" d="M62.1,19.8c0.8,0.2,1.1,0.3,1.6,0.5c0.8,2.2-0.8,4.7-2.8,5.9c-0.4-0.2-1.2-0.6-2.1-0.5
				C61.2,24.3,63,22.3,62.1,19.8z"/>
			<path fill="#1FC150" d="M26.2,24.1c-1.7,0-4-1.7-5.8-0.6l0.4,1.4c1.9-0.8,3.6,1.2,6.4,0.5C26.8,24.9,26.5,24.5,26.2,24.1z"/>
			<path fill="#1FC150" d="M28.4,22.9c0.2,0.4,0.6,0.8,1,1.1c1-1.3,0.7-3.9-1.2-4.2l0,0.1C28,20.3,28,20.7,27.9,21
				C28.5,21.5,28.6,22.2,28.4,22.9z"/>
			<path fill="#1FC150" d="M63.7,24.1c-0.3,0.4-0.6,0.9-1,1.2c2.8,0.7,4.5-1.3,6.4-0.5l0.4-1.4C67.7,22.4,65.4,24.1,63.7,24.1z"/>
			<path fill="#1FC150" d="M61.5,22.9c-0.2-0.6-0.1-1.4,0.5-1.9c0-0.3-0.1-0.7-0.3-1.1l0-0.1c-1.9,0.3-2.1,2.9-1.2,4.2
				C60.9,23.6,61.3,23.3,61.5,22.9z"/>
			<path fill="#1FC150" d="M39.9,26.5c2.6-1.4,4.2-3.8,4.3-7.6c-0.7,0-1.4,0.1-2,0.2c0,2.5-0.8,4.2-2.3,5.3c0.4-0.1,0.7-0.2,1-0.3
				l1-0.5l-0.5,1C41,25.6,40.5,26.2,39.9,26.5z"/>
			<path fill="#1FC150" d="M49.9,26.5c-0.5-0.3-1.1-0.9-1.5-1.8l-0.5-1l1,0.5c0.3,0.1,0.6,0.2,1,0.3c-1.5-1.1-2.3-2.8-2.3-5.3
				c-0.6-0.1-1.2-0.2-2-0.2C45.8,22.7,47.4,25.2,49.9,26.5z"/>
			<path fill="#1FC150" d="M52.4,44.8L52,44.5v-1.1h-1l-0.3-0.5c-1.1-2.1-3.2-3.4-5.5-3.4h-0.5c-2.3,0-4.5,1.3-5.5,3.4l-0.3,0.5H38
				v1.1l-0.4,0.3c-2.8,2.1-4.4,5.3-4.4,8.7s1.6,6.6,4.4,8.7l0.4,0.3v1.1h0.9l0.3,0.5c1.1,2.1,3.2,3.4,5.5,3.4h0.5
				c2.3,0,4.5-1.3,5.5-3.4l0.3-0.5h1v-1.1l0.4-0.3c2.8-2.1,4.4-5.3,4.4-8.7S55.2,47,52.4,44.8z M48.9,63h-8v-1.7h0.6v-0.9h0.4h0
				v-0.8h0.7v-5.4h-1v-2.8h1v-0.5h0h-0.4v-0.7h-0.4v-1.5h0.4v-0.7h0.5v-0.5c-0.7-0.7-1.4-2-0.7-2.9c0.7-0.9,2.1-0.3,2.1-0.3
				c0-0.1,0-0.4,0-0.5h-0.1l0.1-0.2l-0.2,0.1v-1.6l0.2,0.1l-0.1-0.2h1.6l-0.1,0.2l0.2-0.1v1.6l-0.2-0.1l0.1,0.2h-0.1
				c0,0.1,0,0.4,0,0.5c0,0,1.5-0.6,2.1,0.3c0.7,1,0,2.2-0.6,2.9v0v0.5h0.5v0.7H48v1.5h-0.4v0.7h-0.4h0v0.5h1v2.8h-1v5.4h0.7v0.8h0
				h0.4v0.9h0.6V63z"/>
		</g>
		<g>
			<path fill="#FFD400" d="M43,47h1c0-0.9-0.2-2-0.7-2.5l-0.3-0.3c-0.3,0-0.5,0.1-0.7,0.4C41.7,45.5,42.5,46.6,43,47z"/>
			<rect x="42.6" y="48.2" fill="#FFD400" width="4.6" height="0.4"/>
			<rect x="42.2" y="48.9" fill="#FFD400" width="5.3" height="0.7"/>
			<rect x="43.1" y="50.7" fill="#FFD400" width="3.7" height="0.7"/>
			<rect x="43.1" y="47.3" fill="#FFD400" width="3.6" height="0.6"/>
			<path fill="#FFD400" d="M46.7,47c0.5-0.5,1.3-1.5,0.7-2.3c-0.2-0.3-0.4-0.4-0.7-0.4l-0.3,0.3c-0.5,0.4-0.7,1.6-0.7,2.5H46.7z"/>
			<polygon fill="#FFD400" points="44.6,43.2 45.2,43.2 45.1,42.8 45.4,42.9 45.4,42.4 45.1,42.5 45.2,42.1 44.6,42.1 44.7,42.5 
				44.3,42.4 44.3,42.9 44.7,42.8 			"/>
			<circle fill="#FFD400" cx="44.9" cy="43.8" r="0.4"/>
			<path fill="#FFD400" d="M44.3,47h1.1c0-1,0.2-2.2,0.8-2.7l-0.8,0.3l-0.1-0.3c-0.1,0.1-0.2,0.1-0.4,0.1c-0.1,0-0.3,0-0.4-0.1
				l-0.1,0.3l-0.8-0.3C44.2,44.8,44.3,46,44.3,47z"/>
			<rect x="42.6" y="50" fill="#FFD400" width="4.6" height="0.4"/>
			<rect x="42.3" y="60" fill="#FFD400" width="5.1" height="0.5"/>
			<rect x="41.9" y="60.7" fill="#FFD400" width="6" height="0.6"/>
			<rect x="41.3" y="61.6" fill="#FFD400" width="7.2" height="0.9"/>
			<path fill="#FFD400" d="M46.8,59.7V54h-3.7v5.6H46.8z M45.9,54.6h0.3v4.3h-0.3V54.6z M44.8,54.6h0.3v4.3h-0.3V54.6z M43.7,54.6
				H44v4.3h-0.3V54.6z"/>
			<g>
				<polygon fill="#FFD400" points="43.8,52.8 43.9,52.8 43.9,52.6 				"/>
				<path fill="#FFD400" d="M42,51.7v2h5.7v-2H42z M43.1,53.2c-0.1,0-0.2,0-0.3-0.1l0,0v-0.2l0,0c0,0,0,0,0.1,0l0,0l0.1,0.1
					c0,0,0.1,0,0.1,0c0.1,0,0.2,0,0.2-0.1c0-0.1,0-0.1-0.2-0.1h-0.1l0,0c0,0,0,0,0,0c0,0,0,0,0,0l0,0H43c0.1,0,0.1,0,0.1-0.1
					c0-0.1-0.1-0.1-0.1-0.1c0,0-0.1,0-0.1,0l0,0.1l0,0c0,0-0.1,0-0.1,0l0,0v-0.2l0,0c0.1,0,0.2-0.1,0.3-0.1c0.2,0,0.3,0.1,0.3,0.2
					c0,0.1,0,0.2-0.1,0.2c0.1,0,0.1,0.1,0.1,0.2C43.4,53.1,43.2,53.2,43.1,53.2z M44.4,53.1L44.4,53.1l-0.4,0l0,0c0,0,0,0,0-0.1l0,0
					l0.1,0L44,52.9h-0.3L43.7,53l0.1,0l0,0c0,0,0,0,0,0.1l0,0h-0.3l0,0c0,0,0,0,0-0.1l0,0l0.1,0l0.3-0.7H44L44.4,53.1L44.4,53.1
					L44.4,53.1C44.4,53.1,44.4,53.1,44.4,53.1z M45.3,53.2H45l0,0l-0.3-0.4V53l0.1,0l0,0c0,0,0,0,0,0.1l0,0h-0.4l0,0c0,0,0,0,0-0.1
					l0,0l0.1,0v-0.6l-0.1,0l0,0c0,0,0,0,0-0.1l0,0h0.4l0,0c0,0,0,0,0,0.1l0,0l-0.1,0v0.3l0.2-0.3l0,0l0,0c0,0,0,0,0-0.1l0,0h0.3l0,0
					c0,0,0,0,0,0.1l0,0l-0.1,0l-0.2,0.2l0.3,0.4L45.3,53.2L45.3,53.2C45.3,53.1,45.3,53.1,45.3,53.2L45.3,53.2z M45.7,53.2
					c-0.3,0-0.4-0.2-0.4-0.4c0-0.3,0.1-0.4,0.4-0.4c0.3,0,0.4,0.2,0.4,0.4S45.9,53.2,45.7,53.2z M47,53.2h-0.4l0,0c0,0,0,0,0-0.1
					l0,0l0.1,0v-0.3h-0.3V53l0.1,0l0,0c0,0,0,0,0,0.1l0,0h-0.4l0,0c0,0,0,0,0-0.1l0,0l0.1,0v-0.6l-0.1,0l0,0c0,0,0,0,0-0.1l0,0h0.4
					l0,0c0,0,0,0,0,0.1l0,0l-0.1,0v0.2h0.3v-0.2l-0.1,0l0,0c0,0,0,0,0-0.1l0,0H47l0,0c0,0,0,0,0,0.1l0,0l-0.1,0V53L47,53.2L47,53.2
					C47,53.1,47,53.1,47,53.2L47,53.2z"/>
				<path fill="#FFD400" d="M45.7,52.4c-0.1,0-0.2,0.1-0.2,0.3c0,0.2,0.1,0.3,0.2,0.3c0.1,0,0.2-0.2,0.2-0.3
					C45.8,52.6,45.8,52.4,45.7,52.4z"/>
			</g>
		</g>
		<g>
			<path fill="#FFE000" d="M67.4,81.7C67.5,81.7,67.5,81.7,67.4,81.7c-0.1-0.3-0.2-0.4-0.4-0.6c0,0.1,0.1,0.3,0,0.4L67.4,81.7z"/>
			<path fill="#FFE000" d="M39.4,81.7c0,0.9,0.1,1.8,0.3,2.7c0.7-0.3,1.4-0.6,2-1.1c0.1-1,0.7-1.9,1.6-2.4c0.1-0.3,0.2-0.7,0.3-1
				L39.4,81.7z"/>
			<path fill="#FFE000" d="M44.8,79.3l-0.7,0.3c-0.1,0.3-0.2,0.7-0.3,1c0.4-0.1,0.8-0.2,1.2-0.2c0.4,0,0.8,0.1,1.2,0.2
				c-0.1-0.4-0.2-0.8-0.3-1.2l-0.9,0.4L44.8,79.3z"/>
			<path fill="#FFE000" d="M46.8,80.8c0.9,0.5,1.5,1.4,1.6,2.4c0.6,0.5,1.3,0.9,2,1.1c0.2-1,0.4-1.9,0.3-2.7l-4.3-2.1
				C46.5,80,46.6,80.4,46.8,80.8z"/>
			<path fill="#FFE000" d="M43.6,86.7c0.3,0.7,0.8,1.7,1.4,2.2c0.6-0.5,1.2-1.5,1.5-2.2C46,87.2,44.2,87.2,43.6,86.7z"/>
			<path fill="#FFE000" d="M26.3,84.6l0.4,1.9l-0.5-0.7l-1,1.7c-0.3,0.4-0.1,0.7,0.3,0.5l0.4-0.1c0.4-0.1,1-0.6,1.2-1.1l0.2-0.3
				C28.2,85,26.3,84.6,26.3,84.6z"/>
			<path fill="#FFE000" d="M18.5,85.3l0.9-0.1l-0.8-2.4c-0.1-0.4-0.5-0.6-0.9-0.5l-0.3,0.1c-0.4,0.1-0.6,0.5-0.5,0.9l0.5,1.6
				c0.1,0.2,0.6,0.1,0.7,0.4c0.7,1.3,1.8,1.3,1.8,1.3l-0.3-1L18.5,85.3z"/>
			<path fill="#FFE000" d="M24.8,82.4l-0.4-1.3c-0.1-0.4-0.5-0.6-0.9-0.5l-0.3,0.1c-0.4,0.1-0.6,0.5-0.5,0.9l0.7,2.2l1-0.9l-0.8,1.4
				l0.1,0.2l0.3,1c0,0,0.9-1.2,0.7-2.2C24.5,83,24.9,82.8,24.8,82.4z"/>
			<path fill="#FFE000" d="M21.5,81.9c-0.1-0.3-0.5-0.5-0.8-0.4l-0.5,0.2c-0.3,0.1-0.5,0.5-0.4,0.8l0.6,1.8l1.4,0.7l-0.9,0
				c0.2,0.9,0.7,1.3,1.3,1.7c0,0,0.5-1.2,0.2-2.1L21.5,81.9z"/>
			<path fill="#FFE000" d="M63.5,80.1l1.2,0.6c0.2-0.3,0.7-0.7,1.4-0.5l0.3,0.1c0,0,0,0,0.1,0c-2.2-2.6-3.6-5.1-3.9-8.3l-4,1.6
				c0.2,0.6,0.5,1.2,0.8,1.8l1.1-1.3l0.3,0.3l-1.2,1.4c0.2,0.3,0.4,0.6,0.6,0.9l0.9-1.1l0.3,0.3l-1,1.2c0.2,0.3,0.4,0.6,0.7,0.8
				l0.9-1l0.3,0.3l-0.9,1.1C61.9,79,62.6,79.6,63.5,80.1z"/>
			<path fill="#FFE000" d="M23.8,80.2c0.3,0,0.6,0.2,0.8,0.4l2.8-1.1c0.5-0.3,0.9-0.7,1.3-1.1l-1-1.2l0.3-0.3l1,1.2
				c0.2-0.3,0.4-0.5,0.7-0.8L28.4,76l0.3-0.3l1,1.3c0.2-0.3,0.4-0.6,0.6-0.9L29,74.5l0.3-0.3l1.2,1.4c0.6-1.2,1-2.3,1.1-3.3
				l-4.1-1.9C27.5,74.2,26.2,77.3,23.8,80.2z"/>
			<path fill="#FFE000" d="M9.9,26.9v-1.1l0.7,0.9c0.6,0.8,1.2,1.5,1.8,2.1c-0.4-0.9-0.7-2-0.8-3.2c-1.8-2.6-3.3-5.1-3.8-7
				c-1.1,5.2,0.3,8.7,2.6,11.5C10.1,29.1,9.9,28.1,9.9,26.9z"/>
			<path fill="#FFE000" d="M19.5,45.2c-0.1-0.1-0.1-0.2-0.2-0.3L18.7,44l1,0.3c0.7,0.2,1.5,0.3,2.4,0.3c-1.6-0.4-3.2-1.2-4.3-3
				c-2.8-1.3-5.6-3.4-7.4-5.9c-0.7-0.5-1.4-1-2-1.7C9.6,39.2,14.7,43.7,19.5,45.2z"/>
			<path fill="#FFE000" d="M21,41c-1.7-0.7-2.9-1.9-3.6-3.1c-2.1-1.1-4.5-2.9-6-5.5c-0.9-0.7-1.7-1.5-2.6-2.5
				c0.2,5.1,4.4,9,8.7,11.1c-0.1-0.1-0.1-0.2-0.2-0.4l-0.4-0.9l0.9,0.4C18.9,40.6,20,40.8,21,41z"/>
			<path fill="#FFE000" d="M17.7,34c-0.1-0.3-0.1-0.6-0.2-0.9l-0.1-0.9l0.7,0.5c0.8,0.6,1.6,1,2.4,1.4c-0.7-0.6-1.3-1.6-1.4-3
				c-3.5-1.7-5.1-3.8-7.3-6.4C12.1,29.3,14.7,31.9,17.7,34z"/>
			<path fill="#FFE000" d="M25.1,52.7c0.4-0.6,0.9-1.1,1.5-1.4c-0.9,0.1-1.8,0.1-2.7,0.1c-2.9,0-5.5-0.6-7.7-1.7
				c-0.7,0.2-1.3,0.4-1.9,0.8C16.3,52.7,20.4,53.6,25.1,52.7z"/>
			<path fill="#FFE000" d="M28.2,53.7c-0.2,0-0.5,0-0.8,0c-0.7,0-1.4-0.1-2.2-0.2l-0.6-0.1l0.2-0.3c-1.1,0.2-2.2,0.3-3.3,0.3
				c-1,0-1.9-0.1-2.8-0.2c-1.4,0.4-2.4,0.9-2.8,1.8C20.4,56.3,24.2,55.6,28.2,53.7z"/>
			<path fill="#FFE000" d="M27.6,50.7c0,0-0.1,0-0.1,0c-1.2,0-2.7-0.2-4.5-0.6L22.4,50l0.3-0.5c0.1-0.2,0.3-0.4,0.4-0.6
				c-4.4-0.2-8-1.8-10.8-4.8c-0.5,0.1-0.9,0.3-1.2,0.3C14.9,50.4,21.1,51.6,27.6,50.7z"/>
			<path fill="#FFE000" d="M23.5,48.5c0.2-0.2,0.4-0.4,0.6-0.5c-1.8-0.4-3.2-1.2-4.1-2.3c-2-0.5-4.2-1.6-6.1-3.2
				c-1.4-1.1-2.5-2.3-3.5-3.6c-0.5-0.1-1-0.2-1.3-0.2C12.1,44.8,16.7,48.3,23.5,48.5z"/>
			<path fill="#FFE000" d="M21.6,34.3c4,1.8,7.8,2.7,8.3,7c-1.7-5.6-6.7-4.7-12-8.3c0.2,2.1,1.7,3.5,4,4.4c2.9,1,5.8,1.9,6.9,4.8
				c-3.1-4.5-7.9-3.2-11.7-6.1c0.5,1.8,2.2,4.4,5.7,4.9c2.5,0.6,3.8,1,5.1,2.9c-2.7-2.8-6.7-2-10.3-3.5C19.8,45.5,25,43.9,28,46
				c-2.6-1.2-6.2-0.6-8.4-1.3c1.1,1.7,2.9,2.6,4.9,3c1.1-0.7,2.3-0.7,3.6-0.8c0.5,0,1.1-0.1,1.6-0.1c-1.5-1.6-1.2-4.4,1.4-4.3
				c0.3-9.2-8.2-8.6-11.5-12.6C19.3,32.4,20.5,33.7,21.6,34.3z"/>
			<path fill="#FFE000" d="M36.8,26.4c1,0.4,3.1,0.6,4.3-1.9C40.2,25,39,25,38,24.9c-1.4-0.1-2.8-0.4-4.3-0.3
				c-0.4,0-1.1,0.4-1.2,0.9C35.1,25,35.8,26,36.8,26.4z"/>
			<path fill="#FFE000" d="M42.7,32.1c0,0.8,0,1.6-0.4,2.2l-0.5,0.8l-0.2-0.9c-0.1-0.3-0.2-0.6-0.3-0.9c-0.2,0.6-0.4,1.2-0.8,1.7
				l-0.6,0.9l-0.1-1.1c0-0.2,0-0.3-0.1-0.5c-0.1,0.4-0.3,0.8-0.6,1.2L39,35.7c-0.1,0.7-0.2,1.4-0.3,1.8c0.9-0.2,2-1.4,2.4-2.4
				c0.2,0.6,0.6,1.4,1,1.7c0.7-0.8,0.9-1.8,1.1-3c0.4,0.6,0.9,0.8,1.8,0.9c0,0,0,0,0,0c0,0,0,0,0,0c0,0,0,0,0,0c0,0,0,0,0,0
				c0.9-0.1,1.4-0.4,1.8-0.9c0.1,1.2,0.4,2.2,1.1,3c0.3-0.3,0.8-1.1,1-1.7c0.4,0.9,1.5,2.2,2.4,2.4c-0.1-0.4-0.2-1.1-0.3-1.8
				l-0.1-0.1c-0.3-0.4-0.5-0.8-0.6-1.2c0,0.1,0,0.3-0.1,0.5L50,35.9L49.4,35c-0.4-0.5-0.6-1.1-0.8-1.7c-0.1,0.3-0.2,0.6-0.3,0.9
				l-0.2,0.9l-0.5-0.8c-0.4-0.6-0.4-1.4-0.4-2.2c-0.5,0.5-1.1,0.9-1.6,1.2c-0.1,0.5-0.4,1-0.7,1.4c-0.3-0.4-0.5-1-0.7-1.4
				C43.8,33,43.2,32.6,42.7,32.1z"/>
			<path fill="#FFE000" d="M39.7,26.7c-1.7,0.9-3.1,0.2-3.9-0.4c-1-0.7-2-0.7-3-0.5c1.9,1.2,1.2,3.4,2.5,4c0.6,0.4,2,1.3,2.6,2.9
				c0.3-0.5,0.6-2.3-1-4.3c0.4,0.2,0.9,0.8,0.9,0.8c1,0.6,1.8,1.3,2.3,2.1c0.2-1.2-0.4-2.3-1.4-3.5c1.6,1.9,3.4,2,4.6,1.6
				C41.9,29.3,40.4,27.9,39.7,26.7z M33.7,26.1c0.3,0,0.9-0.1,1.8,0.4C35.2,26.8,34.5,27.3,33.7,26.1z"/>
			<path fill="#FFE000" d="M40.2,29.7c0.2,0.5,0.3,1.1,0.2,1.8l-0.2,1.1l-0.6-0.9c-0.4-0.6-0.9-1.1-1.5-1.5c0.4,1.2,0.3,2.1,0.1,2.7
				c0.3,0.8,0.5,1.7,0.5,2.5c0.6-0.9,0.8-1.8,0.8-2.8c0.3,0.7,0.5,1.4,0.6,2.2c0.6-0.9,0.9-1.8,1-2.8c0.4,0.7,0.7,1.4,0.8,2.1
				c0.5-0.7,0.3-2,0.2-3.1c0.7,0.8,1.8,1.8,2.5,2.1c-0.4-1.1-1.2-2.1-2-2.9C42.5,30.1,41.1,30.3,40.2,29.7z"/>
			<path fill="#FFE000" d="M37,39.8c-2.5,1.3-2.4,3.8-3.7,4.3c0.3,0.1,0.5,0.2,0.8,0.2c0.3-0.3,0.5-0.7,0.7-1.1
				c0.8-1.2,1.7-2.7,4.1-3.3c0-0.1-0.1-0.2-0.1-0.3c-0.4,0.1-0.7,0.2-1,0.2c-0.1,0-0.2,0-0.3,0L37,39.8z"/>
			<path fill="#FFE000" d="M21.9,37.9L21.9,37.9L21.9,37.9L21.9,37.9c-2-0.8-3.3-1.9-3.9-3.3C16,33.4,14.3,31.9,13,30
				c-1-0.9-1.8-1.9-2.7-3c0,5.1,3.3,8.4,6.8,10.3c-0.1-0.3-0.3-0.7-0.4-1l-0.3-1.2l0.9,0.7C18.8,36.9,20.3,37.4,21.9,37.9z"/>
			<path fill="#FFE000" d="M8.4,30l0-1.2l0.8,0.9c0.7,0.9,1.4,1.5,2.1,2.1l-1.2-1.5c-1.3-1.6-2.2-3.4-2.7-5.2
				c-0.2-0.4-0.4-0.8-0.6-1.2c-1.1,5.3,0.8,7.9,3,10.5C9,33.1,8.5,31.6,8.4,30z"/>
			<path fill="#FFE000" d="M27.2,61c-0.5,0.3-1,0.5-1.6,0.7l1.3,0.6C26.9,62,27.1,61.5,27.2,61z"/>
			<path fill="#FFE000" d="M29.5,63.9l0.4,0.2l0.3-0.2l0.7,0.3c0-0.5,0-1.2,0-1.8C30.5,62.9,30,63.5,29.5,63.9z"/>
			<path fill="#FFE000" d="M33,65.2l0.5,0.2l0.3,0.5l0.8,0.4c-0.2-0.8-0.3-1.8-0.3-2.7C33.9,64.2,33.5,64.7,33,65.2z"/>
			<path fill="#FFE000" d="M18.8,58.6l1.4,0.7c3.1-0.1,5.6-1.4,8.1-3l0-0.1c0-0.9,0.6-2,1.1-2.7c0,0,0,0,0,0
				c-2.6,1.4-4.9,2.2-7.2,2.5C20.6,56.8,19.3,57.6,18.8,58.6z"/>
			<path fill="#FFE000" d="M79.3,26.7l0.7-0.9v1.1c0,1.2-0.2,2.2-0.5,3.2c2.3-2.8,3.7-6.3,2.6-11.5c-0.5,1.9-2,4.4-3.8,7
				c-0.1,1.2-0.4,2.2-0.8,3.2C78.1,28.1,78.7,27.4,79.3,26.7z"/>
			<path fill="#FFE000" d="M72,41.7c-1.1,1.8-2.7,2.5-4.3,3c0.9-0.1,1.8-0.1,2.4-0.3l1-0.3l-0.6,0.9c-0.1,0.1-0.1,0.2-0.2,0.3
				c4.8-1.5,9.9-6,11-11.1c-0.7,0.6-1.4,1.2-2,1.7C77.6,38.4,74.8,40.4,72,41.7z"/>
			<path fill="#FFE000" d="M72.4,41.1c4.3-2.2,8.5-6.1,8.7-11.1c-0.8,1-1.7,1.8-2.6,2.5c-1.5,2.6-4,4.3-6,5.5
				c-0.7,1.3-1.9,2.4-3.6,3.1c1.1-0.2,2.1-0.4,3.2-0.8l0.9-0.4l-0.4,0.9C72.5,40.8,72.5,41,72.4,41.1z"/>
			<path fill="#FFE000" d="M69.3,34.1c0.8-0.4,1.6-0.8,2.4-1.4l0.7-0.5l-0.1,0.9c0,0.3-0.1,0.6-0.2,0.9c3.1-2,5.6-4.7,5.8-9.2
				c-2.1,2.6-3.7,4.7-7.3,6.4C70.6,32.5,70,33.5,69.3,34.1z"/>
			<path fill="#FFE000" d="M66,51.4c-0.8,0-1.7,0-2.7-0.1c0.5,0.3,1,0.8,1.5,1.4c4.7,0.9,8.8,0.1,10.8-2.1c-0.6-0.4-1.2-0.7-1.9-0.8
				C71.5,50.8,68.9,51.4,66,51.4z"/>
			<path fill="#FFE000" d="M71.2,53.2c-0.9,0.2-1.8,0.2-2.8,0.2c-1.1,0-2.2-0.1-3.3-0.3l0.2,0.3l-0.6,0.1c-0.8,0.2-1.5,0.2-2.2,0.2
				c-0.3,0-0.5,0-0.8,0c3.9,1.9,7.8,2.6,12.2,1.3C73.6,54.1,72.6,53.6,71.2,53.2z"/>
			<path fill="#FFE000" d="M66.8,48.9c0.1,0.2,0.3,0.4,0.4,0.6l0.3,0.5l-0.6,0.1c-1.8,0.4-3.3,0.6-4.5,0.6c0,0-0.1,0-0.1,0
				c6.4,0.9,12.7-0.3,16.5-6.2c-0.3-0.1-0.8-0.2-1.2-0.3C74.7,47.1,71.1,48.7,66.8,48.9z"/>
			<path fill="#FFE000" d="M76.1,42.6c-1.9,1.5-4.1,2.6-6.1,3.2c-1,1.1-2.4,1.9-4.1,2.3c0.2,0.2,0.4,0.3,0.6,0.5
				c6.8-0.3,11.4-3.8,14.5-9.7c-0.3,0-0.8,0.1-1.3,0.2C78.6,40.3,77.5,41.5,76.1,42.6z"/>
			<path fill="#FFE000" d="M60.1,46.8c0.6,0.1,1.1,0.1,1.6,0.1c1.3,0.1,2.5,0.1,3.6,0.8c2-0.4,3.8-1.3,4.9-3
				c-2.2,0.7-5.7,0.1-8.4,1.3c3-2.1,8.2-0.5,10.3-5.4c-3.6,1.5-7.6,0.7-10.3,3.5c1.3-1.9,2.6-2.3,5.1-2.9c3.6-0.6,5.2-3.1,5.7-4.9
				c-3.8,2.9-8.6,1.6-11.7,6.1c1.2-3,4-3.9,6.9-4.8c2.3-0.9,3.8-2.3,4-4.4c-5.3,3.6-10.3,2.7-12,8.3c0.5-4.3,4.4-5.3,8.3-7
				c1.1-0.7,2.2-2,2-4.4c-3.3,3.9-11.8,3.4-11.5,12.6C61.4,42.4,61.7,45.2,60.1,46.8z"/>
			<path fill="#FFE000" d="M53.1,26.4c1-0.5,1.7-1.4,4.3-0.9c-0.1-0.5-0.7-0.9-1.2-0.9c-1.5-0.1-2.9,0.2-4.3,0.3
				c-1,0.1-2.2,0.1-3.1-0.4C50,27,52.1,26.8,53.1,26.4z"/>
			<path fill="#FFE000" d="M47.7,31c-0.1,1.1-0.3,2.4,0.2,3.1c0.2-0.7,0.5-1.5,0.8-2.1c0.1,1,0.4,1.9,1,2.8c0.1-0.8,0.3-1.5,0.6-2.2
				c0,1,0.2,2,0.8,2.8c0-0.9,0.1-1.7,0.5-2.5c-0.2-0.6-0.3-1.5,0.1-2.7c-0.6,0.4-1.1,1-1.5,1.5l-0.6,0.9l-0.2-1.1
				c-0.1-0.6,0-1.2,0.2-1.8c-0.9,0.5-2.3,0.4-2.5,0.4c-0.8,0.8-1.5,1.8-2,2.9C46,32.7,47,31.8,47.7,31z"/>
			<path fill="#FFE000" d="M52.9,39.8l-0.4,0.1c-0.1,0-0.2,0-0.3,0c-0.3,0-0.7-0.1-1-0.2c0,0.1-0.1,0.2-0.1,0.3
				c2.4,0.5,3.3,2,4.1,3.3c0.2,0.4,0.5,0.8,0.7,1.1c0.3,0,0.5-0.1,0.8-0.2C55.3,43.6,55.4,41.1,52.9,39.8z"/>
			<path fill="#FFE000" d="M72.8,37.3c3.5-2,6.8-5.3,6.8-10.3c-0.9,1.2-1.8,2.1-2.7,3c-1.2,2-3,3.5-4.9,4.7
				c-0.6,1.4-1.9,2.4-3.8,3.2l0,0l0,0l-0.1,0c1.5-0.4,3.1-0.9,4.5-2l0.9-0.7l-0.3,1.2C73.1,36.6,72.9,36.9,72.8,37.3z"/>
			<path fill="#FFE000" d="M78.6,31.8c0.7-0.6,1.4-1.3,2.1-2.1l0.8-0.9l0,1.2c-0.1,1.6-0.5,3.2-1.3,4.6c2.2-2.7,4.1-5.2,3-10.5
				c-0.2,0.4-0.4,0.8-0.6,1.2c-0.5,1.9-1.4,3.6-2.7,5.2L78.6,31.8z"/>
			<path fill="#FFE000" d="M70.6,58c-0.6-0.7-1.7-1.3-2.9-2c-2.3-0.3-4.6-1.1-7.2-2.5c0,0,0,0,0,0c0.6,0.7,1.1,1.8,1.1,2.7l0,0.1
				c2.2,1.4,4.4,2.5,7,2.8C69.2,58.7,69.9,58.3,70.6,58z"/>
			<path fill="#FFE000" d="M63.9,61.6c-0.4-0.2-0.8-0.4-1.2-0.6c0.1,0.4,0.1,0.8,0.2,1.1C63.3,62,63.6,61.8,63.9,61.6z"/>
			<path fill="#FFE000" d="M60.2,63.7c-0.4-0.4-0.8-0.8-1.2-1.2c0.1,0.7,0.1,1.3,0,1.8C59.4,64.1,59.8,63.9,60.2,63.7z"/>
			<path fill="#FFE000" d="M55.2,66.3c0.6-0.3,1.2-0.7,1.9-1c-0.5-0.6-1-1.1-1.4-1.7C55.6,64.7,55.5,65.6,55.2,66.3z"/>
			<path fill="#FFE000" d="M66.7,60.1c-0.3-0.4-0.6-0.8-1-1.2c-1.6-0.5-3-1.4-4.5-2.3l-0.1,0c-0.2,0-0.3,0-0.5,0
				c-0.9,0-1.9-0.3-2.7-0.8c0,0.2-0.1,0.3-0.1,0.5c1.9,2.2,3.9,4.1,6.6,5.1C65.2,60.9,66,60.5,66.7,60.1z"/>
			<path fill="#FFE000" d="M62.5,62.4c0-0.5-0.1-1-0.3-1.6c-1.7-1-3.2-2.4-4.5-4c-0.2,0.6-0.4,1.2-0.6,1.8c0.8,1.9,1.9,3.5,3.5,4.9
				C61.2,63.1,61.9,62.8,62.5,62.4z"/>
			<path fill="#FFE000" d="M58.5,61.9C57.8,61,57.3,60,56.9,59c-0.5,1-1.1,1.9-1.9,2.7c0.6,1.2,1.4,2.3,2.4,3.4
				c0.4-0.2,0.8-0.4,1.2-0.6C58.7,63.8,58.6,62.9,58.5,61.9z"/>
			<path fill="#FFE000" d="M55.2,63c-0.2-0.3-0.4-0.6-0.5-0.9c-0.4,0.4-0.8,0.8-1.3,1.1v1.5V65c0.4,0.5,0.8,1,1.2,1.5
				C55.1,65.7,55.3,64.5,55.2,63z"/>
			<path fill="#FFE000" d="M51.9,65.1c-0.3,0.4-0.5,0.9-0.9,1.2c0.3,0.5,0.7,1.1,1.1,1.6c0.3-0.2,0.6-0.3,0.9-0.5
				c0.2-0.5,0.4-1,0.5-1.7c-0.2-0.2-0.4-0.5-0.5-0.7H51.9z"/>
			<path fill="#FFE000" d="M50.7,66.6c-0.6,0.6-1.3,1.2-2.1,1.6c0.4,0.3,0.8,0.6,1.2,0.9c0.5-0.3,1.1-0.5,1.6-0.8
				c0-0.3-0.1-0.5-0.2-0.8C51,67.2,50.9,66.9,50.7,66.6z"/>
			<path fill="#FFE000" d="M49.2,69.4c0-0.1,0-0.2,0-0.2c-0.3-0.2-0.7-0.5-1-0.8c-0.7,0.3-1.5,0.5-2.4,0.6c0.3,0.6,0.6,1.1,1,1.6
				C47.6,70.2,48.4,69.8,49.2,69.4z"/>
			<path fill="#FFE000" d="M45.4,69c-0.1,0-0.2,0-0.2,0h-0.5c-0.1,0-0.2,0-0.2,0c-0.2,0.5-0.6,1-0.8,1.5l1.1,0.5
				c0.1-0.2,0.2-0.5,0.2-0.7c0.1,0.4,0.2,0.7,0.3,1.1c0.4-0.2,0.8-0.4,1.2-0.6C46.1,70.2,45.7,69.6,45.4,69z"/>
			<path fill="#FFE000" d="M40.7,69.3l0.7,0.3l0.2-0.1l1.6,0.8c0.3-0.4,0.6-0.9,0.8-1.3c-0.8-0.1-1.6-0.3-2.4-0.6
				C41.4,68.6,41,69.1,40.7,69.3z"/>
			<path fill="#FFE000" d="M41.3,68.2c-0.8-0.4-1.5-0.9-2.1-1.6c-0.2,0.3-0.3,0.6-0.5,0.8c0,0.2-0.2,0.6-0.2,0.7l1.9,0.9
				C40.6,68.9,41,68.4,41.3,68.2z"/>
			<path fill="#FFE000" d="M38,65.1H37h0c-0.2,0.2-0.3,0.5-0.5,0.7c0,0.5,0.1,1.2,0.2,1.5l1.3,0.6c0.3-0.4,0.8-1.2,1-1.6
				C38.6,65.9,38.3,65.5,38,65.1z"/>
			<path fill="#FFE000" d="M36.6,64.7v-1.5c-0.5-0.4-0.9-0.8-1.3-1.2c-0.2,0.3-0.4,0.7-0.6,1c-0.1,1.4,0,2.8,0.4,3.6l0.2,0.1
				c0.4-0.5,0.9-1.3,1.2-1.8V64.7z"/>
			<path fill="#FFE000" d="M33.1,58.9c-0.5,1-1,2-1.7,3c-0.1,1-0.2,1.9-0.1,2.6l1.3,0.6c1-1.1,1.8-2.2,2.4-3.4
				C34.2,60.8,33.6,59.9,33.1,58.9z"/>
			<path fill="#FFE000" d="M32.2,56.7c-1.4,1.6-2.9,3.1-4.6,4.1c-0.2,0.7-0.4,1.5-0.4,2.1l2,0.9c1.7-1.4,2.9-3.5,3.7-5.4
				C32.6,57.9,32.4,57.3,32.2,56.7z"/>
			<path fill="#FFE000" d="M32.1,56.2c0-0.1-0.1-0.3-0.1-0.4c-0.9,0.5-1.8,0.9-2.8,0.9c-0.2,0-0.3,0-0.5,0l-0.1,0
				c-1.4,0.9-2.9,1.7-4.5,2.3c-0.5,0.6-1.2,1.3-1.6,1.8l2,1C27.7,60.7,30.1,58.6,32.1,56.2z"/>
			<path fill="#FFE000" d="M66.8,49.8c-2.6-4-5.9-1.2-9.9-3.7c-0.3,0.2-0.7,0.2-1.2,0.3c1.1,1.5,1.8,3.2,2.1,4.9
				c1.3,2,4,2.3,6.6,1.8c-0.9-1.5-2.1-2-3.5-2.3c-1.6-0.5-2.9-1.1-3.3-2.8C59,50.9,63.2,50.5,66.8,49.8z"/>
			<path fill="#FFE000" d="M61.1,56.2c0-1-0.8-2.4-1.4-2.8c-0.8-0.3-1.3-0.7-1.7-1.3c0.1,0.5,0.1,1,0.1,1.4c0,0.6-0.1,1.3-0.2,1.9
				C59,56,60.1,56.3,61.1,56.2z"/>
			<path fill="#FFE000" d="M30.1,53.4c-0.6,0.5-1.3,1.8-1.4,2.8c1.1,0.1,2.1-0.2,3.2-0.9c-0.1-0.6-0.1-1.2-0.1-1.8
				c0-0.5,0-1.1,0.1-1.6C31.5,52.6,31,53,30.1,53.4z"/>
			<path fill="#FFE000" d="M28.8,50.8c-1.4,0.3-2.6,0.9-3.5,2.3c2.7,0.5,5.5,0.2,6.8-2c0.3-1.7,1.1-3.3,2.1-4.7
				c-0.5,0-0.9-0.1-1.2-0.3c-3.9,2.5-7.3-0.3-9.9,3.7c3.6,0.8,7.8,1.2,9.1-1.8C31.7,49.7,30.4,50.3,28.8,50.8z"/>
			<path fill="#FFE000" d="M53.4,43.8c0.8,0.6,1.5,1.4,2.1,2.1c0.6,0,1.1-0.1,1.6-0.4c-2.7-0.5-2.2-4.4-6.3-5.2c0,0-0.1,0.1-0.1,0.1
				c0.4,0.4,0.8,0.9,1.1,1.5H53h0.4v0.4V43.8z"/>
			<path fill="#FFE000" d="M34.5,46c0.6-0.8,1.3-1.5,2.1-2.1v-1.5V42H37H38c0.3-0.6,0.7-1.1,1.1-1.5c0,0-0.1-0.1-0.1-0.1
				c-4.1,0.9-3.6,4.7-6.3,5.2C33.3,45.9,33.8,46,34.5,46z"/>
			<path fill="#FFE000" d="M39.2,39.5c0.1,0.2,0.2,0.4,0.3,0.6c0.4-0.4,0.8-0.7,1.3-1c-0.1-0.2-0.1-0.5-0.1-0.8
				C40.2,38.9,39.7,39.3,39.2,39.5z"/>
			<path fill="#FFE000" d="M49.3,38.4c0,0.3-0.1,0.6-0.1,0.8c0.5,0.3,0.9,0.6,1.3,1c0.1-0.2,0.2-0.4,0.3-0.6
				C50.2,39.3,49.7,38.9,49.3,38.4z"/>
			<path fill="#FFE000" d="M43.6,38.1c0.1,0,0.3,0,0.4,0c0-0.1-0.1-0.3-0.1-0.4C43.8,37.8,43.7,38,43.6,38.1z"/>
			<path fill="#FFE000" d="M46.3,38.1c-0.1-0.1-0.2-0.3-0.3-0.5c0,0.2-0.1,0.3-0.1,0.4C46,38.1,46.2,38.1,46.3,38.1z"/>
			<path fill="#FFE000" d="M51.1,37.9c-0.8-0.2-1.7-1-2.2-1.8c-0.2,0.4-0.5,0.8-0.8,1.1l-0.3,0.3l-0.3-0.3c-0.6-0.7-0.9-1.6-1.1-2.5
				c-0.4,0.8-2.7,0.8-3,0c-0.1,0.8-0.4,1.7-1.1,2.5l-0.3,0.3l-0.3-0.3c-0.3-0.2-0.5-0.6-0.8-1.1c-0.6,0.8-1.5,1.7-2.2,1.8L38.4,38
				c-0.2,0.5-0.5,1-0.9,1.5c1.1,0.2,2.7-0.8,3.5-2.3c0,0.8,0,1.3,0.1,1.8c0.6-0.3,1.2-0.6,1.9-0.7c0.4-0.5,0.8-1.2,0.9-2.1
				c0.2,1,0.3,1.5,0.5,1.9c0.1,0,0.9,0,1,0c0.2-0.4,0.3-1,0.5-1.9c0.1,0.9,0.5,1.6,0.9,2.1c0.7,0.2,1.3,0.4,1.9,0.7
				c0.1-0.4,0.1-0.9,0.1-1.8c0.9,1.5,2.4,2.5,3.5,2.3c-0.4-0.5-0.7-1-0.9-1.5L51.1,37.9z"/>
			<path fill="#FFE000" d="M51.6,64.7H53V63c2.9-2.2,4.8-5.6,4.8-9.5c0-3.8-1.9-7.3-4.8-9.5v-1.7h-1.4c-1.2-2.3-3.6-3.9-6.4-3.9
				h-0.5c-2.8,0-5.2,1.6-6.4,3.9H37V44c-2.9,2.2-4.8,5.6-4.8,9.5c0,3.8,1.9,7.3,4.8,9.5v1.7h1.3c1.2,2.3,3.6,3.9,6.4,3.9h0.5
				C48,68.6,50.4,67,51.6,64.7z M45.2,68h-0.5c-2.5,0-4.7-1.4-5.9-3.6l-0.2-0.3h-1.1v-1.3l-0.2-0.2c-2.9-2.2-4.5-5.5-4.5-9
				s1.7-6.8,4.5-9l0.2-0.2V43h1.1l0.2-0.3c1.2-2.2,3.4-3.6,5.9-3.6h0.5c2.5,0,4.7,1.4,5.9,3.6l0.2,0.3h1.1v1.3l0.2,0.2
				c2.9,2.2,4.5,5.5,4.5,9s-1.7,6.8-4.5,9l-0.2,0.2v1.3h-1.1l-0.2,0.3C49.9,66.6,47.7,68,45.2,68z"/>
			<path fill="#FFE000" d="M51.3,28c-1,1.2-1.6,2.3-1.4,3.5c0.5-0.8,1.2-1.5,2.3-2.1c0,0,0.5-0.7,0.9-0.8c-1.6,2-1.3,3.7-1,4.3
				c0.6-1.7,2-2.6,2.6-2.9c1.3-0.6,0.6-2.9,2.5-4c-1.1-0.2-2.1-0.2-3,0.5c-0.8,0.6-2.2,1.3-3.9,0.4c-0.7,1.1-2.2,2.6-3.5,2.8
				C47.9,29.9,49.7,29.8,51.3,28z M56.2,26.1c-0.8,1.1-1.4,0.6-1.8,0.4C55.3,26.1,55.8,26.2,56.2,26.1z"/>
			<path fill="#FFE000" d="M62.7,85.4l-0.6,0.6l0.6-1.9c0,0-2,0.2-1.2,1.9l0.1,0.3c0.2,0.5,0.7,1,1.1,1.2l0.3,0.2
				c0.4,0.2,0.6,0,0.4-0.5L62.7,85.4z"/>
			<path fill="#FFE000" d="M71.8,83l-0.3-0.1c-0.4-0.2-0.8,0-1,0.4l-1.1,2.3l0.9,0.2L69.2,86l-0.4,1c0,0,1.1,0.2,1.9-1.1
				c0.2-0.3,0.6-0.1,0.7-0.3l0.7-1.6C72.3,83.6,72.2,83.2,71.8,83z"/>
			<path fill="#FFE000" d="M66.7,81.7c0.2-0.4,0-0.8-0.4-1L66,80.5c-0.4-0.2-0.8,0-1,0.4l-0.6,1.2c-0.2,0.4,0.2,0.6,0,1
				c-0.3,1,0.5,2.2,0.5,2.2l0.4-1l0.1-0.2l-0.6-1.4l0.9,0.9L66.7,81.7z"/>
			<path fill="#FFE000" d="M69.4,82.7c0.1-0.3,0-0.7-0.3-0.8l-0.5-0.2c-0.3-0.1-0.7,0-0.8,0.3l-1.1,2.5c-0.4,0.9,0,2.2,0,2.2
				c0.6-0.4,1.1-0.8,1.4-1.6l-0.8-0.1l1.4-0.5L69.4,82.7z"/>
		</g>
	</g>
</g>
</svg>
