<svg width="43" height="37" viewBox="0 0 43 37" fill="none" xmlns="http://www.w3.org/2000/svg">
<path d="M17.4501 21.5896C18.0826 22.4189 18.7488 23.2232 19.4081 24.0326C19.4435 24.0758 19.5255 24.0973 19.5876 24.0991C19.8551 24.106 20.1235 24.0939 20.391 24.1051C20.5403 24.1112 20.5765 24.0577 20.5757 23.9153C20.5696 23.1386 20.5731 22.362 20.5731 21.5844C20.5731 20.8018 20.5714 20.0199 20.5748 19.2381C20.5748 19.1268 20.5489 19.0724 20.4255 19.0482C19.8974 18.9473 19.3693 18.8886 18.8325 18.9637C18.313 19.037 17.8488 19.226 17.5062 19.642C17.2275 19.9802 17.0342 20.3642 17.1377 20.813C17.1973 21.0831 17.2853 21.3748 17.4501 21.5896Z" fill="#13836F"/>
<path d="M22.1172 23.9376C22.1163 24.0584 22.1491 24.1067 22.2777 24.1024C22.5452 24.0938 22.8136 24.1076 23.0802 24.0946C23.1571 24.0912 23.252 24.0472 23.302 23.9894C23.5877 23.6614 23.8673 23.3275 24.1382 22.9875C24.5119 22.5215 24.8924 22.0598 25.2393 21.5748C25.4922 21.2236 25.6406 20.8189 25.5362 20.3736C25.3645 19.6401 24.8717 19.2164 24.1658 19.0266C23.5393 18.8592 22.9102 18.9265 22.282 19.0395C22.1483 19.0637 22.1163 19.1215 22.1172 19.2483C22.1224 20.025 22.1198 20.8008 22.1198 21.5774C22.1189 22.3636 22.1207 23.1514 22.1172 23.9376Z" fill="#13836F"/>
<path d="M15.9635 29.3012H18.8854C19.4808 29.3012 20.072 29.4298 20.6078 29.6904C21.0134 29.888 21.2827 30.1054 21.4561 30.3358C21.778 30.0174 22.1655 29.7076 22.9421 29.4505C23.2424 29.3504 23.5574 29.3012 23.8749 29.3012H27.0169C27.7107 29.3012 28.2734 28.7385 28.2734 28.0447V15.1627C28.2734 14.4689 27.7107 13.9062 27.0169 13.9062H15.9635C15.2697 13.9062 14.707 14.4689 14.707 15.1627V28.0456C14.707 28.7385 15.2697 29.3012 15.9635 29.3012ZM17.6402 18.1045C18.3832 17.6756 19.2038 17.5772 20.0452 17.6687C20.3093 17.6972 20.5707 17.742 20.8331 17.786C20.8348 17.6143 20.8331 17.4426 20.8296 17.2709C20.827 17.144 20.89 17.081 21.0057 17.0784C21.1066 17.0776 21.2067 17.0767 21.3068 17.0758C21.1368 16.8549 20.9789 16.6495 20.8175 16.4381C21.0436 16.1672 21.2404 15.929 21.4699 15.652C21.6926 15.9238 21.8962 16.1723 22.1214 16.4468C21.9592 16.6556 21.8039 16.8549 21.6304 17.0767C21.721 17.0776 21.8117 17.0784 21.9031 17.0793C22.0498 17.081 22.1189 17.1595 22.1171 17.3088C22.1145 17.4599 22.1163 17.6109 22.1163 17.7619C22.5926 17.6765 23.0724 17.6212 23.5582 17.6437C24.4704 17.6868 25.3014 17.9422 25.9676 18.6058C26.985 19.6181 27.155 21.0281 26.3533 22.2224C25.9521 22.8213 25.4757 23.3719 25.0235 23.9371C24.6956 24.347 24.3522 24.744 24.0165 25.147C23.8801 25.3109 23.7093 25.3929 23.4944 25.3886C23.2994 25.3843 23.1052 25.3877 22.911 25.3877C22.6953 25.3886 22.4804 25.392 22.2656 25.3869C22.1784 25.3843 22.1292 25.4084 22.1189 25.4757V25.5405C22.1214 25.5689 22.1197 25.5983 22.1189 25.6276V26.003C22.1189 26.2869 21.8893 26.5165 21.6054 26.5165H21.3448C21.0609 26.5165 20.8313 26.2869 20.8313 26.003V25.6949C20.8305 25.6854 20.8305 25.6768 20.8305 25.6665C20.8313 25.6621 20.8313 25.657 20.8313 25.6518V25.4542C20.8184 25.3774 20.7606 25.3877 20.5552 25.3877C20.1772 25.3869 19.7993 25.386 19.4213 25.3877C19.2366 25.3886 19.0735 25.3265 18.9605 25.1875C18.17 24.215 17.3709 23.2485 16.6055 22.257C16.2603 21.8091 16.0817 21.2672 16.0852 20.6985C16.0921 19.5361 16.6495 18.6766 17.6402 18.1045Z" fill="#13836F"/>
<path d="M29.9497 26.8164C29.803 26.6533 29.6675 26.4799 29.5329 26.3047V29.1446C29.5329 29.2042 29.5225 29.2603 29.5156 29.3172C30.3958 29.5614 31.3839 29.3397 32.2227 28.6631C31.4547 28.053 30.5926 27.5335 29.9497 26.8164Z" fill="#DCBFA6"/>
<path d="M33.3444 16.0015C35.4129 15.5019 37.4926 15.0238 39.5162 14.3749C41.2455 13.8217 42.4441 12.6153 42.7936 10.7548C42.9697 9.81422 42.9688 8.86843 42.338 7.9399C39.7181 10.8247 36.6866 12.976 32.9216 13.9624C32.4797 13.2971 32.8275 12.9804 33.303 12.6378C34.82 11.5427 36.3664 10.477 37.8024 9.28178C39.9658 7.48254 40.8296 4.77894 39.996 2.59224C39.7405 1.92259 39.2651 1.33752 38.8086 0.578125C36.0333 5.22076 33.1476 9.52772 29.2773 13.0278C29.4396 13.266 29.5354 13.5542 29.5354 13.864V24.1305C30.1964 24.8139 30.8324 25.5258 31.5745 26.1057C32.6446 26.9419 33.939 27.2983 35.2808 26.7961C35.8185 26.595 36.2655 26.1506 36.8169 25.7735C35.3249 25.2152 34.0106 24.8174 32.7852 24.2323C32.0025 23.8586 31.3173 23.2477 30.6615 22.6617C30.4509 22.4736 30.476 22.0214 30.3923 21.6909C30.7055 21.7272 31.0412 21.7021 31.3277 21.81C32.9742 22.4322 34.5732 23.2183 36.2629 23.6714C37.0723 23.8888 38.0828 23.6144 38.9328 23.3469C39.914 23.0371 40.4568 22.2527 40.4007 21.0489C37.4805 21.0825 34.5724 21.0256 31.8748 19.7053C31.8023 18.8294 32.3736 18.9795 32.8404 19.0227C34.5698 19.1806 36.2957 19.4559 38.0276 19.4973C40.7726 19.562 42.7712 18.0243 42.6728 15.4605C42.6685 15.3396 42.6185 15.2188 42.5753 15.0385C39.4489 16.4779 36.2534 17.3253 32.7973 16.9292C32.5211 16.3139 32.7688 16.1405 33.3444 16.0015Z" fill="#DCBFA6"/>
<path d="M13.4475 24.1072V13.864C13.4475 13.5585 13.5399 13.2763 13.6969 13.0399C9.81973 9.53721 6.92973 5.22594 4.15191 0.578125C3.69542 1.33752 3.2208 1.92259 2.9645 2.59224C2.13003 4.77894 2.99384 7.4834 5.15811 9.28178C6.59491 10.477 8.14044 11.5418 9.6575 12.6369C10.133 12.9804 10.4816 13.2962 10.0389 13.9624C6.27389 12.9752 3.24237 10.8247 0.622472 7.93904C-0.00834075 8.86843 -0.00920393 9.81421 0.166837 10.754C0.516329 12.6153 1.71496 13.8209 3.44344 14.374C5.4679 15.0229 7.5476 15.501 9.61608 16.0007C10.1917 16.1396 10.4393 16.313 10.1623 16.9283C6.70623 17.3244 3.51075 16.477 0.384299 15.0376C0.341151 15.2171 0.291964 15.3379 0.286786 15.4596C0.189273 18.0225 2.18785 19.5612 4.93202 19.4956C6.66394 19.455 8.38983 19.1797 10.1192 19.0218C10.586 18.9787 11.1573 18.8285 11.0848 19.7044C8.38811 21.0247 5.47912 21.0808 2.55892 21.048C2.50283 22.2518 3.04562 23.0362 4.02679 23.346C4.87765 23.6144 5.88816 23.888 6.69674 23.6714C8.38638 23.2183 9.98542 22.4322 11.6319 21.81C11.9175 21.7013 12.2541 21.7263 12.5673 21.6901C12.4836 22.0214 12.5095 22.4727 12.2981 22.6609C11.6423 23.2477 10.9571 23.8586 10.1744 24.2314C8.94902 24.8165 7.63389 25.2143 6.14273 25.7718C6.69501 26.1489 7.14115 26.5942 7.67877 26.7944C9.02065 27.2975 10.3159 26.9402 11.3851 26.1049C12.135 25.5198 12.7779 24.7984 13.4475 24.1072Z" fill="#DCBFA6"/>
<path d="M13.1888 26.2773C13.0481 26.462 12.904 26.6441 12.7504 26.8158C12.1084 27.5329 11.2454 28.0533 10.4766 28.6634C11.3222 29.3451 12.3207 29.5652 13.2061 29.3115C13.2 29.2554 13.1897 29.2019 13.1897 29.144V26.2773H13.1888Z" fill="#DCBFA6"/>
<path d="M27.7852 5.7347C28.3504 5.83049 28.9173 5.92714 29.5326 6.03155C29.4265 5.0245 28.6671 4.80617 27.7852 5.7347Z" fill="#DCBFA6"/>
<path d="M13.4609 6.02828C14.0762 5.92387 14.644 5.82722 15.2084 5.73143C14.3273 4.80204 13.5679 5.02036 13.4609 6.02828Z" fill="#DCBFA6"/>
<path d="M13.8125 4.51967C17.3394 5.26352 19.0454 9.16317 17.2902 12.3785H25.6927C25.4338 11.8642 25.1292 11.3775 24.9963 10.8485C24.4069 8.5056 26.2078 5.45855 28.5516 4.69657C29.6294 4.34622 30.6486 4.25216 31.5288 5.14444C32.207 3.91906 31.8541 3.00175 30.5683 2.64794C30.1187 2.52368 29.6424 2.46241 29.1746 2.44256C27.5471 2.37266 25.9188 2.34074 24.2912 2.27688C23.8865 2.26048 23.4844 2.17764 23.0814 2.125C23.0175 2.2018 22.9537 2.2786 22.889 2.35541C23.4378 3.00607 23.9866 3.65672 24.5812 4.36261C22.7725 6.07556 22.0502 8.42104 21.4772 10.8476C21.0336 8.33302 20.1439 6.07901 18.4664 4.33672C19.0903 3.5851 19.64 2.92236 20.2207 2.22251C18.2316 2.29414 16.4272 2.34937 14.6245 2.42962C13.9204 2.46068 13.2015 2.47449 12.5189 2.62637C11.1892 2.92322 10.812 3.87764 11.4912 5.20485C12.1462 4.44718 12.9314 4.33327 13.8125 4.51967Z" fill="#DCBFA6"/>
<path d="M27.7211 34.25C24.6646 34.25 22.0973 34.6271 21.3612 35.0335C20.6355 34.6323 18.126 34.2604 15.1256 34.2509L14.1953 35.61C14.4594 35.6057 14.7277 35.6022 15.0013 35.6022C18.057 35.6022 20.626 35.9793 21.3612 36.3866C22.0973 35.9793 24.6654 35.6022 27.7211 35.6022C28.1439 35.6022 28.5573 35.6083 28.9577 35.6195L28.0214 34.2517C27.9222 34.2517 27.8221 34.25 27.7211 34.25Z" fill="#DCBFA6"/>
<path d="M24.3171 30.6337C24.223 30.6337 24.1289 30.6371 24.0357 30.6449C23.7553 30.6665 23.4783 30.7217 23.2116 30.8106C23.14 30.8339 23.077 30.858 23.0114 30.8822C22.2279 31.1721 21.805 31.5096 21.4538 31.8565C21.4529 31.8573 21.4512 31.859 21.4504 31.8599C21.3994 31.7935 21.3425 31.727 21.2778 31.6623C21.0836 31.469 20.823 31.2852 20.4778 31.1135C20.4761 31.1126 20.4752 31.1117 20.4735 31.1109C20.4468 31.0979 20.4191 31.0859 20.3907 31.0729C20.3898 31.072 20.3889 31.072 20.3881 31.0712C20.0774 30.9262 19.7529 30.8158 19.4207 30.7433C19.4173 30.7424 19.4138 30.7424 19.4104 30.7415C19.2481 30.7062 19.0833 30.6785 18.9176 30.6613C18.7468 30.6432 18.5742 30.6328 18.4007 30.6328H15.3329L13.582 33.1906C13.8685 33.1862 14.1593 33.1828 14.4553 33.1828C17.7639 33.1828 20.5451 33.591 21.3416 34.0319C22.1381 33.591 24.9194 33.1828 28.2288 33.1828C28.687 33.1828 29.134 33.1897 29.5672 33.2018L27.8103 30.6337H24.3171V30.6337Z" fill="#DCBFA6"/>
</svg>
