<svg id="Layer_1" xmlns="http://www.w3.org/2000/svg" viewBox="0 0 220 34.7"><style>.st0{fill:#EE3F58;} .st1{fill:#0065B1;}</style><path class="st0" d="M143.6.8h-18c-.2 0-.3.1-.3.3-.5 8.1-2 16.9-4.2 24v.3c.1.1.2.1.3.1h6.2c.1 0 .3-.1.3-.2 1.7-5.5 3.1-12.7 3.6-18.8h5.9v18.7c0 .2.1.3.3.3h5.9c.2 0 .3-.1.3-.3v-24c0-.2-.1-.4-.3-.4M219.7.8h-5.9c-.2 0-.3.1-.3.3v18.6c-1.3.4-2.6.5-4 .5-3.9 0-4.8-1.2-4.8-6.4V1.2c0-.2-.1-.3-.3-.3h-5.9c-.2 0-.3.1-.3.3v13.4c0 8.4 2.8 11.7 10.1 11.7 4.1 0 8.8-1.1 11.5-2.1.1 0 .2-.2.2-.3V1.2c0-.2-.1-.4-.3-.4M95.2.9h-6c-.2 0-.3.1-.3.2-.9 3.7-2.8 9.9-5.4 16.4L77.5 1c0-.1-.2-.2-.3-.2h-6c-.1 0-.2.1-.3.1-.1.1-.1.2 0 .3l9 24.6c-.9 1.9-1.8 3.5-2.6 5-.6 1.1-1.2 2.2-1.8 3.4-.1.1 0 .2 0 .3.1.1.2.2.3.2h6.5c.1 0 .2-.1.3-.2 1.1-2.1 2.5-5.1 3.8-8.1 3.8-9 6.9-17.4 9.2-25.1 0-.1 0-.2-.1-.3-.1-.1-.2-.1-.3-.1M116.6 19.8c0-.1-.1-.2-.2-.2h-.3c-1.4.5-4.1 1-6 1-4.1 0-6-1.1-6-7.4 0-5 .6-7.4 6-7.4 1.5 0 3 .2 4.8.8.2 0 .3 0 .4-.2.7-1.3 1.5-2.8 2.4-4.8v-.3c0-.1-.1-.2-.2-.2-2.4-.8-5.3-1.2-7.8-1.2-8.6 0-12.4 4-12.4 13.1 0 9.2 3.8 13.3 12.4 13.3 2.1 0 6.4-.5 8.4-1.3.2-.1.2-.2.2-.4l-1.7-4.8zM172.5.9h-6c-.1 0-.3.1-.3.2-.9 3.7-2.8 9.9-5.4 16.4l-6-16.5c0-.1-.2-.2-.3-.2h-6c-.1 0-.2.1-.3.1-.1.1-.1.2 0 .3l9 24.6c-.9 1.9-1.8 3.4-2.6 5-.6 1.1-1.2 2.2-1.8 3.4-.1.1 0 .2 0 .3.1.1.2.2.3.2h6.5c.1 0 .2-.1.3-.2 1.1-2.1 2.5-5.1 3.8-8.1 3.8-9 6.9-17.4 9.1-25.1 0-.1 0-.2-.1-.3 0-.1-.1-.1-.2-.1M194.5.8h-17.4c-.2 0-.3.1-.3.3v24.1c0 .2.1.3.3.3h5.9c.2 0 .3-.1.3-.3V6.6h9.1c.1 0 .3-.1.3-.2.7-1.6 1.4-3.4 2.1-5.1V1c-.1-.1-.2-.2-.3-.2"/><path class="st1" d="M31.3 20.8c-3.9 0-5.1-1.1-5.1-7.6 0-7 1.3-7.6 5.1-7.6s5.2.6 5.2 7.6c0 6.6-1.3 7.6-5.2 7.6m0-20.7c-8.5 0-11.8 3.6-11.8 13 0 9.5 3.3 13.2 11.8 13.2s11.9-3.7 11.9-13.2c0-9.3-3.4-13-11.9-13M66.6 19.8c0-.1-.1-.2-.2-.2h-.3c-1.4.5-4.1 1-6 1-4.1 0-6-1.1-6-7.4 0-5 .6-7.4 6-7.4 1.5 0 3 .2 4.8.8.1 0 .3 0 .4-.2.7-1.3 1.5-2.8 2.4-4.8v-.3c0-.1-.1-.2-.2-.2C65.2.4 62.3 0 59.8 0c-8.6 0-12.4 4-12.4 13.1 0 9.2 3.8 13.3 12.4 13.3 2.1 0 6.4-.5 8.4-1.3.2-.1.2-.2.2-.4l-1.8-4.9zM17.7.8H.3C.1.8 0 1 0 1.2v24.1c0 .2.1.3.3.3h5.9c.2 0 .3-.1.3-.3V6.6h9.1c.1 0 .2-.1.3-.2.7-1.6 1.4-3.4 2.1-5.1V1c-.1-.1-.2-.2-.3-.2"/></svg>