<svg width="117" height="32" viewBox="0 0 117 32" fill="none" xmlns="http://www.w3.org/2000/svg">
<path fill-rule="evenodd" clip-rule="evenodd" d="M0 16.019C0 7.17833 7.12376 0 15.9432 0C24.7633 0 32.0001 7.14044 32.0001 15.9811C32.0001 24.8217 24.8384 32.0001 16.019 32.0001C11.7973 32.0001 7.91546 30.3377 5.05048 27.6174L11.7973 21.5727C12.9659 22.4793 14.4356 23.0083 16.019 23.0083C19.863 23.0083 22.9918 19.8725 22.9918 16.019C22.9918 12.1652 19.863 9.02954 16.019 9.02954C12.1742 9.02954 9.0461 12.1652 9.0461 16.019C9.0461 17.3412 9.38512 18.5502 10.0259 19.608L3.2411 25.653C1.20573 22.9705 0 19.646 0 16.019ZM18.9226 20.0163C18.7307 19.7957 18.7687 19.428 18.9993 19.2442C20.0735 18.4354 20.6872 17.1856 20.6485 15.8621C20.6485 14.6858 20.1501 13.5461 19.2678 12.7375C19.0372 12.5168 19.0372 12.1859 19.2678 11.9655C19.4977 11.745 19.8429 11.745 20.0735 11.9655C21.1855 12.9947 21.7992 14.3916 21.7992 15.8621C21.7992 17.5164 21.071 19.0604 19.7283 20.0897C19.6517 20.1633 19.4977 20.2 19.3831 20.2C19.1912 20.2 19.0372 20.1633 18.9226 20.0163Z" fill="#23B250"/>
<path d="M55.1669 25.03C53.3954 25.03 51.8556 24.6823 50.5477 23.987C49.2563 23.275 48.238 22.3396 47.493 21.1806C46.7645 20.0051 46.3175 18.722 46.1519 17.3313H43.0227V24.7072H40.1667V7.32285H43.0227V14.6988H46.1519C46.3175 13.2915 46.7645 12.0083 47.493 10.8494C48.238 9.69043 49.2563 8.76327 50.5477 8.0679C51.8556 7.35596 53.3954 7 55.1669 7C57.1206 7 58.7845 7.42219 60.1587 8.26657C61.5495 9.0944 62.5925 10.1954 63.2879 11.5696C63.9833 12.9438 64.331 14.4256 64.331 16.015C64.331 17.6044 63.9833 19.0862 63.2879 20.4604C62.5925 21.8346 61.5495 22.9439 60.1587 23.7883C58.7845 24.6161 57.1206 25.03 55.1669 25.03ZM48.9086 16.015C48.9086 17.1574 49.1404 18.217 49.604 19.1939C50.0841 20.1541 50.796 20.924 51.7397 21.5035C52.6835 22.083 53.8259 22.3727 55.1669 22.3727C56.508 22.3727 57.6504 22.083 58.5941 21.5035C59.5378 20.924 60.2415 20.1541 60.7051 19.1939C61.1852 18.217 61.4253 17.1574 61.4253 16.015C61.4253 14.8726 61.1852 13.8213 60.7051 12.861C60.2415 11.8842 59.5378 11.106 58.5941 10.5265C57.6504 9.94706 56.508 9.65732 55.1669 9.65732C53.8259 9.65732 52.6835 9.94706 51.7397 10.5265C50.796 11.106 50.0841 11.8842 49.604 12.861C49.1404 13.8213 48.9086 14.8726 48.9086 16.015Z" fill="black"/>
<path d="M69.8363 15.121H65.7137V12.7865H76.6162V15.121H72.4936V24.7072H69.8363V15.121Z" fill="black"/>
<path d="M84.3406 25.03C83.0988 25.03 81.9647 24.7982 80.9382 24.3347C79.9117 23.8545 79.0922 23.1426 78.4796 22.1989C77.8835 21.2386 77.5855 20.0879 77.5855 18.7468C77.5855 17.3892 77.8835 16.2385 78.4796 15.2948C79.0756 14.3345 79.8372 13.6226 80.7644 13.159C81.6915 12.6954 82.6435 12.4636 83.6204 12.4636C84.8952 12.4636 85.9631 12.7285 86.8241 13.2584C87.7015 13.7716 88.3473 14.4587 88.7612 15.3196C89.1916 16.164 89.4069 17.0912 89.4069 18.1011C89.4069 18.6806 89.3489 19.227 89.233 19.7402H80.2428C80.3919 20.7502 80.8968 21.5118 81.7578 22.025C82.6187 22.5217 83.6452 22.7701 84.8373 22.7701C86.1949 22.7701 87.4532 22.4886 88.6122 21.9257V24.2105C88.0658 24.4754 87.4201 24.6741 86.675 24.8065C85.93 24.9555 85.1518 25.03 84.3406 25.03ZM86.8489 17.7534C86.8654 17.6872 86.8737 17.5879 86.8737 17.4554C86.8737 17.0415 86.7661 16.6193 86.5509 16.1889C86.3522 15.7584 86.0128 15.4024 85.5326 15.121C85.0691 14.8229 84.4648 14.6739 83.7197 14.6739C82.7926 14.6739 81.9896 14.9471 81.3107 15.4935C80.6485 16.0398 80.2925 16.7932 80.2428 17.7534H86.8489Z" fill="black"/>
<path d="M91.9363 12.7865H94.5936V17.5051H96.5556L99.9828 12.7865H103.013L98.6914 18.6972L103.484 24.7072H100.43L96.5059 19.7651H94.5936V24.7072H91.9363V12.7865Z" fill="black"/>
<path d="M108.432 25.03C107.273 25.03 106.288 24.7155 105.477 24.0863C104.666 23.4406 104.26 22.5383 104.26 21.3793C104.26 19.9886 104.782 18.9786 105.825 18.3495C106.868 17.7038 108.118 17.3809 109.575 17.3809C110.551 17.3809 111.578 17.4968 112.654 17.7286V17.3064C112.654 16.5448 112.381 15.9322 111.835 15.4686C111.288 15.0051 110.518 14.7733 109.525 14.7733C108.068 14.7733 106.644 15.0796 105.253 15.6922V13.2584C106.81 12.7285 108.333 12.4636 109.823 12.4636C111.561 12.4636 112.911 12.8941 113.871 13.7551C114.831 14.616 115.311 15.924 115.311 17.6789V21.9505C115.311 22.53 115.609 22.8197 116.206 22.8197C116.404 22.8197 116.669 22.7701 117 22.6707V24.583C116.504 24.7817 115.941 24.881 115.311 24.881C114.169 24.881 113.383 24.4423 112.952 23.5648L112.927 23.4903C111.686 24.5168 110.187 25.03 108.432 25.03ZM106.992 21.2055C106.992 21.7684 107.207 22.2071 107.638 22.5217C108.068 22.8197 108.598 22.9687 109.227 22.9687C109.873 22.9687 110.494 22.8528 111.09 22.6211C111.686 22.3727 112.207 22.025 112.654 21.578V19.5415C111.727 19.3429 110.874 19.2435 110.096 19.2435C109.219 19.2435 108.482 19.4008 107.886 19.7154C107.29 20.03 106.992 20.5267 106.992 21.2055Z" fill="black"/>
</svg>
