<?xml version="1.0" encoding="UTF-8"?> <svg xmlns="http://www.w3.org/2000/svg" viewBox="1578.0009155273438 2078.3517456054688 843.9981689453125 843.2965087890625" width="843.9981689453125" height="843.2965087890625" data-guides="{&quot;vertical&quot;:[],&quot;horizontal&quot;:[]}"><path fill="#2a9d8f" stroke="none" fill-opacity="1" stroke-width="1" stroke-opacity="1" alignment-baseline="baseline" baseline-shift="baseline" color="rgb(51, 51, 51)" font-size-adjust="none" id="tSvg185b9db1182" title="Rectangle 1" d="M 1651.9994506835938 2153.3502807617188 C 1868.4315795898438 2153.3502807617188 2084.8637084960938 2153.3502807617188 2301.2958374023438 2153.3502807617188C 2301.2958374023438 2380.0169474283857 2301.2958374023438 2606.683614095052 2301.2958374023438 2833.3502807617188C 2084.8637084960938 2833.3502807617188 1868.4315795898438 2833.3502807617188 1651.9994506835938 2833.3502807617188C 1651.9994506835938 2606.683614095052 1651.9994506835938 2380.0169474283857 1651.9994506835938 2153.3502807617188Z"></path><path fill="#2a9d8f" stroke="none" fill-opacity="1" stroke-width="0.7" stroke-opacity="1" alignment-baseline="baseline" baseline-shift="baseline" color="rgb(51, 51, 51)" fill-rule="evenodd" font-size-adjust="none" id="tSvg5a00678e04" title="Path 5" d="M 1578.7009061958543 2500.0003318683266 C 1578.7009061958543 2640.316489474312 1578.7009061958543 2780.6325769223586 1578.7009061958543 2920.948664370405C 1719.0752247328455 2920.89001233383 1859.4495432698368 2920.8312901393165 1999.8239319647655 2920.772567944802C 2140.198250501757 2920.713915908227 2280.572569038748 2920.6551937137137 2420.9469577336768 2920.5964715192003C 2421.005609770252 2780.3391062656674 2421.064331964766 2640.081670854196 2421.1230541592795 2499.824235442725C 2421.1817061958545 2359.566870189192 2421.240428390369 2219.3094347777205 2421.299150584882 2079.051999366249C 2280.8661098533776 2079.051999366249 2140.433069121873 2079.051999366249 2000.0000283903682 2079.051999366249C 1859.5669876588636 2079.051999366249 1719.1339469273598 2079.051999366249 1578.7009061958543 2079.051999366249C 1578.7009061958543 2219.368156972234 1578.7009061958543 2359.6842444202803 1578.7009061958543 2500.0003318683266ZM 1579.0495911501357 2500.350419981378 C 1579.0495911501357 2731.8716169888594 1579.129571200011 2826.689369274811 1579.2270907345082 2711.0571597985017C 1579.3246102690055 2595.4249503221927 1579.3246102690055 2405.9985164069803 1579.2270907345082 2290.109528875809C 1579.129571200011 2174.2205413446363 1579.0495911501357 2268.8292229738972 1579.0495911501357 2500.350419981378ZM 1944.925345098598 2282.786443256523 C 1936.5337540761539 2285.1339278783025 1927.9667682074924 2291.910483156773 1924.6482977170517 2298.825951153448C 1921.0463891551235 2306.331447412799 1921.0891854976007 2305.538662707895 1921.0800649655976 2365.822572932334C 1921.077258648057 2384.589821477637 1921.0744523305175 2403.357070022941 1921.0716460129788 2422.1243185682442C 1902.3043974676748 2422.1299312033234 1883.5371489223717 2422.1355438384016 1864.7699003770686 2422.141156473481C 1828.677148922372 2422.152381743639 1807.3351040345915 2422.4182803305057 1805.311047509238 2422.8820243039054C 1794.0661331285228 2425.4582238051516 1784.8424689556214 2434.545781577388 1781.7751638849659 2446.0699245532815C 1780.3214913995125 2451.531720064503 1780.2892187478083 2549.0484482440543 1781.7393833363367 2554.494809008809C 1784.123350086129 2563.45046985669 1790.440370867509 2571.435846415294 1798.05671666967 2575.1233476621755C 1805.1033800113164 2578.5344266314196 1805.5180134277753 2578.559683489275 1854.9183226547075 2578.5681024418927C 1870.4014780994294 2578.5709087594323 1885.8846335441513 2578.573715076973 1901.3677889888722 2578.5765213945124C 1901.8331465948568 2576.9979677785523 1902.2985042008422 2575.419414162592 1902.763931964766 2573.840860546632C 1904.4554398616901 2568.101239599 1917.1638488392464 2522.2347857336636 1919.2384190803105 2514.3820076788015C 1919.7325414410752 2512.511176091103 1920.22666380184 2510.6402743454673 1920.7208563205431 2508.7693725998324C 1920.837739446063 2539.6388655341625 1920.9546927295205 2570.5083584684935 1921.0716460129788 2601.3778514028245C 1921.4027914826374 2688.807271186698 1921.493996802671 2694.176458219117 1922.7021165034193 2697.3903933812117C 1926.6969095208751 2708.0151115857007 1934.341318498431 2715.031607013797 1945.017251998016 2717.8730035225253C 1948.1161281409913 2718.6980608791337 1957.7389909838848 2718.875560463506 1999.2977474261124 2718.875560463506C 2052.8415845000945 2718.875560463506 2052.572178016304 2718.8902936305876 2060.2088696206265 2715.512188892434C 2067.2478155890385 2712.399281161761 2074.843815589039 2702.65574666467 2076.7794731118984 2694.2585430071467C 2077.2263791800606 2692.3228854842873 2077.495785663851 2670.2848738467146 2077.5070109340095 2634.8782670304226C 2077.5126235690886 2616.1110184851186 2077.518236204167 2597.3437699398155 2077.523848839246 2578.5765213945124C 2096.291097384549 2578.573715076973 2115.058345929853 2578.5709087594323 2133.8255944751563 2578.5681024418927C 2178.6480982158046 2578.561788227429 2190.8422495042505 2578.3681523172054 2193.6352370354225 2577.6195671135474C 2205.7409893213744 2574.375464037903 2214.957637700427 2564.819251236573 2217.1549843338435 2553.2326676954262C 2218.1014149240345 2548.2388256339136 2218.0354664618562 2450.8399627910203 2217.082020077816 2446.6795970387348C 2214.4377673762365 2435.138616157604 2203.982129803502 2424.987464037903 2192.495872114392 2422.809060047878C 2190.37710237208 2422.407756639732 2169.9653517486395 2422.1243185682442 2143.141867126861 2422.1243185682442C 2127.894652829271 2422.1243185682442 2112.6474385316824 2422.1243185682442 2097.4002943920314 2422.1243185682442C 2096.693803951466 2424.7552412615114 2095.9873135109 2427.3861639547777 2095.280823070336 2430.017086648045C 2092.0577673762373 2442.019005185036 2080.525205447725 2483.610735858352 2078.9880450154724 2488.774360131004C 2078.535736786046 2490.294472184204 2078.0834285566198 2491.8145842374042 2077.631190485132 2493.334626132667C 2077.6131598949405 2462.906216157604 2077.595129304749 2432.477806182542 2077.5771688724963 2402.0493260495405C 2077.543493062023 2344.100272017953 2077.266369204998 2309.4078730154597 2076.819463136835 2307.0491631235227C 2075.735522987209 2301.333395874977 2072.739077434425 2295.909485650538 2068.08199347765 2291.2313543122173C 2063.4059668774844 2286.5342803305057 2058.116058315556 2283.605887978053 2052.3469710337604 2282.519843090273C 2046.4768563205434 2281.4148555591 1948.962934458531 2281.656900446881 1944.925345098598 2282.786443256523Z"></path><path fill="#ffffff" stroke="none" fill-opacity="1" stroke-width="1" stroke-opacity="1" alignment-baseline="baseline" baseline-shift="baseline" color="rgb(51, 51, 51)" fill-rule="evenodd" font-size-adjust="none" id="tSvg84abf8625d" title="Path 7" d="M 1968.8717345140285 2122.5670164827843 C 1966.9219719833945 2122.8490350912616 1959.583774822645 2123.781538831854 1952.564629712364 2124.640349267719C 1839.5195251998912 2138.4620954409766 1734.104727725482 2207.3313230668946 1677.7076692757619 2304.208258026154C 1674.847544894461 2309.1216174009805 1672.507829857701 2313.4255898328665 1672.507829857701 2313.7742158513856C 1672.507829857701 2315.0114130634483 1687.066529422803 2314.3750997207044 1707.6432596642771 2312.2394110625364C 1763.111522144859 2306.4842473990902 1818.7414376643437 2295.115637965904 1871.5140648207544 2278.7514727795424C 1876.166080051421 2277.3092570145827 1880.8180952820876 2275.867041249623 1885.4701105127533 2274.4248254846634C 1885.1382963802662 2269.118907544268 1884.8064822477809 2263.8129896038736 1884.4746681152947 2258.5070716634773C 1884.1428539828084 2253.201153723083 1883.8110398503231 2247.8952357826884 1883.479225717836 2242.589317842292C 1892.115373886857 2242.2765936901787 1900.751522055877 2241.9638695380645 1909.387670224898 2241.651145385952C 1923.635825794213 2241.1352922528567 1946.3112095232045 2240.7129729296103 1959.7780420711515 2240.7129729296103C 1967.9391571872548 2240.7129729296103 1976.100272303357 2240.7129729296103 1984.2613874194594 2240.7129729296103C 1991.5041052999204 2237.6986333304585 1998.7468231803814 2234.6842937313086 2005.9895410608424 2231.6699541321577C 2035.1948567560648 2219.514810388898 2066.53569417575 2204.798824306349 2091.1055380799617 2191.7040909278094C 2120.367574139712 2176.109453904276 2154.7401150433943 2155.588702895484 2153.894981611933 2154.219708042272C 2152.770500385175 2152.4028846449473 2125.972964164145 2142.271472423825 2107.836627606469 2136.8054132635407C 2072.3041552482 2126.0986263939667 2039.4729902505533 2121.576408405772 1999.3674385022532 2121.8626785510605C 1984.5449892420966 2121.9689669713407 1970.8214970446616 2122.286415053245 1968.8717345140285 2122.5670164827843ZM 2310.6119307923773 2645.8008174810175 C 2193.7679798656727 2704.421007034035 2097.285221795236 2768.7595135981373 2019.4521195814505 2839.958583396601C 2008.4001565532617 2850.0673207547306 1997.1255660943025 2860.7046658563886 1994.3958985514155 2863.595710888014C 1992.7415545860285 2865.347344054234 1991.0872106206434 2867.098977220454 1989.4328666552565 2868.850610386674C 1998.6499258909798 2868.6040212516236 2007.8669851267032 2868.3574321165725 2017.0840443624256 2868.110842981522C 2130.2284095128234 2865.079497235127 2235.3411710461223 2809.343266819049 2302.27829123417 2716.8850957855775C 2316.464054402505 2697.2925969805674 2325.45990421657 2682.056506228113 2336.5912757550977 2658.7807593656535C 2348.305449039145 2634.2834042594377 2350.8692095157894 2627.592902497525 2348.5323304972553 2627.631166328826C 2347.5638302729476 2627.6467552971335 2330.4995086048402 2635.8238777640354 2310.6119307923773 2645.8008174810175Z"></path><path fill="#ffffff" stroke="none" fill-opacity="1" stroke-width="1" stroke-opacity="1" alignment-baseline="baseline" baseline-shift="baseline" color="rgb(51, 51, 51)" fill-rule="evenodd" font-size-adjust="none" id="tSvgc2da8ab26a" title="Path 8" d="M 2161.582009014527 2212.139811200377 C 2145.3212258438944 2220.983952553661 2129.06044267326 2229.8280939069436 2112.799659502627 2238.6722352602283C 2112.8733959765123 2240.7838318764643 2112.9471324503993 2242.8954284927004 2113.0208689242845 2245.0070251089355C 2113.142817708019 2248.4904509362577 2114.04183548578 2280.5172777351318 2115.0174257556537 2316.177751328659C 2115.6092082255573 2337.789730118997 2116.2009906954618 2359.401708909334 2116.7927731653654 2381.013687699672C 2139.878906867477 2381.013687699672 2162.96504056959 2381.013687699672 2186.0511742717026 2381.013687699672C 2209.137307973814 2381.013687699672 2232.2234416759266 2381.013687699672 2255.309575378038 2381.013687699672C 2255.309575378038 2420.026261872351 2255.309575378038 2459.038836045029 2255.309575378038 2498.0514102177085C 2255.309575378038 2537.064456783365 2255.309575378038 2576.0775033490236 2255.309575378038 2615.090549914681C 2251.8827200211663 2614.8217583096166 2248.4558646642963 2614.552966704552 2245.0290093074245 2614.2841750994876C 2228.2085852067858 2612.964781509075 2117.764109407899 2610.123337740247 2116.8991238488543 2610.9863997129223C 2116.46095903288 2611.424308004477 2116.6353741538014 2630.6412543911656 2117.2876583458683 2653.6888354447565C 2117.6823375490394 2667.657495834489 2118.0770167522087 2681.6261562242225 2118.47169595538 2695.594816613955C 2127.216085486708 2690.340389508274 2135.9604750180333 2685.0859624025925 2144.7048645493614 2679.831535296911C 2202.1455777063875 2645.317559463476 2268.024863095996 2608.837956444322 2333.5297940797245 2575.2749076776618C 2345.624939145515 2569.0775841858494 2357.720084211305 2562.880260694036 2369.8152292770965 2556.682937202224C 2370.1243552637716 2554.7513223109954 2370.4334812504458 2552.819707419767 2370.742607237121 2550.8880925285393C 2374.9285701392528 2524.724134992328 2374.266359883394 2474.429871694603 2369.3175080783667 2442.6609714622755C 2358.9164112331327 2375.887751484285 2330.8979691656477 2312.3017669357687 2288.452702380585 2259.1362991115375C 2274.7405542560555 2241.961507573171 2241.4768964788873 2209.2926987158016 2224.6834145514003 2196.5083275244815C 2219.9099232067047 2192.8746807298303 2215.136431862009 2189.24103393518 2210.3629405173124 2185.607387140528C 2194.102630016385 2194.4515284938116 2177.8423195154555 2203.2956698470944 2161.582009014527 2212.139811200377ZM 1914.2642035651515 2339.915498524603 C 1914.6149244858134 2363.0627544967683 1914.9656454064752 2386.2100104689343 1915.316366327137 2409.3572664410985C 1892.1007211260203 2409.3572664410985 1868.8850759249044 2409.3572664410985 1845.6694307237867 2409.3572664410985C 1822.45378552267 2409.3572664410985 1799.238140321554 2409.3572664410985 1776.0224951204373 2409.3572664410985C 1776.0224951204373 2437.9370416720376 1776.0224951204373 2466.5168169029757 1776.0224951204373 2495.096592133915C 1776.0224951204373 2523.676367364853 1776.0224951204373 2552.256142595791 1776.0224951204373 2580.83591782673C 1798.946975783646 2580.83591782673 1821.8714564468537 2580.83591782673 1844.7959371100633 2580.83591782673C 1867.7204177732729 2580.83591782673 1890.6448984364806 2580.83591782673 1913.5693790996893 2580.83591782673C 1913.5693790996893 2603.9831737988943 1913.5693790996893 2627.1304297710603 1913.5693790996893 2650.2776857432254C 1913.5693790996893 2673.4249417153897 1913.5693790996893 2696.5721976875557 1913.5693790996893 2719.719453659721C 1942.520398493948 2719.719453659721 1971.471417888206 2719.719453659721 2000.4224372824647 2719.719453659721C 2029.3734566767234 2719.7199260526995 2058.3244760709813 2719.720398445679 2087.27549546524 2719.720870838658C 2087.1445659571227 2696.8858666256274 2087.0136364490045 2674.050862412596 2086.882706940887 2651.2158581995673C 2086.7513047630655 2628.3813263795155 2086.619902585244 2605.5467945594637 2086.4885004074204 2582.712262739412C 2100.7583987831376 2582.3995385872986 2115.028297158855 2582.0868144351844 2129.298195534572 2581.774090283072C 2152.8442368590613 2581.2582371499766 2184.1283539142187 2580.83591782673 2198.8203463359623 2580.83591782673C 2207.72402555767 2580.83591782673 2216.6277047793774 2580.83591782673 2225.5313840010867 2580.83591782673C 2225.5313840010867 2552.256142595791 2225.5313840010867 2523.676367364853 2225.5313840010867 2495.096592133915C 2225.5313840010867 2466.5168169029757 2225.5313840010867 2437.9370416720376 2225.5313840010867 2409.3572664410985C 2202.3705684856805 2409.3572664410985 2179.2097529702733 2409.3572664410985 2156.048937454867 2409.3572664410985C 2132.88812193946 2409.3572664410985 2109.7273064240526 2409.3572664410985 2086.5664909086463 2409.3572664410985C 2086.5664909086463 2386.2100104689343 2086.5664909086463 2363.0627544967683 2086.5664909086463 2339.915498524603C 2086.5664909086463 2316.768242552439 2086.5664909086463 2293.620986580273 2086.5664909086463 2270.473730608108C 2057.6740825577326 2270.473730608108 2028.781674206819 2270.473730608108 1999.8892658559062 2270.473730608108C 1970.9968575049925 2270.473730608108 1942.1044491540788 2270.473730608108 1913.212040803165 2270.473730608108C 1913.5627617238279 2293.620986580273 1913.9134826444906 2316.768242552439 1914.2642035651515 2339.915498524603ZM 1941.4219141009316 2302.714551426481 C 1940.9383729933352 2305.6381915736592 1940.5356584051888 2336.466084991772 1940.52715035051 2371.223815602383C 1940.5219509837607 2392.2882909300324 1940.5167516170131 2413.3527662576817 1940.5115522502647 2434.417241585331C 1931.2183931921336 2434.728548558508 1921.9252341340025 2435.039855531685 1912.6320750758723 2435.3511625048604C 1897.2991425349683 2435.8641812800806 1866.351093639637 2436.283666245454 1843.8586330862454 2436.283666245454C 1830.2273114811678 2436.283666245454 1816.5959898760902 2436.283666245454 1802.9646682710127 2436.283666245454C 1802.9632502618988 2446.5582135392215 1802.961832252785 2456.8327608329882 1802.9604142436729 2467.107308126756C 1802.95899623456 2484.0596025720024 1802.5392655370551 2510.8457016615885 1802.0273642471948 2526.628823483751C 1801.717292921111 2536.194781308983 1801.4072215950273 2545.7607391342144 1801.0971502689436 2555.326696959446C 1824.3326475976455 2555.326696959446 1847.5681449263457 2555.326696959446 1870.8036422550476 2555.326696959446C 1894.039612253453 2555.326696959446 1917.2755822518593 2555.326696959446 1940.5115522502647 2555.326696959446C 1940.5115522502647 2578.4739529316103 1940.5115522502647 2601.6212089037763 1940.5115522502647 2624.7684648759414C 1940.5115522502647 2647.9157208481056 1940.5115522502647 2671.0629768202716 1940.5115522502647 2694.2102327924367C 1960.6000146870974 2694.2102327924367 1980.6884771239293 2694.2102327924367 2000.776939560762 2694.2102327924367C 2020.8654019975947 2694.2102327924367 2040.9538644344266 2694.2102327924367 2061.0423268712593 2694.2102327924367C 2061.0423268712593 2671.0629768202716 2061.0423268712593 2647.9157208481056 2061.0423268712593 2624.7684648759414C 2061.0423268712593 2601.6212089037763 2061.0423268712593 2578.4739529316103 2061.0423268712593 2555.326696959446C 2084.2286665507027 2555.326696959446 2107.415006230148 2555.326696959446 2130.601345909592 2555.326696959446C 2153.7881582587397 2555.326696959446 2176.9749706078883 2555.326696959446 2200.1617829570378 2555.326696959446C 2199.8361135307086 2535.6042900852026 2199.5104441043786 2515.881883210961 2199.1847746780504 2496.1594763367175C 2198.647349224153 2463.618213583686 2198.0602934512926 2436.8122739889814 2197.8787882848037 2436.5911940747983C 2197.6987011274296 2436.3715313395523 2166.837150788002 2435.7904879753532 2129.2967775254583 2435.29872688419C 2106.545293974059 2435.001591700384 2083.7938104226587 2434.704456516578 2061.0423268712593 2434.407321332772C 2061.0423268712593 2416.6061367042184 2061.0423268712593 2398.804952075666 2061.0423268712593 2381.003767447113C 2061.0423268712593 2351.6327339763093 2060.6268502010953 2320.806257737133 2060.11778492946 2312.501589165896C 2059.8096042821944 2307.467769581419 2059.501423634927 2302.43394999694 2059.1932429876615 2297.400130412463C 2039.71121578157 2297.400130412463 2020.2291885754767 2297.400130412463 2000.7471613693851 2297.400130412463C 1981.2651341632927 2297.400130412463 1961.7831069572012 2297.400130412463 1942.3010797511079 2297.400130412463C 1942.0080245343834 2299.171604083803 1941.714969317657 2300.9430777551415 1941.4219141009316 2302.714551426481ZM 1861.8120464683216 2337.221441365231 C 1806.2516133953832 2352.7849004521486 1737.7844613742045 2364.8819398589894 1673.9258389708884 2370.4160236082525C 1659.4975962441986 2371.66597543075 1647.2757756976307 2373.1270869148702 1646.7667104259954 2373.6627805530834C 1645.1204018455837 2375.3931560352466 1638.8598916108585 2396.870502826564 1635.1234375976082 2413.608803252313C 1628.5481293397543 2443.062033101467 1626.5700066268573 2462.5751698860013 1626.501942189423 2498.6395394765923C 1626.4282057155378 2537.6077087092435 1628.6743321508275 2557.0570724416093 1637.0689461009015 2590.1396975486023C 1644.0228627919769 2617.5451038336887 1650.30889719074 2634.531410573426 1663.253902385035 2660.9065277712607C 1696.524650207769 2728.6944478681926 1748.6038709078302 2782.4494621302465 1818.1529638823713 2820.782735199089C 1847.7212899105707 2837.081710154346 1885.661541743034 2852.157659686911 1913.2857772770521 2858.587400524403C 1915.7913993800557 2859.1708058534978 1918.2970214830584 2859.7542111825924 1920.802643586062 2860.337616511687C 1930.5864337973562 2850.710719992162 1940.3702240086495 2841.0838234726352 1950.1540142199447 2831.4569269531103C 1979.357911906055 2802.7236240039883 1999.0682385793707 2785.0811634163874 2026.5038789013352 2763.119141428593C 2031.2976950433203 2759.2814208670043 2036.0915111853037 2755.4437003054145 2040.885327327289 2751.6059797438256C 2014.9395419135817 2751.484102355237 1988.9937564998718 2751.3622249666496 1963.0479710861646 2751.240347578061C 1937.1017130027521 2751.117997796494 1911.1554549193388 2750.995648014926 1885.2091968359264 2750.8732982333595C 1885.2077788268125 2737.2962516232374 1885.2063608176995 2723.7192050131152 1885.2049428085866 2710.142158402993C 1885.2035247994736 2687.739393765769 1884.7837941019698 2656.4948497401565 1884.2718928121085 2640.711727917994C 1883.9618214860247 2631.145770092762 1883.651750159941 2621.5798122675305 1883.3416788338573 2612.013854442299C 1860.4918799839434 2612.013854442299 1837.6420811340286 2612.013854442299 1814.7922822841156 2612.013854442299C 1791.942956103905 2612.013854442299 1769.0936299236955 2612.013854442299 1746.244303743485 2612.013854442299C 1746.244303743485 2573.27763016235 1746.244303743485 2534.541405882399 1746.244303743485 2495.80518160245C 1746.244303743485 2457.068957322501 1746.244303743485 2418.33273304255 1746.244303743485 2379.596508762601C 1769.1687844066946 2379.596508762601 1792.0932650699024 2379.596508762601 1815.017745733112 2379.596508762601C 1837.9422263963206 2379.596508762601 1860.8667070595284 2379.596508762601 1883.791187722738 2379.596508762601C 1883.791187722738 2371.5658281191963 1883.791187722738 2363.5351474757927 1883.791187722738 2355.504466832388C 1883.791187722738 2342.253843770771 1883.3119006424804 2331.467694880721 1882.7276808878469 2331.5357194697C 1882.1434611332133 2331.6037440586806 1872.7307166398696 2334.1617520400932 1861.8120464683216 2337.221441365231Z"></path><path fill="#d7abbd" stroke="none" fill-opacity="1" stroke-width="1" stroke-opacity="1" alignment-baseline="baseline" baseline-shift="baseline" color="rgb(51, 51, 51)" fill-rule="evenodd" font-size-adjust="none" id="tSvg9ca42b11f5" title="Path 9" d="M 1940.8518744374296 2369.2808632796578 C 1940.738433708375 2391.115339163116 1940.6249929793194 2412.9498150465743 1940.5115522502647 2434.7842909300325C 1934.248678667017 2434.9312051465095 1927.9858050837693 2435.0781193629864 1921.7229315005216 2435.2250335794615C 1915.460057917273 2435.371475402959 1909.1971843340261 2435.517917226456 1902.9343107507784 2435.6643590499543C 1909.211837094862 2435.7678131123603 1915.4893634389464 2435.871267174766 1921.76688978303 2435.974721237173C 1935.7612217210835 2436.204304224979 1940.7753019453176 2435.8287518066545 1941.280113189613 2434.512192574115C 1941.6544675954938 2433.538590644347 1941.7863424430216 2403.72398016624 1941.5750590851558 2368.2590772660296C 1941.4469655952644 2346.7651967204474 1941.318872105373 2325.271316174867 1941.1907786154825 2303.777435629285C 1941.0778105561321 2325.611911512743 1940.96484249678 2347.4463873962013 1940.8518744374296 2369.2808632796578ZM 2060.3092161597415 2376.0535614199225 C 2060.317251544716 2395.894066538921 2060.3252869296903 2415.7345716579193 2060.3333223146647 2435.5750767769186C 2076.4040922641307 2435.5849970294776 2092.4748622135976 2435.5949172820374 2108.5456321630627 2435.6048375345963C 2124.6164021125287 2435.6142853941774 2140.6871720619947 2435.6237332537576 2156.7579420114607 2435.6331811133387C 2140.810538854842 2435.4990215072958 2124.8631356982232 2435.364861901253 2108.9157325416054 2435.230702295209C 2092.9683293849866 2435.096542689168 2077.020926228368 2434.962383083125 2061.073523071749 2434.8282234770813C 2060.9421208939275 2415.1124301045447 2060.810718716106 2395.39663673201 2060.6793165382824 2375.6808433594724C 2060.5479143604607 2355.964577593957 2060.416512182639 2336.2483118284426 2060.2851100048174 2316.5320460629264C 2060.293145389791 2336.372551181925 2060.301180774766 2356.213056300924 2060.3092161597415 2376.0535614199225ZM 2199.169176577805 2531.9432444977692 C 2199.167758568693 2545.1938675593865 2199.380459935671 2550.8058961501893 2199.6427916216107 2544.4130019650593C 2199.9051233075497 2538.0215249588673 2199.9065413166636 2527.1801060902726 2199.6456276398367 2520.3209600348473C 2199.3861319721236 2513.463231158359 2199.170594586919 2518.692621436152 2199.169176577805 2531.9432444977692ZM 1802.1067727575337 2536.194781308983 C 1802.1081907666467 2547.1070591244325 1802.330818197417 2551.384105156513 1802.6002399289237 2545.698383260984C 1802.8710796695423 2540.01407854439 1802.8682436513154 2531.0858512408413 1802.5974039106968 2525.8578781419847C 1802.3251461609643 2520.631322222066 1802.1039367393068 2525.282503493534 1802.1067727575337 2536.194781308983ZM 1941.1680904696705 2624.7684648759414 C 1941.1680904696705 2663.3511614377085 1941.3510136452715 2679.135700438809 1941.5736410760428 2659.843643568457C 1941.7962685068132 2640.551586698104 1941.7962685068132 2608.9853430537787 1941.5736410760428 2589.6932861834257C 1941.3510136452715 2570.4012293130736 1941.1680904696705 2586.1857683141734 1941.1680904696705 2624.7684648759414ZM 2060.2808559774767 2624.7684648759414 C 2060.2808559774767 2663.3511614377085 2060.4637791530777 2679.135700438809 2060.686406583849 2659.843643568457C 2060.9090340146195 2640.551586698104 2060.9090340146195 2608.9853430537787 2060.686406583849 2589.6932861834257C 2060.4637791530777 2570.4012293130736 2060.2808559774767 2586.1857683141734 2060.2808559774767 2624.7684648759414Z"></path><defs></defs></svg> 