<svg width="222" height="30" viewBox="0 0 222 30" fill="none" xmlns="http://www.w3.org/2000/svg">
<path fill-rule="evenodd" clip-rule="evenodd" d="M20.0332 18.0989H60.0117V1.02344H20.0332V18.0989Z" fill="#0C359C"/>
<path fill-rule="evenodd" clip-rule="evenodd" d="M27.2479 9.3291C26.7509 9.3291 26.2178 9.2948 25.7024 9.2426V5.52329C26.2883 5.50614 26.8213 5.48899 27.2655 5.48899C28.7582 5.48899 29.5578 6.11161 29.5578 7.37475C29.5578 8.72363 28.5453 9.3291 27.2479 9.3291ZM27.0526 3.49959C26.1818 3.49959 24.2097 3.53389 23.5166 3.53389V15.6433H25.7024V11.267C26.2354 11.3185 26.9462 11.3185 27.3191 11.3185C30.2861 11.3185 31.8677 9.45064 31.8677 7.3919C31.8677 5.4025 30.7127 3.49959 27.0526 3.49959ZM39.0109 13.844C36.6827 13.844 34.853 12.0105 34.853 9.58859C34.853 7.08021 36.6298 5.33315 39.0109 5.33315C41.356 5.33315 43.1857 7.08021 43.1857 9.58859C43.1857 11.9762 41.6226 13.844 39.0109 13.844ZM39.0109 3.34375C35.1908 3.34375 32.5432 6.07731 32.5432 9.58859C32.5432 13.3601 35.3148 15.8334 39.0109 15.8334C42.7063 15.8334 45.4956 13.2214 45.4956 9.58859C45.4956 5.81782 42.7063 3.34375 39.0109 3.34375ZM55.8187 12.8754C54.9663 13.5152 53.9178 13.844 52.8694 13.844C50.329 13.844 48.5698 12.1141 48.5698 9.58859C48.5698 6.95942 50.3106 5.33315 52.6205 5.33315C53.8642 5.33315 54.6822 5.66198 55.4281 6.14591L56.4054 4.57184C55.5882 3.84557 54.238 3.34375 52.6205 3.34375C48.5162 3.34375 46.2599 6.11161 46.2599 9.58859C46.2599 13.3601 48.8715 15.8334 52.6741 15.8334C54.2908 15.8334 55.8723 15.2801 56.6543 14.4666L55.8187 12.8754Z" fill="white"/>
<path fill-rule="evenodd" clip-rule="evenodd" d="M61.9258 18.0989H158.579V1.02344H61.9258V18.0989Z" fill="#C32420"/>
<path fill-rule="evenodd" clip-rule="evenodd" d="M70.2408 9.17326L75.3576 3.53389H72.7283L67.8245 9.27765V3.53389H65.6387V15.6433H67.8245V9.39845L72.906 15.6433H75.6777L70.2408 9.17326ZM80.1021 10.5572L81.9326 6.2503L83.7446 10.5572H80.1021ZM82.9451 3.49959H81.0258L75.7665 15.6433H77.97L79.2673 12.5466H84.5794L85.8768 15.6433H88.2043L82.9451 3.49959ZM94.9738 3.53389V8.74078C94.3519 9.15611 93.5524 9.51924 92.5935 9.51924C91.3673 9.51924 90.4077 8.96597 90.4077 7.02876V3.53389H88.2219V7.63423C88.2219 10.5229 90.1236 11.5086 92.0068 11.5086C93.3395 11.5086 94.3879 11.0941 94.9738 10.6787V15.6433H97.1596V3.53389H94.9738ZM102.685 13.6539V10.5229H107.163V8.53349H102.685V5.52329H107.696V3.53389H100.5V15.6433H107.873V13.6539H102.685ZM119.245 12.8754C118.392 13.5152 117.344 13.844 116.296 13.844C113.755 13.844 111.996 12.1141 111.996 9.58859C111.996 6.95942 113.737 5.33315 116.047 5.33315C117.291 5.33315 118.108 5.66198 118.854 6.14591L119.832 4.57184C119.014 3.84557 117.664 3.34375 116.047 3.34375C111.942 3.34375 109.686 6.11161 109.686 9.58859C109.686 13.3601 112.298 15.8334 116.1 15.8334C117.717 15.8334 119.299 15.2801 120.08 14.4666L119.245 12.8754ZM120.581 3.53389V5.52329H124.615V15.6433H126.8V5.52329H130.833V3.53389H120.581ZM136.556 13.7232C135.934 13.7232 135.419 13.671 135.117 13.6367V10.4364H136.663C138.031 10.4364 138.831 10.9554 138.831 11.9762C138.831 13.1178 138.031 13.7232 136.556 13.7232ZM135.117 5.52329C135.508 5.48899 135.988 5.47184 136.486 5.47184C137.658 5.47184 138.44 5.99081 138.44 6.97657C138.44 8.08386 137.604 8.58568 136.592 8.58568H135.117V5.52329ZM138.831 9.25975V9.22545C139.897 8.74078 140.607 7.85867 140.607 6.47474C140.607 4.79703 139.488 3.48244 136.521 3.48244C135.277 3.48244 133.625 3.53389 132.932 3.56894V15.6261C133.66 15.6776 135.259 15.7126 136.397 15.7126C139.026 15.7126 141.016 14.571 141.016 12.0798C141.016 10.4707 140.057 9.55429 138.831 9.25975ZM149.328 13.844C147.001 13.844 145.171 12.0105 145.171 9.58859C145.171 7.08021 146.948 5.33315 149.328 5.33315C151.674 5.33315 153.504 7.08021 153.504 9.58859C153.504 11.9762 151.941 13.844 149.328 13.844ZM149.328 3.34375C145.509 3.34375 142.861 6.07731 142.861 9.58859C142.861 13.3601 145.633 15.8334 149.328 15.8334C153.025 15.8334 155.814 13.2214 155.814 9.58859C155.814 5.81782 153.025 3.34375 149.328 3.34375Z" fill="white"/>
<path fill-rule="evenodd" clip-rule="evenodd" d="M0.993652 22.0895V27.022H2.28797V23.2729H4.45003V27.022H5.74435V22.0895H0.993652ZM9.80882 25.9699C9.02074 25.9699 8.43485 25.3779 8.43485 24.5554C8.43485 23.7009 9.04295 23.1528 9.80882 23.1528C10.5969 23.1528 11.1935 23.7225 11.1935 24.5554C11.1935 25.4107 10.6084 25.9699 9.80882 25.9699ZM9.80882 21.9688C8.1308 21.9688 7.05016 23.076 7.05016 24.5554C7.05016 26.0355 8.1308 27.1428 9.80882 27.1428C11.4861 27.1428 12.5667 26.0355 12.5667 24.5554C12.5667 23.076 11.4861 21.9688 9.80882 21.9688ZM16.2261 25.9699C15.7979 25.9699 15.5054 25.9043 15.1561 25.6851V23.6897C15.4717 23.3497 15.8768 23.1528 16.3157 23.1528C17.1719 23.1528 17.6444 23.7225 17.6444 24.5122C17.6444 25.3339 17.1267 25.9699 16.2261 25.9699ZM16.7216 21.9688C16.0683 21.9688 15.4717 22.232 15.1561 22.5608V22.0895H13.8618V29.2143H15.1561V26.9012C15.4487 27.066 15.8883 27.1428 16.3386 27.1428C17.96 27.1428 19.0177 25.9811 19.0177 24.4794C19.0177 23.0209 18.117 21.9688 16.7216 21.9688ZM19.5921 22.0895V23.3497H21.2586V27.022H22.5529V23.3497H24.208V22.0895H19.5921ZM27.9791 25.5755C27.8221 25.7947 27.5403 26.0244 26.9996 26.0244C26.5944 26.0244 26.2796 25.8163 26.2796 25.4435C26.2796 25.0274 26.6618 24.8298 27.0899 24.8298C27.4614 24.8298 27.7539 24.9066 27.9791 25.0707V25.5755ZM27.1688 21.9688C26.5048 21.9688 25.8178 22.188 25.379 22.44L25.7052 23.3609C26.0767 23.1968 26.4481 23.0209 27.034 23.0209C27.7884 23.0209 28.0136 23.4705 27.9791 24.2929C27.7317 24.117 27.2814 23.9746 26.8311 23.9746C25.8063 23.9746 24.9846 24.4898 24.9846 25.5755C24.9846 26.5284 25.6486 27.0877 26.5722 27.0877C27.2592 27.0877 27.7991 26.8244 28.0695 26.4524V27.022H29.1953V24.0185C29.1953 22.7144 28.6661 21.9688 27.1688 21.9688ZM31.4922 22.0895L31.4133 23.6241C31.3007 25.5315 30.7041 25.9371 30.2645 25.8931L30.377 27.1205C31.7395 27.1205 32.415 26.562 32.6632 23.8761L32.6969 23.3497H34.0364V27.022H35.3315V22.0895H31.4922ZM42.7956 25.8491H40.9154C41.1406 25.5419 41.4224 24.8186 41.5235 23.7777L41.5572 23.2729H42.7956V25.8491ZM44.0907 25.8491V22.0895H40.3525L40.2736 23.2729C40.2062 24.3914 39.9252 25.3891 39.5644 25.8491H38.9226V28.1733H40.1273V27.022H43.7193V28.1733H44.9347V25.8491H44.0907ZM46.7475 22.0895L46.6686 23.6241C46.5561 25.5315 45.9594 25.9371 45.5198 25.8931L45.6324 27.1205C46.9949 27.1205 47.6704 26.562 47.9185 23.8761L47.9522 23.3497H49.2918V27.022H50.5868V22.0895H46.7475ZM55.045 24.6106H54.3695C53.9636 24.6106 53.5469 24.3362 53.5469 23.9306C53.5469 23.5585 53.8403 23.1857 54.4706 23.1857H55.045V24.6106ZM54.6843 22.0895C52.8607 22.0895 52.1622 22.8896 52.1622 23.8433C52.1622 24.6546 52.7029 25.1147 53.1418 25.2683L51.7908 27.022H53.2773L54.3243 25.5419H55.045V27.022H56.3393V22.0895H54.6843ZM63.9505 22.0895L63.0384 24.7746C62.948 25.0274 62.9028 25.2683 62.8584 25.4987C62.7795 25.2571 62.7113 25.0274 62.6102 24.7858L61.4285 22.0895H59.8746L62.2166 27.022L62.104 27.2853C61.8896 27.8005 61.6537 28.0525 61.3266 28.0525C61.1245 28.0525 60.933 27.9541 60.7974 27.8773L60.3808 28.831C60.6741 29.039 61.0119 29.2143 61.4729 29.2143C62.2166 29.2143 62.6891 28.787 63.432 27.022L65.4248 22.0895H63.9505ZM70.9077 22.0895L69.2749 24.1505L67.5524 22.0895H66.3814V27.022H67.6765V24.0074L69.2189 25.8491H69.2526L70.7499 24.0074V27.022H72.045V22.0895H70.9077ZM77.1786 22.0895V23.9529H74.9607V22.0895H73.6656V27.022H74.9607V25.137H77.1786V27.022H78.473V22.0895H77.1786ZM82.5259 25.9699C81.7379 25.9699 81.1527 25.3779 81.1527 24.5554C81.1527 23.7009 81.7608 23.1528 82.5259 23.1528C83.314 23.1528 83.9106 23.7225 83.9106 24.5554C83.9106 25.4107 83.3255 25.9699 82.5259 25.9699ZM82.5259 21.9688C80.8487 21.9688 79.768 23.076 79.768 24.5554C79.768 26.0355 80.8487 27.1428 82.5259 27.1428C84.2032 27.1428 85.2846 26.0355 85.2846 24.5554C85.2846 23.076 84.2032 21.9688 82.5259 21.9688ZM86.5904 22.0895V27.022H87.8847V23.2729H89.9901V22.0895H86.5904ZM93.2665 25.9699C92.4784 25.9699 91.8925 25.3779 91.8925 24.5554C91.8925 23.7009 92.5006 23.1528 93.2665 23.1528C94.0546 23.1528 94.6512 23.7225 94.6512 24.5554C94.6512 25.4107 94.0661 25.9699 93.2665 25.9699ZM93.2665 21.9688C91.5885 21.9688 90.5078 23.076 90.5078 24.5554C90.5078 26.0355 91.5885 27.1428 93.2665 27.1428C94.9438 27.1428 96.0244 26.0355 96.0244 24.5554C96.0244 23.076 94.9438 21.9688 93.2665 21.9688ZM99.9089 22.0895V27.022H101.204V23.2729H103.365V27.022H104.66V22.0895H99.9089ZM108.724 25.9699C107.936 25.9699 107.351 25.3779 107.351 24.5554C107.351 23.7009 107.958 23.1528 108.724 23.1528C109.512 23.1528 110.109 23.7225 110.109 24.5554C110.109 25.4107 109.524 25.9699 108.724 25.9699ZM108.724 21.9688C107.047 21.9688 105.965 23.076 105.965 24.5554C105.965 26.0355 107.047 27.1428 108.724 27.1428C110.401 27.1428 111.483 26.0355 111.483 24.5554C111.483 23.076 110.401 21.9688 108.724 21.9688ZM112.789 27.022H114.083V22.0895H112.789V27.022ZM115.637 24.4354L117.584 22.0895H115.952L114.128 24.5338L116.132 27.022H117.821L115.637 24.4354ZM122.11 22.0895L121.199 24.7746C121.108 25.0274 121.063 25.2683 121.018 25.4987C120.939 25.2571 120.872 25.0274 120.77 24.7858L119.588 22.0895H118.035L120.376 27.022L120.263 27.2853C120.05 27.8005 119.813 28.0525 119.487 28.0525C119.285 28.0525 119.093 27.9541 118.958 27.8773L118.541 28.831C118.834 29.039 119.171 29.2143 119.633 29.2143C120.376 29.2143 120.849 28.787 121.592 27.022L123.585 22.0895H122.11ZM124.542 22.0895V27.022H125.837V23.2729H127.998V27.022H129.293V22.0895H124.542ZM133.582 25.5755C133.424 25.7947 133.143 26.0244 132.602 26.0244C132.197 26.0244 131.882 25.8163 131.882 25.4435C131.882 25.0274 132.265 24.8298 132.693 24.8298C133.064 24.8298 133.357 24.9066 133.582 25.0707V25.5755ZM132.772 21.9688C132.107 21.9688 131.421 22.188 130.981 22.44L131.308 23.3609C131.68 23.1968 132.051 23.0209 132.636 23.0209C133.39 23.0209 133.616 23.4705 133.582 24.2929C133.335 24.117 132.884 23.9746 132.434 23.9746C131.409 23.9746 130.587 24.4898 130.587 25.5755C130.587 26.5284 131.251 27.0877 132.175 27.0877C132.861 27.0877 133.402 26.8244 133.672 26.4524V27.022H134.798V24.0185C134.798 22.7144 134.269 21.9688 132.772 21.9688ZM135.766 22.0895V23.3497H137.433V27.022H138.727V23.3497H140.382V22.0895H135.766ZM142.307 24.0954C142.442 23.4489 142.859 23.0209 143.636 23.0209C144.378 23.0209 144.807 23.4929 144.795 24.0954H142.307ZM146.09 24.2601C146.09 22.8784 144.998 21.9688 143.692 21.9688C142.026 21.9688 141.012 23.12 141.012 24.5554C141.012 26.1123 142.105 27.1428 143.737 27.1428C144.447 27.1428 145.167 26.9452 145.674 26.5284L145.302 25.6411C145.01 25.8707 144.491 26.09 143.872 26.09C143.073 26.09 142.465 25.6851 142.352 24.9394H146.011C146.067 24.753 146.09 24.5666 146.09 24.2601ZM147.936 22.0895L147.857 23.6241C147.744 25.5315 147.148 25.9371 146.709 25.8931L146.822 27.1205C148.184 27.1205 148.86 26.562 149.107 23.8761L149.141 23.3497H150.481V27.022H151.775V22.0895H147.936ZM156.233 24.6106H155.558C155.153 24.6106 154.736 24.3362 154.736 23.9306C154.736 23.5585 155.029 23.1857 155.659 23.1857H156.233V24.6106ZM155.873 22.0895C154.049 22.0895 153.351 22.8896 153.351 23.8433C153.351 24.6546 153.891 25.1147 154.331 25.2683L152.98 27.022H154.466L155.513 25.5419H156.233V27.022H157.528V22.0895H155.873Z" fill="#0C359C"/>
<path fill-rule="evenodd" clip-rule="evenodd" d="M15.2672 9.48254C15.6463 7.96215 15.6424 7.85925 14.378 6.81161C13.3563 5.96381 11.6814 4.77598 10.5402 4.08774C9.17619 3.26604 9.07433 3.2377 7.66436 4.08774C6.52321 4.77598 4.84825 5.96381 3.82582 6.81161C2.60425 7.82421 2.54605 7.90996 2.93817 9.48254C3.25448 10.7554 3.89398 12.6784 4.40328 13.8893C5.01215 15.3374 5.07802 15.4179 6.73 15.541C8.06721 15.6386 10.1374 15.6386 11.4746 15.541C13.0729 15.4224 13.1717 15.3866 13.8013 13.8893C14.3098 12.6777 14.9501 10.7554 15.2672 9.48254ZM0.194824 18.0754V1H17.963V18.0754H0.194824ZM9.60891 5.55221C10.6811 6.19869 12.2726 7.3276 13.2315 8.12321C13.328 8.203 13.534 8.37375 13.6826 8.50872C13.6458 8.68395 13.5876 8.9151 13.5478 9.0769C13.2514 10.2677 12.6433 12.0953 12.1646 13.2361C12.1164 13.351 12.0145 13.5933 11.9287 13.773C11.748 13.7932 11.5075 13.811 11.3413 13.823C10.0853 13.9154 8.11852 13.9154 6.86479 13.823C6.73919 13.814 6.47267 13.7939 6.27201 13.7708C6.19695 13.6075 6.10505 13.389 6.04072 13.2369C5.56281 12.1005 4.95548 10.2737 4.65755 9.07616C4.62692 8.95536 4.56335 8.69811 4.52352 8.5035C4.65908 8.38345 4.84442 8.22984 4.97309 8.12321C5.93043 7.32909 7.52191 6.20018 8.59566 5.55221C8.70212 5.48808 8.92805 5.35163 9.1042 5.25544C9.26273 5.34342 9.46645 5.46646 9.60891 5.55221Z" fill="#C32420"/>
<path d="M168.394 27.0706V4.42581L164.506 7.53675V4.10024L168.394 0.953125H171.431V27.1068H168.394V27.0706Z" fill="#C32420"/>
<path d="M183.765 25.7322C182.839 26.6003 181.395 27.1068 179.987 27.1068C178.58 27.1068 177.173 26.6003 176.247 25.7322C175.321 24.8278 174.766 23.6703 174.766 21.7892V6.27067C174.766 4.35346 175.321 3.23207 176.247 2.32773C177.173 1.45956 178.543 0.953125 179.987 0.953125C181.432 0.953125 182.839 1.45956 183.765 2.32773C184.691 3.23207 185.246 4.38963 185.246 6.27067V21.7892C185.246 23.7064 184.691 24.8278 183.765 25.7322ZM182.246 6.16215C182.246 4.42581 181.21 3.55764 179.987 3.55764C178.765 3.55764 177.765 4.42581 177.765 6.16215V21.8977C177.765 23.6341 178.765 24.5023 179.987 24.5023C181.21 24.5023 182.246 23.6341 182.246 21.8977V6.16215Z" fill="#C32420"/>
<path d="M194.06 16.978L190.246 27.1428H187.728L192.69 14.8438H195.431L200.393 27.1428H197.875L194.06 16.978Z" fill="#C32420"/>
<path d="M210.428 27.1038H201.799V14.8047H210.428V16.7219H203.984V19.9414H210.243V21.8586H203.984V25.2589H210.428V27.1761V27.1038Z" fill="#C32420"/>
<path d="M217.909 27.1399H215.724V16.7219H211.909V14.8047H221.76V16.7219H217.946V27.1399H217.909Z" fill="#C32420"/>
</svg>
