<svg id="logotype" xmlns="http://www.w3.org/2000/svg" viewBox="0 0 385.03 64.42"><defs><style>.cls-1{fill:#800200;}.cls-2{fill:#e60400;}.cls-3{fill:#00527a;}.cls-4{fill:#0084C4;}.cls-5{fill:#0066b2;}.cls-6{fill:#ed2e53;}.cls-7{fill:#0084C4;}</style></defs><title>Logo_guspbru</title><path id="rs" class="cls-1" d="M78.66,70.82H63.83a1.44,1.44,0,0,1-1.44-1.44V57.89a1.44,1.44,0,0,1,1.44-1.44h7.06l5.71,13A2.25,2.25,0,0,0,78.66,70.82Z" transform="translate(-12.59 -13.12)"/><path id="r" class="cls-2" d="M53.76,13.12H79.9A2.25,2.25,0,0,1,82,14.46l24,54.63a1.23,1.23,0,0,1-1.13,1.73H78.66a2.25,2.25,0,0,1-2.06-1.34l-5.71-13L52.63,14.85A1.23,1.23,0,0,1,53.76,13.12Z" transform="translate(-12.59 -13.12)"/><path id="bs" class="cls-3" d="M39.21,69.47l5.69-13H52a1.44,1.44,0,0,1,1.44,1.44V69.38A1.44,1.44,0,0,1,52,70.82H37.15A2.25,2.25,0,0,0,39.21,69.47Z" transform="translate(-12.59 -13.12)"/><path id="b" class="cls-4" d="M12.69,69.09,29.58,30.48a2.25,2.25,0,0,1,2.06-1.34H55a1.23,1.23,0,0,1,1.13,1.73L44.9,56.45l-5.69,13a2.25,2.25,0,0,1-2.06,1.34H13.82A1.23,1.23,0,0,1,12.69,69.09Z" transform="translate(-12.59 -13.12)"/><g id="gu"><path class="cls-5" d="M140.8,52.51c-6.14,0-8.53,2.63-8.53,9.39s2.39,9.52,8.53,9.52,8.6-2.67,8.6-9.52-2.41-9.39-8.6-9.39m0,15c-2.8,0-3.67-.76-3.67-5.52,0-5.07,1-5.52,3.67-5.52s3.74.45,3.74,5.52c0,4.76-.89,5.52-3.74,5.52" transform="translate(-12.59 -13.12)"/><path class="cls-6" d="M222.06,53H209a.24.24,0,0,0-.24.22,75.42,75.42,0,0,1-3,17.38.24.24,0,0,0,.23.31h4.46a.24.24,0,0,0,.23-.16A68.65,68.65,0,0,0,213.3,57.2h4.27V70.7a.24.24,0,0,0,.24.24h4.25a.24.24,0,0,0,.24-.24V53.26a.24.24,0,0,0-.24-.24" transform="translate(-12.59 -13.12)"/><path class="cls-6" d="M277.12,53h-4.25a.24.24,0,0,0-.24.24V66.76a10.44,10.44,0,0,1-2.91.39c-2.82,0-3.46-.86-3.46-4.59V53.26A.24.24,0,0,0,266,53h-4.25a.24.24,0,0,0-.24.24V63c0,6.09,2.05,8.46,7.33,8.46a25.84,25.84,0,0,0,8.34-1.52.24.24,0,0,0,.15-.22V53.26a.24.24,0,0,0-.24-.24" transform="translate(-12.59 -13.12)"/><path class="cls-6" d="M187,53h-4.32a.24.24,0,0,0-.23.18,107.75,107.75,0,0,1-3.89,11.87l-4.34-11.91A.24.24,0,0,0,174,53h-4.37a.24.24,0,0,0-.22.32l6.49,17.83c-.68,1.37-1.29,2.5-1.88,3.6-.43.81-.86,1.59-1.28,2.42a.24.24,0,0,0,.21.35h4.73a.24.24,0,0,0,.21-.13c.8-1.54,1.79-3.68,2.71-5.88a167.28,167.28,0,0,0,6.62-18.19A.24.24,0,0,0,187,53" transform="translate(-12.59 -13.12)"/><path class="cls-5" d="M166.35,66.77a.24.24,0,0,0-.31-.14,15,15,0,0,1-4.33.7c-3,0-4.37-.8-4.37-5.34,0-3.63.43-5.34,4.37-5.34a11.94,11.94,0,0,1,3.47.54.24.24,0,0,0,.27-.12c.49-.92,1.09-2.05,1.76-3.44a.24.24,0,0,0-.14-.33,19.46,19.46,0,0,0-5.67-.88c-6.2,0-9,2.93-9,9.49s2.77,9.63,9,9.63a21.4,21.4,0,0,0,6.1-.92.24.24,0,0,0,.13-.3Z" transform="translate(-12.59 -13.12)"/><path class="cls-6" d="M202.52,66.77a.24.24,0,0,0-.12-.13.24.24,0,0,0-.18,0,15,15,0,0,1-4.33.7c-3,0-4.37-.8-4.37-5.34,0-3.63.43-5.34,4.37-5.34a11.93,11.93,0,0,1,3.47.54.24.24,0,0,0,.27-.12c.49-.92,1.09-2.05,1.76-3.44a.24.24,0,0,0,0-.2.23.23,0,0,0-.15-.13,19.47,19.47,0,0,0-5.67-.88c-6.2,0-9,2.93-9,9.49s2.77,9.63,9,9.63a21.39,21.39,0,0,0,6.1-.92.24.24,0,0,0,.14-.3Z" transform="translate(-12.59 -13.12)"/><path class="cls-6" d="M243,53h-4.32a.24.24,0,0,0-.23.18,107.56,107.56,0,0,1-3.89,11.87l-4.34-11.91A.24.24,0,0,0,230,53h-4.37a.24.24,0,0,0-.22.32l6.49,17.83c-.68,1.36-1.28,2.49-1.87,3.59-.43.81-.86,1.59-1.28,2.43a.24.24,0,0,0,.21.35h4.73a.24.24,0,0,0,.21-.13c.8-1.54,1.79-3.68,2.71-5.88a167.27,167.27,0,0,0,6.62-18.19.24.24,0,0,0,0-.21A.24.24,0,0,0,243,53" transform="translate(-12.59 -13.12)"/><path class="cls-6" d="M258.91,53H246.33a.24.24,0,0,0-.24.24V70.7a.24.24,0,0,0,.24.24h4.25a.24.24,0,0,0,.24-.24V57.2h6.57a.24.24,0,0,0,.22-.14c.5-1.18,1-2.42,1.53-3.7a.24.24,0,0,0-.22-.33" transform="translate(-12.59 -13.12)"/><path class="cls-5" d="M130.59,53H118a.24.24,0,0,0-.24.24V70.7a.24.24,0,0,0,.24.24h4.25a.24.24,0,0,0,.24-.24V57.2h6.57a.24.24,0,0,0,.22-.14c.5-1.18,1-2.42,1.53-3.7a.24.24,0,0,0-.22-.33" transform="translate(-12.59 -13.12)"/></g><g id="spb"><path class="cls-7" d="M134,41.39l.44,3.8a25.35,25.35,0,0,1-7.44.94q-5.39,0-7.58-2.69t-2.19-9.33q0-6.63,2.19-9.33T127,22.1a28.54,28.54,0,0,1,7,.77l-.44,3.84q-2.73-.17-6.53-.17a3.64,3.64,0,0,0-3.45,1.6q-.93,1.6-.93,6t.93,6a3.64,3.64,0,0,0,3.45,1.6A59,59,0,0,0,134,41.39Z" transform="translate(-12.59 -13.12)"/><path class="cls-7" d="M137.87,32.84l-.44-3.37a48.51,48.51,0,0,1,8.62-.81A7.54,7.54,0,0,1,151,30q1.6,1.36,1.6,4.73v11h-3.94l-.5-2.52A7.78,7.78,0,0,1,142,46.14a5.83,5.83,0,0,1-3.89-1.26,4.35,4.35,0,0,1-1.5-3.52V39.67a3.8,3.8,0,0,1,1.35-3.1,5.71,5.71,0,0,1,3.74-1.11h5.93v-.74A2.2,2.2,0,0,0,147,33a3.56,3.56,0,0,0-2.14-.45Q142.18,32.57,137.87,32.84Zm3.67,7.2v.64q0,1.72,1.92,1.72a7.12,7.12,0,0,0,4.17-1.62V38.46h-4.48A1.43,1.43,0,0,0,141.54,40Z" transform="translate(-12.59 -13.12)"/><path class="cls-7" d="M172.78,29.14v16.6H167.9v-7h-6.3v7h-4.92V29.14h4.92v6.09h6.3V29.14Z" transform="translate(-12.59 -13.12)"/><path class="cls-7" d="M186.72,37v.13q1,.14,1.65.29a3.26,3.26,0,0,1,1.25.62,5.47,5.47,0,0,1,.93.88,7.93,7.93,0,0,1,.83,1.57q.5,1.16.82,2.14t1,3.1H188a31.28,31.28,0,0,0-2.19-5.79,2.75,2.75,0,0,0-2.49-1.08h-1.51a7.5,7.5,0,0,1,.17,1.41v5.45H177V29.14H182v4.24a10.27,10.27,0,0,1-.2,2H183a3,3,0,0,0,2.66-1.09,22.6,22.6,0,0,0,1.92-5.17h5.05a48.94,48.94,0,0,1-2.09,5.66,3.78,3.78,0,0,1-2.39,1.92A11.34,11.34,0,0,1,186.72,37Z" transform="translate(-12.59 -13.12)"/><path class="cls-7" d="M210.53,33H205V45.73h-4.92V33h-5.52V29.14h16Z" transform="translate(-12.59 -13.12)"/><path class="cls-7" d="M222.38,38.8h-10V35.53h10Z" transform="translate(-12.59 -13.12)"/><path class="cls-7" d="M245.13,22.5V45.73H240V26.21h-8.15V45.73h-5.12V22.5Z" transform="translate(-12.59 -13.12)"/><path class="cls-7" d="M260.22,39.1h-6a3.4,3.4,0,0,0,1.11,2.44,5,5,0,0,0,2.83.62,60.33,60.33,0,0,0,6.19-.37l.47,3.1a17.06,17.06,0,0,1-7.24,1.25q-4.68,0-6.67-2t-2-6.67q0-4.85,2-6.82t6.5-2q4.14,0,6,1.43a5.25,5.25,0,0,1,1.88,4.36,4.65,4.65,0,0,1-1.2,3.48A5.39,5.39,0,0,1,260.22,39.1Zm-6.09-3h4.71a1.44,1.44,0,0,0,1.25-.44,2.24,2.24,0,0,0,.3-1.28,1.92,1.92,0,0,0-.61-1.63,3.91,3.91,0,0,0-2.22-.45,3.55,3.55,0,0,0-2.63.76A5,5,0,0,0,254.12,36.1Z" transform="translate(-12.59 -13.12)"/><path class="cls-7" d="M283.15,33h-5.52V45.73h-4.92V33h-5.52V29.14h16Z" transform="translate(-12.59 -13.12)"/><path class="cls-7" d="M296.38,39.1h-6a3.4,3.4,0,0,0,1.11,2.44,5,5,0,0,0,2.83.62,60.33,60.33,0,0,0,6.19-.37l.47,3.1a17.06,17.06,0,0,1-7.24,1.25q-4.68,0-6.67-2t-2-6.67q0-4.85,2-6.82t6.5-2q4.14,0,6,1.43a5.25,5.25,0,0,1,1.88,4.36,4.65,4.65,0,0,1-1.2,3.48A5.39,5.39,0,0,1,296.38,39.1Zm-6.09-3H295a1.44,1.44,0,0,0,1.25-.44,2.24,2.24,0,0,0,.3-1.28,1.92,1.92,0,0,0-.61-1.63,3.91,3.91,0,0,0-2.22-.45,3.55,3.55,0,0,0-2.63.76A5,5,0,0,0,290.28,36.1Z" transform="translate(-12.59 -13.12)"/><path class="cls-7" d="M308.83,29.14l.37,2.42a7.75,7.75,0,0,1,2.88-2.05,9.15,9.15,0,0,1,3.72-.81q5.76,0,5.76,8.89,0,4.78-1.55,6.68a5.85,5.85,0,0,1-4.81,1.9,9.11,9.11,0,0,1-5.56-1.62,26.62,26.62,0,0,1,.1,3.57v4h-4.95v-23Zm.91,5.05v7.61a17.5,17.5,0,0,0,3.77.67,2.56,2.56,0,0,0,2.31-.94,8.13,8.13,0,0,0,.62-3.94,9.15,9.15,0,0,0-.57-4,2.11,2.11,0,0,0-2-1A8,8,0,0,0,309.74,34.19Z" transform="translate(-12.59 -13.12)"/><path class="cls-7" d="M339.77,20.82l.91,3.84a8.89,8.89,0,0,1-2.69,1,24.13,24.13,0,0,1-2.86.39,12.92,12.92,0,0,0-2.56.42,4.86,4.86,0,0,0-3.6,3.4,13.82,13.82,0,0,0-.57,2.46h.1a6.72,6.72,0,0,1,2.31-2,8.2,8.2,0,0,1,3.72-.69q3.84,0,5.42,1.83t1.58,6q0,4.41-1.83,6.5t-6.41,2.09a14.35,14.35,0,0,1-3-.29,9.15,9.15,0,0,1-2.21-.74,4.35,4.35,0,0,1-1.52-1.28,8.66,8.66,0,0,1-1-1.6,7.28,7.28,0,0,1-.52-2q-.17-1.23-.22-2.21t-.05-2.49a37.38,37.38,0,0,1,.24-4.6,15.61,15.61,0,0,1,.88-3.57,7.06,7.06,0,0,1,1.87-2.81,8.39,8.39,0,0,1,3.15-1.72,25.72,25.72,0,0,1,4.22-.77A14.05,14.05,0,0,0,339.77,20.82Zm-6.53,12.29q-2.05,0-2.69,1a6.73,6.73,0,0,0-.64,3.48,7.63,7.63,0,0,0,.67,3.87,3.68,3.68,0,0,0,5.05,0,7.54,7.54,0,0,0,.67-3.85,6.94,6.94,0,0,0-.62-3.59A2.81,2.81,0,0,0,333.24,33.11Z" transform="translate(-12.59 -13.12)"/><path class="cls-7" d="M361.29,29.14,355.39,46a9.24,9.24,0,0,1-4.54,5.76q-2.49,1.41-6.8.67l.4-3.3a8.35,8.35,0,0,0,4.34-.67,5.26,5.26,0,0,0,2.09-2.69h-.94a1.57,1.57,0,0,1-1.65-1.21L342.9,29.14h5.29l3.1,10.74a23.62,23.62,0,0,1,.54,2.49h.4q.54-1.92.67-2.49L356,29.14Z" transform="translate(-12.59 -13.12)"/><path class="cls-7" d="M367.78,29.14l.37,2.42A7.75,7.75,0,0,1,371,29.51a9.15,9.15,0,0,1,3.72-.81q5.76,0,5.76,8.89,0,4.78-1.55,6.68a5.85,5.85,0,0,1-4.81,1.9,9.11,9.11,0,0,1-5.56-1.62,26.62,26.62,0,0,1,.1,3.57v4h-4.95v-23Zm.91,5.05v7.61a17.5,17.5,0,0,0,3.77.67,2.56,2.56,0,0,0,2.31-.94,8.13,8.13,0,0,0,.62-3.94,9.15,9.15,0,0,0-.57-4,2.11,2.11,0,0,0-2-1A8,8,0,0,0,368.69,34.19Z" transform="translate(-12.59 -13.12)"/><path class="cls-7" d="M383.94,45.73V32.94q0-4,4.28-4a68.28,68.28,0,0,1,9.39.44l-.2,3.47h-7a1.29,1.29,0,0,0-1.52,1.51V45.73Z" transform="translate(-12.59 -13.12)"/></g></svg>