<svg xmlns="http://www.w3.org/2000/svg" x="0" y="0" viewBox="0 0 178 51" width="178" height="51">
  <path fill="#fff" d="M18.7 40.9H18l-3.5-14.6H7.9V44h3.4V29.4h.7L15.5 44h5.8l3.5-14.6h.7V44h3.4V26.3h-6.6l-3.6 14.6zM53.4 44h12.1v-3.1h-8.6v-4.4h7.4v-3h-7.4v-4.1h8.6v-3.1H53.4V44zm-12.2-2.6c-3.9 0-5.7-2.7-5.7-6.3s1.8-6.2 5.7-6.2 5.7 2.7 5.7 6.2-1.8 6.3-5.7 6.3zm0-15.6c-5.9 0-9.3 3.8-9.3 9.3s3.4 9.4 9.3 9.4 9.3-3.9 9.3-9.4-3.4-9.3-9.3-9.3zM67.9 44h3.7l4.1-7 4.5 7h3.7L78 34.7l5.6-8.4h-3.8l-3.9 6.3-3.9-6.3h-3.8l5.4 8.3-5.7 9.4z"/>
  <path fill="#ff0508" d="m141.7 31.3 1.4.2c-.3 1.6-1.7 2.5-3.2 2.5-2.4 0-3.5-1.7-3.5-4s1.2-3.9 3.6-3.9c1.5 0 2.6.7 3.1 2.1l-1.4.6c-.3-.8-.9-1.3-1.8-1.3-1.5 0-2.1 1.2-2.1 2.6 0 1.4.6 2.6 2.1 2.6 1 0 1.6-.5 1.8-1.4zM91.1 42.7H93c.7 0 1.2-.4 1.2-1.1 0-.7-.5-1.1-1.2-1.1h-1.9v2.2zM89.7 44v-7.6h5.5v1.3h-4.1v1.5h2.1c1.5 0 2.4.7 2.4 2.3 0 1.5-.9 2.5-2.4 2.5h-3.5zm6.8 0v-7.6h1.4v6.3h.2l1.9-6.3h2.7V44h-1.4v-6.3h-.2L99.2 44h-2.7zm9-3.7h1.8c.8 0 1.2-.6 1.2-1.3 0-.8-.4-1.2-1.2-1.2h-1.8v2.5zm-1.4 3.7v-7.6h3.2c1.6 0 2.7.9 2.7 2.5s-1.1 2.6-2.7 2.6h-1.8V44h-1.4zm5.9 0 2.4-4-2.3-3.6h1.7l1.7 3h.6v-3h1.4v3h.6l1.7-3h1.7l-2.3 3.6 2.4 4h-1.7l-1.8-3.3h-.6V44h-1.4v-3.3h-.6l-1.8 3.3H110zm12.3-3.2h2.2l-.9-3.1h-.3l-1 3.1zm-2.4 3.2 2.5-7.6h2.1L127 44h-1.5l-.6-1.9h-3l-.6 1.9h-1.4zM89.7 33.9v-7.6h2.7l1.3 6.3h.2l1.2-6.3h2.7v7.6h-1.4v-6.3h-.2L95 33.9h-2.4l-1.3-6.3h-.2v6.3h-1.4zm12.8-1.2c1.6 0 2.2-1.2 2.2-2.6 0-1.5-.8-2.6-2.3-2.6-1.6 0-2.2 1.2-2.2 2.6 0 1.4.7 2.6 2.3 2.6zm0 1.3c-2.4 0-3.7-1.7-3.7-4s1.4-3.9 3.7-3.9c2.4 0 3.7 1.7 3.7 3.9s-1.3 4-3.7 4zm9.9-2.7 1.4.2c-.3 1.6-1.7 2.5-3.2 2.5-2.4 0-3.5-1.7-3.5-4s1.2-3.9 3.6-3.9c1.5 0 2.6.7 3.1 2.1l-1.4.6c-.3-.8-.9-1.3-1.8-1.3-1.5 0-2.1 1.2-2.1 2.6 0 1.4.6 2.6 2.1 2.6 1 0 1.5-.5 1.8-1.4zm2.5 2.6v-7.6h1.4v3h.8l2.3-3h1.8l-2.9 3.5 3 4.1h-1.8l-2.4-3.3h-.8v3.3h-1.4zm10.1-1.2c1.6 0 2.2-1.2 2.2-2.6 0-1.5-.8-2.6-2.3-2.6-1.6 0-2.2 1.2-2.2 2.6 0 1.4.7 2.6 2.3 2.6zm0 1.3c-2.4 0-3.7-1.7-3.7-4s1.3-3.9 3.7-3.9 3.7 1.7 3.7 3.9-1.4 4-3.7 4zm6.1-4.6h1.9c.6 0 1.1-.3 1.1-.9 0-.7-.4-.9-1.1-.9h-1.9v1.8zm0 3.2h2c.7 0 1.2-.2 1.2-1s-.5-1-1.2-1h-2v2zm-1.4 1.3v-7.6h3.5c1.2 0 2.2.5 2.2 1.9 0 .9-.3 1.5-1.1 1.9.9.2 1.3.9 1.3 1.8 0 1.4-1 2.1-2.3 2.1h-3.6zm14.6 0v-7.6h1.4v3h.8l2.3-3h1.8l-2.8 3.5 2.9 4.1h-1.8l-2.4-3.3h-.8v3.3h-1.4zm9-3.3h2.2l-.9-3.1h-.3l-1 3.1zm-2.4 3.3 2.6-7.6h2.1l2.5 7.6h-1.5L156 32h-3.1l-.6 1.9h-1.4zm12.4-4.2v-2.1h-1.7c-.8 0-1.3.2-1.3 1.1s.5 1.1 1.3 1.1h1.7zm-4.5 4.2.3-2.1c.1-.7.4-1.1 1.1-1.4-.8-.3-1.3-1.1-1.3-2 0-1.4 1.3-2.1 2.6-2.1h3.2v7.6h-1.4V31h-1.7c-.7 0-.9.2-1 1l-.3 2h-1.5zM0 51V19.1h31.9V0h51v51H0z"/>
  <path fill="#fff" d="M17.3 40.9h-.7l-3.3-14.7h-6V44h3.2V29.4h.7L14.3 44h5.4l3.2-14.7h.7V44h3.2V26.3h-6.1l-3.4 14.6zM49.5 44h11.1v-3.1h-7.9v-4.4h6.8v-3h-6.8v-4.2h7.9v-3.1H49.5V44zm-11.4-2.6c-3.6 0-5.3-2.7-5.3-6.2s1.7-6.2 5.3-6.2 5.3 2.7 5.3 6.2-1.7 6.2-5.3 6.2zm0-15.6c-5.4 0-8.6 3.7-8.6 9.3s3.2 9.4 8.6 9.4 8.6-3.9 8.6-9.4-3.2-9.3-8.6-9.3zM62.8 44h3.4l3.9-7 4.1 7h3.4l-5.5-9.3 5.2-8.5h-3.4l-3.6 6.3-3.7-6.3h-3.4l5 8.4-5.4 9.4z"/>
</svg>
