<svg width="117" height="48" viewBox="0 0 117 48" fill="none" xmlns="http://www.w3.org/2000/svg">
<mask id="mask0_11946_14" style="mask-type:luminance" maskUnits="userSpaceOnUse" x="0" y="0" width="117" height="48">
<path d="M116.921 0H0V47.9675H116.921V0Z" fill="white"/>
</mask>
<g mask="url(#mask0_11946_14)">
<path d="M3.49899 25.3477C6.60215 25.3477 8.2339 22.2226 9.65812 17.9939H9.88763C9.31387 21.6472 9.49622 25.3477 12.9216 25.3477C16.0012 25.3477 17.4726 22.199 18.7585 17.9939H18.988C18.3906 21.5796 18.551 25.3477 22.0676 25.3477C25.1471 25.3477 26.8701 22.2682 27.5365 18.0159H25.3768C25.1236 18.9575 24.6865 19.8771 23.8832 19.8771C22.2059 19.8771 23.1255 17.0727 23.8597 13.5577L24.9176 8.45494H19.7473C19.7473 8.45494 17.012 19.8771 14.852 19.8771C13.2659 19.8771 14.0472 16.752 14.7137 13.5105L15.7497 8.45494H10.5793C9.61411 12.2466 7.56893 19.8771 5.66052 19.8771C5.03956 19.8771 4.87923 19.4857 4.87923 18.9811C4.87923 18.6588 4.97041 18.3146 5.08673 18.0159H0.351838C0.0987441 19.0267 -0.0395927 19.9919 -0.0395927 20.9807C-0.0395927 23.4629 0.880033 25.3477 3.49899 25.3477ZM30.3883 25.3477C31.7448 25.3477 32.8249 24.2898 32.8249 22.9347C32.8249 21.5796 31.7448 20.5217 30.3883 20.5217C29.0316 20.5217 27.9515 21.578 27.9515 22.9347C27.9515 24.2913 29.0316 25.3477 30.3883 25.3477ZM44.3837 19.8551C44.3837 21.0043 43.5334 21.5105 42.5917 21.5105H39.2825V18.1558H42.6153C43.6731 18.1558 44.3852 18.7987 44.3852 19.8567L44.3837 19.8551ZM39.281 11.9495H42.3152C43.1891 11.9495 43.8776 12.4321 43.8776 13.4429C43.8776 14.4537 43.0727 14.9363 42.3152 14.9363H39.281V11.9479V11.9495ZM45.6932 16.3386C46.9336 15.8559 48.1755 14.7524 48.1755 12.6616C48.1755 9.99551 46.176 8.45651 43.0964 8.45651H35.0524V25.0019H43.1875C46.3126 25.0019 48.6801 23.4849 48.6801 20.4053C48.6801 18.2454 47.3927 16.8196 45.6917 16.2914V16.337L45.6932 16.3386ZM112.663 16.752C112.663 19.0959 111.145 21.2102 108.388 21.2102C105.631 21.2102 103.999 19.1415 103.999 16.7064C103.999 14.2714 105.516 12.2482 108.273 12.2482C111.031 12.2482 112.663 14.3169 112.663 16.752ZM99.7013 16.7284C99.7013 21.7148 103.471 25.3462 108.343 25.3462C113.214 25.3462 116.96 21.6692 116.96 16.7284C116.96 11.7876 113.192 8.11066 108.32 8.11066C103.449 8.11066 99.7028 11.7876 99.7028 16.7284H99.7013ZM77.9149 12.4761V20.9791H72.9048C73.617 19.4401 73.9626 16.4753 73.9626 12.6601V12.4761H77.9164H77.9149ZM82.1434 20.9791V8.45494H69.9855V9.71883C69.9855 15.3953 69.7104 19.6932 68.4231 20.9807H66.7001V27.6225H70.9287V25.0019H80.3278V27.6225H84.5564V20.9807H82.1434V20.9791ZM90.5081 20.9791V18.5425H97.4485V14.7508H90.5081V12.4761H98.0913V8.45494H86.2793V25.0019H98.3446V20.9807H90.5081V20.9791ZM60.9087 8.45494L54.8645 17.854V8.45494H50.6357V25.0019H54.8645L60.9087 15.6028V25.0019H65.1375V8.45494H60.9087Z" fill="#E31235"/>
<path d="M1.82914 38.4688H0.574547V32.3273H4.47873V33.5382H1.82914V38.4688ZM3.8933 38.5828C3.7266 38.5828 3.58623 38.5567 3.49849 38.5302V37.4598H3.66519C4.03367 37.4598 4.23545 37.2581 4.27934 36.723L4.50742 33.9944H7.8852V38.4688H6.69201V35.0999H5.56025L5.40233 36.9861C5.31459 38.0302 4.78819 38.5828 3.8933 38.5828ZM10.672 33.8803C11.8476 33.8803 12.5407 34.6524 12.5407 35.793V38.4688H11.6459L11.4528 38.0302H11.409C11.2247 38.2232 10.8299 38.5828 10.1368 38.5828C9.28581 38.5828 8.6278 37.9951 8.6278 37.2492C8.6278 36.3281 9.50513 35.7579 10.7773 35.7579H11.3475V35.6701C11.3475 35.205 11.0844 34.9419 10.6632 34.9419C10.2596 34.9419 10.0666 35.2139 10.0315 35.3981H8.83834C8.89978 34.6435 9.49637 33.8803 10.672 33.8803ZM10.4176 37.6091C10.9878 37.6091 11.3475 37.2055 11.3475 36.7842V36.5561H10.7422C10.0666 36.5561 9.82097 36.802 9.82097 37.1352C9.82097 37.4072 10.0228 37.6091 10.4176 37.6091ZM16.6148 36.1264C16.9657 36.2666 17.3167 36.609 17.3167 37.1791C17.3167 37.8897 16.7289 38.4688 15.8954 38.4688H13.5354V33.9944H15.7287C16.5534 33.9944 17.1412 34.5559 17.1412 35.205C17.1412 35.6701 16.8605 36.0035 16.6148 36.1264ZM15.4918 34.8805H14.6847V35.793H15.4918C15.7901 35.793 15.9919 35.6261 15.9919 35.3191C15.9919 35.056 15.7901 34.8805 15.4918 34.8805ZM14.6847 37.5827H15.6497C15.9568 37.5827 16.1674 37.3986 16.1674 37.0826C16.1674 36.802 15.9568 36.5912 15.6497 36.5912H14.6847V37.5827ZM21.0231 35.6965V33.9944H22.2163V38.4688H21.0231V36.802H19.3123V38.4688H18.1191V33.9944H19.3123V35.6965H21.0231ZM24.4444 35.3544H25.2867C26.1902 35.3544 26.8747 36.0122 26.8747 36.9071C26.8747 37.8196 26.1902 38.4688 25.2867 38.4688H23.2512V33.9944H24.4444V35.3544ZM27.2081 38.4688V33.9944H28.4013V38.4688H27.2081ZM24.4444 37.4775H25.0673C25.4535 37.4775 25.6815 37.2492 25.6815 36.9071C25.6815 36.5737 25.4535 36.3456 25.0673 36.3456H24.4444V37.4775ZM31.5604 33.4064C30.7444 33.4064 30.1653 32.8538 30.0952 32.1082H30.9374C30.9724 32.3537 31.1304 32.6433 31.5604 32.6433C31.9903 32.6433 32.1481 32.3537 32.1834 32.1082H33.0255C32.9554 32.8538 32.3764 33.4064 31.5604 33.4064ZM30.5864 36.8106L32.5166 33.9944H33.5695V38.4688H32.4201V35.6525L30.4899 38.4688H29.4372V33.9944H30.5864V36.8106ZM38.5775 33.8803C39.8146 33.8803 40.8673 34.9595 40.8673 36.2316C40.8673 37.5037 39.8146 38.5828 38.5775 38.5828C37.4194 38.5828 36.6298 37.6792 36.4454 36.8721H37.6388C37.6914 37.1177 37.9896 37.5212 38.5775 37.5212C39.0865 37.5212 39.4987 37.1791 39.6391 36.6351H38.323V35.828H39.6391C39.4987 35.284 39.0865 34.9419 38.5775 34.9419C37.9896 34.9419 37.6914 35.4156 37.6388 35.5911H36.4454C36.6298 34.784 37.4194 33.8803 38.5775 33.8803ZM43.9708 36.1L45.7519 38.4688H44.2867L42.8566 36.4685V38.4688H41.6635V33.9944H42.8566V35.8369L44.1988 33.9944H45.5588L43.9708 36.1ZM48.0432 38.5828C46.8061 38.5828 45.7534 37.5037 45.7534 36.2316C45.7534 34.9595 46.8061 33.8803 48.0432 33.8803C49.2099 33.8803 49.9997 34.8104 50.175 35.6789H48.9818C48.9292 35.4859 48.6308 34.9859 48.0432 34.9859C47.4202 34.9859 46.9465 35.5035 46.9465 36.2316C46.9465 36.9597 47.4202 37.4775 48.0432 37.4775C48.6308 37.4775 48.9292 36.9686 48.9818 36.7842H50.175C49.9997 37.6528 49.2099 38.5828 48.0432 38.5828ZM52.127 38.4688H50.9338V33.9944H54.9871V38.4688H53.794V35.0999H52.127V38.4688ZM60.2605 36.1615C60.2605 36.3982 60.2344 36.5737 60.208 36.6615H56.9882C57.1197 37.2055 57.5233 37.5212 58.0584 37.5212C58.5234 37.5212 58.7692 37.2845 58.8569 37.188H60.1115C59.8745 37.7932 59.1289 38.5828 58.0759 38.5828C56.8127 38.5828 55.7861 37.5301 55.7861 36.2316C55.7861 34.9595 56.8391 33.8803 58.0584 33.8803C59.2779 33.8803 60.2605 34.8629 60.2605 36.1615ZM58.0584 34.9419C57.5408 34.9419 57.1286 35.2754 56.9882 35.8105H59.1113C58.9709 35.2929 58.5673 34.9419 58.0584 34.9419ZM62.2542 40.048H61.0608V33.9944H61.9558L62.1488 34.433H62.1927C62.3154 34.2839 62.7629 33.8803 63.4648 33.8803C64.5615 33.8803 65.5355 34.8805 65.5355 36.2316C65.5355 37.5827 64.5615 38.5828 63.4648 38.5828C62.8243 38.5828 62.3857 38.2143 62.2979 38.0828H62.2542V40.048ZM63.298 37.4775C63.8509 37.4775 64.3421 36.9686 64.3421 36.2316C64.3421 35.4946 63.8509 34.9859 63.298 34.9859C62.7454 34.9859 62.2542 35.4946 62.2542 36.2316C62.2542 36.9686 62.7454 37.4775 63.298 37.4775ZM68.2468 38.4688H67.0537V35.0999H65.7465V33.9944H69.554V35.0999H68.2468V38.4688ZM73.315 38.4688H72.1219V33.9944H76.1752V38.4688H74.982V35.0999H73.315V38.4688ZM79.2642 38.5828C78.0271 38.5828 76.9744 37.5037 76.9744 36.2316C76.9744 34.9595 78.0271 33.8803 79.2642 33.8803C80.5013 33.8803 81.554 34.9595 81.554 36.2316C81.554 37.5037 80.5013 38.5828 79.2642 38.5828ZM79.2642 37.4775C79.8872 37.4775 80.3608 36.9597 80.3608 36.2316C80.3608 35.5035 79.8872 34.9859 79.2642 34.9859C78.6412 34.9859 78.1676 35.5035 78.1676 36.2316C78.1676 36.9597 78.6412 37.4775 79.2642 37.4775ZM86.6504 38.4688H85.4572V35.0999H84.15V33.9944H87.9578V35.0999H86.6504V38.4688ZM92.6468 36.1615C92.6468 36.3982 92.6206 36.5737 92.5942 36.6615H89.3744C89.506 37.2055 89.9095 37.5212 90.4446 37.5212C90.9097 37.5212 91.1555 37.2845 91.2431 37.188H92.4977C92.2608 37.7932 91.5151 38.5828 90.4622 38.5828C89.1989 38.5828 88.1724 37.5301 88.1724 36.2316C88.1724 34.9595 89.2253 33.8803 90.4446 33.8803C91.6642 33.8803 92.6468 34.8629 92.6468 36.1615ZM90.4446 34.9419C89.927 34.9419 89.5149 35.2754 89.3744 35.8105H91.4976C91.3571 35.2929 90.9536 34.9419 90.4446 34.9419ZM95.7236 36.1876L97.2152 38.4688H95.8463L94.9602 37.0212L94.0741 38.4688H92.7583L94.2496 36.1876L92.8548 33.9944H94.2056L95.013 35.3366L95.8112 33.9944H97.1098L95.7236 36.1876ZM100.635 35.6965V33.9944H101.828V38.4688H100.635V36.802H98.9241V38.4688H97.731V33.9944H98.9241V35.6965H100.635ZM104.012 36.8106L105.943 33.9944H106.995V38.4688H105.846V35.6525L103.916 38.4688H102.863V33.9944H104.012V36.8106ZM110.337 36.1L112.118 38.4688H110.653L109.223 36.4685V38.4688H108.03V33.9944H109.223V35.8369L110.565 33.9944H111.925L110.337 36.1ZM116.594 36.1615C116.594 36.3982 116.568 36.5737 116.541 36.6615H113.321C113.453 37.2055 113.856 37.5212 114.392 37.5212C114.857 37.5212 115.102 37.2845 115.19 37.188H116.445C116.208 37.7932 115.462 38.5828 114.409 38.5828C113.146 38.5828 112.119 37.5301 112.119 36.2316C112.119 34.9595 113.172 33.8803 114.392 33.8803C115.611 33.8803 116.594 34.8629 116.594 36.1615ZM114.392 34.9419C113.874 34.9419 113.462 35.2754 113.321 35.8105H115.444C115.304 35.2929 114.9 34.9419 114.392 34.9419Z" fill="#E31235"/>
</g>
</svg>
