<svg xmlns="http://www.w3.org/2000/svg" viewBox="0 0 30 30" height="30" width="30" xml:space="preserve" version="1.1">
	<g transform="matrix(1,0,0,-1,-5.5,31.5)">
		<g transform="translate(27.9746,24.7421)">
			<path style="fill:#ec1c24;fill-opacity:1;fill-rule:nonzero;stroke:none" d="m 0,0 c 0,0 -0.301,0.01 -0.301,0.01 h -2.41 c -0.555,1.564 -1.784,2.818 -3.338,3.405 v 2.701 h -4.025 V 3.397 C -11.605,2.803 -12.816,1.556 -13.366,0.01 h -2.422 c 0,0 -0.06,-0.004 -0.084,-0.006 h -0.072 c -3.024,-0.051 -5.485,-2.554 -5.485,-5.58 0,-2.694 1.921,-5.001 4.568,-5.487 0,0 0.115,-0.022 0.154,-0.029 v -2.369 h 6.594 v 0.002 h 0.039 v -1.508 h 4.025 v 1.508 l 0.161,-0.002 h 6.553 v 2.382 c 2.657,0.426 4.699,2.73 4.699,5.503 C 5.364,-2.564 3.008,-0.116 0,0"/>
		</g>
		<g transform="translate(34.0415,9.12)">
			<path style="fill:#ffffff;fill-opacity:1;fill-rule:nonzero;stroke:none" d="M 0,0 C 0,0 -0.085,0.038 -0.238,0.104 -0.314,0.134 -0.408,0.17 -0.517,0.209 -0.625,0.247 -0.748,0.286 -0.884,0.321 -1.021,0.35 -1.17,0.368 -1.33,0.373 -1.49,0.357 -1.661,0.323 -1.84,0.284 c -1.434,-0.317 -3.427,-0.758 -4.91,-1.086 -0.118,-0.025 -0.233,-0.051 -0.344,-0.073 -0.111,-0.022 -0.218,-0.036 -0.322,-0.047 -0.205,0.005 -0.392,0.051 -0.556,0.123 -0.164,0.095 -0.306,0.194 -0.424,0.281 -0.233,0.211 -0.366,0.348 -0.366,0.348 0,0 -0.002,0.084 -0.005,0.216 -0.003,0.134 -0.007,0.308 -0.011,0.516 -10e-4,0.107 -10e-4,0.226 -10e-4,0.354 0,0.127 0,0.264 0.002,0.405 10e-4,0.142 0.003,0.273 0.005,0.398 0.002,0.117 0.004,0.227 0.006,0.323 0.003,0.192 0.005,0.352 0.007,0.465 0.001,0.114 0.002,0.182 0.002,0.182 0,0 0.133,-0.143 0.366,-0.381 0.117,-0.11 0.259,-0.236 0.422,-0.353 0.164,-0.116 0.35,-0.196 0.554,-0.231 0.103,0.003 0.21,0.015 0.321,0.037 0.111,0.022 0.226,0.048 0.344,0.073 1.483,0.328 3.476,0.769 4.91,1.085 0.179,0.041 0.35,0.072 0.51,0.083 0.162,-0.003 0.311,-0.019 0.448,-0.044 0.136,-0.037 0.26,-0.078 0.369,-0.12 0.109,-0.045 0.202,-0.086 0.279,-0.119 0.153,-0.066 0.237,-0.101 0.237,-0.101 0,0 0.001,-0.079 0.001,-0.207 V 1.93 C 0.004,1.833 0.003,1.73 0.003,1.623 0.003,1.517 0.002,1.407 0.001,1.297 0,1.187 0,1.077 0,0.97 0,0.861 0,0.757 0,0.656 V 0.185 Z"/>
		</g>
		<g transform="translate(26.1748,8.5292)">
			<path style="fill:#231f20;fill-opacity:1;fill-rule:nonzero;stroke:none" d="m 0,0 c 0.14,-0.06 0.289,-0.093 0.442,-0.099 0.092,0.01 0.187,0.023 0.286,0.043 C 0.813,-0.039 0.903,-0.02 0.994,0 L 5.977,1.102 C 6.151,1.141 6.336,1.179 6.515,1.195 L 6.529,1.196 H 6.543 C 6.707,1.191 6.87,1.173 7.029,1.141 7.18,1.101 7.31,1.061 7.429,1.019 7.504,0.991 7.573,0.965 7.634,0.941 L 7.638,3.055 C 7.61,3.066 7.577,3.08 7.541,3.096 7.447,3.137 7.362,3.174 7.266,3.213 7.158,3.255 7.042,3.293 6.924,3.324 6.812,3.344 6.675,3.357 6.533,3.36 6.425,3.352 6.273,3.327 6.078,3.283 L 1.081,2.179 C 0.991,2.159 0.904,2.141 0.818,2.123 0.691,2.099 0.57,2.085 0.457,2.082 H 0.435 L 0.412,2.086 c -0.234,0.04 -0.452,0.131 -0.649,0.27 -0.139,0.1 -0.276,0.214 -0.429,0.357 L -0.673,2.306 C -0.675,2.181 -0.677,2.051 -0.678,1.91 -0.68,1.77 -0.68,1.634 -0.68,1.507 c 0,-0.127 0,-0.245 0.001,-0.353 L -0.665,0.52 C -0.606,0.461 -0.506,0.366 -0.373,0.246 -0.264,0.164 -0.133,0.077 0,0 m 0.46,-0.564 -0.015,0.001 c -0.223,0.004 -0.44,0.053 -0.643,0.141 l -0.024,0.013 c -0.153,0.089 -0.304,0.189 -0.447,0.297 -0.256,0.23 -0.393,0.37 -0.393,0.37 l -0.064,0.066 -0.018,0.824 c -0.001,0.11 -0.001,0.23 -0.001,0.359 0,0.128 0,0.265 0.002,0.408 0.001,0.142 0.003,0.274 0.005,0.399 l 0.028,1.545 0.39,-0.421 c 0.002,0 0.133,-0.142 0.362,-0.377 C -0.274,2.982 -0.134,2.854 0.033,2.735 0.166,2.642 0.312,2.578 0.469,2.548 0.55,2.552 0.637,2.562 0.729,2.58 0.81,2.596 0.895,2.614 0.982,2.633 l 0.085,0.018 4.91,1.086 C 6.195,3.786 6.369,3.814 6.521,3.825 6.709,3.822 6.872,3.806 7.026,3.777 7.178,3.737 7.31,3.694 7.437,3.646 7.542,3.603 7.63,3.564 7.704,3.532 7.874,3.459 7.957,3.425 7.958,3.425 L 8.102,3.366 8.104,2.521 8.099,0.232 7.771,0.379 c 0,0 -0.084,0.037 -0.234,0.101 C 7.468,0.508 7.377,0.543 7.271,0.58 7.166,0.619 7.048,0.654 6.923,0.687 6.807,0.711 6.676,0.727 6.544,0.731 6.396,0.716 6.232,0.682 6.077,0.647 L 1.092,-0.454 C 0.999,-0.475 0.908,-0.494 0.819,-0.512 0.7,-0.536 0.585,-0.551 0.475,-0.562 Z"/>
		</g>
		<g transform="translate(34.0415,6.5751)">
			<path style="fill:#0071bb;fill-opacity:1;fill-rule:nonzero;stroke:none" d="m 0,0 c 0,0 -0.093,0.039 -0.26,0.107 -0.083,0.035 -0.184,0.071 -0.302,0.106 -0.117,0.03 -0.251,0.057 -0.398,0.072 -0.147,0.004 -0.308,0 -0.481,-0.014 -0.172,-0.028 -0.355,-0.067 -0.547,-0.11 -1.539,-0.341 -3.646,-0.807 -5.106,-1.129 -0.111,-0.025 -0.218,-0.048 -0.321,-0.065 -0.204,-0.037 -0.388,-0.053 -0.55,-0.053 -0.161,0.014 -0.298,0.045 -0.41,0.091 -0.218,0.135 -0.34,0.232 -0.34,0.232 0,0 0,0.076 10e-4,0.21 0,0.066 0.001,0.15 0.003,0.251 10e-4,0.102 0.002,0.222 0.004,0.358 0.001,0.143 0.002,0.291 0.001,0.433 0,0.145 -0.002,0.282 -0.003,0.414 -0.004,0.14 -0.007,0.273 -0.012,0.4 -0.004,0.123 -0.008,0.241 -0.013,0.344 -0.009,0.208 -0.016,0.385 -0.021,0.516 -0.004,0.133 -0.007,0.212 -0.007,0.212 0,0 0.133,-0.137 0.366,-0.348 0.118,-0.088 0.26,-0.187 0.425,-0.277 0.163,-0.076 0.35,-0.123 0.555,-0.127 0.104,0.011 0.211,0.024 0.322,0.047 0.111,0.022 0.226,0.048 0.344,0.073 1.483,0.328 3.476,0.769 4.91,1.086 0.179,0.04 0.35,0.074 0.51,0.09 C -1.17,2.914 -1.021,2.896 -0.884,2.867 -0.748,2.831 -0.625,2.793 -0.517,2.754 -0.408,2.716 -0.314,2.68 -0.238,2.649 -0.085,2.583 0,2.545 0,2.545 V 2.347 1.859 1.266 0.685 0.202 Z"/>
		</g>
		<g transform="translate(25.772,5.788)">
			<path style="fill:#231f20;fill-opacity:1;fill-rule:nonzero;stroke:none" d="m 0,0 c 0.09,-0.034 0.199,-0.057 0.324,-0.067 0.137,0.001 0.308,0.017 0.49,0.049 C 0.913,0 1.017,0.021 1.125,0.046 L 6.231,1.175 C 6.414,1.216 6.609,1.259 6.793,1.287 6.983,1.304 7.153,1.309 7.315,1.305 7.483,1.287 7.629,1.261 7.767,1.225 7.871,1.193 7.96,1.163 8.037,1.134 V 3.181 C 8.008,3.193 7.976,3.207 7.938,3.224 7.872,3.249 7.781,3.284 7.675,3.322 7.571,3.359 7.455,3.396 7.326,3.43 7.213,3.453 7.082,3.468 6.948,3.473 6.788,3.456 6.615,3.42 6.481,3.39 L 1.493,2.286 C 1.4,2.267 1.31,2.247 1.222,2.229 1.103,2.205 0.988,2.19 0.878,2.179 L 0.863,2.177 0.849,2.178 C 0.62,2.183 0.402,2.232 0.2,2.327 0.047,2.41 -0.094,2.501 -0.239,2.609 -0.237,2.557 -0.234,2.502 -0.232,2.444 -0.228,2.341 -0.223,2.222 -0.219,2.098 -0.214,1.971 -0.211,1.837 -0.208,1.695 -0.205,1.561 -0.204,1.423 -0.203,1.276 -0.203,1.134 -0.204,0.985 -0.205,0.841 L -0.212,0.142 C -0.162,0.105 -0.09,0.057 0,0 m 0.305,-0.531 c -0.201,0.015 -0.362,0.052 -0.498,0.108 l -0.035,0.017 c -0.227,0.141 -0.357,0.244 -0.362,0.249 l -0.089,0.069 0.009,0.935 c 0.002,0.14 0.002,0.287 0.002,0.428 0,0.144 -0.002,0.28 -0.004,0.412 -0.004,0.137 -0.007,0.269 -0.012,0.394 -0.004,0.123 -0.008,0.24 -0.013,0.344 -0.009,0.208 -0.016,0.386 -0.021,0.516 l -0.028,0.813 0.42,-0.43 C -0.323,3.321 -0.195,3.189 0.03,2.987 0.151,2.896 0.28,2.812 0.41,2.741 0.536,2.684 0.686,2.647 0.845,2.643 0.937,2.652 1.032,2.665 1.13,2.686 1.216,2.702 1.304,2.722 1.394,2.741 L 3.325,3.168 6.379,3.843 C 6.53,3.877 6.728,3.919 6.917,3.938 H 6.932 6.947 C 7.113,3.934 7.277,3.914 7.433,3.883 7.587,3.842 7.717,3.802 7.832,3.76 7.942,3.721 8.038,3.684 8.116,3.653 8.278,3.583 8.364,3.545 8.364,3.545 L 8.502,3.482 V 0.434 L 8.177,0.573 C 8.176,0.573 8.085,0.613 7.922,0.68 7.845,0.711 7.751,0.744 7.642,0.777 7.533,0.806 7.411,0.827 7.285,0.841 7.157,0.843 7.004,0.839 6.848,0.826 6.694,0.801 6.508,0.761 6.332,0.722 L 1.226,-0.407 C 1.112,-0.434 1.001,-0.457 0.896,-0.476 0.687,-0.513 0.488,-0.531 0.305,-0.531"/>
		</g>
		<g transform="translate(34.0415,3.9208)">
			<path style="fill:#ec1c24;fill-opacity:1;fill-rule:nonzero;stroke:none" d="M 0,0 C 0,0 -0.102,0.037 -0.281,0.105 -0.372,0.141 -0.482,0.182 -0.608,0.225 -0.735,0.264 -0.88,0.298 -1.038,0.317 -1.197,0.329 -1.37,0.314 -1.554,0.276 -1.739,0.234 -1.935,0.191 -2.141,0.146 -3.784,-0.217 -6.003,-0.708 -7.416,-1.02 -7.622,-1.066 -7.81,-1.102 -7.974,-1.109 c -0.159,0.022 -0.296,0.065 -0.406,0.118 -0.211,0.152 -0.329,0.264 -0.329,0.264 v 0.235 c 0,0.138 -0.002,0.325 -0.003,0.534 -10e-4,0.104 -10e-4,0.213 -10e-4,0.323 0,0.107 0,0.214 0,0.318 -0.001,0.099 -0.002,0.196 -0.002,0.289 0,0.091 0,0.183 0,0.27 -10e-4,0.175 -0.002,0.336 -10e-4,0.454 0,0.121 10e-4,0.195 10e-4,0.195 0,0 0.122,-0.098 0.34,-0.233 0.112,-0.046 0.25,-0.077 0.41,-0.091 0.162,0.001 0.346,0.017 0.55,0.053 0.103,0.018 0.21,0.041 0.321,0.066 1.46,0.322 3.567,0.789 5.106,1.128 0.192,0.043 0.375,0.083 0.547,0.104 0.173,0.021 0.334,0.023 0.481,0.02 C -0.813,2.924 -0.679,2.897 -0.562,2.866 -0.444,2.831 -0.343,2.796 -0.26,2.761 -0.093,2.692 0,2.652 0,2.652 V 2.441 1.914 1.591 1.275 0.665 0.191 Z"/>
		</g>
		<g transform="translate(25.7803,3.1307)">
			<path style="fill:#231f20;fill-opacity:1;fill-rule:nonzero;stroke:none" d="m 0,0 c 0.086,-0.039 0.189,-0.068 0.298,-0.086 0.127,0.008 0.282,0.034 0.496,0.083 L 6.656,1.293 C 6.87,1.337 7.065,1.353 7.241,1.339 7.405,1.319 7.563,1.286 7.721,1.237 7.841,1.196 7.943,1.158 8.028,1.126 V 3.288 C 7.996,3.302 7.957,3.317 7.913,3.336 7.833,3.369 7.74,3.401 7.633,3.434 7.523,3.462 7.401,3.484 7.277,3.497 7.127,3.501 6.986,3.494 6.848,3.478 6.69,3.458 6.517,3.421 6.324,3.378 L 1.217,2.249 C 1.103,2.224 0.993,2.2 0.888,2.181 0.679,2.145 0.481,2.126 0.297,2.125 c -0.2,0.016 -0.36,0.052 -0.498,0.107 l -0.022,0.01 c 0.001,-0.065 0.001,-0.136 0.001,-0.208 l 0.003,-1.2 c 0.002,-0.21 0.003,-0.397 0.004,-0.535 L -0.216,0.169 C -0.167,0.127 -0.094,0.068 0,0 M 0.277,-0.553 0.255,-0.55 c -0.174,0.026 -0.334,0.072 -0.475,0.14 l -0.034,0.02 c -0.222,0.16 -0.349,0.279 -0.354,0.285 l -0.073,0.068 v 0.335 c 0,0.138 -0.001,0.323 -0.003,0.533 l -0.003,1.201 c 0,0.174 -10e-4,0.336 0,0.455 L -0.684,3.159 -0.31,2.862 C -0.308,2.861 -0.2,2.775 -0.009,2.657 0.082,2.622 0.191,2.6 0.315,2.589 c 0.138,0.002 0.31,0.018 0.492,0.05 0.098,0.017 0.202,0.04 0.31,0.064 L 6.223,3.831 C 6.428,3.878 6.613,3.917 6.792,3.938 6.953,3.958 7.117,3.965 7.307,3.961 7.473,3.944 7.619,3.918 7.759,3.881 7.889,3.843 7.998,3.804 8.092,3.765 8.258,3.696 8.353,3.656 8.353,3.656 L 8.494,3.596 V 0.46 L 8.182,0.571 c 0,0 -0.103,0.037 -0.286,0.108 C 7.808,0.713 7.701,0.753 7.578,0.795 7.452,0.833 7.324,0.861 7.195,0.876 7.073,0.885 6.921,0.873 6.754,0.838 L 0.896,-0.457 C 0.643,-0.515 0.458,-0.544 0.299,-0.552 Z"/>
		</g>
		<g transform="translate(34.0415,9.1307)">
			<path style="fill:#ffffff;fill-opacity:1;fill-rule:nonzero;stroke:none" d="M 0,0 C 0,0 -0.085,0.037 -0.238,0.104 -0.314,0.135 -0.408,0.17 -0.517,0.209 -0.625,0.245 -0.748,0.283 -0.884,0.314 -1.021,0.346 -1.17,0.365 -1.33,0.369 -1.49,0.354 -1.661,0.321 -1.84,0.281 -3.274,-0.036 -5.267,-0.477 -6.75,-0.805 -6.868,-0.83 -6.983,-0.856 -7.094,-0.881 c -0.111,-0.02 -0.218,-0.035 -0.322,-0.046 -0.204,0.007 -0.391,0.051 -0.555,0.121 -0.163,0.095 -0.306,0.193 -0.423,0.282 -0.232,0.206 -0.365,0.343 -0.365,0.343 0,0 -0.002,0.083 -0.006,0.22 -0.003,0.132 -0.007,0.311 -0.011,0.503 -0.002,0.105 -0.003,0.221 -0.004,0.346 0,0.131 10e-4,0.269 10e-4,0.414 0.002,0.135 0.004,0.27 0.005,0.398 0.002,0.122 0.004,0.237 0.006,0.337 0.003,0.198 0.006,0.359 0.007,0.473 0.002,0.114 0.003,0.181 0.003,0.181 0,0 0.133,-0.145 0.366,-0.387 0.117,-0.112 0.259,-0.239 0.422,-0.367 0.164,-0.105 0.351,-0.185 0.554,-0.208 0.104,-0.003 0.211,0.008 0.322,0.027 0.111,0.023 0.226,0.049 0.344,0.075 1.483,0.328 3.476,0.768 4.91,1.085 0.179,0.04 0.35,0.071 0.51,0.077 0.161,0.005 0.311,-0.011 0.447,-0.038 0.137,-0.038 0.261,-0.081 0.37,-0.124 0.109,-0.046 0.202,-0.088 0.279,-0.122 0.153,-0.066 0.238,-0.102 0.238,-0.102 0,0 0,-0.078 0,-0.199 0,-0.122 0,-0.288 0,-0.482 C 0.004,1.83 0.003,1.727 0.003,1.62 0.002,1.514 0.002,1.403 0.001,1.294 0,1.184 0,1.073 0,0.965 V 0.655 0.187 Z"/>
		</g>
		<g transform="translate(34.0415,6.576)">
			<path style="fill:#0071bb;fill-opacity:1;fill-rule:nonzero;stroke:none" d="M 0,0 C 0,0 -0.093,0.039 -0.26,0.105 -0.343,0.139 -0.444,0.174 -0.562,0.209 -0.679,0.241 -0.813,0.27 -0.96,0.289 -1.107,0.296 -1.268,0.292 -1.441,0.271 -1.613,0.25 -1.796,0.21 -1.988,0.168 c -1.539,-0.341 -3.646,-0.807 -5.106,-1.13 -0.111,-0.025 -0.218,-0.048 -0.322,-0.07 -0.203,-0.034 -0.388,-0.052 -0.55,-0.057 -0.161,0.008 -0.299,0.042 -0.409,0.09 -0.218,0.14 -0.341,0.241 -0.341,0.241 0,0 10e-4,0.073 10e-4,0.203 10e-4,0.128 0.003,0.323 0.007,0.588 0.002,0.139 0.002,0.285 0.002,0.432 0,0.146 0,0.291 -0.002,0.425 -0.002,0.138 -0.006,0.273 -0.009,0.402 -0.004,0.127 -0.008,0.247 -0.012,0.353 -0.009,0.213 -0.017,0.389 -0.022,0.52 -0.005,0.129 -0.008,0.209 -0.008,0.209 0,0 0.133,-0.138 0.365,-0.344 0.117,-0.089 0.26,-0.187 0.423,-0.281 0.164,-0.071 0.351,-0.116 0.555,-0.121 0.104,0.011 0.211,0.025 0.322,0.046 0.111,0.024 0.226,0.051 0.344,0.076 1.483,0.328 3.476,0.769 4.91,1.086 0.179,0.04 0.35,0.072 0.51,0.079 0.16,0.006 0.309,-0.014 0.446,-0.043 C -0.748,2.838 -0.625,2.8 -0.517,2.764 -0.408,2.725 -0.314,2.69 -0.238,2.659 -0.085,2.592 0,2.555 0,2.555 V 2.354 1.869 1.282 0.693 0.205 Z"/>
		</g>
		<g transform="translate(34.0415,3.9335)">
			<path style="fill:#ec1c24;fill-opacity:1;fill-rule:nonzero;stroke:none" d="M 0,0 C 0,0 -0.102,0.037 -0.281,0.105 -0.372,0.14 -0.482,0.179 -0.608,0.219 -0.735,0.257 -0.88,0.292 -1.038,0.32 -1.197,0.32 -1.37,0.3 -1.554,0.266 -1.739,0.229 -1.935,0.187 -2.141,0.141 -3.784,-0.223 -6.003,-0.713 -7.416,-1.025 -7.622,-1.071 -7.81,-1.107 -7.974,-1.121 c -0.16,0.017 -0.297,0.056 -0.407,0.105 -0.212,0.152 -0.329,0.262 -0.329,0.262 0,0 0.001,0.091 0.001,0.239 0,0.144 0,0.336 -0.003,0.544 -10e-4,0.105 -10e-4,0.216 -10e-4,0.325 0,0.113 0,0.222 0,0.329 -0.001,0.103 -0.001,0.202 -0.001,0.296 -10e-4,0.092 -10e-4,0.181 -10e-4,0.268 -10e-4,0.173 -0.002,0.329 -10e-4,0.447 0,0.118 0,0.19 0,0.19 0,0 0.123,-0.101 0.341,-0.241 0.111,-0.048 0.248,-0.082 0.409,-0.091 0.162,0.007 0.347,0.024 0.55,0.057 0.104,0.023 0.211,0.046 0.322,0.072 1.46,0.323 3.567,0.789 5.106,1.13 0.192,0.042 0.375,0.083 0.547,0.109 0.173,0.015 0.334,0.018 0.481,0.012 0.147,-0.02 0.281,-0.048 0.398,-0.079 C -0.444,2.816 -0.343,2.781 -0.26,2.748 -0.093,2.682 0,2.643 0,2.643 V 2.42 1.894 1.272 0.664 0.189 Z"/>
		</g>
		<g transform="translate(21.0552,20.247)">
			<path style="fill:#ffffff;fill-opacity:1;fill-rule:nonzero;stroke:none" d="M 0,0 V 5.248 C 1.02,4.812 1.734,3.801 1.734,2.624 1.734,1.445 1.02,0.435 0,0 M -2.285,0.022 C -3,0.344 -3.559,0.951 -3.815,1.7 h 0.964 v 1.935 h -0.934 c 0.268,0.708 0.812,1.281 1.5,1.59 z M 6.886,3.625 C 6.837,3.627 6.605,3.635 6.605,3.635 H 3.559 C 3.172,5.429 1.78,6.849 0,7.275 V 9.741 H -2.285 V 7.264 C -4.042,6.825 -5.414,5.414 -5.796,3.635 H -8.84 L -8.922,3.63 h -0.087 c -2.565,-0.044 -4.631,-2.136 -4.631,-4.711 0,-2.309 1.662,-4.229 3.855,-4.632 v 1.958 c -1.132,0.362 -1.952,1.422 -1.952,2.674 0,1.551 1.258,2.808 2.808,2.808 0.003,0 0.012,-0.027 0.012,-0.027 v -9.796 h 2.002 V 1.7 h 0.849 v -9.796 h 2.002 v 6.95 c 0.518,-0.406 1.122,-0.707 1.779,-0.872 V -9.602 H 0 v 7.574 c 0.708,0.169 1.354,0.497 1.901,0.942 v -7.01 h 2.002 v 9.82 h 2.728 c 0,0 0.175,0 0.208,-10e-4 C 8.326,1.65 9.511,0.424 9.511,-1.081 9.511,-2.627 8.26,-3.882 6.715,-3.889 V -3.89 H 4.712 v -4.206 h 2.003 v 2.305 c 2.596,0.006 4.698,2.112 4.698,4.71 0,2.54 -2.011,4.611 -4.527,4.706"/>
		</g>
		<g transform="translate(28.439,12.162)">
			<path style="fill:#ffffff;fill-opacity:1;fill-rule:nonzero;stroke:none" d="M 0,0 C 0,0 -0.067,0.055 -0.196,0.136 -0.323,0.218 -0.512,0.284 -0.753,0.314 -0.874,0.3 -1.007,0.277 -1.153,0.251 c -3.303,-0.693 -12.798,-2.688 -16.794,-3.526 -0.16,-0.034 -0.311,-0.064 -0.453,-0.091 -0.142,-0.003 -0.273,0.004 -0.394,0.018 -0.123,0.013 -0.234,0.034 -0.334,0.057 -0.201,0.058 -0.357,0.108 -0.464,0.144 -0.106,0.041 -0.162,0.063 -0.162,0.063 v 0.632 0.614 0.357 0.366 0.583 0.214 c 0,0 0.082,-0.026 0.233,-0.075 0.076,-0.024 0.17,-0.052 0.279,-0.083 0.11,-0.03 0.237,-0.058 0.377,-0.084 0.141,-0.026 0.297,-0.032 0.467,-0.022 0.169,0.01 0.352,0.037 0.547,0.078 0.195,0.041 0.403,0.084 0.621,0.13 5.02,1.055 15.776,3.313 15.776,3.313 0,0 0.091,0.019 0.228,0.047 0.137,0.02 0.322,0.015 0.508,-0.025 C -0.53,2.889 -0.342,2.771 -0.2,2.641 -0.058,2.478 0.037,2.354 0.037,2.354 0.037,2.354 0.036,2.287 0.035,2.18 0.033,2.072 0.03,1.932 0.026,1.775 0.024,1.698 0.021,1.617 0.019,1.534 0.016,1.45 0.013,1.361 0.011,1.268 0.008,1.174 0.007,1.074 0.005,0.973 0.004,0.871 0.003,0.767 0.002,0.663 0.002,0.458 0.001,0.287 0.001,0.176 0,0.063 0,0 0,0"/>
		</g>
		<g transform="translate(8.9175,9.2372)">
			<path style="fill:#231f20;fill-opacity:1;fill-rule:nonzero;stroke:none" d="m 0,0 0.014,-0.006 c 0.094,-0.031 0.247,-0.08 0.444,-0.138 0.089,-0.02 0.192,-0.038 0.293,-0.048 0.112,-0.013 0.226,-0.02 0.347,-0.017 0.134,0.026 0.278,0.055 0.429,0.086 l 16.794,3.526 c 0.157,0.029 0.295,0.052 0.42,0.067 l 0.028,0.004 0.028,-0.004 c 0.184,-0.023 0.352,-0.067 0.494,-0.129 l 0.001,0.247 c 0,0.105 0,0.21 0.002,0.313 0.002,0.103 0.003,0.203 0.006,0.297 l 0.015,0.509 c 0.004,0.154 0.007,0.294 0.009,0.4 L 19.325,5.2 C 19.285,5.25 19.223,5.325 19.146,5.413 19.047,5.503 18.893,5.6 18.737,5.662 18.595,5.69 18.444,5.698 18.328,5.682 L 18.115,5.637 1.719,2.193 C 1.502,2.147 1.312,2.121 1.136,2.111 0.942,2.099 0.771,2.107 0.614,2.137 0.472,2.162 0.339,2.192 0.219,2.225 0.137,2.247 0.064,2.269 0,2.288 Z m 1.069,-0.675 c -0.127,0 -0.251,0.007 -0.369,0.021 -0.118,0.012 -0.24,0.033 -0.36,0.061 -0.216,0.062 -0.376,0.114 -0.484,0.151 l -0.321,0.126 V 2.923 L 0.072,2.753 C 0.145,2.729 0.235,2.702 0.341,2.674 0.445,2.646 0.565,2.618 0.698,2.594 0.816,2.572 0.954,2.565 1.109,2.575 1.262,2.584 1.43,2.607 1.624,2.648 L 18.249,6.14 c 0.187,0.026 0.402,0.016 0.603,-0.027 l 0.036,-0.01 C 19.102,6.02 19.317,5.886 19.479,5.736 19.645,5.549 19.743,5.421 19.743,5.421 L 19.792,5.357 19.789,5.102 C 19.787,4.993 19.784,4.851 19.78,4.694 L 19.765,4.187 C 19.762,4.094 19.761,3.995 19.759,3.895 19.758,3.793 19.757,3.689 19.756,3.587 L 19.75,2.442 19.376,2.744 C 19.371,2.748 19.311,2.795 19.202,2.864 19.14,2.903 19.005,2.972 18.768,3.005 18.658,2.991 18.539,2.97 18.409,2.947 L 1.622,-0.578 C 1.46,-0.611 1.309,-0.642 1.167,-0.67 L 1.125,-0.674 C 1.106,-0.675 1.087,-0.675 1.069,-0.675"/>
		</g>
		<g transform="translate(28.4351,9.3739)">
			<path style="fill:#0071bb;fill-opacity:1;fill-rule:nonzero;stroke:none" d="M 0,0 C 0,0 -0.067,0.055 -0.194,0.145 -0.322,0.223 -0.509,0.3 -0.749,0.336 -0.87,0.329 -1.003,0.313 -1.149,0.287 c -0.146,-0.03 -0.304,-0.064 -0.473,-0.1 -3.626,-0.761 -12.347,-2.592 -16.22,-3.406 -0.168,-0.035 -0.327,-0.068 -0.477,-0.093 -0.149,-0.023 -0.288,-0.027 -0.417,-0.022 -0.128,0.013 -0.245,0.03 -0.352,0.049 -0.212,0.047 -0.378,0.099 -0.49,0.141 -0.113,0.046 -0.172,0.073 -0.172,0.073 v 0.228 0.528 0.631 0.332 0.332 0.529 0.195 c 0,0 0.056,-0.022 0.162,-0.063 0.107,-0.036 0.263,-0.086 0.464,-0.144 0.1,-0.023 0.211,-0.044 0.333,-0.058 0.122,-0.013 0.253,-0.02 0.395,-0.017 0.142,0.027 0.293,0.057 0.453,0.091 3.996,0.839 13.491,2.833 16.794,3.526 0.146,0.026 0.279,0.048 0.4,0.064 0.241,-0.031 0.43,-0.097 0.558,-0.169 0.128,-0.091 0.195,-0.146 0.195,-0.146 0,0 -0.002,-0.236 -0.003,-0.572 C 0,2.132 0,2.032 -0.001,1.923 c 0,-0.111 -0.001,-0.236 -0.001,-0.367 0,-0.132 0,-0.266 -0.001,-0.396 0,-0.132 0,-0.258 0.001,-0.371 0,-0.239 0,-0.438 0.001,-0.572 C 0,0.078 0,0 0,0"/>
		</g>
		<g transform="translate(8.9175,6.4569)">
			<path style="fill:#231f20;fill-opacity:1;fill-rule:nonzero;stroke:none" d="m 0,0 c 0.009,-0.004 0.019,-0.008 0.028,-0.012 0.084,-0.031 0.238,-0.082 0.452,-0.129 0.092,-0.016 0.203,-0.032 0.325,-0.045 0.119,-0.004 0.24,0.003 0.358,0.021 0.145,0.023 0.3,0.056 0.465,0.091 3.872,0.813 12.595,2.644 16.22,3.405 0.169,0.036 0.327,0.07 0.473,0.101 0.153,0.027 0.297,0.045 0.433,0.053 l 0.025,0.001 0.024,-0.003 c 0.198,-0.03 0.358,-0.084 0.48,-0.138 0,0.104 -0.001,0.226 -0.001,0.361 v 0.371 l 0.007,1.514 C 19.262,5.61 19.23,5.634 19.192,5.66 19.144,5.687 19,5.753 18.768,5.785 18.659,5.771 18.539,5.75 18.409,5.728 L 1.622,2.202 C 1.46,2.169 1.309,2.138 1.166,2.11 L 1.125,2.106 C 0.977,2.104 0.835,2.11 0.701,2.125 0.578,2.139 0.457,2.16 0.34,2.188 0.206,2.227 0.092,2.261 0,2.29 Z m 0.877,-0.651 c -0.034,0 -0.069,0.001 -0.104,0.002 -0.148,0.014 -0.273,0.033 -0.384,0.052 -0.25,0.055 -0.426,0.113 -0.531,0.153 -0.124,0.05 -0.185,0.077 -0.185,0.077 l -0.138,0.061 v 3.27 L 0.014,2.774 C 0.108,2.743 0.261,2.694 0.458,2.637 0.546,2.617 0.649,2.599 0.753,2.587 0.861,2.575 0.977,2.567 1.098,2.571 1.233,2.597 1.376,2.626 1.527,2.657 l 16.794,3.527 c 0.157,0.028 0.294,0.05 0.419,0.066 L 18.768,6.254 18.797,6.25 C 19.108,6.212 19.319,6.121 19.44,6.053 19.596,5.944 19.667,5.887 19.667,5.887 L 19.754,5.816 19.747,4.075 19.748,3.707 c 0,-0.239 0,-0.437 10e-4,-0.572 L 19.75,2.427 19.371,2.736 C 19.367,2.739 19.304,2.79 19.189,2.871 19.131,2.906 18.983,2.982 18.758,3.02 18.646,3.012 18.529,2.997 18.41,2.975 18.27,2.946 18.113,2.912 17.944,2.877 14.318,2.115 5.596,0.284 1.724,-0.529 1.551,-0.565 1.388,-0.6 1.235,-0.624 1.119,-0.643 1.001,-0.651 0.877,-0.651"/>
		</g>
		<g transform="translate(28.4297,6.3319)">
			<path style="fill:#ec1c24;fill-opacity:1;fill-rule:nonzero;stroke:none" d="m 0,0 c 0,0 -0.057,0.277 -0.185,0.375 -0.128,0.088 -0.318,0.182 -0.559,0.237 -0.121,0.002 -0.254,-0.01 -0.4,-0.034 -0.146,-0.031 -0.304,-0.064 -0.472,-0.1 -3.626,-0.761 -12.348,-2.592 -16.22,-3.406 -0.169,-0.035 -0.328,-0.069 -0.477,-0.096 -0.149,-0.019 -0.289,-0.027 -0.417,-0.027 -0.128,0.008 -0.246,0.023 -0.353,0.043 -0.211,0.058 -0.377,0.114 -0.49,0.167 -0.113,0.05 -0.172,0.081 -0.172,0.081 v 0.202 0.528 0.343 0.35 0.324 0.289 0.478 0.216 c 0,0 0.06,-0.027 0.173,-0.073 0.112,-0.041 0.278,-0.093 0.489,-0.14 0.107,-0.02 0.225,-0.037 0.353,-0.05 0.128,-0.005 0.268,-0.001 0.417,0.022 0.149,0.025 0.308,0.058 0.477,0.093 3.872,0.814 12.594,2.646 16.22,3.407 0.168,0.036 0.326,0.069 0.472,0.099 0.146,0.027 0.279,0.043 0.4,0.049 0.24,-0.035 0.427,-0.112 0.555,-0.188 0.127,-0.092 0.194,-0.147 0.194,-0.147 0,0 0.001,-0.075 0.002,-0.203 C 0.008,2.71 0.009,2.53 0.01,2.31 0.011,2.203 0.011,2.086 0.011,1.966 0.012,1.847 0.012,1.723 0.012,1.604 c 0,-0.12 0,-0.234 0,-0.342 V 0.934 0.425 C 0.012,0.298 0,0 0,0"/>
		</g>
		<g transform="translate(8.9175,3.7186)">
			<path style="fill:#231f20;fill-opacity:1;fill-rule:nonzero;stroke:none" d="m 0,0 c 0.011,-0.005 0.022,-0.011 0.035,-0.016 0.076,-0.035 0.214,-0.089 0.455,-0.154 0.084,-0.016 0.192,-0.028 0.305,-0.035 0.112,0.001 0.243,0.009 0.376,0.024 0.103,0.02 0.227,0.045 0.357,0.073 l 0.1,0.02 C 5.5,0.727 14.223,2.558 17.848,3.318 l 0.472,0.101 c 0.175,0.028 0.319,0.04 0.451,0.039 l 0.05,-0.006 c 0.194,-0.045 0.351,-0.109 0.471,-0.173 l -0.006,2.262 c -0.027,0.021 -0.06,0.045 -0.1,0.074 -0.07,0.04 -0.218,0.109 -0.429,0.142 C 18.649,5.75 18.532,5.735 18.41,5.713 L 1.724,2.208 C 1.551,2.172 1.388,2.138 1.235,2.113 1.086,2.09 0.935,2.082 0.772,2.089 0.625,2.103 0.5,2.12 0.387,2.142 0.229,2.177 0.1,2.213 0,2.244 Z m 0.782,-0.67 c -0.147,0.009 -0.276,0.024 -0.397,0.048 -0.231,0.061 -0.413,0.123 -0.543,0.183 -0.118,0.053 -0.181,0.086 -0.181,0.086 L -0.464,-0.288 -0.465,2.938 -0.14,2.796 C -0.138,2.795 -0.08,2.771 0.027,2.727 0.113,2.695 0.267,2.645 0.48,2.597 0.572,2.58 0.683,2.563 0.804,2.553 0.923,2.548 1.044,2.554 1.162,2.572 1.308,2.596 1.463,2.629 1.628,2.663 l 16.693,3.506 c 0.156,0.029 0.3,0.047 0.435,0.054 l 0.023,0.001 0.023,-0.003 c 0.297,-0.043 0.511,-0.143 0.639,-0.218 0.153,-0.11 0.224,-0.168 0.224,-0.168 l 0.084,-0.068 0.008,-2.729 c 0,-0.129 -0.012,-0.434 -0.012,-0.434 L 19.285,2.566 C 19.265,2.66 19.216,2.777 19.187,2.803 19.123,2.846 18.97,2.936 18.74,2.993 18.642,2.992 18.53,2.982 18.406,2.962 L 17.944,2.863 C 14.318,2.103 5.596,0.271 1.724,-0.542 L 1.623,-0.563 C 1.489,-0.592 1.362,-0.618 1.241,-0.641 1.075,-0.66 0.925,-0.67 0.782,-0.67"/>
		</g>
		<g transform="translate(28.439,12.162)">
			<path style="fill:#ffffff;fill-opacity:1;fill-rule:nonzero;stroke:none" d="M 0,0 C 0,0 -0.067,0.055 -0.196,0.136 -0.323,0.218 -0.512,0.284 -0.753,0.314 -0.874,0.3 -1.007,0.277 -1.153,0.251 c -3.303,-0.693 -12.798,-2.688 -16.794,-3.526 -0.16,-0.034 -0.311,-0.064 -0.453,-0.091 -0.142,-0.003 -0.273,0.004 -0.394,0.018 -0.123,0.013 -0.234,0.034 -0.334,0.057 -0.201,0.058 -0.357,0.108 -0.464,0.144 -0.106,0.041 -0.162,0.063 -0.162,0.063 v 0.632 0.614 0.357 0.366 0.583 0.214 c 0,0 0.082,-0.026 0.233,-0.075 0.076,-0.024 0.17,-0.052 0.279,-0.083 0.11,-0.03 0.237,-0.058 0.377,-0.084 0.141,-0.026 0.297,-0.032 0.467,-0.022 0.169,0.01 0.352,0.037 0.547,0.078 0.195,0.041 0.403,0.084 0.621,0.13 5.02,1.055 15.776,3.313 15.776,3.313 0,0 0.091,0.019 0.228,0.047 0.137,0.02 0.322,0.015 0.508,-0.025 C -0.53,2.889 -0.342,2.771 -0.2,2.641 -0.058,2.478 0.037,2.354 0.037,2.354 0.037,2.354 0.036,2.287 0.035,2.18 0.033,2.072 0.03,1.932 0.026,1.775 0.024,1.698 0.021,1.617 0.019,1.534 0.016,1.45 0.013,1.361 0.011,1.268 0.008,1.174 0.007,1.074 0.005,0.973 0.004,0.871 0.003,0.767 0.002,0.663 0.002,0.458 0.001,0.287 0.001,0.176 0,0.063 0,0 0,0"/>
		</g>
		<g transform="translate(28.4351,9.3739)">
			<path style="fill:#0071bb;fill-opacity:1;fill-rule:nonzero;stroke:none" d="M 0,0 C 0,0 -0.067,0.055 -0.194,0.145 -0.322,0.223 -0.509,0.3 -0.749,0.336 -0.87,0.329 -1.003,0.313 -1.149,0.287 c -0.146,-0.03 -0.304,-0.064 -0.473,-0.1 -3.626,-0.761 -12.347,-2.592 -16.22,-3.406 -0.168,-0.035 -0.327,-0.068 -0.477,-0.093 -0.149,-0.023 -0.288,-0.027 -0.417,-0.022 -0.128,0.013 -0.245,0.03 -0.352,0.049 -0.212,0.047 -0.378,0.099 -0.49,0.141 -0.113,0.046 -0.172,0.073 -0.172,0.073 v 0.228 0.528 0.631 0.332 0.332 0.529 0.195 c 0,0 0.056,-0.022 0.162,-0.063 0.107,-0.036 0.263,-0.086 0.464,-0.144 0.1,-0.023 0.211,-0.044 0.333,-0.058 0.122,-0.013 0.253,-0.02 0.395,-0.017 0.142,0.027 0.293,0.057 0.453,0.091 3.996,0.839 13.491,2.833 16.794,3.526 0.146,0.026 0.279,0.048 0.4,0.064 0.241,-0.031 0.43,-0.097 0.558,-0.169 0.128,-0.091 0.195,-0.146 0.195,-0.146 0,0 -0.002,-0.236 -0.003,-0.572 C 0,2.132 0,2.032 -0.001,1.923 c 0,-0.111 -0.001,-0.236 -0.001,-0.367 0,-0.132 0,-0.266 -0.001,-0.396 0,-0.132 0,-0.258 0.001,-0.371 0,-0.239 0,-0.438 0.001,-0.572 C 0,0.078 0,0 0,0"/>
		</g>
		<g transform="translate(28.4419,6.5526)">
			<path style="fill:#ec1c24;fill-opacity:1;fill-rule:nonzero;stroke:none" d="M 0,0 C 0,0 -0.069,0.057 -0.197,0.154 -0.325,0.242 -0.515,0.336 -0.756,0.392 -0.877,0.394 -1.01,0.381 -1.156,0.357 -1.302,0.326 -1.46,0.293 -1.628,0.257 c -3.626,-0.761 -12.348,-2.592 -16.221,-3.405 -0.168,-0.036 -0.327,-0.07 -0.477,-0.097 -0.149,-0.019 -0.288,-0.026 -0.417,-0.026 -0.128,0.007 -0.245,0.022 -0.352,0.042 -0.212,0.058 -0.378,0.115 -0.49,0.167 -0.113,0.05 -0.172,0.082 -0.172,0.082 v 0.202 0.527 0.344 0.349 0.325 0.289 0.477 0.216 c 0,0 0.06,-0.026 0.173,-0.072 0.111,-0.041 0.277,-0.094 0.489,-0.141 0.107,-0.019 0.224,-0.037 0.352,-0.05 0.129,-0.005 0.268,-0.001 0.417,0.023 0.15,0.024 0.309,0.057 0.477,0.093 3.873,0.813 12.595,2.645 16.221,3.406 0.168,0.036 0.326,0.069 0.472,0.099 0.146,0.028 0.279,0.043 0.4,0.049 0.24,-0.035 0.427,-0.112 0.555,-0.187 0.127,-0.093 0.194,-0.148 0.194,-0.148 0,0 0.001,-0.075 0.002,-0.203 C -0.004,2.489 -0.003,2.31 -0.002,2.089 -0.001,1.982 -0.001,1.865 -0.001,1.745 0,1.626 0,1.502 0,1.384 0,1.264 0,1.149 0,1.041 V 0.713 0.204 Z"/>
		</g>
		<g transform="translate(19.9258,8.1522)">
			<path style="fill:#ec1c24;fill-opacity:1;fill-rule:nonzero;stroke:none" d="m 0,0 v -0.252 h -0.013 v 0.239 C -0.007,-0.007 -0.005,-0.006 0,0"/>
		</g>
		<g transform="translate(19.9258,7.6503)">
			<path style="fill:#ec1c24;fill-opacity:1;fill-rule:nonzero;stroke:none" d="m 0,0 v -0.322 c -0.004,0.001 -0.008,0.004 -0.013,0.004 v 0.315 C -0.008,-0.002 -0.004,-0.001 0,0"/>
		</g>
		<g transform="translate(26.3105,6.5692)">
			<path style="fill:#231f20;fill-opacity:1;fill-rule:nonzero;stroke:none" d="M 0,0 1.362,0.296 2.36,-0.181 2.345,-0.598 c 0,-0.001 0.022,-0.333 -0.708,-0.756 -0.421,-0.245 -2.099,-1.082 -2.35,-1.363 -0.251,-0.282 -0.355,-0.839 -0.355,-0.839 l 0.052,1.427 -0.119,1.88 z"/>
		</g>
		<g transform="translate(26.6587,17.7338)">
			<path style="fill:#ec1c24;fill-opacity:1;fill-rule:nonzero;stroke:none" d="m 0,0 v -0.105 h -0.005 v 0.1 C -0.003,-0.003 -0.002,-0.002 0,0"/>
		</g>
		<g transform="translate(26.6587,17.5243)">
			<path style="fill:#ec1c24;fill-opacity:1;fill-rule:nonzero;stroke:none" d="m 0,0 v -0.133 c -0.002,0 -0.004,0.001 -0.005,0.001 v 0.131 C -0.004,0 -0.002,0 0,0"/>
		</g>
	</g>
</svg>