<svg width="131" height="72" viewBox="0 0 131 72" fill="none" xmlns="http://www.w3.org/2000/svg">
<path d="M1.44705 66.7645C1.70716 66.613 2.00409 66.5372 2.33799 66.5372C2.48317 66.5372 2.63227 66.5512 2.78508 66.5794C2.93789 66.6075 3.09396 66.6525 3.25334 66.7141C3.41266 66.7759 3.57688 66.8566 3.74595 66.9561L3.79798 66.391C3.71775 66.3455 3.6224 66.3012 3.51179 66.2579C3.40124 66.2145 3.28095 66.1745 3.15089 66.1377C3.02084 66.101 2.88315 66.0717 2.7379 66.0501C2.59265 66.0284 2.44309 66.0176 2.28922 66.0176C1.83396 66.0176 1.43511 66.1194 1.09259 66.3228C0.750068 66.5263 0.482329 66.8084 0.289437 67.1689C0.0964791 67.5293 0 67.9435 0 68.4111C0 68.7554 0.0547413 69.0731 0.164226 69.3643C0.273712 69.6555 0.431369 69.9089 0.637333 70.1243C0.843297 70.3397 1.09312 70.507 1.38687 70.626C1.68055 70.7452 2.0106 70.8047 2.377 70.8047C2.50268 70.8047 2.62842 70.7982 2.75416 70.7852C2.8799 70.7722 3.00292 70.7522 3.12322 70.7251C3.24359 70.6981 3.35845 70.6629 3.46793 70.6195C3.57735 70.5763 3.67768 70.5254 3.76871 70.4669L3.7232 69.9083C3.62128 69.9776 3.51776 70.0378 3.41266 70.0885C3.30749 70.1394 3.20072 70.1801 3.09237 70.2103C2.98394 70.2407 2.87453 70.2628 2.76391 70.2769C2.65337 70.2911 2.54282 70.2981 2.43228 70.2981C2.13096 70.2981 1.86701 70.2488 1.64047 70.1503C1.41394 70.0518 1.2243 69.9159 1.07142 69.7427C0.918606 69.5695 0.803681 69.3692 0.726777 69.1419C0.649805 68.9145 0.61132 68.672 0.61132 68.4143C0.61132 68.0269 0.685571 67.6929 0.834071 67.4124C0.982571 67.132 1.18688 66.9161 1.44705 66.7645Z" fill="#616B7F"/>
<path d="M6.51702 67.5512C6.34251 67.4754 6.13496 67.4375 5.89435 67.4375C5.77505 67.4375 5.65694 67.444 5.53989 67.457C5.42284 67.47 5.30845 67.4889 5.19684 67.5138C5.08517 67.5388 4.98006 67.5663 4.88146 67.5967C4.78279 67.627 4.69447 67.6583 4.61644 67.6908L4.6457 68.1812C4.76056 68.1315 4.87005 68.0892 4.97409 68.0546C5.07813 68.0199 5.17733 67.9913 5.27162 67.9685C5.36591 67.9458 5.45535 67.929 5.53989 67.9181C5.62442 67.9074 5.70352 67.9019 5.77724 67.9019C5.92249 67.9019 6.05473 67.9214 6.17397 67.9604C6.29314 67.9994 6.38584 68.0747 6.45199 68.1861C6.51808 68.2976 6.54681 68.4628 6.53812 68.6815L5.52688 68.8568C5.40333 68.8784 5.27978 68.9104 5.15616 68.9525C5.03261 68.9948 4.91988 69.0538 4.81802 69.1296C4.7161 69.2054 4.63376 69.3034 4.57092 69.4235C4.50802 69.5437 4.47656 69.6915 4.47656 69.8668C4.47656 70.0617 4.51724 70.2284 4.59852 70.3669C4.6798 70.5056 4.79307 70.6122 4.93832 70.6869C5.08357 70.7615 5.25264 70.7989 5.4456 70.7989C5.60379 70.7989 5.74963 70.7735 5.88294 70.7226C6.01624 70.6718 6.13382 70.6062 6.23574 70.5261C6.3376 70.4461 6.42213 70.3627 6.48935 70.276H6.54137L6.57063 70.734H7.0584V68.5449C7.0584 68.283 7.01175 68.0708 6.91859 67.9084C6.82536 67.7461 6.69146 67.627 6.51702 67.5512H6.51702ZM6.52512 69.7141C6.45571 69.857 6.37071 69.9757 6.26992 70.0698C6.16906 70.164 6.06124 70.2349 5.94638 70.2825C5.83145 70.3302 5.71653 70.354 5.60167 70.354C5.4391 70.354 5.30195 70.3155 5.19034 70.2386C5.07866 70.1619 5.02286 70.0303 5.02286 69.844C5.02286 69.725 5.05053 69.6237 5.1058 69.5404C5.16108 69.4571 5.23639 69.391 5.3318 69.3423C5.42716 69.2936 5.53664 69.2584 5.66019 69.2367C5.86178 69.2 6.0195 69.1691 6.1333 69.1442C6.24716 69.1194 6.33276 69.0971 6.39022 69.0776C6.44761 69.0582 6.49367 69.0387 6.52837 69.0192L6.52512 69.7141H6.52512Z" fill="#616B7F"/>
<path d="M10.165 67.9771V68.8881H8.54885V67.4883L8.01562 67.5111V70.7328H8.54885V69.3233H10.165V70.7328H10.6983V67.5111H10.165V67.9771Z" fill="#616B7F"/>
<path d="M13.4096 69.5961L12.9089 69.0808L13.3413 68.6413C13.5234 68.4528 13.7066 68.2645 13.8908 68.0761C14.075 67.8878 14.2604 67.6994 14.4469 67.5111H13.7836C13.6426 67.6605 13.4995 67.8114 13.3543 67.9641C13.2091 68.1167 13.0649 68.2678 12.9218 68.4172L12.4536 68.9141H12.2552V67.4883L11.7188 67.5111V70.7328H12.2552V69.2973H12.4211L12.9772 69.8527C13.1223 69.9977 13.2692 70.1439 13.4177 70.2911C13.5662 70.4384 13.7131 70.5855 13.8583 70.7328H14.5574C14.3688 70.5444 14.1786 70.3556 13.9867 70.166C13.7949 69.9766 13.6025 69.7867 13.4096 69.5961Z" fill="#616B7F"/>
<path d="M14.8281 67.9502H15.9435V70.7334H16.48V67.9502H17.5953V67.5117H14.8281V67.9502Z" fill="#616B7F"/>
<path d="M19.1207 68.5605H18.1484V69.0412H20.0929V68.5605H19.1207Z" fill="#616B7F"/>
<path d="M21.0938 66.8501V70.7328H21.6823V66.6082H24.1568V70.7328H24.7453V66.1016H21.0938V66.8501Z" fill="#616B7F"/>
<path d="M27.8684 67.5967C27.6722 67.4907 27.4376 67.4375 27.1644 67.4375C26.8544 67.4375 26.5878 67.5084 26.3645 67.6502C26.1412 67.7921 25.9699 67.9886 25.8508 68.2397C25.7315 68.4909 25.6719 68.7789 25.6719 69.1036C25.6719 69.4327 25.7326 69.725 25.854 69.9804C25.9754 70.236 26.1607 70.4373 26.4101 70.5846C26.6593 70.7318 26.9769 70.8054 27.3628 70.8054C27.508 70.8054 27.6456 70.7961 27.7757 70.7778C27.9058 70.7594 28.025 70.7334 28.1334 70.6999C28.2418 70.6664 28.3371 70.6267 28.4195 70.5813L28.3968 70.0975C28.2949 70.1538 28.1882 70.1993 28.0765 70.2339C27.9648 70.2685 27.8521 70.2939 27.7383 70.3101C27.6245 70.3264 27.5167 70.3345 27.4148 70.3345C27.1417 70.3345 26.9167 70.2853 26.74 70.1867C26.5633 70.0882 26.4317 69.948 26.345 69.7661C26.2718 69.6126 26.2314 69.433 26.22 69.2302H28.4553C28.4662 69.1653 28.4732 69.101 28.4765 69.0371C28.4797 68.9732 28.4813 68.9012 28.4813 68.821C28.4813 68.5202 28.4282 68.2672 28.322 68.0627C28.2158 67.8581 28.0645 67.7027 27.8684 67.5967H27.8684ZM26.662 68.0173C26.804 67.9165 26.9736 67.8662 27.1709 67.8662C27.4159 67.8662 27.6142 67.9458 27.7659 68.1049C27.9177 68.2641 27.9936 68.4963 27.9936 68.8016C27.9936 68.8105 27.9932 68.8197 27.9931 68.8287L26.2267 68.8441C26.2431 68.6957 26.2774 68.5587 26.332 68.4345C26.4101 68.257 26.52 68.1179 26.662 68.0173Z" fill="#616B7F"/>
<path d="M28.9219 67.9502H30.0372V70.7334H30.5738V67.9502H31.689V67.5117H28.9219V67.9502Z" fill="#616B7F"/>
<path d="M34.3059 67.5967C34.1097 67.4907 33.8751 67.4375 33.6019 67.4375C33.2919 67.4375 33.0253 67.5084 32.802 67.6502C32.5787 67.7921 32.4074 67.9886 32.2883 68.2397C32.169 68.4909 32.1094 68.7789 32.1094 69.1036C32.1094 69.4327 32.1701 69.725 32.2915 69.9804C32.4129 70.236 32.5982 70.4373 32.8476 70.5846C33.0968 70.7318 33.4144 70.8054 33.8003 70.8054C33.9455 70.8054 34.0831 70.7961 34.2132 70.7778C34.3433 70.7594 34.4625 70.7334 34.5709 70.6999C34.6793 70.6664 34.7746 70.6267 34.857 70.5813L34.8343 70.0975C34.7323 70.1538 34.6257 70.1993 34.514 70.2339C34.4023 70.2685 34.2896 70.2939 34.1758 70.3101C34.062 70.3264 33.9542 70.3345 33.8523 70.3345C33.5792 70.3345 33.3542 70.2853 33.1775 70.1867C33.0008 70.0882 32.8692 69.948 32.7825 69.7661C32.7093 69.6126 32.6689 69.433 32.6575 69.2302H34.8928C34.9037 69.1653 34.9107 69.101 34.914 69.0371C34.9172 68.9732 34.9188 68.9012 34.9188 68.821C34.9188 68.5202 34.8657 68.2672 34.7595 68.0627C34.6533 67.8581 34.502 67.7027 34.3059 67.5967H34.3059ZM33.0995 68.0173C33.2415 67.9165 33.4111 67.8662 33.6084 67.8662C33.8534 67.8662 34.0517 67.9458 34.2034 68.1049C34.3552 68.2641 34.4311 68.4963 34.4311 68.8016C34.4311 68.8105 34.4307 68.8197 34.4306 68.8287L32.6642 68.8441C32.6806 68.6957 32.7149 68.5587 32.7695 68.4345C32.8476 68.257 32.9575 68.1179 33.0995 68.0173Z" fill="#616B7F"/>
<path d="M38.0499 67.6528C37.8428 67.5066 37.5919 67.4336 37.2971 67.4336C37.1432 67.4336 37.0017 67.4547 36.8728 67.4968C36.7438 67.5391 36.6294 67.5954 36.5297 67.6658C36.43 67.7362 36.3476 67.8135 36.2826 67.8979H36.2273L36.2143 67.4791L35.7266 67.5115V71.9999L36.263 71.9804V70.3272H36.3119C36.392 70.429 36.4814 70.5152 36.5801 70.5854C36.6787 70.6558 36.7887 70.71 36.9101 70.7478C37.0315 70.7857 37.1638 70.8047 37.3069 70.8047C37.6147 70.8047 37.871 70.7262 38.0759 70.5693C38.2807 70.4122 38.4335 70.2054 38.5343 69.949C38.6351 69.6923 38.6856 69.4136 38.6856 69.1126C38.6856 68.7922 38.6313 68.5052 38.523 68.2519C38.4146 67.9986 38.2568 67.7989 38.0499 67.6528ZM38.0336 69.7053C37.9653 69.8884 37.858 70.0371 37.7117 70.1519C37.5654 70.2667 37.3762 70.3241 37.1443 70.3241C37.0099 70.3241 36.8884 70.3029 36.7801 70.2607C36.6716 70.2184 36.5747 70.1584 36.489 70.0804C36.4034 70.0025 36.3281 69.9083 36.263 69.7979V68.3657C36.3303 68.2682 36.4099 68.1865 36.502 68.1205C36.5942 68.0544 36.6944 68.0046 36.8028 67.9711C36.9112 67.9375 37.0218 67.9207 37.1345 67.9207C37.3621 67.9207 37.5496 67.9748 37.6971 68.0831C37.8445 68.1914 37.9545 68.3358 38.0271 68.5166C38.0997 68.6974 38.136 68.8972 38.136 69.1159C38.136 69.3258 38.1019 69.5224 38.0336 69.7053Z" fill="#616B7F"/>
<path d="M42.0293 67.7263C41.8266 67.5899 41.5735 67.5216 41.27 67.5216C41.1226 67.5216 40.9693 67.5433 40.8099 67.5866C40.6506 67.6299 40.4967 67.6976 40.3482 67.7896C40.1997 67.8816 40.0637 68.0034 39.9401 68.1549H39.8931C39.9093 67.89 39.9428 67.6567 39.9954 67.4582C40.0691 67.1802 40.2013 66.9646 40.3921 66.8119C40.5828 66.6594 40.8517 66.5669 41.1985 66.5344C41.2397 66.53 41.3107 66.5235 41.4115 66.5148C41.5123 66.5062 41.6272 66.4965 41.7561 66.4856C41.8851 66.4747 42.0131 66.464 42.1399 66.4531C42.2667 66.4423 42.3767 66.4326 42.4699 66.4238L42.4244 65.9141C42.3334 65.9227 42.2261 65.933 42.1025 65.9448C41.9789 65.9567 41.8538 65.9687 41.7269 65.9806C41.6001 65.9925 41.4847 66.0033 41.3806 66.0131C41.2765 66.0228 41.1996 66.0299 41.1497 66.0342C40.6988 66.0796 40.3455 66.2058 40.0897 66.4126C39.8339 66.6194 39.6534 66.9025 39.5483 67.2618C39.4431 67.6213 39.3906 68.0499 39.3906 68.5479C39.3906 69.0698 39.461 69.4968 39.602 69.8291C39.7428 70.1616 39.9385 70.4073 40.1889 70.5664C40.4393 70.7255 40.7292 70.8051 41.0587 70.8051C41.3947 70.8051 41.6798 70.7293 41.9139 70.5778C42.148 70.4263 42.3269 70.2216 42.4504 69.9639C42.574 69.7063 42.6357 69.4194 42.6357 69.1033C42.6357 68.798 42.5854 68.5263 42.4845 68.2881C42.3837 68.0499 42.232 67.8626 42.0293 67.7263ZM41.9741 69.7171C41.9014 69.9034 41.7892 70.0538 41.6375 70.1686C41.4858 70.2834 41.2917 70.3406 41.0555 70.3406C40.8885 70.3406 40.7373 70.3039 40.6019 70.2302C40.4664 70.1567 40.3504 70.0452 40.2539 69.8957C40.1574 69.7463 40.0837 69.5585 40.0328 69.3322C39.9876 69.1318 39.9637 68.8993 39.9585 68.6383C40.0695 68.4821 40.1871 68.3544 40.3124 68.2588C40.4544 68.1507 40.5948 68.0738 40.7335 68.0283C40.8722 67.9829 40.998 67.9601 41.1107 67.9601C41.3469 67.9601 41.5361 68.0126 41.6781 68.1175C41.8201 68.2226 41.9231 68.3622 41.9871 68.5365C42.051 68.7108 42.0829 68.9041 42.0829 69.1163C42.0829 69.3306 42.0467 69.5309 41.9741 69.7171Z" fill="#616B7F"/>
<path d="M45.2007 68.3133C45.1053 68.5795 45.0089 68.8481 44.9114 69.1186L44.5374 70.1579H44.4789L44.1375 69.1219C44.0442 68.8448 43.9532 68.5731 43.8643 68.3068C43.7754 68.0405 43.6843 67.7676 43.5912 67.4883L43.0156 67.5111C43.1002 67.7405 43.1874 67.9766 43.2774 68.219C43.3673 68.4616 43.4546 68.6987 43.5392 68.9303L43.7537 69.5149C43.834 69.7293 43.9153 69.9501 43.9977 70.1774C44.0713 70.3806 44.1449 70.5803 44.2185 70.7782C44.1405 70.9694 44.0626 71.1617 43.9847 71.3563C43.8979 71.5729 43.8112 71.7872 43.7245 71.9994L44.2903 71.9799C44.3834 71.7461 44.487 71.4851 44.6008 71.1972C44.7146 70.9092 44.8528 70.5595 45.0154 70.1483L45.3731 69.242C45.4793 68.9736 45.5709 68.7419 45.6478 68.5471C45.7248 68.3522 45.7953 68.1741 45.8592 68.0128C45.9231 67.8516 45.9898 67.6843 46.0592 67.5111H45.4902C45.3926 67.7795 45.2961 68.047 45.2007 68.3133Z" fill="#616B7F"/>
<path d="M49.0499 67.6528C48.8428 67.5066 48.5919 67.4336 48.2971 67.4336C48.1432 67.4336 48.0017 67.4547 47.8728 67.4968C47.7438 67.5391 47.6294 67.5954 47.5297 67.6658C47.43 67.7362 47.3476 67.8135 47.2826 67.8979H47.2273L47.2143 67.4791L46.7266 67.5115V71.9999L47.263 71.9804V70.3272H47.3119C47.392 70.429 47.4814 70.5152 47.5801 70.5854C47.6787 70.6558 47.7887 70.71 47.9101 70.7478C48.0315 70.7857 48.1638 70.8047 48.3069 70.8047C48.6147 70.8047 48.871 70.7262 49.0759 70.5693C49.2807 70.4122 49.4335 70.2054 49.5343 69.949C49.6351 69.6923 49.6856 69.4136 49.6856 69.1126C49.6856 68.7922 49.6313 68.5052 49.523 68.2519C49.4146 67.9986 49.2568 67.7989 49.0499 67.6528ZM49.0336 69.7053C48.9653 69.8884 48.858 70.0371 48.7117 70.1519C48.5654 70.2667 48.3762 70.3241 48.1443 70.3241C48.0099 70.3241 47.8884 70.3029 47.7801 70.2607C47.6716 70.2184 47.5747 70.1584 47.489 70.0804C47.4034 70.0025 47.3281 69.9083 47.263 69.7979V68.3657C47.3303 68.2682 47.4099 68.1865 47.502 68.1205C47.5942 68.0544 47.6944 68.0046 47.8028 67.9711C47.9112 67.9375 48.0218 67.9207 48.1345 67.9207C48.3621 67.9207 48.5496 67.9748 48.6971 68.0831C48.8445 68.1914 48.9545 68.3358 49.0271 68.5166C49.0997 68.6974 49.136 68.8972 49.136 69.1159C49.136 69.3258 49.1019 69.5224 49.0336 69.7053Z" fill="#616B7F"/>
<path d="M50.5234 67.9778V70.7334H51.0599V67.9502H52.6955V67.5117H50.5234V67.9778Z" fill="#616B7F"/>
<path d="M55.653 67.9084C55.5597 67.7461 55.4258 67.627 55.2514 67.5512C55.0769 67.4754 54.8693 67.4375 54.6287 67.4375C54.5094 67.4375 54.3913 67.444 54.2743 67.457C54.1572 67.47 54.0428 67.4889 53.9312 67.5138C53.8195 67.5388 53.7144 67.5663 53.6158 67.5967C53.5172 67.627 53.4288 67.6583 53.3508 67.6908L53.3801 68.1812C53.4949 68.1315 53.6044 68.0892 53.7085 68.0546C53.8125 68.0199 53.9117 67.9913 54.006 67.9685C54.1003 67.9458 54.1897 67.929 54.2743 67.9181C54.3588 67.9074 54.4379 67.9019 54.5116 67.9019C54.6569 67.9019 54.7891 67.9214 54.9083 67.9604C55.0275 67.9994 55.1202 68.0747 55.1864 68.1861C55.2525 68.2976 55.2812 68.4628 55.2725 68.6815L54.2613 68.8568C54.1377 68.8784 54.0142 68.9104 53.8905 68.9525C53.767 68.9948 53.6542 69.0538 53.5524 69.1296C53.4505 69.2054 53.3681 69.3034 53.3053 69.4235C53.2424 69.5437 53.2109 69.6915 53.2109 69.8668C53.2109 70.0617 53.2516 70.2284 53.3329 70.3669C53.4142 70.5056 53.5274 70.6122 53.6727 70.6869C53.8179 70.7615 53.987 70.7989 54.18 70.7989C54.3382 70.7989 54.484 70.7735 54.6173 70.7226C54.7506 70.6718 54.8682 70.6062 54.9701 70.5261C55.072 70.4461 55.1565 70.3627 55.2237 70.276H55.2757L55.305 70.734H55.7928V68.5449C55.7928 68.283 55.7461 68.0708 55.653 67.9084ZM55.2595 69.7141C55.1901 69.857 55.1051 69.9757 55.0043 70.0698C54.9034 70.164 54.7956 70.2349 54.6807 70.2825C54.5658 70.3302 54.4509 70.354 54.336 70.354C54.1735 70.354 54.0363 70.3155 53.9247 70.2386C53.813 70.1619 53.7572 70.0303 53.7572 69.844C53.7572 69.725 53.7849 69.6237 53.8402 69.5404C53.8954 69.4571 53.9708 69.391 54.0662 69.3423C54.1615 69.2936 54.271 69.2584 54.3946 69.2367C54.5961 69.2 54.7539 69.1691 54.8677 69.1442C54.9815 69.1194 55.0671 69.0971 55.1246 69.0776C55.182 69.0582 55.228 69.0387 55.2627 69.0192L55.2595 69.7141Z" fill="#616B7F"/>
<path d="M104.094 0.00976562H117.592C124.94 0.00976562 130.906 5.9681 130.906 13.3071V13.3071C130.906 20.6461 124.94 26.6044 117.592 26.6044H104.094V0.00976562Z" fill="#EF7100"/>
<path d="M100.586 26.604H109.441C116.792 26.604 122.752 20.6508 122.752 13.3089C122.752 9.63803 121.261 6.31166 118.852 3.90571C116.443 1.49959 113.116 0.0104941 109.441 0.0104941C107.849 0.0090852 106.258 0.00767797 104.667 0.0062691L100.6 0L100.586 26.604Z" fill="#1069F4"/>
<path d="M97.4393 33.8602C97.4393 34.3991 98.0947 34.6669 98.4785 34.2867C99.9449 32.8221 101.395 31.341 102.854 29.8699C104.87 27.8301 106.919 25.82 108.905 23.7503C112.473 20.0344 114.989 15.0026 113.513 9.7791C112.255 5.34242 108.674 1.69577 104.208 0.472631C103.083 0.165111 101.926 0.0101951 100.775 0.000347938L100.775 0C93.3008 0 87.2422 6.05131 87.2422 13.516C87.2422 19.8311 91.5784 25.122 97.4393 26.6057C97.4393 26.6057 97.4393 33.8514 97.4393 33.8602L97.4393 33.8602Z" fill="#0F4393"/>
<path d="M12.242 53.0518H5.35767V47.8406H14.9069V43.8037H5.35767V38.7699H15.4059V34.4434H0.15625V57.3785H15.5351V53.0518H12.242Z" fill="black"/>
<path d="M34.8398 34.4434C33.7875 36.0087 32.7812 37.4987 31.8202 38.9141C30.8593 40.3295 29.9066 41.7291 28.9623 43.112L25.2425 48.5969H24.872V34.4434H19.7031V57.3785H24.1315C25.0221 56.0701 25.9453 54.7166 26.9012 53.3172C27.8564 51.9177 28.9028 50.3817 30.0408 48.7092L33.7932 43.225H34.1632V57.3785H39.3327V34.4434H34.8398Z" fill="black"/>
<path d="M60.8469 37.4107C60.2136 36.3545 59.2744 35.5958 58.0292 35.135C56.7833 34.6738 55.2269 34.4434 53.3593 34.4434H44.1641V57.3785H49.3814V49.3365H53.6169C55.6026 49.3365 57.1916 49.0123 58.3831 48.3633C59.5748 47.7149 60.4418 46.817 60.9842 45.6696C61.5261 44.5223 61.797 43.1923 61.797 41.6805C61.797 39.8898 61.4806 38.4668 60.8469 37.4107ZM55.9917 43.8037C55.7073 44.3187 55.2698 44.6991 54.6794 44.946C54.089 45.1923 53.3268 45.3154 52.3932 45.3154H49.3814V38.5925H52.9887C53.4073 38.5925 53.8207 38.636 54.2288 38.7215C54.6365 38.8077 55.004 38.9652 55.3317 39.1956C55.6588 39.4267 55.9221 39.7508 56.1207 40.1688C56.3194 40.5874 56.4185 41.1234 56.4185 41.7775C56.4185 42.6136 56.276 43.2894 55.9917 43.8037H55.9917Z" fill="black"/>
<path d="M82.6964 60.686H87.221V52.9713H84.2743V34.4434H78.9604V52.9713H70.3293V34.4434H65.0312V57.3785H82.5283L82.6964 60.686Z" fill="black"/>
</svg>
