<svg xmlns="http://www.w3.org/2000/svg" viewBox="0 0 297.64 79.24"><defs><style>.cls-1{fill:#0066b3;}.cls-2{fill:#fff;}.cls-3{fill:#ed1c24;}.cls-4{fill:#be1e2d;}.cls-5{fill:#808d9c;}.cls-6{fill:none;stroke:#fff;stroke-miterlimit:10;stroke-width:0.03px;}.cls-7{fill:#fabc42;}.cls-8{fill:#3e4040;}</style></defs><title>FNS-LogoAsset 2</title><g id="Layer_2" data-name="Layer 2"><g id="Layer_1-2" data-name="Layer 1"><path class="cls-1" d="M38.85,66.33A28.31,28.31,0,1,1,66.33,37.22,28.3,28.3,0,0,1,38.85,66.33m37.2-29.39A38,38,0,1,0,39.12,76.05,38,38,0,0,0,76.05,36.94"/><path class="cls-2" d="M38,65.66a27.63,27.63,0,0,1-.78-55.24h.81a27.62,27.62,0,0,1,.78,55.23l-.81,0m0,.68h.83a28.31,28.31,0,0,0-.8-56.61h-.83A28.31,28.31,0,0,0,38,66.34"/><path class="cls-1" d="M38.05,11.1h-.79A26.94,26.94,0,0,0,38,65h.79a26.94,26.94,0,0,0-.76-53.86ZM38,67A29,29,0,0,1,17,18.13,28.77,28.77,0,0,1,37.2,9.05h.85a29,29,0,0,1,.81,58H38"/><path class="cls-2" d="M64.89,59.62h0l-1.21-1.85-.87,1.1Zm-4.25-.48-.21-.09s-.07-.06-.07-.1a.21.21,0,0,1,0-.15,2.15,2.15,0,0,1,.18-.23,2.22,2.22,0,0,1,.19-.24.58.58,0,0,1,.13-.11.1.1,0,0,1,.08,0l.08,0,1,.36,1.16-1.46-.56-.84a.41.41,0,0,1,0-.09.17.17,0,0,1,0-.1l.08-.14.16-.21.18-.21a.19.19,0,0,1,.13-.07s.07,0,.11.05a1.06,1.06,0,0,1,.13.18l2.49,3.93a.47.47,0,0,1,0,.1.53.53,0,0,1,0,.12l-.1.16a2.42,2.42,0,0,1-.19.24l-.22.28-.16.15a.19.19,0,0,1-.11,0,.32.32,0,0,1-.13,0Zm4.6-4.45a.67.67,0,0,0,.29.1.62.62,0,0,0,.27,0,.66.66,0,0,0,.25-.17,1.17,1.17,0,0,0,.26-.35l.32-.56L65.38,53l-.32.57a1.64,1.64,0,0,0-.16.38,1,1,0,0,0,0,.29.76.76,0,0,0,.11.26.68.68,0,0,0,.24.2m-.44.93a1.63,1.63,0,0,1-.48-.41,1.26,1.26,0,0,1-.26-.53,1.53,1.53,0,0,1,0-.67,2.63,2.63,0,0,1,.35-.86L65.07,52a.31.31,0,0,1,.17-.17.33.33,0,0,1,.26.06L69.25,54a.28.28,0,0,1,.17.19.32.32,0,0,1,0,.23L68,56.87l-.05.05h-.08l-.13,0-.16-.08-.16-.1a.38.38,0,0,1-.09-.09.11.11,0,0,1,0-.07.08.08,0,0,1,0-.07l1-1.82-1.08-.61-.4.72a2.94,2.94,0,0,1-.46.64,1.62,1.62,0,0,1-.5.32,1.11,1.11,0,0,1-.54.07,1.4,1.4,0,0,1-.57-.18m1.12-4.8a.09.09,0,0,1-.06,0s0-.05,0-.09a1,1,0,0,1,0-.16,1.77,1.77,0,0,1,.08-.25A1.72,1.72,0,0,1,66,50a.53.53,0,0,1,.08-.15.16.16,0,0,1,.08-.06l.1,0,1.17,0a1.8,1.8,0,0,0,.43,0,.94.94,0,0,0,.31-.1.64.64,0,0,0,.21-.19,1,1,0,0,0,.13-.28l.07-.19-1.88-.62s0,0-.06,0a.12.12,0,0,1,0-.09,1.25,1.25,0,0,1,0-.15l.07-.23.08-.22.08-.14.07-.06H67l1.87.62.07-.18a1,1,0,0,0,0-.33.55.55,0,0,0-.06-.28.87.87,0,0,0-.18-.26,3,3,0,0,0-.31-.26l-1-.69L67.45,46a.31.31,0,0,1,0-.11,1.37,1.37,0,0,1,0-.16,2,2,0,0,1,.07-.25,2.21,2.21,0,0,1,.1-.24,1.07,1.07,0,0,1,.07-.15l.07-.06a.11.11,0,0,1,.08,0l0,0s0,0,.06,0l.07,0,.1.08.83.64a2.57,2.57,0,0,1,.38.33,1.22,1.22,0,0,1,.23.29.79.79,0,0,1,.13.28,2.87,2.87,0,0,1,0,.31h0a.9.9,0,0,1,.19-.2.74.74,0,0,1,.25-.14,2.14,2.14,0,0,1,.34-.08,3.18,3.18,0,0,1,.47,0h1.14l.11,0a.09.09,0,0,1,.06,0s0,.05,0,.09a1,1,0,0,1,0,.15,1.53,1.53,0,0,1-.07.24,1.54,1.54,0,0,1-.09.24c0,.06,0,.12-.08.14a.17.17,0,0,1-.08.07h-.1l-1.09,0a2.3,2.3,0,0,0-.39,0,.71.71,0,0,0-.28.08.7.7,0,0,0-.2.18,1,1,0,0,0-.14.28l-.06.19,1.76.58a.1.1,0,0,1,.06,0s0,0,0,.09a.47.47,0,0,1,0,.15,1,1,0,0,1-.07.23,1.77,1.77,0,0,1-.08.22.58.58,0,0,1-.08.14.13.13,0,0,1-.07.06h-.07L69.4,49.3l-.06.18a.89.89,0,0,0-.06.31.58.58,0,0,0,.06.26,1,1,0,0,0,.18.25,1.48,1.48,0,0,0,.29.24l.89.63a.22.22,0,0,1,.07.06.17.17,0,0,1,0,.1.53.53,0,0,1,0,.16,1.07,1.07,0,0,1-.07.25,1.38,1.38,0,0,1-.09.23.91.91,0,0,1-.07.14.19.19,0,0,1-.07.06h-.07l-.12,0L70.13,52l-.73-.56a3.85,3.85,0,0,1-.35-.29,1.74,1.74,0,0,1-.22-.27,1,1,0,0,1-.11-.26.93.93,0,0,1,0-.29h0a1.7,1.7,0,0,1-.24.23,1.25,1.25,0,0,1-.28.15,1.72,1.72,0,0,1-.36.09,3.63,3.63,0,0,1-.5,0H65.92m3.38-7.59a5.28,5.28,0,0,1-.67-.42,1.41,1.41,0,0,1-.38-.4.83.83,0,0,1-.17-.43,1.45,1.45,0,0,1,0-.51l0-.2c0-.06,0-.12.07-.18a.61.61,0,0,1,.07-.14l.07-.09.06,0,.09,0h.14l.2,0a.83.83,0,0,1,.31.07c.06,0,.09.07.08.11a.13.13,0,0,1,0,.08.36.36,0,0,0-.08.09.76.76,0,0,0-.07.13.78.78,0,0,0,0,.18.38.38,0,0,0,0,.15.39.39,0,0,0,0,.14.68.68,0,0,0,.12.13,1.28,1.28,0,0,0,.21.16l3.51-1.17a.58.58,0,0,1,.2,0,.13.13,0,0,1,.11,0,.3.3,0,0,1,0,.16,1.89,1.89,0,0,1,0,.29c0,.12,0,.21,0,.28a.38.38,0,0,1-.06.17.18.18,0,0,1-.08.09l-.13.05-1.58.49-.5.16-.51.13h0l.48.23.48.25,1.43.76a.27.27,0,0,1,.08.07.39.39,0,0,1,0,.09,1,1,0,0,1,0,.17c0,.07,0,.17,0,.28a2.24,2.24,0,0,1,0,.27.45.45,0,0,1-.06.15.09.09,0,0,1-.09,0A.47.47,0,0,1,72.4,45Zm-.82-4-.07,0a.12.12,0,0,1,0-.08.49.49,0,0,1,0-.15,1.44,1.44,0,0,1,0-.24v-.25c0-.06,0-.11,0-.15a.36.36,0,0,1,0-.09l.07,0,4-.12,0-1.06c-.59-.06-1.1-.11-1.53-.18a8.37,8.37,0,0,1-1.13-.2,4.1,4.1,0,0,1-.77-.25,1.83,1.83,0,0,1-.48-.33,1.06,1.06,0,0,1-.26-.43,2.79,2.79,0,0,1-.08-.55.34.34,0,0,1,0-.1.2.2,0,0,1,.06-.07l.12,0h.19a1.2,1.2,0,0,1,.27,0l.15,0A.12.12,0,0,1,69,35a.14.14,0,0,1,0,.07.55.55,0,0,0,.06.22.52.52,0,0,0,.19.21,2.05,2.05,0,0,0,.41.18,6.06,6.06,0,0,0,.68.17l1,.14c.4.05.88.09,1.44.14a.54.54,0,0,1,.27.08.31.31,0,0,1,.09.2l.07,2.43a.25.25,0,0,1-.07.21.33.33,0,0,1-.24.09Zm.36-5.07-.16,0h-.11l-.09,0-.09,0a.88.88,0,0,1-.14-.14c-.06-.07-.12-.16-.19-.26s-.12-.23-.18-.37a4.49,4.49,0,0,1-.13-.47,2.44,2.44,0,0,1,0-.93,1.77,1.77,0,0,1,.33-.77,2.05,2.05,0,0,1,.68-.58,3.46,3.46,0,0,1,1-.36,3.73,3.73,0,0,1,1.14-.05,2.24,2.24,0,0,1,.89.31,1.87,1.87,0,0,1,.63.62,2.25,2.25,0,0,1,.35.87,1.87,1.87,0,0,1,0,.4c0,.13,0,.25,0,.37a1.55,1.55,0,0,1-.07.31.77.77,0,0,1-.09.2l-.07.09a.29.29,0,0,1-.08,0,.34.34,0,0,1-.12,0l-.17,0-.2,0a.56.56,0,0,1-.13,0,.11.11,0,0,1-.08,0,.06.06,0,0,1,0-.06.2.2,0,0,1,0-.15l.1-.26A2,2,0,0,0,72,32.7a1.47,1.47,0,0,0,0-.46,1.14,1.14,0,0,0-.22-.5,1.19,1.19,0,0,0-.41-.32,2,2,0,0,0-.58-.14,3.09,3.09,0,0,0-.72.06,2.54,2.54,0,0,0-.72.23,1.6,1.6,0,0,0-.47.35,1.11,1.11,0,0,0-.22.45,1.23,1.23,0,0,0,0,.54,1.4,1.4,0,0,0,.15.45,2.23,2.23,0,0,0,.2.3,1.11,1.11,0,0,0,.18.19.38.38,0,0,1,.09.13s0,.05,0,.06,0,0,0,.05l-.13,0-.21,0m-.19-11.73L68.4,22a1.69,1.69,0,0,0-.27-.4.8.8,0,0,0-.25-.16.63.63,0,0,0-.27,0,1,1,0,0,0-.28.1,1.08,1.08,0,0,0-.23.18A.67.67,0,0,0,67,22a.74.74,0,0,0,0,.3,1.41,1.41,0,0,0,.18.43l.25.47Zm-3.07,2.81a.11.11,0,0,1-.08,0s0,0-.08-.05l-.09-.12a1.6,1.6,0,0,1-.13-.21l-.1-.21a.43.43,0,0,1,0-.15.17.17,0,0,1,0-.1.08.08,0,0,1,0-.05l1.62-.88-.17-.33a1,1,0,0,0-.21-.28.46.46,0,0,0-.23-.12.85.85,0,0,0-.29,0l-.36,0L64.34,23a.13.13,0,0,1-.09,0s-.06,0-.09-.05a.75.75,0,0,1-.11-.13c0-.06-.08-.14-.13-.23a2.59,2.59,0,0,1-.12-.25.37.37,0,0,1,0-.15.22.22,0,0,1,0-.09l0,0,.09,0,.17,0,1-.14.36,0a2.53,2.53,0,0,1,.3,0,1,1,0,0,1,.26.09.64.64,0,0,1,.22.14,2.3,2.3,0,0,1,0-.45,1.23,1.23,0,0,1,.08-.39,1.19,1.19,0,0,1,.22-.33,1.28,1.28,0,0,1,.36-.26,1.46,1.46,0,0,1,.59-.19,1.24,1.24,0,0,1,.57.08,1.72,1.72,0,0,1,.53.36,3.54,3.54,0,0,1,.55.79l.57,1.07a.29.29,0,0,1,0,.22.29.29,0,0,1-.17.18Zm-.53-8.1h0L63,17.9,63.82,19Zm-1.47,4a.66.66,0,0,1-.14.17.15.15,0,0,1-.11.06.31.31,0,0,1-.13-.09L63,21.1l-.18-.24a.56.56,0,0,1-.08-.15.1.1,0,0,1,0-.09.1.1,0,0,1,0-.08l.57-.87L62.22,18.2l-1,.35-.1,0-.09,0a.48.48,0,0,1-.12-.1l-.17-.21L60.62,18a.24.24,0,0,1,0-.15.16.16,0,0,1,.08-.09l.21-.09,4.39-1.49.12,0a.25.25,0,0,1,.11,0,.79.79,0,0,1,.13.13c.06.06.12.14.2.24l.22.29a.85.85,0,0,1,.1.18.21.21,0,0,1,0,.13.41.41,0,0,1-.06.11Zm-2-7.28a1.06,1.06,0,0,0,.16-.23.5.5,0,0,0,0-.24.59.59,0,0,0-.09-.24,1.4,1.4,0,0,0-.24-.29L61,12.57l-.87.93.41.39a1,1,0,0,0,.29.2.59.59,0,0,0,.26,0,.49.49,0,0,0,.23-.06.62.62,0,0,0,.2-.16m-1.25,1.72a1.28,1.28,0,0,0,.17-.26.69.69,0,0,0,0-.28.73.73,0,0,0-.11-.3,1.28,1.28,0,0,0-.3-.34L59.65,14l-1,1,.53.49a1,1,0,0,0,.29.21.7.7,0,0,0,.27.08.65.65,0,0,0,.27,0,.71.71,0,0,0,.24-.17m.78.69a1.68,1.68,0,0,1-.37.3,1.09,1.09,0,0,1-.41.13,1.19,1.19,0,0,1-.42,0,1.79,1.79,0,0,1-.42-.12A3.46,3.46,0,0,1,59,16.4a5.25,5.25,0,0,1-.42-.34l-.95-.9a.29.29,0,0,1-.11-.2.31.31,0,0,1,.1-.24l2.94-3.15a.29.29,0,0,1,.23-.11.3.3,0,0,1,.21.09l.9.84a2.88,2.88,0,0,1,.51.59,1.39,1.39,0,0,1,.24.53,1.1,1.1,0,0,1,0,.51,1.13,1.13,0,0,1-.3.48,1.32,1.32,0,0,1-.26.22.86.86,0,0,1-.3.12,1.08,1.08,0,0,1-.31,0,1.25,1.25,0,0,1-.32-.08,1.55,1.55,0,0,1,.19.36,1.32,1.32,0,0,1,.06.39,1.44,1.44,0,0,1-.09.4,1.33,1.33,0,0,1-.26.39M57,11.51a3.84,3.84,0,0,0,.33-.63,1.38,1.38,0,0,0,.13-.57,1,1,0,0,0-.13-.51,1.35,1.35,0,0,0-.45-.44,1.14,1.14,0,0,0-1.13-.13,1.69,1.69,0,0,0-.48.34,3.18,3.18,0,0,0-.42.52,3.63,3.63,0,0,0-.34.64,1.38,1.38,0,0,0-.13.57.93.93,0,0,0,.13.51,1.45,1.45,0,0,0,.45.44,1.27,1.27,0,0,0,.59.22,1.23,1.23,0,0,0,.54-.09,1.6,1.6,0,0,0,.49-.34,3.77,3.77,0,0,0,.42-.53m.91.53a3.84,3.84,0,0,1-.73.84,2.3,2.3,0,0,1-.83.44,2,2,0,0,1-.91,0,2.73,2.73,0,0,1-1-.41,3.21,3.21,0,0,1-.76-.68,1.83,1.83,0,0,1-.35-.78,2,2,0,0,1,.08-.9,3.68,3.68,0,0,1,.5-1,3.23,3.23,0,0,1,.72-.82,2.1,2.1,0,0,1,.82-.43,1.87,1.87,0,0,1,.91,0,2.65,2.65,0,0,1,1,.41,2.93,2.93,0,0,1,.75.67,1.72,1.72,0,0,1,.35.78,2,2,0,0,1-.06.89,3.73,3.73,0,0,1-.49,1M54,7.27a.87.87,0,0,1-.09.17.29.29,0,0,1-.08.1.15.15,0,0,1-.07,0,.1.1,0,0,1-.07,0l-1.49-.68-1.67,3.62a.1.1,0,0,1,0,.06h-.09l-.15,0-.23-.1-.21-.11a.36.36,0,0,1-.13-.09.21.21,0,0,1-.06-.08s0,0,0-.07L51.52,6a.33.33,0,0,1,.17-.18.31.31,0,0,1,.23,0l2.14,1s.06.06.06.13a.76.76,0,0,1-.1.31M48.11,7a3.16,3.16,0,0,0,.13-.7,1.55,1.55,0,0,0-.05-.58,1,1,0,0,0-.28-.44A1.37,1.37,0,0,0,47.36,5a1.18,1.18,0,0,0-.64,0,1.06,1.06,0,0,0-.48.25,1.54,1.54,0,0,0-.36.46,3.8,3.8,0,0,0-.24.62A4.32,4.32,0,0,0,45.5,7a1.53,1.53,0,0,0,0,.58,1,1,0,0,0,.28.45,1.4,1.4,0,0,0,.56.28,1.26,1.26,0,0,0,.63,0,1.2,1.2,0,0,0,.49-.25,1.78,1.78,0,0,0,.36-.48A3.59,3.59,0,0,0,48.11,7m1,.24a3.66,3.66,0,0,1-.45,1A2.22,2.22,0,0,1,48,9a2.09,2.09,0,0,1-.86.29,2.71,2.71,0,0,1-1-.11,3.08,3.08,0,0,1-.93-.42,1.74,1.74,0,0,1-.57-.64,2,2,0,0,1-.2-.87,4.13,4.13,0,0,1,.17-1.13,3.83,3.83,0,0,1,.44-1,2.3,2.3,0,0,1,.66-.66,2,2,0,0,1,.86-.29,2.55,2.55,0,0,1,1,.11,3.12,3.12,0,0,1,.92.41,1.71,1.71,0,0,1,.56.64,2,2,0,0,1,.21.86,3.6,3.6,0,0,1-.16,1.12m-6.38.85a.11.11,0,0,1,0,.06.19.19,0,0,1-.09,0l-.15,0-.25,0-.24,0-.15,0a.14.14,0,0,1-.07-.06.06.06,0,0,1,0-.07l.38-4-1.06-.1c-.13.58-.25,1.07-.36,1.5s-.23.79-.35,1.1a3.87,3.87,0,0,1-.34.73,1.5,1.5,0,0,1-.39.43,1,1,0,0,1-.46.2,2.41,2.41,0,0,1-.55,0l-.1,0-.06-.06a.44.44,0,0,1,0-.13,1.18,1.18,0,0,1,0-.19c0-.11,0-.2,0-.26a.27.27,0,0,1,0-.15A.16.16,0,0,1,38.59,7h.08a.6.6,0,0,0,.23,0,.79.79,0,0,0,.23-.17,1.82,1.82,0,0,0,.22-.38,3.17,3.17,0,0,0,.25-.66c.09-.26.18-.6.28-1s.2-.87.31-1.41a.62.62,0,0,1,.12-.27.28.28,0,0,1,.21,0l2.42.23a.26.26,0,0,1,.2.1.29.29,0,0,1,0,.24ZM35.3,4h0l-.54,2.14,1.4-.1Zm2.54,3.44c0,.09.06.17.07.22a.12.12,0,0,1,0,.12.2.2,0,0,1-.14.06l-.3,0-.3,0H37l-.08,0a.56.56,0,0,1,0-.08l-.4-1L34.6,7l-.24,1a.3.3,0,0,1,0,.1.14.14,0,0,1-.07.06l-.16,0-.26,0h-.28a.2.2,0,0,1-.14-.05.14.14,0,0,1,0-.12.73.73,0,0,1,0-.22L34.61,3.3a.28.28,0,0,1,0-.11.22.22,0,0,1,.09-.07.69.69,0,0,1,.18,0l.32,0,.35,0h.22a.2.2,0,0,1,.11.06.36.36,0,0,1,.06.11Zm-5.48.76a.11.11,0,0,1,0,.08l-.06.07-.15.06a.79.79,0,0,1-.23.07,1.29,1.29,0,0,1-.24.05h-.15a.17.17,0,0,1-.1,0,.13.13,0,0,1,0-.06L30.9,6.53,29.11,7l.48,1.94a.09.09,0,0,1,0,.07l-.07.07-.14.07-.23.07-.24,0a.53.53,0,0,1-.16,0,.19.19,0,0,1-.09,0,.07.07,0,0,1,0-.06L27.48,4.63a.2.2,0,0,1,0-.07l.06-.07.15-.06.23-.08.24,0h.16a.12.12,0,0,1,.09,0l0,.06.44,1.76,1.79-.45-.44-1.76a.09.09,0,0,1,0-.07.19.19,0,0,1,.06-.07l.14-.07.24-.07.24-.05h.15a.12.12,0,0,1,.09,0l.05,0ZM20.1,8.69,19.67,9a1.55,1.55,0,0,0-.39.3.6.6,0,0,0-.14.26.5.5,0,0,0,0,.27,1.59,1.59,0,0,0,.12.27.85.85,0,0,0,.2.22.64.64,0,0,0,.25.11.77.77,0,0,0,.3,0,1.9,1.9,0,0,0,.42-.2l.45-.29Zm3,2.88a.09.09,0,0,1,0,.07.12.12,0,0,1,0,.08l-.11.11-.2.14-.21.12-.15.06h-.1a.08.08,0,0,1,0-.05l-1-1.56-.31.2a.94.94,0,0,0-.27.23.61.61,0,0,0-.11.23.93.93,0,0,0,0,.29,2.7,2.7,0,0,0,.06.36l.26,1.1v.1a.37.37,0,0,1-.06.1l-.12.11-.22.14a1.75,1.75,0,0,1-.24.14l-.15.06H20l-.05,0,0-.09a1.22,1.22,0,0,1-.05-.17l-.2-1a1.72,1.72,0,0,1-.05-.36,1.6,1.6,0,0,1,0-.31,2,2,0,0,1,.07-.26,1,1,0,0,1,.13-.23,1.87,1.87,0,0,1-.44.08,1.07,1.07,0,0,1-.4,0,1,1,0,0,1-.34-.2,1.24,1.24,0,0,1-.29-.34,1.52,1.52,0,0,1-.23-.57,1.14,1.14,0,0,1,.05-.58,1.78,1.78,0,0,1,.32-.56,3.74,3.74,0,0,1,.75-.6l1-.64a.33.33,0,0,1,.21,0,.28.28,0,0,1,.2.16Zm-8,1.06h0l.88,2L17,13.74Zm4.1,1.2a.87.87,0,0,1,.19.13.14.14,0,0,1,.06.11.27.27,0,0,1-.08.13c0,.06-.12.12-.21.21a2.12,2.12,0,0,1-.24.19l-.13.1a.2.2,0,0,1-.1,0l-.08,0-.91-.52-1.38,1.23.41.93a.44.44,0,0,1,0,.1.1.1,0,0,1,0,.09.5.5,0,0,1-.1.13c0,.05-.11.11-.19.19l-.21.17a.24.24,0,0,1-.14.05A.15.15,0,0,1,16,17a.92.92,0,0,1-.1-.2l-1.78-4.29a.22.22,0,0,1,0-.22l.12-.15.23-.21.27-.23a.69.69,0,0,1,.18-.12.3.3,0,0,1,.12,0l.12.05Zm-3.89,3.94a.07.07,0,0,1,0,.06.18.18,0,0,1,0,.1l-.07.13a1.5,1.5,0,0,1-.14.2l-.17.18a.47.47,0,0,1-.11.1.13.13,0,0,1-.09,0,.08.08,0,0,1-.07,0L13.08,17.3l-1.15,1.45L13.49,20a.07.07,0,0,1,0,.06s0,.05,0,.09a.61.61,0,0,1-.07.14,1.5,1.5,0,0,1-.14.2,1.52,1.52,0,0,1-.17.18.35.35,0,0,1-.12.1.12.12,0,0,1-.08,0,.09.09,0,0,1-.07,0L9.22,17.87a.15.15,0,0,1-.05-.06.2.2,0,0,1,0-.1s0-.08.07-.14l.14-.19.16-.19a.91.91,0,0,1,.13-.1l.08,0,.07,0,1.42,1.14,1.15-1.45L11,15.64s0,0,0-.06a.18.18,0,0,1,0-.1.88.88,0,0,1,.07-.13,1.15,1.15,0,0,1,.15-.2l.16-.19.11-.1.1,0,.07,0ZM10.51,21.9a1.15,1.15,0,0,0-.32-.12.57.57,0,0,0-.29,0,.64.64,0,0,0-.28.17,1.63,1.63,0,0,0-.3.42L9,22.91l1.38.77.29-.53a1.59,1.59,0,0,0,.2-.5.69.69,0,0,0,0-.33.58.58,0,0,0-.15-.25.68.68,0,0,0-.21-.17m.43-.95a2.35,2.35,0,0,1,.51.41,1.39,1.39,0,0,1,.29.55,1.69,1.69,0,0,1,0,.71,3.44,3.44,0,0,1-.39,1l-.6,1.08-.08.1a.13.13,0,0,1-.09,0,.25.25,0,0,1-.12,0,.37.37,0,0,1-.14,0l-3.93-2.2a.08.08,0,0,1,0,0v-.09a.64.64,0,0,1,.06-.16,1.46,1.46,0,0,1,.11-.21,1.72,1.72,0,0,1,.12-.21l.1-.12a.12.12,0,0,1,.08,0,.11.11,0,0,1,.08,0l1.46.82.34-.61a3.46,3.46,0,0,1,.52-.73,1.48,1.48,0,0,1,.53-.35,1.28,1.28,0,0,1,.58-.08,1.53,1.53,0,0,1,.62.19M9.85,26.21s0,0,.06,0,0,.05,0,.09a1.37,1.37,0,0,1,0,.16,2.16,2.16,0,0,1-.08.23,1.85,1.85,0,0,1-.09.23.76.76,0,0,1-.07.13.21.21,0,0,1-.08.06.08.08,0,0,1-.07,0L5.75,25.8l-.35,1c.53.27,1,.51,1.36.72s.71.42,1,.6a5.45,5.45,0,0,1,.63.52,1.49,1.49,0,0,1,.32.48,1,1,0,0,1,.08.5,2,2,0,0,1-.12.54.56.56,0,0,1-.05.08.1.1,0,0,1-.08.05.24.24,0,0,1-.12,0l-.19-.06L8,30.13a.37.37,0,0,1-.14-.08A.12.12,0,0,1,7.77,30a.17.17,0,0,1,0-.07.61.61,0,0,0,0-.23.52.52,0,0,0-.11-.26,1.81,1.81,0,0,0-.31-.32,4.87,4.87,0,0,0-.57-.4q-.36-.22-.9-.51c-.36-.2-.79-.41-1.28-.66a.5.5,0,0,1-.23-.17.28.28,0,0,1,0-.22l.82-2.29a.28.28,0,0,1,.15-.17.29.29,0,0,1,.24,0ZM4.06,32.43h0L6,33.49l.24-1.38Zm4-1.61a1.11,1.11,0,0,1,.23,0s.09,0,.11.05,0,.08,0,.15,0,.17,0,.29-.05.23-.06.3,0,.13,0,.17l-.06.06a.14.14,0,0,1-.09,0l-1,.15-.32,1.84.9.47.08,0a.19.19,0,0,1,0,.09.43.43,0,0,1,0,.16,1.51,1.51,0,0,1,0,.26,1.91,1.91,0,0,1-.06.27.18.18,0,0,1-.07.13.19.19,0,0,1-.13,0l-.2-.1L3.19,32.93l-.1-.07a.23.23,0,0,1,0-.11.6.6,0,0,1,0-.18c0-.08,0-.18,0-.31s0-.27.07-.36a1.67,1.67,0,0,1,.06-.2.36.36,0,0,1,.08-.09.25.25,0,0,1,.13,0ZM4.22,36.58a.79.79,0,0,0-.43.08.67.67,0,0,0-.25.21.65.65,0,0,0-.11.29,1.39,1.39,0,0,0,0,.3v.43l1.67,0,0-.45A1.22,1.22,0,0,0,5,37.07a.62.62,0,0,0-.17-.26.73.73,0,0,0-.28-.17,1,1,0,0,0-.35-.06m0-1.06a2.06,2.06,0,0,1,.73.15,1.52,1.52,0,0,1,.53.4,1.58,1.58,0,0,1,.32.62,2.77,2.77,0,0,1,.09.85V38l1.58,0a.09.09,0,0,1,.06,0,.15.15,0,0,1,0,.09,1,1,0,0,1,0,.15,1.89,1.89,0,0,1,0,.24,1.69,1.69,0,0,1,0,.25.57.57,0,0,1,0,.15.22.22,0,0,1,0,.08l-.07,0-4.45-.12a.35.35,0,0,1-.26-.1.37.37,0,0,1-.09-.25l0-1.17,0-.33a3.63,3.63,0,0,1,.06-.38,2,2,0,0,1,.18-.44,1.29,1.29,0,0,1,.31-.38,1.14,1.14,0,0,1,.43-.24,1.88,1.88,0,0,1,.55-.07m3,4.81h.19l.12,0a.15.15,0,0,1,.07,0,.09.09,0,0,1,0,.07l.29,2.46a.33.33,0,0,1-.06.22.28.28,0,0,1-.22.12l-4.29.49a.26.26,0,0,1-.25-.06.32.32,0,0,1-.1-.19L2.69,41a.13.13,0,0,1,0-.06.15.15,0,0,1,.06-.05.33.33,0,0,1,.12,0l.19,0h.18l.12,0a.11.11,0,0,1,.07,0,.09.09,0,0,1,0,.06l.21,1.75,1.19-.14L4.7,41.06a.11.11,0,0,1,0-.07l.06-.05a.23.23,0,0,1,.11,0l.18,0h.3l.07,0,0,.06.17,1.48L7,42.3l-.2-1.77a.17.17,0,0,1,0-.07.15.15,0,0,1,.06-.05.33.33,0,0,1,.12,0l.18,0M4.51,47l.32,1.11,1-.15.78-.08.59,0,.44,0L8,47.9l.26.09L7.7,46.06Zm4.66-3h.06A.13.13,0,0,1,9.3,44a.44.44,0,0,1,.06.12l.07.2c0,.09,0,.15.05.21a.76.76,0,0,1,0,.14.19.19,0,0,1,0,.08l-.06,0-1.12.32.9,3.16L10.31,48h.07a.19.19,0,0,1,.07.06l.06.12.07.2c0,.09,0,.16.05.22a.66.66,0,0,1,0,.13.15.15,0,0,1,0,.08l-.06,0-1.71.49a.15.15,0,0,1-.16,0,.19.19,0,0,1-.09-.12L8.54,49a1.58,1.58,0,0,0-.31-.09,1.21,1.21,0,0,0-.36-.07l-.47,0-.66,0c-.25,0-.55.06-.9.11s-.75.11-1.21.19a.5.5,0,0,1-.26,0,.21.21,0,0,1-.13-.17l-.7-2.43a.24.24,0,0,1,0-.22.34.34,0,0,1,.2-.14l3.67-1-.12-.4a.17.17,0,0,1,0-.16s.07-.06.13-.08Zm.25,6,.17-.07.12,0h.08l.05,0,1.06,2.25a.34.34,0,0,1,0,.22.27.27,0,0,1-.18.18l-3.9,1.84a.31.31,0,0,1-.26,0,.35.35,0,0,1-.16-.16l-1-2.24a.13.13,0,0,1,0-.06.25.25,0,0,1,0-.07l.1-.08.17-.09.17-.07.12,0H6a.1.1,0,0,1,0,0l.76,1.59,1.09-.51-.64-1.35a.15.15,0,0,1,0-.07l0-.07.1-.08.16-.08.17-.07.11,0,.08,0a.12.12,0,0,1,0,.05l.63,1.36,1.26-.6-.76-1.61a.09.09,0,0,1,0-.07s0,0,0-.07l.1-.08L9.42,50m.79,8.19a1.57,1.57,0,0,0,.39.32.86.86,0,0,0,.39.13.94.94,0,0,0,.37,0,1.29,1.29,0,0,0,.35-.18,1.72,1.72,0,0,0,.34-.31.8.8,0,0,0,.18-.34.9.9,0,0,0,0-.4,1.5,1.5,0,0,0-.18-.48ZM10,55.85a1.59,1.59,0,0,0-.33.29.8.8,0,0,0-.18.34.89.89,0,0,0,0,.4,1.5,1.5,0,0,0,.18.48l1.86-1.29a1.43,1.43,0,0,0-.39-.33,1,1,0,0,0-.77-.08,1.39,1.39,0,0,0-.36.19M9.38,55a1.91,1.91,0,0,1,.7-.32,1.65,1.65,0,0,1,.7,0,1.91,1.91,0,0,1,.69.3,3.2,3.2,0,0,1,.67.62l.46-.33a.11.11,0,0,1,.08,0,.12.12,0,0,1,.08,0l.11.1.14.2c.05.08.1.14.13.2a.69.69,0,0,1,.06.13.2.2,0,0,1,0,.1.13.13,0,0,1-.05.06l-.47.33a3.32,3.32,0,0,1,.39.81,1.7,1.7,0,0,1,.07.73,1.49,1.49,0,0,1-.25.65,2.42,2.42,0,0,1-.58.57,1.87,1.87,0,0,1-.68.3,1.6,1.6,0,0,1-.69,0,1.89,1.89,0,0,1-.69-.29,3,3,0,0,1-.67-.62l-.45.31-.07,0a.25.25,0,0,1-.08,0,.57.57,0,0,1-.1-.11,1,1,0,0,1-.15-.19l-.13-.2a.53.53,0,0,1-.06-.14.1.1,0,0,1,0-.09.05.05,0,0,1,0,0L9,57.79A3.49,3.49,0,0,1,8.65,57a1.7,1.7,0,0,1-.07-.73,1.36,1.36,0,0,1,.24-.65A2.44,2.44,0,0,1,9.38,55"/><path class="cls-1" d="M53.67,61.94l-.15-.18A2.77,2.77,0,0,0,51.25,61a7.39,7.39,0,0,0-1.76.24c-.57.14-1.28.37-2.13.66a2.06,2.06,0,0,0-.35-.52,4.16,4.16,0,0,0-3.23-1,24.36,24.36,0,0,0-8,1.81,15.94,15.94,0,0,1-5.53,1.2A9.45,9.45,0,0,1,25,61.65l-.69-.41-.87-.52-.16,1L21.48,72.28l.65.28.31-1.83,1.47-8.9,0,0v0l.69.41a11,11,0,0,0,3.85,1.6,10.1,10.1,0,0,0,1.82.16,16.53,16.53,0,0,0,5.76-1.25A23.79,23.79,0,0,1,43.79,61a6.47,6.47,0,0,1,1.31.11,2.44,2.44,0,0,1,1.42.69,1.46,1.46,0,0,1,.38.93c1.05-.35,2-.69,2.76-.86a7,7,0,0,1,1.59-.22h.47l.3.05h0a2.12,2.12,0,0,1,.64.23c.21.11.63-.28.63-.28l-1.83,12,.61-.26c.05-.29.09-.59.14-.91.2-1.23.36-2.12.36-2.13l0-.23,0-.28,0,0c.14-.85.27-1.69.4-2.48.37-2.36.69-4.28.73-4.56a.08.08,0,0,0,0,0l0-.23,0-.31Z"/><path class="cls-2" d="M38,65.66a27.63,27.63,0,0,1-.78-55.24h.81a27.62,27.62,0,0,1,.78,55.23l-.81,0m0,.68h.83a28.31,28.31,0,0,0-.8-56.61h-.83A28.31,28.31,0,0,0,38,66.34"/><path class="cls-2" d="M43.79,61a3.58,3.58,0,0,1,2.71.79,1.46,1.46,0,0,1,.38.95c1.06-.36,2-.7,2.78-.87a7,7,0,0,1,1.59-.22c1.22,0,1.51.25,1.6.34l.44-.32L50.83,77.31l-.66-.37A2.43,2.43,0,0,0,49,76.67,14.52,14.52,0,0,0,44.36,78,16.46,16.46,0,0,1,41,79.16a6.75,6.75,0,0,1-.94.08c-1.45,0-1.68-.78-1.71-1.17l.09-.81-1.16.44c-.77.3-1.5.58-2.14.8a12.34,12.34,0,0,1-4,.61,17.09,17.09,0,0,1-9.4-2.64l-.26-.19,2.39-14.45.69.41A10.13,10.13,0,0,0,30.29,64a16.53,16.53,0,0,0,5.76-1.25A23.84,23.84,0,0,1,43.79,61"/><path class="cls-3" d="M39.68,72.09l-.79,5.68c-.21,1,1,1,2,.87,2.59-.39,7.12-3.49,9.5-2.16.35-2.83,1-6.45,1-6.45s-.59-.82-2.82-.28-7.21,2.68-8.88,2.34"/><path class="cls-1" d="M51.13,71.66c.25-1.58.51-3.27.75-4.77a3.79,3.79,0,0,0-2.94-.19c-2.17.53-6.92,2.55-8.71,2.36l-.66,4.23c.2.69,1,.86,2.06.77,2.59-.21,7.11-3.64,9.5-2.4"/><path class="cls-4" d="M38.83,78.14c.16-1.08,1.65-1.12,2.63-1.07s2.8,0,2.95-.77c.18-1.06.26-2.36.26-2.36L39.49,74Z"/><path class="cls-3" d="M22.08,76.05l1.2-7.18c2.09,1.24,5.37,3,12.07.43,5.37-2.06,10.36-2.43,10.12-.3,0,0-1.1,7.35-1.1,7.35.4-2.52-6,.49-9.39,1.67-3.65,1.27-9.68.35-12.9-2"/><path class="cls-1" d="M35.59,67.81c-6.48,2.48-9.88.27-12-1l-.78,4.65a13.83,13.83,0,0,0,12.8,1.22c3-1.16,8.87-3.18,9.52-1.37.23-1.52.46-3.13.66-4.53-.83-1.37-5.46-.8-10.22,1"/><path class="cls-5" d="M50.69,42.56c0-.06-.12-.29-.26-.6a3,3,0,0,0,.36.18l.22.39a1.55,1.55,0,0,0-.31.07s0,0,0,0m-2.56,0c0-.53-.13-.87-.29-2a19.48,19.48,0,0,1,.69,2.19,2.7,2.7,0,0,0-.4-.14M47,49.1s0,0,0,0h0s0,0,0,.08,0,0,0,0m0,.71a.6.6,0,0,0,0-.12h0a.3.3,0,0,0,0,.1s0,0,0,0m3.58,3.57L50,54.71l-.67-.32.45-1a3.3,3.3,0,0,0,.85,0m.62-.18-.16.34-.37-.17a2.36,2.36,0,0,0,.53-.17M31,56.51a.63.63,0,0,1,.2-.32.65.65,0,0,0,0,.22Zm-1.22-6.7s0,0,0,0Zm-.74,0a.3.3,0,0,0,0-.1h0a.45.45,0,0,1,0,.12s0,0,0,0m-3.82-2.24h0m1.09-2.69-.76-.35h0a1.28,1.28,0,0,0-.66-.86.71.71,0,0,0-.08-.77c.4-.51,1.08-2,1.84-3.2-.17,1.29-2.37,3-.63,4.25,1.14-.17,1.75-1.53,2.2-3.4.22.44-1.15,2.37.71,3,.82-.15,1.42-1.74,1.21-2.93a2.26,2.26,0,0,1,.26.2c.25-.27.75-.27.93-.62l.17.11c.56.93.6,2.69-.17,3.33a1.6,1.6,0,0,0,.67-.11s0,0-.1.16l-.07.11a0,0,0,0,0,0,0c-.43.41-.55.52-1.8.34a1,1,0,0,0,.13.39c-.62.26-1.63.22-1.91,1.92a.15.15,0,0,0-.06-.05h-.05s0,0,0,0-.08,0-.09-.07,0-.08-.07-.1h-.25l0,0,0,0h0l-.19.13c-.16.07-.14-.09-.42.31,0,0,0,0,0,0s0,0,0,.16h0l-.07,0-.26-.13a1,1,0,0,1-.23-.1l-.31-.09.15.07.35.16.21.09L27,47h0l-.84-.39-.05,0a.83.83,0,0,0-.2-.09l-.31-.09Zm26.48-3.59a.25.25,0,0,0,0,.17l-.09-.13a.78.78,0,0,1,.11-.28l.06.07a.38.38,0,0,0-.08.17m-2.65,0,.26.1.16.3-.23,0-.19-.42M44.71,44.2a1.35,1.35,0,0,1-.65-.64,1.6,1.6,0,0,0,.67.11c-.77-.64-.73-2.4-.17-3.33l.17-.11c.18.35.68.35.93.62a2.26,2.26,0,0,1,.26-.2,19.37,19.37,0,0,0,.14,2.12,3.09,3.09,0,0,0-1.35,1.43m1.39,6.5v0Zm1.35,4.1-1.32-.61L47,52.24a6.35,6.35,0,0,0,1.24.79ZM29.08,49.51v.11s0,0,0,0a.3.3,0,0,0,0-.08m23-9.09.31.09.08.1-.32-.09a.36.36,0,0,0-.07-.1m-2.36,0,.18.1.2.36h-.17q-.1-.24-.21-.45M46.07,50l0,.28,0-.28m0-.39h0a.71.71,0,0,0,0,.14.59.59,0,0,0,0-.14m-3.67,6.07L43,56s-.18.24-.8.24a2.73,2.73,0,0,0-.06-.5l.22,0m-6-1.26.56-.28a12.86,12.86,0,0,0-.25,1.47,3.35,3.35,0,0,1-.55,0,6.38,6.38,0,0,1,.24-1.2M33.11,56l.32-.16a3.49,3.49,0,0,0,0,.35.45.45,0,0,1-.3-.19m3.74-2.93.29.13a.8.8,0,0,0,0,.15l-.46.23c.06-.17.13-.34.2-.51m5.9-5.66a3.68,3.68,0,0,0-2.59.7,1.69,1.69,0,0,1,2.59-.7M41.2,51.28a6,6,0,0,1-1-.57s0,0,0,0h.05l.23,0h0a1.41,1.41,0,0,1,.95.46Zm-4.6,0-.09,0c.1-.11.2-.22.29-.34-.07.11-.13.22-.2.32m.93,0h0c0-.11.07-.22.09-.33,0,.11,0,.22,0,.33m2.79,1.12.35-.17a5.86,5.86,0,0,1,1.11,1,8,8,0,0,1-1.34-.66l-.12-.15m-.25-.63s0,0,0,0l0,0V51.8M38.49,51a5.5,5.5,0,0,0,.16.58l-.08,0c0-.18-.06-.36-.08-.55m3.1-2.1c.21.7.61,1.34,2.08.68a.6.6,0,0,0,.13.38L41.56,51.1c0-.7-.54-1-1-1.32.16-.22,0-.32,1-.9m0,0a2.21,2.21,0,0,1,1.14,0,1.11,1.11,0,0,1-1.14,0m2.61.67.14.11.06,0h0l-.34.17a2.18,2.18,0,0,1,.14-.25M44,52.94a14.77,14.77,0,0,0-2-1.31l2.84-1.42A3.47,3.47,0,0,1,44,52.94m-8.59-2.09-.05,0,0,0-.1-.05h0l.24-.07v0c.1,0,.09,0,.48-.06a3.47,3.47,0,0,1-.37.26l0,0-.1,0m-1.1-.51-.14-.07s0,0-.09,0l0,0s0,0-.1,0l-.13-.07-.09,0L33.49,50l-.05,0,0,0-.1,0c.52-.1.76,0,1.18-1-1.32.69-2.31-1.81.32-1.75h0c1.24.64,1.75,2.32-.16,3.41l-.1,0-.09,0-.09,0-.1,0M33,55.48a.35.35,0,0,1,0-.11l.07.06Zm-5.34-8.32a.89.89,0,0,0,0,.11,0,0,0,0,0,0,0s0,0-.06,0v-.06h.05m9,10.3a1.17,1.17,0,0,1-.45-.67h.42a3.5,3.5,0,0,0,0,.66m2.67-2.41a5.82,5.82,0,0,0,.34-.65l.05,0c-.08.7.86,1.35-.27,3a9.89,9.89,0,0,0-.12-2.41m9.07-7.85v0h0v.06s0,.22,0,.35l-.69.36a.78.78,0,0,1,0-.22h.05a.28.28,0,0,0,.11,0h0c.11,0,.06.05.42-.28a.28.28,0,0,0,.09-.18m2.46-8.47c.11.09.44.48.84,1l-.22-.08a8.85,8.85,0,0,1-.62-.87m-1.43,1a1.17,1.17,0,0,1,.12.2h0a1.16,1.16,0,0,1-.08-.2M23.54,41.07a1.35,1.35,0,0,0-.28,0c.69-.83,1.76-2.13,2-2.3-.09.19-1,1.39-1.69,2.34m-1.61,6.24h-.34A.71.71,0,0,1,21,48h0l-.11-.06h0l-.09-.08h0l-.08-.1h0a.77.77,0,0,1-.08-.42.63.63,0,0,1,.17-.39,2.29,2.29,0,0,1-.21-.23h0a2.26,2.26,0,0,1-.16-.26h0A2.06,2.06,0,0,1,20.3,45h0a2.18,2.18,0,0,1,2-1.36c.08-.16,0-.22.76-.49,0,.14.39.18.08.93a2,2,0,0,1-1.21,3.26M37.2,21a14.09,14.09,0,0,0,1.66,0,7.61,7.61,0,0,0,3.42,1.7,6.88,6.88,0,0,1-2.37-.26c0,.5,1.11,1.08,1.82,1.23a3,3,0,0,1-1.57-.22,1.92,1.92,0,0,0,1,.8,3,3,0,0,1-2.5.88,1.23,1.23,0,0,0,1.09.44A9.69,9.69,0,0,0,38,30.19a9.81,9.81,0,0,0-1.73-4.6,1.24,1.24,0,0,0,1.1-.44,2.94,2.94,0,0,1-2.49-.88,2,2,0,0,0,1-.8,3,3,0,0,1-1.57.22c.71-.15,1.79-.73,1.82-1.23a6.91,6.91,0,0,1-2.38.26A7.51,7.51,0,0,0,37.2,21M25.36,47.6Zm.34-1.09-.1,0,.1,0M47,49.34s0,0,0,0a.59.59,0,0,1,0-.17.15.15,0,0,0,0,.13m0,.09a.17.17,0,0,0,0,.16s0,0,0,0a.74.74,0,0,1,0-.21ZM59.36,32.24a4.1,4.1,0,0,0-2.29-.36,3.25,3.25,0,0,0,2.38-2.41,4.41,4.41,0,0,0-2.14,0A3.25,3.25,0,0,0,59,26.76a5.26,5.26,0,0,0-2.37.5c1.62-.89,2.2-3,1.34-4.2-.49.29-2.78,2.62-3.15,2.88C56.27,24,58.28,21.81,56,19.43a38.68,38.68,0,0,1-3.75,6.12.82.82,0,0,0-.36-.28,5.94,5.94,0,0,1-1.81,2.54,2,2,0,0,0-.24-.46C44,30.92,49,37,44.06,34.67a1.31,1.31,0,0,0,.73-2.2c-.45.27-.75,1.15-2.37-.07a1.05,1.05,0,0,0,1.51-1.11c-2.3,1.17-2.59-2.84-.47-4.5.23.46,2.73-.92,2.94,1.22.93-.53.59-1.38-.6-1.71,1,.17,3.64,2.44,3.83-.46-.44,1.05-2.16.22-3.94,0a2.07,2.07,0,0,1,2.56.29A1.58,1.58,0,0,0,47,23.38a.34.34,0,0,0-.46-.36.3.3,0,0,0-.11-.25c1.87.17,3.51-1.63,2.59-4.16a4.78,4.78,0,0,0,1.58.61c.68,1.19-1.25,2.63.22,4.36a.93.93,0,0,1-.33.83c.63-.15,1.62-.54.66-2.31.16,1.07,1.62-.61,1.71,1,2-1.61-1.38-1.07-.59-2.19.64-.9,1.15-1.78-1.14-2.27-.51-1.8-4.68-2-3.34,1.32.38.79.8,2.15-1.53,2.59v-.23c.35-.63,1.22-2.41-.64-2.74-.11-.06,0,0-.41,0l0,.16h-.12v-.22h0c0-.08.26-.14,0-.63h.14a2.1,2.1,0,0,1-.27-.32,2.43,2.43,0,0,1,.32.26v-1a3.1,3.1,0,0,1-.32.27,1.67,1.67,0,0,1,.27-.32h-1a2.16,2.16,0,0,1,.27.32,4,4,0,0,1-.33-.27v1a1.93,1.93,0,0,1,.33-.27,3.06,3.06,0,0,1-.27.32h.14c0,.1-.26.15,0,.63h0l0,.22h-.13l0-.16c-.18-.05,0,0-.4,0-.86.4-1.76.81-.65,2.74v.15a8.84,8.84,0,0,1-3.1-2v-.65c.7-.92,1.9-3.86-.79-4.25a.56.56,0,0,0-.53-.06l0,.25-.28,0,0-.31-.15,0c0-.09.61-.28.1-1.06h.22a1.82,1.82,0,0,1-.39-.53,1.83,1.83,0,0,1,.53.38V13a1.58,1.58,0,0,1-.52.38,1.73,1.73,0,0,1,.38-.53H37.4a1.73,1.73,0,0,1,.38.53,1.73,1.73,0,0,1-.53-.38v1.26a2.15,2.15,0,0,1,.53-.38,1.62,1.62,0,0,1-.38.53h.22c0,.14-.58.33.1,1.06l-.16,0,0,.31-.29,0,0-.25a.56.56,0,0,0-.53.06c-1.81.37-2.29,2-.79,4.25v.66a8.21,8.21,0,0,1-3.09,2v-.15c.35-.63,1.22-2.41-.65-2.74-.1-.06,0,0-.4,0l0,.16h-.12l0-.22h0c0-.08.25-.14,0-.63h.14a3.1,3.1,0,0,1-.27-.32,2.48,2.48,0,0,1,.33.27v-1a2.71,2.71,0,0,1-.33.27,1.67,1.67,0,0,1,.27-.32h-1a1.65,1.65,0,0,1,.27.32,2.71,2.71,0,0,1-.33-.27v1l.33-.26a2.09,2.09,0,0,1-.27.32H31c0,.1-.25.15,0,.63h0v.22h-.12l0-.16c-.19-.05,0,0-.41,0-.86.4-1.77.82-.65,2.74v.23c-3.46.58.84-8.71-4.87-3.91-2.83-.23-.26,3.08-1.58,2.88-.45-.06-1.23.62-.15,1.58-.28-.72.6-.33,1.71-1-.15.71-1.21,1.65.66,2.31a1,1,0,0,1-.33-.83c1.09-1.3.13-2.39.22-4.36A4.87,4.87,0,0,0,27,18.61c.31,2-1.53,3.65,2.59,4.16a.3.3,0,0,0-.11.25.34.34,0,0,0-.46.36c-.72.05-2.68,1-1.22,2.72a2.07,2.07,0,0,1,2.56-.29c-1-.45-2.52,1.69-3.94,0-.06,1.27,1.27,2.16,3.83.46-1.19.33-1.53,1.18-.6,1.71.17-1.18.41-1.17,2.93-1.22.95.64,3.15,5.14-.46,4.5a1.05,1.05,0,0,0,1.51,1.11c-.09.08-1.4,1.28-2.37.07a1.31,1.31,0,0,0,.73,2.2c-3.61,1.72-2.56-.51-2.38-3.64-.47-.68-2.27-2.26-3.42-3.68a2,2,0,0,0-.24.46,5.86,5.86,0,0,1-1.81-2.54.88.88,0,0,0-.36.28,38.68,38.68,0,0,1-3.75-6.12c-2,1.71-.88,4,1.22,6.51-.36-.26-2.65-2.59-3.15-2.88-.85,1.21-.27,3.31,1.34,4.2a5.19,5.19,0,0,0-2.36-.5,3.25,3.25,0,0,0,1.66,2.75,4.41,4.41,0,0,0-2.14,0A3.24,3.24,0,0,0,19,31.88a4.08,4.08,0,0,0-2.28.36,2.76,2.76,0,0,0,2.51,2,3.05,3.05,0,0,0-2.06,1,2.65,2.65,0,0,0,2.25,1.08A2.39,2.39,0,0,0,18,37.61c.61.49,1.38.8,3.15.17-2,.84-1.63,1.25-1.94,2.12.78.53,2.33.27,3.88-1.21-.32.63-2.79,1.25-2.06,3.13l.29,0a.27.27,0,0,0-.06.1c-.41-.1-1.41-.16-2,1.25-.15-.1-.52,0-1.08.83a1.48,1.48,0,0,0,0,.16c0,.06,0,0,0,.16l0,.14.07.14.08.11.11.1,0,0,0,0,0,0s0,0,0,0l0,0a1.49,1.49,0,0,0-.21.47,0,0,0,0,1,0,0,.35.35,0,0,1,0,.06,1.86,1.86,0,0,0,0,.35.23.23,0,0,1,0,.07.32.32,0,0,0,0,.13s0,.08,0,.2a.41.41,0,0,1,0,.07c0,.05.05.12.12.24a.33.33,0,0,1,0,.06l0,0,0,.06.09.09a1.34,1.34,0,0,0,.26.21l.06,0a.81.81,0,0,0-.07.43v.06a.41.41,0,0,1,0,.07l0,.06,0,0a.66.66,0,0,0,.43.33,1,1,0,0,0-.1.4s0,0,0,.15v0a1.07,1.07,0,0,0,.05.23s0,0,0,.08l0,0h0a.9.9,0,0,0,.45.4l.05,0h.09l.09,0h.81l.05,0H21l.08,0,0,0,0,0h0s0,0,.15-.12a1,1,0,0,0,.19-.22h.18l.11,0h.07s0,0,.13,0a.63.63,0,0,0,.31-.1l.05,0,.05,0h0l.05,0a1.35,1.35,0,0,0,.08-.12h0a.89.89,0,0,0,.19,0h0l.08,0h0l.13,0h.13a1.5,1.5,0,0,0,.34-.07l.07,0L24,49l.37,0,.71-1.5c.16.1,0,0,.45.21a.32.32,0,0,0,0,.14l2.17,1a.29.29,0,0,0,0,.09V49s0,0,0,.06h0a.19.19,0,0,0,0,.19s0,0,0,0a.06.06,0,0,0,0,.06c.11.2,0,.4.58.39.1-.08.12,0,.25-.56h0c.07.18-.05.09-.08.68h0l0,0a.35.35,0,0,0,.23.15s.06,0,.24,0h0c.06,0,.17,0,.15-.16h0s-.05.16.16.33c0,0,.06,0,.27,0l.05,0h0c.1,0,.06.06.24-.11s0,0,.06-.35l4.06,1.89c-.36-.12-3.31,3.05-2.7.37C30.78,52,30,52.54,30,53.7c-1,.15-2.26,3.17-1.35,3.27a2.66,2.66,0,0,1,1-1.62c0,.58-.14.55.56,1.58-.06.24-2.27.75-2.28,1.46.33.39,1.44-.6,2.34-.92l0,.15c.31-.1.2,0,.64-.44l.47-.24A1.66,1.66,0,0,0,32.9,58a2.8,2.8,0,0,1-3.36.69c0,1.14,3.88,2,4.7-.71.64.28.51,1.28,2.68.48A3.45,3.45,0,0,0,38,59.79a3.24,3.24,0,0,0,1.12-1.29c.31.16,2.3.87,2.92-1l0,0c.55.34,2.1,1.08,2.72-.76l.37.17c.16.11-.21.29.7.64a.69.69,0,0,1-.08-.35l2.89,1.35,0,0c.13,0,0,0,.5,0l.13,0h0s0,0,.06,0l.06,0s0,0,.1-.07h0l.09-.1.07-.11a.14.14,0,0,1,0-.06.39.39,0,0,1,0-.06v0a.11.11,0,0,1,0-.05s0-.08,0-.19h0s0,0,0-.12a.28.28,0,0,0-.06-.11.39.39,0,0,0-.12-.15l0,0h0s0,0-.11-.07l0,0h0l-.23-.11L48.42,57l.31-.66L50.2,57l1.63-3.46,0-.16-.47-.22,0,0c1.2-.27,2.29-3.92.29-4.39a1.37,1.37,0,0,1-.94-.1c0,.34.65.92.65.92.13.2.16.5-.85-.19,3.16,3.38-2.48,3.06-3.67.87.1-.09.11-.08.15-.33h0c0,.12.1.14.16.16h0c.12,0,0,0,.24,0s0,0,.26-.18h0c.06-.13-.05-.11-.09-.65l0-.14h0c0,.31-.14.16.23.66,0,0,.59.09.56-.45h0a.19.19,0,0,0,0-.19h0s0,0,0,0,0,0,0-.21a1,1,0,0,0,.31-.53l.08,0a.33.33,0,0,0,.14,0s0,0,.06-.07l.18-.09h0a.21.21,0,0,0,.26-.13l4.11-2.06.06.11,1.23-.64-.05-.08.5-.25a3,3,0,0,1-.38-.73l-.49.25-.05-.1L53.06,45l.07.12-4,2s0,0,0,0a.06.06,0,0,0-.06,0h0v0s0,0,0-.06h0c0-.1,0-.07-.07-.29a.54.54,0,0,0,0-.08c0-.15,0-.08-.43-.26l-.19-.13h0s0,0-.06-.06,0,0-.17,0h-.08c-.06,0-.06,0-.07.1s-.06,0-.09.07,0,0,0,0h0s0,0,0,0c-.17-.76-.25-1.37-1.77-1.87.37-1,2.42-1.09,2.6,1.06.05-.31.17-2,.7.26a1.35,1.35,0,0,1,.48-.81s.33-.44-.11-1.3a1.12,1.12,0,0,1,.32.12c.24-.45.77-.61.69-1.17a5,5,0,0,0,1.92.52l-.09-.09h0a.24.24,0,0,0,0-.08.92.92,0,0,0,.18.17c.15,0-.63.32.07.77.12-.07-.42.44.2.52,0,0-.12.24,0,.39l1-.52c-.16-.08-1.84-1.12.12-2.07a.93.93,0,0,0,.23-.48,2.88,2.88,0,0,1,.52-.08c.39-1-.73-2.3-2.06-3.13,1,.52,2.24,2.31,3.88,1.21-.31-.87.08-1.28-1.94-2.12,1.77.63,2.54.32,3.15-.17a2.39,2.39,0,0,0-1.37-1.32,2.64,2.64,0,0,0,2.25-1.08,3.05,3.05,0,0,0-2.06-1,2.76,2.76,0,0,0,2.51-2"/><path class="cls-5" d="M56.17,42.32a1.53,1.53,0,0,0-.8,1l-.1.07-.05.14a.28.28,0,0,0-.22,0c-.29.13-.13.46-.13.46s.13.36.23.57a4.9,4.9,0,0,0,.35.57s.23.25.44.14a.29.29,0,0,0,.15-.25l.11,0,.2,0a1.52,1.52,0,1,0-.18-2.79"/><path class="cls-5" d="M53,45c-.17-.27-.06-.38-.06-.38a.26.26,0,0,1-.14-.05l-.55.28c-.1.06-.29.18-.32.31A1.63,1.63,0,0,0,53,45"/><path class="cls-5" d="M52.77,44.55c-.11-.09-.14-.16-.12-.26s0-.18.12-.23l-.1,0s-.3,0-.35,0a1.9,1.9,0,0,0-.91.41c.31.32,1,.22,1.36.12"/><path class="cls-5" d="M52.63,44a.42.42,0,0,1-.17-.32.38.38,0,0,1,.14-.33,4.45,4.45,0,0,0-1.81.14,1.67,1.67,0,0,0,1.3.49s.54,0,.54,0"/><path class="cls-5" d="M56.4,46.61c-.36,0-.58.29-.93.29a.84.84,0,0,1-.72-.38,1.43,1.43,0,0,1-.1-1.05l-1,.53c0,.21.3.26.3.26a.35.35,0,0,0,0,.36c.1.17.34.1.34.1s0,.36.14.5a.42.42,0,0,0,.43,0,.67.67,0,0,0,.21.51.41.41,0,0,0,.43,0s.08.26.21.32a.39.39,0,0,0,.41-.17.82.82,0,0,0,.37.52.55.55,0,0,0,.52-.07c.28-.21.11.11.08.19-.12.4-.26.78-.39,1.17a1.14,1.14,0,0,0,0,.94s.16.18.29.15c.11-.44.26-.87.38-1.31a5.19,5.19,0,0,0,.3-1.52,1.7,1.7,0,0,0-.32-1,.94.94,0,0,0-.87-.38"/><path class="cls-5" d="M53.8,46.31s-.14,0-.27-.27a1.62,1.62,0,0,0-.76.77.66.66,0,0,0,.44-.08,5.38,5.38,0,0,0,.55-.28.48.48,0,0,1,0-.14"/><path class="cls-5" d="M54.14,46.9a.33.33,0,0,1,0-.1.44.44,0,0,1-.27,0,.27.27,0,0,1-.14-.25c-.31.25-.78.72-.7,1.16a1.81,1.81,0,0,0,.87-.49,2.89,2.89,0,0,0,.21-.28"/><path class="cls-5" d="M54.31,47.3a.51.51,0,0,1-.16-.34s-.27.42-.3.45a1.61,1.61,0,0,0-.37,1.32,4.38,4.38,0,0,0,1.18-1.37.37.37,0,0,1-.35-.06"/><path class="cls-5" d="M55.19,47.9a.37.37,0,0,1-.31-.16.52.52,0,0,1-.15-.38s-.16.26-.17.26A2.9,2.9,0,0,0,54,49.39a2,2,0,0,0,.51-.46c.06,0,.66-1,.66-1"/><path class="cls-5" d="M55.37,48.86l.41-.69a.33.33,0,0,1-.29-.12.55.55,0,0,1-.1-.19.31.31,0,0,1-.12,0l-.26.42a4.61,4.61,0,0,0-.56,2,2.31,2.31,0,0,0,.33-.37c.17-.25.59-1,.59-1"/><path class="cls-5" d="M56.25,48.41A1,1,0,0,1,56,48a.34.34,0,0,1-.15.12c-.07.1-.49.89-.49.89-.33.61-.81,1.93-.59,2.29a5,5,0,0,0,.88-1.5Z"/><path class="cls-5" d="M56.4,50.09l.63-1.7a.59.59,0,0,1-.7.08s-.41,1-.64,1.57a3.91,3.91,0,0,0-.32,2.1,1.13,1.13,0,0,0,.35-.4,2.81,2.81,0,0,0,.18-.36Z"/><path class="cls-5" d="M56.43,50.31a8.56,8.56,0,0,0-.62,2,3.61,3.61,0,0,0,.26,1.23l.8-2.59s-.39,0-.44-.6"/><path class="cls-2" d="M38,33.19H32.7v11c0,1.36.56,2,1.73,2h1.75A2,2,0,0,1,38,47.67a1.91,1.91,0,0,1,1.79-1.53h1.76c1.16,0,1.73-.64,1.73-2v-11Z"/><path class="cls-6" d="M38,33.19H32.7v11c0,1.36.56,2,1.73,2h1.75A2,2,0,0,1,38,47.67a1.91,1.91,0,0,1,1.79-1.53h1.76c1.16,0,1.73-.64,1.73-2v-11Z"/><path class="cls-5" d="M35.84,43.72h-.29c0-.14-.11-.19-.12-.34,0-.53-.21-.32.3-1.31.48-.34.14-.36,1.29-1,.14.1.11.42,0,.54a.85.85,0,0,1,.06.17.86.86,0,0,0,.27.09c.22.19.16.1.78,1.1,0,0,0-.07,0-.11l.11.1-.09,0c0,.07,0,.17.06.17s-.25,0-.31.09a.38.38,0,0,0-.23.1c-.09,0-.13,0-.2.07.46-.19-1.35-2.33-1.66.21,0,0,0,0-.1,0s.13.06.13.14m2.56-1.13-.46-1.65a.94.94,0,0,0,.11-.4c.11,0,.23,0,.35,0a.76.76,0,0,1,.13.4c.09,0-.11.15,0,.42.18,0,.05,0,.37-.08,0,0,0,0,0,0,.27,0,.15,0,.5.44a2.87,2.87,0,0,0,.42.82c-.18,0,0,0-.14.25,0,0,0-.16.16-.11s0,0,0,0,0,.09,0,.13,0,0-.12.21c0,0,0-.05,0-.08s0,0,.14,0a.47.47,0,0,1,0,.18s-.09.05-.11.1a.31.31,0,0,0-.26.05s0,0,.13,0,0,.05,0,.1,0,0,0,0-.1,0-.14,0-.23-.2-.41-.18,0,0-.21,0t0,0c.07,0,0,0,.16,0s.1-.09.18-.1a.15.15,0,0,1,0,.08c0,.1.29-.13-.07-.24a1.64,1.64,0,0,0-.53.36c0-.08.07-.18,0-.25.12,0,.12-.2.27-.22s0,.08,0,.1c.14,0,0,0,.09-.25-.06,0,0-.05-.2,0s-.1-.07-.24.25c-.05,0,.1-.11-.09-.31h0s-.08,0-.13.05m-2.33-8.33c-.1.16-.06,0,.06.51-.07.13-.18.08-.14.51-.24.13-1.56-.1-1.34.76,0,0-.4.42,0,.65,0,.13-.16.19.1.38a.24.24,0,0,0,.42,0c.31-.14.2.82.65.25a.77.77,0,0,0,.34,0l.13.09c.12-.09,0-.1.34,0a.28.28,0,0,1,.23-.11l.1.37h-.08c0,.31.18.46.21.75a3.16,3.16,0,0,0-1.3.25c-.36-.68-1.83-.7-1.74,1a.17.17,0,0,0-.05.15.74.74,0,0,0,.18-.09,3.2,3.2,0,0,0,0,.89.76.76,0,0,0,.26-.42.87.87,0,0,1,0,.52c.07-.2.43-.1.59-.71,0,.2.07.44-.06.56a.36.36,0,0,0,.12-.08c.62.44-.4-2.23.61-1.55-.4.59.7,1.86-.28,2.94a2.38,2.38,0,0,1-.47,1.26s0,0,.05,0h0s0,0,0,0,0,0,.05,0,0,0-.05.31c-.34.26.15-1-.79-1,.72.16-.12,2.3,1.94,1.82v.13a.83.83,0,0,1-.27.17c.7-.16,2.23,1.33,3.29.23,0-.16.44.16.33-.44.07,0,0-.11.29-.13l.07,0s.08,0,.23,0,0,.14.45.22a.86.86,0,0,0,.1-.16c.39-.16,1.16.18,1.21-.58a1.63,1.63,0,0,1-.11.17s0,0,.09-.09c0,.08-.08.17-.12.18s.12-.26,0-.39a.35.35,0,0,1-.21.35s.05-.2,0-.24a.18.18,0,0,1-.07.15s0-.11,0-.12a.28.28,0,0,1-.18.21s0,0,0-.09,0,.06-.09.06,0-.09-.05-.11,0,.07-.06.09,0-.08-.05-.1,0,0,0,.06a.6.6,0,0,0-.13-.25c.07,0,0-.1.07-.13s0,0,.09,0,0-.07,0-.09,0,0,.06,0,0-.06,0-.09.05,0,.08-.06a.2.2,0,0,1,.13.14.5.5,0,0,0,0-.27s0,0,.07,0,.08.14.07.18,0-.14,0-.21.06.09.1.14c0-.33-.39-.24-.88.15,0-.09-.14-.13-.19-.23a.66.66,0,0,0,.08-.21s-.1,0-.12-.09a.18.18,0,0,0,0-.1s-.09,0-.13,0a13.71,13.71,0,0,0-.48-2s0,.13,0,0l.24.1c.17.05.69-.62,1.39-.76.14.16-.16.4-.31.88-.06,0,0,.1-.06.16-.28,0-.25-.3-.38.42h0c.28,0,0,0,.56-.1.43-.3.45-.66.66-1.69-.41-.49-.07-.29-1.49,0,.14-.34-.06-.22-.26-1.45h0c.14.07.14.11.41-.19-.05,0,.12.27.32.08,0,0,0,0,.06,0s0,0,.14,0c.37-.14.49-.2.14-1.45,0,0,.07,0,.06,0l.17,0c-.06-.12,0-.29-.08-.39l.12-.12a.78.78,0,0,0-.3-.07s0-.05-.26-.09c0-.07.11-.14.16-.22a1.61,1.61,0,0,0-.33,0s0,0-.26-.06-.24-.25-1,0a.24.24,0,0,1,.22.12c-.3,0-.2-.14-.68.16h0a.26.26,0,0,0-.17.18l.12,0c-.06.08-.4,0-.44.17.14,0,.08,0,.32,0-.18.07,0,0-.4.35a.94.94,0,0,0-.52-.71s0,0,0,0-.06,0,0-.2c.06,0,.1.06.21-.06.52.38.64-1.52-.54-.86.44-.49,1.55.64.55.85l.08-.07s0-.17.15-.2a1,1,0,0,0,0-.18.2.2,0,0,0,0-.17c0,.05,0,.13-.06.16s0-.16,0-.19a.22.22,0,0,1,0,.16s0-.05,0-.09,0,.05,0,.07-.06-.07-.12-.07,0,0,0,0c-.23,0-.4.3-.45.5,0,0-.2,0-.12-.21-.08.09-.22.12,0-.22-.11,0-.16.16-.22.26,0-.08-.16-.16.13-.36-.1,0,0,0-.2.12-.11-.1.06-.28.47-.41,0,0,0,0-.23.08h0c-.13,0-.52.45-.12.58,0,.13.13,0-.05.25a2.73,2.73,0,0,0-1.07-.51v-.1c.05-.11.09-.1-.1-.31,0,0,0,0,0,0s0,0-.14,0S36.29,34.64,36.07,34.26Z"/><path class="cls-7" d="M51.79,49.2c-.13,0-.16.28.08.17,0-.08.07-.08-.08-.17m0,.29s-.4-.25,0-.39C51.8,49,52.19,49.4,51.79,49.49Zm-2.52-5.11c.11,0,.11.1,0,0s-.13.41,0,0m0,.3c-.19.11-.28-.71.2-.21C49.47,44.58,49.48,44.48,49.27,44.68Zm7.57,6.18L56,53.47a4.17,4.17,0,0,1,.37-3.21c.05.64.44.6.44.6m-1,.48a1.92,1.92,0,0,1-.54.77c-.2-.78.34-2.27,1-3.69a.61.61,0,0,0,.71-.09C56.78,48.93,56.31,50.21,55.86,51.34Zm-.23-1.54a5.06,5.06,0,0,1-.89,1.5,5.82,5.82,0,0,1,1.09-3.21A.25.25,0,0,0,56,48a1.22,1.22,0,0,0,.24.37Zm-.9.05a2.51,2.51,0,0,1-.34.36,4.65,4.65,0,0,1,.83-2.38.31.31,0,0,0,.12,0s-.05.25.4.31c-.28.46-.31.53-1,1.74m-.26-1a2,2,0,0,1-.51.46,2.81,2.81,0,0,1,.55-1.77l.16-.27c0-.11,0,.52.47.55,0,0-.61,1-.67,1m.13-1.57a4.43,4.43,0,0,1-1.19,1.38,1.6,1.6,0,0,1,.38-1.34s.3-.45.3-.45-.09.42.51.41M53,47.61c-.07-.44.4-.92.72-1.17.08.09-.11.21.4.29a.31.31,0,0,0,0,.11,3.32,3.32,0,0,1-.22.27,1.88,1.88,0,0,1-.88.5m.71-1.23a1.79,1.79,0,0,1-1,.36,1.62,1.62,0,0,1,.78-.77c.12.3.27.27.27.27a.36.36,0,0,0-.05.14m3.56.55c.27.25.26.65.33,1-.1.71.16-.21-.7,2.84-1.25-.37,1.08-1.63-.87-2.92,0,0-.37.48-.63-.14.08-.12-.62.32-.64-.52.09-.12-.64.31-.58-.52.13,0-.62.08-.31-.47,0,0-.27,0-.31-.26l1.06-.53c0,.18-.17,2.15,1.76,1.14a1,1,0,0,1,.89.39m-8.91-8.47,2.6.89s-.26.3.23.71c-1.06-.57-1.32.28-2.83-1.6M51,40.82a4.12,4.12,0,0,1-1.92-1c1-.17,2.66.54,4.08.89-.41.15-.44.29-.49.52L51,40.82m-1.61,0a10.38,10.38,0,0,1,3.28.57,1,1,0,0,0,.16.4.27.27,0,0,0-.18,0,6.57,6.57,0,0,1-3.26-1M52,42.39a4.85,4.85,0,0,1-1.94-.7,12,12,0,0,1,2.51.17s-.14.18,0,.49l-.09.09Zm.3.78a3,3,0,0,1-1.77-.61,1.9,1.9,0,0,1,.68-.14c.08,0,1.23.08,1.23.08s-.25.36.17.69Zm-.26.7a1.68,1.68,0,0,1-1.31-.49,4.6,4.6,0,0,1,1.84-.14c-.07.13-.31.23,0,.65,0,0-.5,0-.55,0m-.69.48a1.73,1.73,0,0,1,1.29-.42s.06,0,.09,0-.26.12,0,.49c-.38.11-1.06.2-1.38-.12m.54.75c.14-.16-.1-.11.88-.6a.43.43,0,0,0,.14.06s-.1.1.07.37a1.63,1.63,0,0,1-1.09.17M51,39.7s0-.24,0-.32a17.77,17.77,0,0,1,2.72,1.12c-.05.3,1,.28.41,1.79,0,.34-2.1.81-.11,2.08-.36.19-1,.47-1.06.53-.15-.15,0-.4,0-.4s-.63-.08-.19-.52c.19.06-.7-.39-.08-.77.19.08-.67-.45-.05-.82.16,0-.54-.41.26-.6-.32-1.41.78-.7-1.92-2.09m-.52,13.66-.64,1.33L49,54.3l.44-.91a4.32,4.32,0,0,0,1,0m.63-.2-.17.35-.38-.17a3.23,3.23,0,0,0,.55-.18m-5.37.89,1-2a6.54,6.54,0,0,0,1.45,1l-.84,1.78Zm-.35,1.57-2-.95c.2-.06.14,0,.91-.43l1.48.69Zm-8.5-.21a2.71,2.71,0,0,1-2.37-.25l3.19-1.58.54.25a2.94,2.94,0,0,1-1.36,1.58M37,53.26l-2.63,1.33a3,3,0,0,1,1.38-1.91ZM41.06,49a3,3,0,0,1,3.16.64l-4.38,2.23c.11-1.1.4-2.51,1.22-2.87m-1,3.48,4.58-2.27c.18,2-1.53,4.52-4.58,2.27M21.92,47.32h-.33c.14.52-1.73,1.12-1.23-.51a2,2,0,0,1,1.5-3.29c.07-.53,1.61-.73,1.26.62a2,2,0,0,1-1.2,3.18M58.21,42.9a1.63,1.63,0,0,0-2.89.39c-.47.37-.58.68-.55.92l-9,4.59c-.89-.76.57-8.88,2.75-3.22,0-.16.15-2.14.71.27a1.38,1.38,0,0,1,.49-.81c0-4.27-6.95-3.26-5.47,3-2.75-1.73-5.61.28-5.77,3.53a4.8,4.8,0,0,0-2.4-.23L25.73,46.52h0l-.53-.23.72-1.5c-.1,0-.3-.12-.77-.35h0a1.27,1.27,0,0,0-.67-.86c.1-.3.14-.13-.42-1,.29-.55-.48-2.21-1.73-.81-.48-.24,0-.11-1,.31-.4-.1-1.39-.16-1.95,1.22,0,0-1.55,0-.75,1.6-.42.65-.66,1.1.29,2.26-.1.29-.14.14.43,1-.29.54.47,2.19,1.73.8.47.24,0,.11,1-.31a1.32,1.32,0,0,0,1.1,0v0l.76.36.66-1.39,9.79,4.53a4.07,4.07,0,0,0-1.16,2.35c-1.14-1.76-6.56-.41-5,2.55.21-1,1.68-3.48,4.52-1.56-10.11,5-3.06,2.43.32.45-.15.83-.23,4.25-3.94,2.87.71,1.87,5.39,1.57,5-2.45,2.87,1.07,3.81.38,5.22-1.9l9.18,4.25c-.05,0,1.6.09.59-1.24,0,0,0,0,0,0h0s-.36-.18-1-.47l.33-.69,1.54.71,1.7-3.6-.47-.22c1.25-.26,2.36-4,.32-4.43a1.36,1.36,0,0,1-.94-.09c.17.47,1.43,1.8-.2.73,3.39,4.42-3.9,2.13-4.39.15l9.12-4.52c.17.17.45.23,1.05.06.75.14,2.48,0,2-2.1"/><path class="cls-8" d="M102.65,29.15a7.45,7.45,0,0,1-2.74-.71,4.63,4.63,0,0,1-1.71-1.5,6,6,0,0,1-.89-2.24,15.06,15.06,0,0,1-.26-2.91,13,13,0,0,1,.28-2.8,6.36,6.36,0,0,1,.94-2.24A5,5,0,0,1,100,15.19a6.79,6.79,0,0,1,2.64-.73v-.9h2.71v.9a7.08,7.08,0,0,1,2.64.72,5.07,5.07,0,0,1,1.73,1.51,6.16,6.16,0,0,1,1,2.19,13.05,13.05,0,0,1,.29,2.84,14.51,14.51,0,0,1-.27,2.92,6.45,6.45,0,0,1-.9,2.26,4.77,4.77,0,0,1-1.73,1.53,7.25,7.25,0,0,1-2.72.72v1.42h-2.71Zm0-12.15a2.45,2.45,0,0,0-2.2,1.4,7.78,7.78,0,0,0-.61,3.32,13.81,13.81,0,0,0,.14,2,5.14,5.14,0,0,0,.45,1.52,2.38,2.38,0,0,0,.87,1,2.87,2.87,0,0,0,1.35.41Zm2.76,9.65a2.48,2.48,0,0,0,2.24-1.35,8.5,8.5,0,0,0,.6-3.61,7.41,7.41,0,0,0-.63-3.32A2.48,2.48,0,0,0,105.38,17Z"/><path class="cls-8" d="M113,30.57v-17h9.46v2.59h-6.67v4.54h5.74v2.54h-5.74v4.7h6.67v2.64Z"/><path class="cls-8" d="M126.1,34.06h-2.41V28.27l.61-.11.61-.14a3.47,3.47,0,0,0,.84-1.07,6.29,6.29,0,0,0,.49-1.5,15.77,15.77,0,0,0,.26-2.11c0-.8.08-1.75.12-2.84l.24-6.94h9.39q0,3.63,0,7.26t0,7.25h1.34v6h-2.42V30.57H126.1Zm7.41-6v-12h-4.2l-.2,5.11c0,.73-.07,1.44-.1,2.12s-.08,1.32-.16,1.91a11.41,11.41,0,0,1-.3,1.6,4.09,4.09,0,0,1-.54,1.23Z"/><path class="cls-8" d="M139.45,30.57v-17h9.45v2.59h-6.67v4.54H148v2.54h-5.74v4.7h6.67v2.64Z"/><path class="cls-8" d="M161.05,18.81a6.48,6.48,0,0,1-.32,2.05,4.89,4.89,0,0,1-.94,1.67,4.34,4.34,0,0,1-1.58,1.11A5.61,5.61,0,0,1,156,24H153.5v6.53h-2.79v-17h5.13a6.52,6.52,0,0,1,2.15.32,4.34,4.34,0,0,1,1.64,1,4.14,4.14,0,0,1,1.05,1.64A6.59,6.59,0,0,1,161.05,18.81Zm-2.76-.06a2.79,2.79,0,0,0-.61-1.93,2.39,2.39,0,0,0-1.86-.67H153.5V21.4h2.34a2.28,2.28,0,0,0,1.85-.72A2.89,2.89,0,0,0,158.29,18.75Z"/><path class="cls-8" d="M169.18,26.9h-4.71c0,.15-.1.39-.2.73s-.2.71-.3,1.1-.21.76-.3,1.1-.15.59-.2.74h-2.91l4.91-17h2.69l4.93,17h-3ZM166,21l-.88,3.42h3.47l-.86-3.4c0-.15-.08-.39-.16-.73s-.15-.7-.24-1.08-.17-.73-.26-1.06a5,5,0,0,1-.14-.72h-.12Z"/><path class="cls-8" d="M179.11,22.45A25.45,25.45,0,0,1,178.9,26a7.78,7.78,0,0,1-.74,2.49,4.23,4.23,0,0,1-1.4,1.61,6,6,0,0,1-2.2.87l-.76-2.17a5,5,0,0,0,1.31-.75,3.06,3.06,0,0,0,.84-1.09,5.54,5.54,0,0,0,.46-1.63,20.42,20.42,0,0,0,.13-2.45V13.56h9.19v17H183V16.15h-3.86Z"/><path class="cls-8" d="M198.78,25.3a5.22,5.22,0,0,1-1.38,3.93,5.23,5.23,0,0,1-3.78,1.34h-5.25v-17h2.81v6.69h2.44a6.35,6.35,0,0,1,2.31.38,4.53,4.53,0,0,1,1.6,1,4.14,4.14,0,0,1,.94,1.6A6.55,6.55,0,0,1,198.78,25.3Zm-2.81.08a2.71,2.71,0,0,0-.58-1.83,2.38,2.38,0,0,0-1.89-.66h-2.35V28h2.37a2.28,2.28,0,0,0,1.86-.71A2.89,2.89,0,0,0,196,25.38Z"/><path class="cls-8" d="M208.09,30.57V23.21H203.3v7.36h-2.81v-17h2.81v7.13h4.79V13.56h2.78v17Z"/><path class="cls-8" d="M221.11,26.9h-4.72c0,.15-.09.39-.19.73l-.31,1.1c-.1.39-.2.76-.29,1.1s-.16.59-.21.74h-2.91l4.92-17h2.68l4.94,17h-3ZM217.88,21,217,24.41h3.47l-.85-3.4c0-.15-.09-.39-.16-.73s-.15-.7-.24-1.08L219,18.14q-.12-.5-.15-.72h-.12Z"/><path class="cls-8" d="M237.09,13.56v17h-2.81V23.36h-1.51a2.42,2.42,0,0,0-1.54.55,3.65,3.65,0,0,0-1.1,2.06l-1,4.6h-2.91l1.15-5.09a6.62,6.62,0,0,1,.66-1.71,2.45,2.45,0,0,1,1.27-1.07,3.22,3.22,0,0,1-1.93-1.6,5.6,5.6,0,0,1-.56-2.48,6.12,6.12,0,0,1,.35-2.12,4.67,4.67,0,0,1,1-1.6,4.31,4.31,0,0,1,1.56-1,5.56,5.56,0,0,1,2-.34Zm-7.5,5.1a1.87,1.87,0,0,0,.72,1.7,3.18,3.18,0,0,0,1.8.48h2.17V16.12H232a2.31,2.31,0,0,0-1.84.69A2.69,2.69,0,0,0,229.59,18.66Z"/><path class="cls-8" d="M105.11,55V47.65h-4.79V55H97.51V38h2.81v7.14h4.79V38h2.79V55Z"/><path class="cls-8" d="M118.14,51.34h-4.72c0,.14-.1.39-.19.73s-.2.71-.31,1.1-.2.76-.29,1.1-.16.59-.21.73h-2.91l4.91-17h2.69l4.94,17h-3Zm-3.23-5.92L114,48.84h3.47l-.85-3.39c0-.15-.09-.39-.16-.74s-.16-.7-.25-1.07L116,42.58q-.12-.51-.15-.72h-.12Z"/><path class="cls-8" d="M128.06,46.89a25.45,25.45,0,0,1-.21,3.51,7.87,7.87,0,0,1-.73,2.49,4.33,4.33,0,0,1-1.41,1.61,6,6,0,0,1-2.2.87l-.75-2.18a5.16,5.16,0,0,0,1.3-.74,3.31,3.31,0,0,0,.85-1.09,5.54,5.54,0,0,0,.45-1.64,18.36,18.36,0,0,0,.13-2.44V38h9.19V55h-2.76V40.58h-3.86Z"/><path class="cls-8" d="M147.44,49.85a6.06,6.06,0,0,1-.38,2.19A4.67,4.67,0,0,1,146,53.72a4.59,4.59,0,0,1-1.65,1.06,5.65,5.65,0,0,1-2.1.37,5.76,5.76,0,0,1-2.39-.45,4.32,4.32,0,0,1-1.63-1.23,4.92,4.92,0,0,1-.91-1.78,7.53,7.53,0,0,1-.3-2.14V43.13a6.58,6.58,0,0,1,.28-1.84,4.8,4.8,0,0,1,2.52-2.93,5.4,5.4,0,0,1,2.43-.49,5.33,5.33,0,0,1,2.32.47,4.89,4.89,0,0,1,1.63,1.21,4.75,4.75,0,0,1,.95,1.68,6.24,6.24,0,0,1,.31,1.9Zm-2.84-6.77a2.71,2.71,0,0,0-.11-.74,2.44,2.44,0,0,0-.38-.82,2.35,2.35,0,0,0-.72-.68,2.14,2.14,0,0,0-1.16-.28,2.45,2.45,0,0,0-1.18.26,2.27,2.27,0,0,0-.76.63,2.5,2.5,0,0,0-.4.82,2.92,2.92,0,0,0-.13.84l0,6.51a3.64,3.64,0,0,0,.56,2.06,2.14,2.14,0,0,0,1.91.83,2.37,2.37,0,0,0,1.65-.65,2.31,2.31,0,0,0,.69-1.78Z"/><path class="cls-8" d="M152.52,40.58V55h-2.79V38h9.36v2.59Z"/><path class="cls-8" d="M170.85,49.85a6.06,6.06,0,0,1-.38,2.19,4.81,4.81,0,0,1-1.08,1.68,4.59,4.59,0,0,1-1.65,1.06,5.65,5.65,0,0,1-2.1.37,5.76,5.76,0,0,1-2.39-.45,4.32,4.32,0,0,1-1.63-1.23,4.92,4.92,0,0,1-.91-1.78,7.53,7.53,0,0,1-.3-2.14V43.13a6.58,6.58,0,0,1,.28-1.84,4.8,4.8,0,0,1,2.52-2.93,5.4,5.4,0,0,1,2.43-.49,5.33,5.33,0,0,1,2.32.47,4.89,4.89,0,0,1,1.63,1.21,4.75,4.75,0,0,1,.95,1.68,6.24,6.24,0,0,1,.31,1.9ZM168,43.08a3.16,3.16,0,0,0-.11-.74,2.44,2.44,0,0,0-.38-.82,2.35,2.35,0,0,0-.72-.68,2.14,2.14,0,0,0-1.16-.28,2.45,2.45,0,0,0-1.18.26,2.27,2.27,0,0,0-.76.63,2.74,2.74,0,0,0-.41.82,3.27,3.27,0,0,0-.12.84l0,6.51a3.57,3.57,0,0,0,.56,2.06,2.14,2.14,0,0,0,1.91.83,2.37,2.37,0,0,0,1.65-.65,2.31,2.31,0,0,0,.69-1.78Z"/><path class="cls-8" d="M183.43,50a5.05,5.05,0,0,1-1.31,3.74,4.77,4.77,0,0,1-3.5,1.29h-5.48V38h5.21A4.86,4.86,0,0,1,182,39.24a4.69,4.69,0,0,1,1.21,3.4,4.3,4.3,0,0,1-.46,2,3.22,3.22,0,0,1-1.62,1.44v.12a3,3,0,0,1,1,.57,3.32,3.32,0,0,1,.72.9,4.11,4.11,0,0,1,.42,1.11A6.14,6.14,0,0,1,183.43,50Zm-3-7.24a2.25,2.25,0,0,0-.55-1.61,2.34,2.34,0,0,0-1.77-.58h-2.2V45h2.22a2.21,2.21,0,0,0,1.75-.62A2.37,2.37,0,0,0,180.45,42.73Zm.24,7.08a2.71,2.71,0,0,0-.53-1.74,2.16,2.16,0,0,0-1.79-.67h-2.44v5h2.47a2.75,2.75,0,0,0,1.1-.19,1.79,1.79,0,0,0,.71-.56,2.2,2.2,0,0,0,.37-.82A3.93,3.93,0,0,0,180.69,49.81Z"/><path class="cls-8" d="M192.86,51.34h-4.71c0,.14-.1.39-.2.73s-.2.71-.3,1.1-.21.76-.3,1.1-.16.59-.21.73h-2.9l4.91-17h2.69l4.93,17h-3Zm-3.22-5.92-.88,3.42h3.47l-.86-3.39c0-.15-.08-.39-.16-.74s-.15-.7-.24-1.07-.18-.73-.26-1.06a5.61,5.61,0,0,1-.14-.72h-.13Z"/><path class="cls-8" d="M208.84,38V55H206V47.79h-1.51a2.48,2.48,0,0,0-1.54.55,3.78,3.78,0,0,0-1.1,2.07l-1,4.59h-2.91l1.15-5.08a7.43,7.43,0,0,1,.66-1.71A2.47,2.47,0,0,1,201,47.13a3.18,3.18,0,0,1-1.93-1.6,5.54,5.54,0,0,1-.56-2.48,5.87,5.87,0,0,1,.36-2.11,4.44,4.44,0,0,1,1-1.6,4.15,4.15,0,0,1,1.55-1,5.56,5.56,0,0,1,2-.35Zm-7.5,5.11a1.88,1.88,0,0,0,.72,1.7,3.18,3.18,0,0,0,1.8.48H206V40.56h-2.24a2.34,2.34,0,0,0-1.85.68A2.74,2.74,0,0,0,201.34,43.1Z"/><path class="cls-8" d="M226.85,51.39a4.62,4.62,0,0,1-1.76,2.77,5.32,5.32,0,0,1-3.25,1,5.74,5.74,0,0,1-2.29-.42,4.42,4.42,0,0,1-1.64-1.15,4.57,4.57,0,0,1-1-1.72,7,7,0,0,1-.32-2.14V43.13a6.24,6.24,0,0,1,.32-2,4.75,4.75,0,0,1,1-1.69,4.89,4.89,0,0,1,1.62-1.17,5.68,5.68,0,0,1,2.32-.44A5,5,0,0,1,225.18,39a5.09,5.09,0,0,1,1.7,2.69l-2.67.88a2.83,2.83,0,0,0-.24-.71,2.36,2.36,0,0,0-.47-.63,2.4,2.4,0,0,0-.71-.45,2.52,2.52,0,0,0-.95-.17,2.47,2.47,0,0,0-1.09.22,2.36,2.36,0,0,0-.74.57,2.51,2.51,0,0,0-.44.8,2.67,2.67,0,0,0-.15.88V49.8a3.45,3.45,0,0,0,.15,1,2.52,2.52,0,0,0,.45.86,2.27,2.27,0,0,0,.76.57,2.47,2.47,0,0,0,1.06.21,2.36,2.36,0,0,0,1.54-.51,2.31,2.31,0,0,0,.81-1.42Z"/><path class="cls-8" d="M233,46.89a25.45,25.45,0,0,1-.21,3.51,7.87,7.87,0,0,1-.73,2.49,4.33,4.33,0,0,1-1.41,1.61,6,6,0,0,1-2.2.87l-.75-2.18a5.16,5.16,0,0,0,1.3-.74,3.18,3.18,0,0,0,.85-1.09,5.54,5.54,0,0,0,.45-1.64,18.36,18.36,0,0,0,.13-2.44V38h9.19V55h-2.76V40.58H233Z"/><path class="cls-8" d="M250.43,44.73c-.68,2.22-1.39,4.46-2.12,6.7a10,10,0,0,1-.83,1.92,4.22,4.22,0,0,1-.93,1.1,2.67,2.67,0,0,1-1.05.5,7.66,7.66,0,0,1-1.23.15h-1.36V52.8h1a1.49,1.49,0,0,0,.89-.27,2.56,2.56,0,0,0,.72-1.05,2.34,2.34,0,0,1,.12-.3,1.9,1.9,0,0,0,.12-.36L241.34,38h2.89l1.61,5.25,1.22,4h.12c.13-.46.32-1.1.55-1.93s.49-1.71.75-2.63l.75-2.66q.38-1.29.57-2h2.73C251.82,40.27,251.12,42.5,250.43,44.73Z"/><path class="cls-8" d="M261.53,55V47.62H260a.68.68,0,0,0-.23.05,2.08,2.08,0,0,0-1.36.62,4.34,4.34,0,0,0-.87,1.87L256.3,55h-2.86l1.41-5.55a7,7,0,0,1,.87-2.06,3,3,0,0,1,1.55-1.16v0a3.12,3.12,0,0,1-1.35-1.09,5.49,5.49,0,0,1-.89-2.06q-.34-1.24-.66-2.49c-.22-.83-.43-1.67-.64-2.52h2.66l1.25,4.69a4.38,4.38,0,0,0,.5,1.24,2.64,2.64,0,0,0,.66.73,2.35,2.35,0,0,0,.75.36,3.33,3.33,0,0,0,.75.09h1.23V38h2.81v7.16h1.17a3.75,3.75,0,0,0,.82-.09,2.3,2.3,0,0,0,.76-.36,2.45,2.45,0,0,0,.64-.73,4.39,4.39,0,0,0,.49-1.24c.08-.26.18-.6.29-1s.23-.86.35-1.32.22-.89.33-1.31.2-.76.28-1h2.66c-.21.85-.43,1.69-.65,2.52s-.43,1.66-.64,2.49a4.41,4.41,0,0,1-1.74,2.84,1.16,1.16,0,0,1-.51.31,2.93,2.93,0,0,1,1.55,1.18,6.83,6.83,0,0,1,.87,2.07L272.42,55h-2.85c-.2-.81-.4-1.62-.59-2.42s-.4-1.6-.61-2.42a5.28,5.28,0,0,0-.47-1.24,2.62,2.62,0,0,0-.61-.78,1.94,1.94,0,0,0-.74-.41,3.45,3.45,0,0,0-.87-.11h-1.34V55Z"/><path class="cls-8" d="M276.9,44.74h2.44a6.18,6.18,0,0,1,2.31.38,4.4,4.4,0,0,1,1.6,1,4.09,4.09,0,0,1,.94,1.57,6.44,6.44,0,0,1,.31,2A4.71,4.71,0,0,1,279.36,55h-5.27V38h9v2.59H276.9Zm0,7.67h2.34a2.26,2.26,0,0,0,1.87-.7,2.88,2.88,0,0,0,.58-1.89,2.74,2.74,0,0,0-.58-1.82,2.35,2.35,0,0,0-1.89-.67H276.9Z"/><path class="cls-8" d="M293.73,51.34H289c0,.14-.1.39-.2.73s-.2.71-.3,1.1-.21.76-.3,1.1-.16.59-.21.73h-2.9L290,38h2.69l4.93,17h-2.95Zm-3.22-5.92-.88,3.42h3.47l-.86-3.39c0-.15-.08-.39-.16-.74s-.15-.7-.24-1.07-.18-.73-.26-1.06a5.61,5.61,0,0,1-.14-.72h-.13Z"/><path class="cls-8" d="M104.93,69.87a4.87,4.87,0,0,1-1.08,3.35,3.78,3.78,0,0,1-3,1.22,3.84,3.84,0,0,1-3-1.2,4.91,4.91,0,0,1-1.06-3.38,4.81,4.81,0,0,1,1.07-3.36,3.84,3.84,0,0,1,3-1.2,3.79,3.79,0,0,1,3,1.22A4.85,4.85,0,0,1,104.93,69.87Zm-7.08,0a4.26,4.26,0,0,0,.77,2.74,2.73,2.73,0,0,0,2.23.93,2.69,2.69,0,0,0,2.23-.93,5.34,5.34,0,0,0,0-5.46,2.71,2.71,0,0,0-2.22-.92,2.74,2.74,0,0,0-2.24.93A4.17,4.17,0,0,0,97.85,69.87Z"/><path class="cls-8" d="M110.17,65.32h1v1.09h.42a3.74,3.74,0,0,1,1.8.41A2.87,2.87,0,0,1,114.61,68a3.84,3.84,0,0,1,0,3.51,2.82,2.82,0,0,1-1.24,1.18,4.1,4.1,0,0,1-1.85.4h-.25v1.36h-1V73.08h-.27a4.1,4.1,0,0,1-1.85-.4,3,3,0,0,1-1.23-1.2,3.56,3.56,0,0,1-.44-1.76,3.43,3.43,0,0,1,.41-1.71A2.83,2.83,0,0,1,108,66.83a3.7,3.7,0,0,1,1.81-.42h.4Zm0,2h-.34a2.32,2.32,0,0,0-1.74.64,2.36,2.36,0,0,0-.64,1.75,2.49,2.49,0,0,0,.68,1.86,2.6,2.6,0,0,0,1.9.66h.14Zm1,4.91h.15a2.58,2.58,0,0,0,1.9-.67,2.47,2.47,0,0,0,.67-1.85,2.4,2.4,0,0,0-.62-1.76,2.36,2.36,0,0,0-1.75-.63h-.35Z"/><path class="cls-8" d="M116.73,65.44h1v4.94c0,.91,0,1.73-.08,2.47h0l5-7.41h1.13v8.88h-1V69.43c0-.81,0-1.66.11-2.56h-.06l-5,7.45h-1.13Z"/><path class="cls-8" d="M132.65,73.39h1v3.24h-1V74.32H126V65.44h1v8h4.56v-8h1Z"/><path class="cls-8" d="M135.2,65.44h1v4.94c0,.91,0,1.73-.08,2.47h0l5-7.41h1.13v8.88h-1V69.43c0-.81,0-1.66.1-2.56h-.05l-5,7.45H135.2Z"/><path class="cls-8" d="M150.39,74.32l-1.1-2.82h-3.56l-1.09,2.82h-1l3.51-8.91H148l3.49,8.91ZM149,70.57l-1-2.75c-.13-.35-.27-.78-.41-1.28-.09.38-.22.81-.38,1.28l-1,2.75Z"/><path class="cls-8" d="M159.74,74.32h-1v-8h-2.88l-.19,1.46c-.25,1.94-.47,3.35-.66,4.25a4.11,4.11,0,0,1-.74,1.87,1.5,1.5,0,0,1-1.23.52,2,2,0,0,1-.8-.15v-.87a1.48,1.48,0,0,0,.68.16.72.72,0,0,0,.56-.27,2.26,2.26,0,0,0,.43-.91c.12-.44.28-1.26.47-2.48s.39-2.72.62-4.5h4.77Z"/><path class="cls-8" d="M168.12,71.73a2.32,2.32,0,0,1-.82,1.91,3.56,3.56,0,0,1-2.35.68H162V65.44h1v3.79h1.77a4.11,4.11,0,0,1,2.47.64A2.18,2.18,0,0,1,168.12,71.73ZM163,73.43h1.81c1.48,0,2.22-.57,2.22-1.7a1.35,1.35,0,0,0-.57-1.2,3.3,3.3,0,0,0-1.82-.39H163Z"/><path class="cls-8" d="M176.56,74.32h-1V70.14h-4.68v4.18h-1V65.44h1v3.78h4.68V65.44h1Z"/><path class="cls-8" d="M178.82,74.32V65.44h1v3.79h1.45a4,4,0,0,1,2.42.63,2.17,2.17,0,0,1,.83,1.87,2.37,2.37,0,0,1-.78,1.92,3.45,3.45,0,0,1-2.3.67Zm1-.88h1.5A2.49,2.49,0,0,0,183,73a1.57,1.57,0,0,0,.51-1.28,1.36,1.36,0,0,0-.54-1.2,3.17,3.17,0,0,0-1.76-.38h-1.33Zm7.14.88h-1V65.44h1Z"/><path class="cls-8" d="M189.25,65.44h1v4.94c0,.91,0,1.73-.08,2.47h0l5-7.41h1.13v8.88h-1V69.43c0-.81,0-1.66.1-2.56h0l-5,7.45h-1.13Zm3.68-.71a2.55,2.55,0,0,1-1.64-.43,2,2,0,0,1-.57-1.43h.95a1.26,1.26,0,0,0,.33.88,1.46,1.46,0,0,0,1,.25,1.33,1.33,0,0,0,.92-.27,1.23,1.23,0,0,0,.37-.86h1a1.94,1.94,0,0,1-.62,1.41A2.55,2.55,0,0,1,192.93,64.73Z"/><path class="cls-8" d="M205.75,66.24a2.91,2.91,0,0,0-2.31,1,4,4,0,0,0-.84,2.67,4,4,0,0,0,.81,2.69,2.9,2.9,0,0,0,2.33,1,8.07,8.07,0,0,0,2.12-.34v.91a6.52,6.52,0,0,1-2.28.34,3.82,3.82,0,0,1-3-1.19,4.89,4.89,0,0,1-1.07-3.38,5.31,5.31,0,0,1,.51-2.4,3.78,3.78,0,0,1,1.49-1.6,4.48,4.48,0,0,1,2.28-.55,5.51,5.51,0,0,1,2.44.51l-.44.88A4.77,4.77,0,0,0,205.75,66.24Z"/><path class="cls-8" d="M215.78,74.32l-1.11-2.82h-3.56L210,74.32H209l3.51-8.91h.87l3.49,8.91Zm-1.43-3.75-1-2.75a12.86,12.86,0,0,1-.42-1.28,11.6,11.6,0,0,1-.38,1.28l-1,2.75Z"/><path class="cls-8" d="M218.21,65.44h1v4.94c0,.91,0,1.73-.09,2.47h0l5-7.41h1.13v8.88h-1V69.43c0-.81,0-1.66.1-2.56h0l-5,7.45h-1.13Zm3.68-.71a2.53,2.53,0,0,1-1.64-.43,2,2,0,0,1-.57-1.43h.95a1.26,1.26,0,0,0,.33.88,1.46,1.46,0,0,0,1,.25,1.33,1.33,0,0,0,.92-.27,1.28,1.28,0,0,0,.37-.86h1a1.94,1.94,0,0,1-.62,1.41A2.55,2.55,0,0,1,221.89,64.73Z"/><path class="cls-8" d="M230.51,74.32h-1v-8h-2.81v-.92h6.65v.92h-2.81Z"/></g></g></svg>