<?xml version="1.0" encoding="UTF-8" standalone="no"?>
<svg version = "1.1"
     baseProfile="full"
     xmlns = "http://www.w3.org/2000/svg"     
     height = "128px" width = "200px">

<!-- <g stroke="pink" stroke-width="0.5">
        <rect x="0" y="0" height="128" width="200" fill="none"/>
	</g> -->

    <g stroke="black" stroke-width="1.5">
        <circle cx="64px" cy="48px" r="44px" fill="yellow" fill-opacity="0.5"/> <!--  центр отверстия X=64  Y = 48  -->
        <circle cx="64px" cy="48px" r="36px" fill="blue" fill-opacity="0.3"/>
        <rect x="120" y="4" height="88" width="70" fill="yellow" fill-opacity="0.5"/>
        <rect x="120" y="12" height="72" width="70" fill="blue" fill-opacity="0.3"/>
	</g>    
    <g stroke="red" stroke-width="1px">
		<line x1="20" y1="56" x2="20" y2="125"/>    <!-- вертикальная левая размера D -->
		<line x1="108" y1="56" x2="108" y2="125"/>  <!-- вертикальная правая размера D -->
		<line x1="20" y1="122" x2="108" y2="122"/>  <!-- горизонтальная размера D -->

		<line x1="28" y1="55" x2="28" y2="111"/>
		<line x1="100" y1="55" x2="100" y2="111"/>
		<line x1="9" y1="108" x2="100" y2="108"/>

		<line x1="120" y1="92" x2="120" y2="125"/>  <!-- вертикальная левая размера L -->
		<line x1="190" y1="92" x2="190" y2="125"/>  <!-- вертикальная правая размера L -->
		<line x1="120" y1="122" x2="190" y2="122"/>   <!-- горизонтальная размера L -->
    </g>
    <g font-family="monospace" font-size="14" fill="blue">	
        <text x="65" y="120" style="font-size:15">D</text>
		<text x="10" y="106" style="font-size:15">t</text>
		<text x="50" y="106" style="font-size:15">d</text>
        <text x="150" y="120" style="font-size:15">L</text>
    </g>
</svg>