<svg width="160" height="40" viewBox="0 0 160 40" fill="none" xmlns="http://www.w3.org/2000/svg">
<path d="M52.7996 27.5003L49.6996 30.6003C49.4996 30.8003 49.1996 30.9003 48.9996 30.9003H38.4996C38.1996 30.9003 37.8996 31.2003 37.8996 31.5003V37.3003C37.8996 37.6003 37.5996 37.9003 37.2996 37.9003H34.1996C33.8996 37.9003 33.5996 37.6003 33.5996 37.3003V13.6003C33.5996 13.3003 33.6996 13.1003 33.8996 12.9003L35.5996 11.2003L37.1996 9.60029C37.3996 9.40029 37.6996 9.30029 37.8996 9.30029H48.8996C49.1996 9.30029 49.4996 9.60029 49.4996 9.90029V12.3003C49.4996 12.6003 49.7996 12.9003 50.0996 12.9003H52.4996C52.7996 12.9003 53.0996 13.2003 53.0996 13.5003V26.8003C53.0996 27.0003 52.9996 27.3003 52.7996 27.5003ZM48.6996 25.5003V14.5003C48.6996 13.9003 48.1996 13.5003 47.6996 13.5003H38.8996C38.2996 13.5003 37.8996 14.0003 37.8996 14.5003V25.5003C37.8996 26.1003 38.3996 26.5003 38.8996 26.5003H47.6996C48.2996 26.6003 48.6996 26.1003 48.6996 25.5003Z" fill="#333A4D"/>
<path d="M91.5998 27.3003H90.6998C90.3998 27.3003 90.0998 27.6003 90.0998 27.9003V30.3003C90.0998 30.6003 89.7998 30.9003 89.4998 30.9003H75.4998C75.1998 30.9003 74.8998 30.6003 74.8998 30.3003V27.9003C74.8998 27.6003 74.5998 27.3003 74.2998 27.3003H73.3998C73.0998 27.3003 72.7998 27.0003 72.7998 26.7003V13.5003C72.7998 13.2003 73.0998 12.9003 73.3998 12.9003H74.2998C74.5998 12.9003 74.8998 12.6003 74.8998 12.3003V9.90029C74.8998 9.60029 75.1998 9.30029 75.4998 9.30029H89.4998C89.7998 9.30029 90.0998 9.60029 90.0998 9.90029V12.3003C90.0998 12.6003 90.3998 12.9003 90.6998 12.9003H91.5998C91.8998 12.9003 92.1998 13.2003 92.1998 13.5003V26.7003C92.1998 27.1003 91.8998 27.3003 91.5998 27.3003ZM87.8998 25.6003V14.6003C87.8998 14.0003 87.3998 13.6003 86.8998 13.6003H78.0998C77.4998 13.6003 77.0998 14.1003 77.0998 14.6003V25.6003C77.0998 26.2003 77.5998 26.6003 78.0998 26.6003H86.8998C87.3998 26.6003 87.8998 26.1003 87.8998 25.6003Z" fill="#333A4D"/>
<path d="M115.199 34.1002L111.599 37.7002C111.499 37.8002 111.299 37.9002 111.199 37.9002H98.6994C98.3994 37.9002 98.0994 37.6002 98.0994 37.3002V34.2002C98.0994 33.9002 98.3994 33.6002 98.6994 33.6002H110.499C110.799 33.6002 111.099 33.3002 111.099 33.0002V31.5002C111.099 31.2002 110.799 30.9002 110.499 30.9002H98.4994C98.2994 30.9002 98.0994 30.8002 97.9994 30.6002L95.9994 27.4002C95.8994 27.3002 95.8994 27.2002 95.8994 27.1002V13.4002C95.8994 13.1002 96.1994 12.8002 96.4994 12.8002H97.3994C97.6994 12.8002 97.9994 12.5002 97.9994 12.2002V9.8002C97.9994 9.5002 98.2994 9.2002 98.5994 9.2002H111.099C111.299 9.2002 111.399 9.3002 111.499 9.4002L115.099 12.6002C115.199 12.7002 115.299 12.9002 115.299 13.1002V33.6002C115.399 33.8002 115.299 34.0002 115.199 34.1002ZM111.399 26.0002V14.2002C111.399 13.9002 111.099 13.6002 110.799 13.6002H101.199C100.899 13.6002 100.599 13.9002 100.599 14.2002V26.0002C100.599 26.3002 100.899 26.6002 101.199 26.6002H110.799C111.199 26.6002 111.399 26.3002 111.399 26.0002Z" fill="#333A4D"/>
<path d="M59.6994 9.2002H68.9994C69.3994 9.2002 69.7994 9.6002 69.7994 10.0002V13.0002C69.7994 13.3002 69.4994 13.6002 69.1994 13.6002H61.7994C61.4994 13.6002 61.1994 13.9002 61.1994 14.2002V30.3002C61.1994 30.6002 60.8994 30.9002 60.5994 30.9002H57.4994C57.1994 30.9002 56.8994 30.6002 56.8994 30.3002V13.4002C56.8994 13.1002 57.1994 12.8002 57.4994 12.8002H58.4994C58.7994 12.8002 59.0994 12.5002 59.0994 12.2002V9.8002C59.0994 9.5002 59.3994 9.2002 59.6994 9.2002Z" fill="#333A4D"/>
<path d="M158.8 27.4002L155.5 30.6002C155.4 30.7002 155.2 30.8002 155.1 30.8002H142.3C142 30.8002 141.7 30.5002 141.7 30.2002V27.8002C141.7 27.5002 141.4 27.2002 141.1 27.2002H140.1C139.8 27.2002 139.5 26.9002 139.5 26.6002V2.8002C139.5 2.5002 139.8 2.2002 140.1 2.2002H143.2C143.5 2.2002 143.8 2.5002 143.8 2.8002V8.5002C143.8 8.8002 144.1 9.1002 144.4 9.1002H156.2C156.5 9.1002 156.8 9.4002 156.8 9.7002V12.0002C156.8 12.3002 157.1 12.6002 157.4 12.6002H158.4C158.7 12.6002 159 12.9002 159 13.2002V26.9002C159 27.2002 158.9 27.3002 158.8 27.4002ZM154.7 25.9002V14.2002C154.7 13.9002 154.4 13.6002 154.1 13.6002H144.5C144.2 13.6002 143.9 13.9002 143.9 14.2002V26.0002C143.9 26.3002 144.2 26.6002 144.5 26.6002H154.1C154.4 26.5002 154.7 26.3002 154.7 25.9002Z" fill="#333A4D"/>
<path d="M135.1 6.5002H131.6C131.4 6.5002 131.2 6.3002 131.2 6.1002V2.6002C131.2 2.4002 131.4 2.2002 131.6 2.2002H135.1C135.3 2.2002 135.5 2.4002 135.5 2.6002V6.1002C135.5 6.3002 135.3 6.5002 135.1 6.5002ZM135.1 30.9002H131.6C131.4 30.9002 131.2 30.7002 131.2 30.5002V9.6002C131.2 9.4002 131.4 9.2002 131.6 9.2002H135.1C135.3 9.2002 135.5 9.4002 135.5 9.6002V30.5002C135.5 30.7002 135.3 30.9002 135.1 30.9002Z" fill="#333A4D"/>
<path d="M127.5 27.1002V30.2002C127.5 30.5002 127.2 30.8002 126.9 30.8002H122C121.7 30.8002 121.4 30.5002 121.4 30.2002V27.9002C121.4 27.6002 121.1 27.3002 120.8 27.3002H119.9C119.6 27.3002 119.3 27.0002 119.3 26.7002V2.8002C119.3 2.5002 119.6 2.2002 119.9 2.2002H123.1C123.4 2.2002 123.7 2.5002 123.7 2.8002L123.6 25.9002C123.6 26.2002 123.9 26.5002 124.2 26.5002H127C127.2 26.5002 127.5 26.8002 127.5 27.1002Z" fill="#333A4D"/>
<path d="M24.0998 21.0003H25.7998C25.8998 21.0003 25.8998 20.9003 25.8998 20.9003V19.4003C25.8998 19.3003 25.9998 19.3003 25.9998 19.3003H27.5998C27.6998 19.3003 27.6998 19.2003 27.6998 19.2003V17.5003C27.6998 17.4003 27.5998 17.4003 27.5998 17.4003H26.0998C25.9998 17.4003 25.9998 17.3003 25.9998 17.3003V11.7003C25.9998 11.6003 25.8998 11.6003 25.8998 11.6003H23.9998C23.8998 11.6003 23.8998 11.7003 23.8998 11.7003V15.0003C23.8998 15.1003 23.7998 15.1003 23.7998 15.1003H22.1998C22.0998 15.1003 22.0998 15.0003 22.0998 15.0003V11.4003C22.0998 11.3003 22.1998 11.3003 22.1998 11.3003H23.4998C23.5998 11.3003 23.5998 11.2003 23.5998 11.2003V9.50029C23.5998 9.40029 23.4998 9.40029 23.4998 9.40029H20.1998C20.0998 9.40029 20.0998 9.50029 20.0998 9.50029V11.0003C20.0998 11.1003 19.9998 11.1003 19.9998 11.1003H18.2998C18.1998 11.1003 18.1998 11.2003 18.1998 11.2003V15.0003C18.1998 15.1003 18.0998 15.1003 18.0998 15.1003H16.3998C16.2998 15.1003 16.2998 15.0003 16.2998 15.0003V11.4003C16.2998 11.3003 16.3998 11.3003 16.3998 11.3003H17.7998C17.8998 11.3003 17.8998 11.2003 17.8998 11.2003V9.40029C17.8998 9.30029 17.7998 9.30029 17.7998 9.30029H14.3998C14.2998 9.30029 14.2998 9.40029 14.2998 9.40029V10.9003C14.2998 11.0003 14.1998 11.0003 14.1998 11.0003H12.4998C12.3998 11.0003 12.3998 11.1003 12.3998 11.1003V15.0003C12.3998 15.1003 12.2998 15.1003 12.2998 15.1003H8.2998C8.1998 15.1003 8.1998 15.2003 8.1998 15.2003V16.8003C8.0998 16.9003 8.0998 17.0003 7.9998 17.0003H6.2998C6.1998 17.0003 6.1998 17.1003 6.1998 17.1003V18.9003C6.1998 19.0003 6.0998 19.0003 6.0998 19.0003H4.3998C4.2998 19.0003 4.2998 19.1003 4.2998 19.1003V21.0003C4.2998 21.1003 4.1998 21.1003 4.1998 21.1003H2.3998C2.2998 21.1003 2.2998 21.2003 2.2998 21.2003V22.8003C2.2998 23.0003 2.1998 23.0003 2.1998 23.0003H0.399805C0.299805 23.0003 0.299805 23.1003 0.299805 23.1003V28.7003C0.299805 28.8003 0.399805 28.8003 0.399805 28.8003H2.0998C2.1998 28.8003 2.1998 28.9003 2.1998 28.9003V30.3003C2.1998 30.4003 2.2998 30.4003 2.2998 30.4003H11.6998C11.7998 30.4003 11.7998 30.3003 11.7998 30.3003V29.0003C11.7998 28.9003 11.8998 28.9003 11.8998 28.9003H13.6998C13.7998 28.9003 13.7998 29.0003 13.7998 29.0003V30.5003C13.7998 30.6003 13.8998 30.6003 13.8998 30.6003H17.3998C17.4998 30.6003 17.4998 30.5003 17.4998 30.5003V27.0003C17.4998 26.9003 17.3998 26.9003 17.3998 26.9003H13.8998C13.7998 26.9003 13.7998 26.8003 13.7998 26.8003V23.2003C13.7998 23.1003 13.8998 23.1003 13.8998 23.1003H15.4998C15.5998 23.1003 15.5998 23.0003 15.5998 23.0003V19.4003C15.5998 19.3003 15.6998 19.3003 15.6998 19.3003H23.5998C23.6998 19.3003 23.6998 19.4003 23.6998 19.4003V20.9003C23.8998 20.9003 23.9998 21.0003 24.0998 21.0003Z" fill="#378FF6"/>
<path d="M21.8998 28.4004C21.8998 28.7004 22.0998 28.9004 22.3998 28.9004H23.6998C23.7998 28.9004 23.7998 29.0004 23.7998 29.0004V30.6004C23.7998 30.7004 23.6998 30.7004 23.6998 30.7004H20.1998C20.0998 30.7004 20.0998 30.6004 20.0998 30.6004V27.3004C20.0998 27.2004 19.9998 27.2004 19.9998 27.2004H18.3998C18.2998 27.2004 18.2998 27.1004 18.2998 27.1004V25.4004C18.2998 25.3004 18.3998 25.3004 18.3998 25.3004H19.9998C20.0998 25.3004 20.0998 25.2004 20.0998 25.2004V23.5004C20.0998 23.4004 20.1998 23.4004 20.1998 23.4004C20.4998 23.4004 21.3998 23.4004 21.7998 23.4004C21.8998 23.4004 21.8998 23.5004 21.8998 23.5004C21.8998 24.0004 21.8998 27.2004 21.8998 28.4004Z" fill="#378FF6"/>
<path d="M22.0996 21.3002V22.7002C22.0996 22.8002 22.1996 22.8002 22.1996 22.8002H23.5996C23.6996 22.8002 23.6996 22.7002 23.6996 22.7002V21.3002C23.6996 21.2002 23.5996 21.2002 23.5996 21.2002H22.1996L22.0996 21.3002Z" fill="#378FF6"/>
</svg>
