<svg xmlns="http://www.w3.org/2000/svg" width="202" height="48" viewBox="0 0 202 48">
    <g fill="none" fill-rule="evenodd">
        <path fill="#EB2316" d="M52.842 33.997L52.842 14.875 68.366 14.875 68.366 33.997 64.574 33.997 64.574 18.53 56.633 18.53 56.633 33.997zM79.458 22.978h-2.152c-1.793 0-2.69.64-2.69 1.892 0 1.227.872 1.84 2.614 1.84.769 0 1.511-.05 2.228-.178v-3.554zm3.51-2.914v13.932h-3.51v-4.834c-.68.124-1.4.287-2.27.312l-2.905 4.522h-3.945l3.47-5.014c-1.82-.767-2.778-2.092-2.778-4.163 0-2.838 2.074-4.755 6.174-4.755h5.764zM106.69 21.24c1.075 1.048 1.613 2.48 1.613 4.346v8.41h-3.611V26.25c0-2.121-1.127-3.246-2.793-3.246-1.82 0-3.074 1.304-3.074 3.349v7.644h-3.612v-7.72c0-2.071-1.102-3.273-2.818-3.273-1.767 0-3.048 1.304-3.048 3.375v7.618h-3.612V20.064h3.535v1.994c.794-1.457 2.433-2.402 4.252-2.377 1.742 0 3.356.844 4.099 2.454 1.025-1.534 2.92-2.454 4.995-2.454 1.666 0 3.023.51 4.074 1.56M136.586 29.88c.717-.767 1.076-1.712 1.076-2.836 0-1.126-.359-2.071-1.076-2.839-.717-.766-1.64-1.15-2.792-1.15-1.127 0-2.05.384-2.766 1.15-.718.768-1.077 1.713-1.077 2.839 0 1.124.36 2.07 1.077 2.837.717.767 1.639 1.15 2.766 1.15 1.152 0 2.075-.383 2.792-1.15m2.767-8.053c1.306 1.406 1.947 3.145 1.947 5.19 0 2.045-.666 3.783-1.973 5.19-1.306 1.405-2.945 2.12-4.919 2.12-1.715 0-3.299-.748-4.38-2.072v7.467h-3.612V20.064h3.586v1.828c1.147-1.428 2.665-2.185 4.432-2.185 1.973 0 3.612.715 4.919 2.121M150.087 31.006c1.101 0 1.998-.384 2.74-1.151.744-.792 1.128-1.738 1.128-2.837 0-1.1-.384-2.045-1.127-2.812-.743-.767-1.64-1.15-2.741-1.15-1.102 0-2.024.383-2.767 1.15-.742.767-1.101 1.713-1.101 2.812 0 1.099.359 2.045 1.101 2.837.743.767 1.665 1.15 2.767 1.15m-5.38-9.177c1.41-1.432 3.203-2.147 5.38-2.147s3.97.715 5.38 2.147c1.408 1.406 2.1 3.145 2.1 5.19 0 2.07-.692 3.809-2.1 5.215-1.41 1.405-3.203 2.122-5.38 2.122s-3.97-.717-5.38-2.122c-1.409-1.406-2.1-3.144-2.1-5.215 0-2.045.691-3.784 2.1-5.19M167.737 20.064h3.613v13.933h-3.613v-4.69c-1.057.603-2.202.906-3.1.906-1.664 0-2.894-.307-3.996-1.048-1.1-.792-1.715-2.275-1.715-4.423v-4.678h3.586v4.423c0 1.636.845 2.454 2.536 2.454.948 0 1.756-.132 2.69-.505v-6.372zM183.288 33.997L177.729 27.563 177.729 33.997 174.117 33.997 174.117 20.043 177.729 20.043 177.729 25.571 182.801 20.064 187.361 20.064 181.136 26.517 187.72 33.997z"/>
        <path fill="#EB2316" d="M197.237 24.18c-.743-.793-1.666-1.176-2.793-1.176-1.152 0-2.075.383-2.818 1.176-.717.793-1.076 1.738-1.076 2.837 0 1.125.359 2.071 1.102 2.864.743.792 1.665 1.175 2.792 1.175 1.127 0 2.05-.383 2.793-1.175.742-.793 1.127-1.739 1.127-2.864 0-1.099-.385-2.044-1.127-2.837zm1.076-4.116h3.432v13.932h-3.432v-1.84c-1.2 1.452-2.69 2.173-4.458 2.173-1.998 0-3.663-.69-4.97-2.096-1.306-1.406-1.946-3.17-1.946-5.266 0-2.097.666-3.835 1.972-5.19 1.307-1.38 2.972-2.07 4.944-2.07 1.742 0 3.279.79 4.458 2.184v-1.827zM118.295 16.562c0-1.201.948-2.096 2.177-2.096 1.204 0 2.127.946 2.127 2.096 0 1.253-.923 2.173-2.127 2.173-1.229 0-2.177-.92-2.177-2.173m-4.457 9.05h7.096c-.333-1.816-1.64-2.914-3.484-2.914-1.82 0-3.177 1.098-3.612 2.913m1.05-11.145c1.204 0 2.152.946 2.152 2.096 0 1.253-.922 2.173-2.152 2.173s-2.152-.92-2.152-2.173c0-1.15.948-2.096 2.152-2.096m9.427 13.83h-10.477c.512 1.968 1.87 2.965 4.073 2.965 1.511 0 3.194-.565 4.47-1.575l1.454 2.283c-1.763 1.647-3.772 2.334-6.078 2.334-2.46 0-4.33-.715-5.636-2.121-1.306-1.406-1.947-3.145-1.947-5.164 0-2.122.666-3.86 2.024-5.24 1.358-1.381 3.1-2.072 5.252-2.072 2.024 0 3.714.639 5.02 1.892 1.307 1.253 1.973 2.94 1.973 5.112 0 .486-.05 1.024-.128 1.586"/>
        <path fill="#FFF" d="M23.545 0C10.562 0 0 10.562 0 23.545 0 36.528 10.562 47.09 23.545 47.09c12.982 0 23.545-10.562 23.545-23.545C47.09 10.562 36.527 0 23.545 0"/>
        <path fill="#008F32" d="M35.427 6.657c-1.797 4.609-5.888 5.568-11.814 5.568-.636 0-1.266-.01-1.874-.019-.588-.008-1.144-.017-1.689-.017-.484 0-.972.006-1.453.027.83-2.038 2.155-3.423 4.041-4.263 2.629-1.17 6.047-1.182 9.063-1.191 1.314-.005 2.572-.01 3.726-.105"/>
        <path fill="#EB2316" d="M37.273 8.136c-2.658 5.79-8.582 6.37-13.66 6.37-1.115 0-2.183-.027-3.172-.033l-1.279 5.002c6.55-5.34 15.212-.046 14.286 8.012-.624 5.427-4.493 8.976-8.586 9.996-4.459 1.112-9.399-.552-11.614-5.096-.235-.48-.644-1.442-.8-1.956l4.702-1.208c.083.271.224.533.372.772 3.148 5.077 9.527 2.538 10.247-2.729.733-5.358-6.785-8.212-10.211-1.95l-4.17-1.777-.072-.032 2.011-8.073c.124-.574.542-2.177.614-2.44 2.273-8.358 9.626-8.49 15.524-8.512-2.439-1.015-5.113-1.577-7.92-1.577-11.4 0-20.64 9.24-20.64 20.64s9.24 20.64 20.64 20.64 20.64-9.24 20.64-20.64c0-6.128-2.672-11.629-6.912-15.409"/>
    </g>
</svg>
